<?xml version="1.0" encoding="UTF-8" standalone="no"?>
<!DOCTYPE svg PUBLIC "-//W3C//DTD SVG 1.1//EN"
 "http://www.w3.org/Graphics/SVG/1.1/DTD/svg11.dtd">
<!-- Generated by graphviz version 9.0.0 (20230911.1827)
 -->
<!-- Title: Dino_GenVertices_Text Pages: 1 -->
<svg width="869pt" height="90pt"
 viewBox="0.00 0.00 869.00 90.27" xmlns="http://www.w3.org/2000/svg" xmlns:xlink="http://www.w3.org/1999/xlink">
<g id="graph0" class="graph" transform="scale(1 1) rotate(0) translate(4 86.27)">
<title>Dino_GenVertices_Text</title>
<!-- Node1 -->
<g id="Node000001" class="node">
<title>Node1</title>
<g id="a_Node000001"><a xlink:title="Produit un dessin contenant du texte, avec éventuellement une couleur de fond. Les sommets doivent êt...">
<polygon fill="#999999" stroke="#666666" points="861,-44.27 742.25,-44.27 742.25,-25.02 861,-25.02 861,-44.27"/>
<text text-anchor="middle" x="801.62" y="-30.77" font-family="Helvetica,sans-Serif" font-size="10.00">Dino_GenVertices_Text</text>
</a>
</g>
</g>
<!-- Node2 -->
<g id="Node000002" class="node">
<title>Node2</title>
<g id="a_Node000002"><a xlink:href="dino__game_8cpp.html#ac7b7408f18b3729af2f6e7f405f238e7" target="_top" xlink:title="Appelé pour générer chaque frame. Doit lireles entrées de jeu avec XDino_GetGamepad(),...">
<polygon fill="white" stroke="#666666" points="697.62,-26.27 602.88,-26.27 602.88,-7.02 697.62,-7.02 697.62,-26.27"/>
<text text-anchor="middle" x="650.25" y="-12.77" font-family="Helvetica,sans-Serif" font-size="10.00">Dino_GameFrame</text>
</a>
</g>
</g>
<!-- Node1&#45;&gt;Node2 -->
<g id="edge1_Node000001_Node000002" class="edge">
<title>Node1&#45;&gt;Node2</title>
<g id="a_edge1_Node000001_Node000002"><a xlink:title=" ">
<path fill="none" stroke="#63b8ff" d="M730.86,-26.23C719.61,-24.88 708.21,-23.5 697.69,-22.24"/>
<polygon fill="#63b8ff" stroke="#63b8ff" points="730.17,-29.67 740.51,-27.4 731,-22.73 730.17,-29.67"/>
</a>
</g>
</g>
<!-- Node8 -->
<g id="Node000008" class="node">
<title>Node8</title>
<g id="a_Node000008"><a xlink:href="xdino__impl_8h.html#afb7598b07900a9b7f46de9fae53de8a0" target="_top" xlink:title="Trucs communs entre les différentes implémentations de l&#39;API XDino. En général, cela concerne le debu...">
<polygon fill="white" stroke="#666666" points="706.25,-63.27 594.25,-63.27 594.25,-44.02 706.25,-44.02 706.25,-63.27"/>
<text text-anchor="middle" x="650.25" y="-49.77" font-family="Helvetica,sans-Serif" font-size="10.00">XDinoImpl_DrawStats</text>
</a>
</g>
</g>
<!-- Node1&#45;&gt;Node8 -->
<g id="edge7_Node000001_Node000008" class="edge">
<title>Node1&#45;&gt;Node8</title>
<g id="a_edge7_Node000001_Node000008"><a xlink:title=" ">
<path fill="none" stroke="#63b8ff" d="M730.86,-43.51C722.61,-44.56 714.28,-45.62 706.28,-46.64"/>
<polygon fill="#63b8ff" stroke="#63b8ff" points="731.04,-47.02 740.52,-42.29 730.15,-40.08 731.04,-47.02"/>
</a>
</g>
</g>
<!-- Node3 -->
<g id="Node000003" class="node">
<title>Node3</title>
<g id="a_Node000003"><a xlink:href="xdino__linux__main_8cpp.html#a23ab8c2bbf03b45563425c6f39f83e8e" target="_top" xlink:title=" ">
<polygon fill="white" stroke="#666666" points="550.75,-45.27 447,-45.27 447,-26.02 550.75,-26.02 550.75,-45.27"/>
<text text-anchor="middle" x="498.88" y="-31.77" font-family="Helvetica,sans-Serif" font-size="10.00">XDino_Linux_Frame</text>
</a>
</g>
</g>
<!-- Node2&#45;&gt;Node3 -->
<g id="edge2_Node000002_Node000003" class="edge">
<title>Node2&#45;&gt;Node3</title>
<g id="a_edge2_Node000002_Node000003"><a xlink:title=" ">
<path fill="none" stroke="#63b8ff" d="M591.07,-24.04C577.93,-25.71 564.07,-27.47 551.23,-29.11"/>
<polygon fill="#63b8ff" stroke="#63b8ff" points="591.42,-27.52 600.9,-22.79 590.53,-20.58 591.42,-27.52"/>
</a>
</g>
</g>
<!-- Node5 -->
<g id="Node000005" class="node">
<title>Node5</title>
<g id="a_Node000005"><a xlink:href="xdino__win64__main_8cpp.html#afa07de294d5b620ee39644b9661f0665" target="_top" xlink:title=" ">
<polygon fill="white" stroke="#666666" points="403.5,-82.27 268.25,-82.27 268.25,-63.02 403.5,-63.02 403.5,-82.27"/>
<text text-anchor="middle" x="335.88" y="-68.77" font-family="Helvetica,sans-Serif" font-size="10.00">XDino_Win64_HandleEvent</text>
</a>
</g>
</g>
<!-- Node2&#45;&gt;Node5 -->
<g id="edge4_Node000002_Node000005" class="edge">
<title>Node2&#45;&gt;Node5</title>
<g id="a_edge4_Node000002_Node000005"><a xlink:title=" ">
<path fill="none" stroke="#63b8ff" d="M592.12,-4.82C548.5,1.47 487.86,4.16 439.5,-16.64 418.13,-25.83 423.48,-42.72 403.5,-54.64 398.25,-57.77 392.45,-60.37 386.53,-62.52"/>
<polygon fill="#63b8ff" stroke="#63b8ff" points="591.47,-8.26 601.89,-6.34 592.55,-1.34 591.47,-8.26"/>
</a>
</g>
</g>
<!-- Node4 -->
<g id="Node000004" class="node">
<title>Node4</title>
<g id="a_Node000004"><a xlink:href="xdino__linux__main_8cpp.html#a4646b314f2ba6df59c9b1805dd568b18" target="_top" xlink:title=" ">
<polygon fill="white" stroke="#666666" points="368.62,-45.27 303.12,-45.27 303.12,-26.02 368.62,-26.02 368.62,-45.27"/>
<text text-anchor="middle" x="335.88" y="-31.77" font-family="Helvetica,sans-Serif" font-size="10.00">sokol_main</text>
</a>
</g>
</g>
<!-- Node3&#45;&gt;Node4 -->
<g id="edge3_Node000003_Node000004" class="edge">
<title>Node3&#45;&gt;Node4</title>
<g id="a_edge3_Node000003_Node000004"><a xlink:title=" ">
<path fill="none" stroke="#63b8ff" d="M435.58,-35.64C412.75,-35.64 387.85,-35.64 368.78,-35.64"/>
<polygon fill="#63b8ff" stroke="#63b8ff" points="435.42,-39.14 445.42,-35.64 435.42,-32.14 435.42,-39.14"/>
</a>
</g>
</g>
<!-- Node6 -->
<g id="Node000006" class="node">
<title>Node6</title>
<g id="a_Node000006"><a xlink:href="xdino__win64__main_8cpp.html#a7202590da16f97f4cef692deb9001e27" target="_top" xlink:title=" ">
<polygon fill="white" stroke="#666666" points="232.25,-82.27 89.5,-82.27 89.5,-63.02 232.25,-63.02 232.25,-82.27"/>
<text text-anchor="middle" x="160.88" y="-68.77" font-family="Helvetica,sans-Serif" font-size="10.00">XDino_Win64_CreateWindow</text>
</a>
</g>
</g>
<!-- Node5&#45;&gt;Node6 -->
<g id="edge5_Node000005_Node000006" class="edge">
<title>Node5&#45;&gt;Node6</title>
<g id="a_edge5_Node000005_Node000006"><a xlink:title=" ">
<path fill="none" stroke="#63b8ff" d="M256.72,-72.64C248.68,-72.64 240.54,-72.64 232.59,-72.64"/>
<polygon fill="#63b8ff" stroke="#63b8ff" points="256.48,-76.14 266.48,-72.64 256.48,-69.14 256.48,-76.14"/>
</a>
</g>
</g>
<!-- Node7 -->
<g id="Node000007" class="node">
<title>Node7</title>
<g id="a_Node000007"><a xlink:href="xdino__win64__main_8cpp.html#aa0e1ecfaa9e7f124f36e8666a1cb66f9" target="_top" xlink:title=" ">
<polygon fill="white" stroke="#666666" points="53.5,-82.27 0,-82.27 0,-63.02 53.5,-63.02 53.5,-82.27"/>
<text text-anchor="middle" x="26.75" y="-68.77" font-family="Helvetica,sans-Serif" font-size="10.00">WinMain</text>
</a>
</g>
</g>
<!-- Node6&#45;&gt;Node7 -->
<g id="edge6_Node000006_Node000007" class="edge">
<title>Node6&#45;&gt;Node7</title>
<g id="a_edge6_Node000006_Node000007"><a xlink:title=" ">
<path fill="none" stroke="#63b8ff" d="M77.73,-72.64C69.16,-72.64 60.98,-72.64 53.8,-72.64"/>
<polygon fill="#63b8ff" stroke="#63b8ff" points="77.66,-76.14 87.66,-72.64 77.66,-69.14 77.66,-76.14"/>
</a>
</g>
</g>
<!-- Node8&#45;&gt;Node3 -->
<g id="edge8_Node000008_Node000003" class="edge">
<title>Node8&#45;&gt;Node3</title>
<g id="a_edge8_Node000008_Node000003"><a xlink:title=" ">
<path fill="none" stroke="#63b8ff" d="M582.62,-45.61C571.97,-44.33 561.1,-43.02 550.89,-41.79"/>
<polygon fill="#63b8ff" stroke="#63b8ff" points="582.2,-49.09 592.55,-46.81 583.04,-42.14 582.2,-49.09"/>
</a>
</g>
</g>
<!-- Node9 -->
<g id="Node000009" class="node">
<title>Node9</title>
<g id="a_Node000009"><a xlink:href="xdino__win64__rdr_8cpp.html#ad13ae3c31e66f2cdf34b75465d4bac17" target="_top" xlink:title="Spécifique à la plateforme. Finit la passe de rendu et envoit le travail à la carte graphique.">
<polygon fill="white" stroke="#666666" points="558.25,-82.27 439.5,-82.27 439.5,-63.02 558.25,-63.02 558.25,-82.27"/>
<text text-anchor="middle" x="498.88" y="-68.77" font-family="Helvetica,sans-Serif" font-size="10.00">XDino_Win64_EndDraw</text>
</a>
</g>
</g>
<!-- Node8&#45;&gt;Node9 -->
<g id="edge9_Node000008_Node000009" class="edge">
<title>Node8&#45;&gt;Node9</title>
<g id="a_edge9_Node000008_Node000009"><a xlink:title=" ">
<path fill="none" stroke="#63b8ff" d="M582.79,-62.09C574.73,-63.12 566.54,-64.16 558.6,-65.17"/>
<polygon fill="#63b8ff" stroke="#63b8ff" points="583.07,-65.59 592.55,-60.85 582.19,-58.64 583.07,-65.59"/>
</a>
</g>
</g>
<!-- Node9&#45;&gt;Node5 -->
<g id="edge10_Node000009_Node000005" class="edge">
<title>Node9&#45;&gt;Node5</title>
<g id="a_edge10_Node000009_Node000005"><a xlink:title=" ">
<path fill="none" stroke="#63b8ff" d="M427.79,-72.64C419.85,-72.64 411.77,-72.64 403.87,-72.64"/>
<polygon fill="#63b8ff" stroke="#63b8ff" points="427.78,-76.14 437.78,-72.64 427.78,-69.14 427.78,-76.14"/>
</a>
</g>
</g>
</g>
</svg>
