<?xml version="1.0" encoding="UTF-8" standalone="no"?>
<!DOCTYPE svg PUBLIC "-//W3C//DTD SVG 1.1//EN"
 "http://www.w3.org/Graphics/SVG/1.1/DTD/svg11.dtd">
<!-- Generated by graphviz version 9.0.0 (20230911.1827)
 -->
<!-- Title: dino_draw_utils.h Pages: 1 -->
<svg width="413pt" height="138pt"
 viewBox="0.00 0.00 412.62 137.75" xmlns="http://www.w3.org/2000/svg" xmlns:xlink="http://www.w3.org/1999/xlink">
<g id="graph0" class="graph" transform="scale(1 1) rotate(0) translate(4 133.75)">
<title>dino_draw_utils.h</title>
<!-- Node1 -->
<g id="Node000001" class="node">
<title>Node1</title>
<g id="a_Node000001"><a xlink:title="Fonctions pour dessiner des primitives de rendu.">
<polygon fill="#999999" stroke="#666666" points="239.25,-129.75 148.25,-129.75 148.25,-110.5 239.25,-110.5 239.25,-129.75"/>
<text text-anchor="middle" x="193.75" y="-116.25" font-family="Helvetica,sans-Serif" font-size="10.00">dino_draw_utils.h</text>
</a>
</g>
</g>
<!-- Node2 -->
<g id="Node000002" class="node">
<title>Node2</title>
<g id="a_Node000002"><a xlink:href="dino__draw__utils_8cpp.html" target="_top" xlink:title=" ">
<polygon fill="white" stroke="#666666" points="101.5,-74.5 0,-74.5 0,-55.25 101.5,-55.25 101.5,-74.5"/>
<text text-anchor="middle" x="50.75" y="-61" font-family="Helvetica,sans-Serif" font-size="10.00">dino_draw_utils.cpp</text>
</a>
</g>
</g>
<!-- Node1&#45;&gt;Node2 -->
<g id="edge1_Node000001_Node000002" class="edge">
<title>Node1&#45;&gt;Node2</title>
<g id="a_edge1_Node000001_Node000002"><a xlink:title=" ">
<path fill="none" stroke="#63b8ff" d="M158.97,-106.17C133,-96.5 98.18,-83.54 75.13,-74.95"/>
<polygon fill="#63b8ff" stroke="#63b8ff" points="157.48,-109.35 168.07,-109.56 159.92,-102.79 157.48,-109.35"/>
</a>
</g>
</g>
<!-- Node3 -->
<g id="Node000003" class="node">
<title>Node3</title>
<g id="a_Node000003"><a xlink:href="dino__game_8cpp.html" target="_top" xlink:title="Implémentation des fonctions principales de la logique de jeu.">
<polygon fill="white" stroke="#666666" points="200.38,-74.5 119.12,-74.5 119.12,-55.25 200.38,-55.25 200.38,-74.5"/>
<text text-anchor="middle" x="159.75" y="-61" font-family="Helvetica,sans-Serif" font-size="10.00">dino_game.cpp</text>
</a>
</g>
</g>
<!-- Node1&#45;&gt;Node3 -->
<g id="edge2_Node000001_Node000003" class="edge">
<title>Node1&#45;&gt;Node3</title>
<g id="a_edge2_Node000001_Node000003"><a xlink:title=" ">
<path fill="none" stroke="#63b8ff" d="M182.12,-100.9C176.5,-92.11 170.02,-81.96 165.49,-74.86"/>
<polygon fill="#63b8ff" stroke="#63b8ff" points="178.99,-102.51 187.32,-109.06 184.89,-98.74 178.99,-102.51"/>
</a>
</g>
</g>
<!-- Node4 -->
<g id="Node000004" class="node">
<title>Node4</title>
<g id="a_Node000004"><a xlink:href="xdino__impl_8h.html" target="_top" xlink:title=" ">
<polygon fill="white" stroke="#666666" points="326.38,-74.5 257.12,-74.5 257.12,-55.25 326.38,-55.25 326.38,-74.5"/>
<text text-anchor="middle" x="291.75" y="-61" font-family="Helvetica,sans-Serif" font-size="10.00">xdino_impl.h</text>
</a>
</g>
</g>
<!-- Node1&#45;&gt;Node4 -->
<g id="edge3_Node000001_Node000004" class="edge">
<title>Node1&#45;&gt;Node4</title>
<g id="a_edge3_Node000001_Node000004"><a xlink:title=" ">
<path fill="none" stroke="#63b8ff" d="M220,-104.86C237.49,-95.36 259.95,-83.15 275.04,-74.95"/>
<polygon fill="#63b8ff" stroke="#63b8ff" points="218.82,-101.52 211.7,-109.37 222.16,-107.67 218.82,-101.52"/>
</a>
</g>
</g>
<!-- Node5 -->
<g id="Node000005" class="node">
<title>Node5</title>
<g id="a_Node000005"><a xlink:href="xdino__linux__main_8cpp.html" target="_top" xlink:title=" ">
<polygon fill="white" stroke="#666666" points="282.5,-19.25 175,-19.25 175,0 282.5,0 282.5,-19.25"/>
<text text-anchor="middle" x="228.75" y="-5.75" font-family="Helvetica,sans-Serif" font-size="10.00">xdino_linux_main.cpp</text>
</a>
</g>
</g>
<!-- Node1&#45;&gt;Node5 -->
<g id="edge6_Node000001_Node000005" class="edge">
<title>Node1&#45;&gt;Node5</title>
<g id="a_edge6_Node000001_Node000005"><a xlink:title=" ">
<path fill="none" stroke="#63b8ff" d="M200.97,-99.71C203.81,-91.91 207.03,-82.81 209.75,-74.5 216.16,-54.93 222.84,-31.69 226.32,-19.35"/>
<polygon fill="#63b8ff" stroke="#63b8ff" points="197.77,-98.27 197.61,-108.86 204.34,-100.69 197.77,-98.27"/>
</a>
</g>
</g>
<!-- Node4&#45;&gt;Node5 -->
<g id="edge4_Node000004_Node000005" class="edge">
<title>Node4&#45;&gt;Node5</title>
<g id="a_edge4_Node000004_Node000005"><a xlink:title=" ">
<path fill="none" stroke="#63b8ff" d="M272.57,-47.66C261.63,-38.42 248.34,-27.18 239.28,-19.52"/>
<polygon fill="#63b8ff" stroke="#63b8ff" points="270.01,-50.08 279.91,-53.86 274.53,-44.74 270.01,-50.08"/>
</a>
</g>
</g>
<!-- Node6 -->
<g id="Node000006" class="node">
<title>Node6</title>
<g id="a_Node000006"><a xlink:href="xdino__win64__rdr_8cpp.html" target="_top" xlink:title="Implémentation du rendu graphique sur Windows.">
<polygon fill="white" stroke="#666666" points="404.62,-19.25 300.88,-19.25 300.88,0 404.62,0 404.62,-19.25"/>
<text text-anchor="middle" x="352.75" y="-5.75" font-family="Helvetica,sans-Serif" font-size="10.00">xdino_win64_rdr.cpp</text>
</a>
</g>
</g>
<!-- Node4&#45;&gt;Node6 -->
<g id="edge5_Node000004_Node000006" class="edge">
<title>Node4&#45;&gt;Node6</title>
<g id="a_edge5_Node000004_Node000006"><a xlink:title=" ">
<path fill="none" stroke="#63b8ff" d="M310.64,-47.39C321.17,-38.19 333.87,-27.1 342.56,-19.52"/>
<polygon fill="#63b8ff" stroke="#63b8ff" points="308.47,-44.63 303.24,-53.85 313.07,-49.91 308.47,-44.63"/>
</a>
</g>
</g>
</g>
</svg>
