<?xml version="1.0" encoding="UTF-8" standalone="no"?>
<!DOCTYPE svg PUBLIC "-//W3C//DTD SVG 1.1//EN"
 "http://www.w3.org/Graphics/SVG/1.1/DTD/svg11.dtd">
<!-- Generated by graphviz version 9.0.0 (20230911.1827)
 -->
<!-- Title: dino_draw_utils.h Pages: 1 -->
<svg width="266pt" height="138pt"
 viewBox="0.00 0.00 265.50 137.75" xmlns="http://www.w3.org/2000/svg" xmlns:xlink="http://www.w3.org/1999/xlink">

<svg id="main" version="1.1" xmlns="http://www.w3.org/2000/svg" xmlns:xlink="http://www.w3.org/1999/xlink" xml:space="preserve" onload="init(evt)">
<style type="text/css"><![CDATA[
.node, .edge {opacity: 0.7;}
.node.selected, .edge.selected {opacity: 1;}
.edge:hover path { stroke: red; }
.edge:hover polygon { stroke: red; fill: red; }
]]></style>
<script type="application/ecmascript" xlink:href="svg.min.js"/>
<svg id="graph" class="graph">
<g id="graph0" class="graph" transform="scale(1 1) rotate(0) translate(4 133.75)">
<title>dino_draw_utils.h</title>
<!-- Node1 -->
<g id="Node000001" class="node">
<title>Node1</title>
<g id="a_Node000001"><a xlink:title="Fonctions pour dessiner des primitives de rendu.">
<polygon fill="#999999" stroke="#666666" points="201.25,-129.75 110.25,-129.75 110.25,-110.5 201.25,-110.5 201.25,-129.75"/>
<text text-anchor="middle" x="155.75" y="-116.25" font-family="Helvetica,sans-Serif" font-size="10.00">dino_draw_utils.h</text>
</a>
</g>
</g>
<!-- Node2 -->
<g id="Node000002" class="node">
<title>Node2</title>
<g id="a_Node000002"><a xlink:href="xdino_8h.html" target="_top" xlink:title="API d&#39;interaction entre le moteur de jeu &quot;XDino&quot; et la logique de jeu.">
<polygon fill="white" stroke="#666666" points="119.25,-74.5 52.25,-74.5 52.25,-55.25 119.25,-55.25 119.25,-74.5"/>
<text text-anchor="middle" x="85.75" y="-61" font-family="Helvetica,sans-Serif" font-size="10.00">dino/xdino.h</text>
</a>
</g>
</g>
<!-- Node1&#45;&gt;Node2 -->
<g id="edge1_Node000001_Node000002" class="edge">
<title>Node1&#45;&gt;Node2</title>
<g id="a_edge1_Node000001_Node000002"><a xlink:title=" ">
<path fill="none" stroke="#63b8ff" d="M143.88,-110.09C133.66,-102.32 118.68,-90.92 106.49,-81.65"/>
<polygon fill="#63b8ff" stroke="#63b8ff" points="108.73,-78.96 98.65,-75.69 104.49,-84.53 108.73,-78.96"/>
</a>
</g>
</g>
<!-- Node6 -->
<g id="Node000006" class="node">
<title>Node6</title>
<g id="a_Node000006"><a xlink:title=" ">
<polygon fill="#e0e0e0" stroke="#999999" points="174.25,-74.5 137.25,-74.5 137.25,-55.25 174.25,-55.25 174.25,-74.5"/>
<text text-anchor="middle" x="155.75" y="-61" font-family="Helvetica,sans-Serif" font-size="10.00">span</text>
</a>
</g>
</g>
<!-- Node1&#45;&gt;Node6 -->
<g id="edge5_Node000001_Node000006" class="edge">
<title>Node1&#45;&gt;Node6</title>
<g id="a_edge5_Node000001_Node000006"><a xlink:title=" ">
<path fill="none" stroke="#63b8ff" d="M155.75,-110.33C155.75,-103.82 155.75,-94.67 155.75,-86.37"/>
<polygon fill="#63b8ff" stroke="#63b8ff" points="159.25,-86.37 155.75,-76.37 152.25,-86.37 159.25,-86.37"/>
</a>
</g>
</g>
<!-- Node7 -->
<g id="Node000007" class="node">
<title>Node7</title>
<g id="a_Node000007"><a xlink:title=" ">
<polygon fill="#e0e0e0" stroke="#999999" points="257.5,-74.5 192,-74.5 192,-55.25 257.5,-55.25 257.5,-74.5"/>
<text text-anchor="middle" x="224.75" y="-61" font-family="Helvetica,sans-Serif" font-size="10.00">string_view</text>
</a>
</g>
</g>
<!-- Node1&#45;&gt;Node7 -->
<g id="edge6_Node000001_Node000007" class="edge">
<title>Node1&#45;&gt;Node7</title>
<g id="a_edge6_Node000001_Node000007"><a xlink:title=" ">
<path fill="none" stroke="#63b8ff" d="M167.45,-110.09C177.53,-102.32 192.29,-90.92 204.31,-81.65"/>
<polygon fill="#63b8ff" stroke="#63b8ff" points="206.24,-84.58 212.02,-75.7 201.96,-79.04 206.24,-84.58"/>
</a>
</g>
</g>
<!-- Node3 -->
<g id="Node000003" class="node">
<title>Node3</title>
<g id="a_Node000003"><a xlink:title=" ">
<polygon fill="#e0e0e0" stroke="#999999" points="47.5,-19.25 0,-19.25 0,0 47.5,0 47.5,-19.25"/>
<text text-anchor="middle" x="23.75" y="-5.75" font-family="Helvetica,sans-Serif" font-size="10.00">stdint.h</text>
</a>
</g>
</g>
<!-- Node2&#45;&gt;Node3 -->
<g id="edge2_Node000002_Node000003" class="edge">
<title>Node2&#45;&gt;Node3</title>
<g id="a_edge2_Node000002_Node000003"><a xlink:title=" ">
<path fill="none" stroke="#63b8ff" d="M75.23,-54.84C66.36,-47.22 53.44,-36.12 42.76,-26.95"/>
<polygon fill="#63b8ff" stroke="#63b8ff" points="45.13,-24.37 35.26,-20.51 40.57,-29.68 45.13,-24.37"/>
</a>
</g>
</g>
<!-- Node4 -->
<g id="Node000004" class="node">
<title>Node4</title>
<g id="a_Node000004"><a xlink:title=" ">
<polygon fill="#e0e0e0" stroke="#999999" points="105.75,-19.25 65.75,-19.25 65.75,0 105.75,0 105.75,-19.25"/>
<text text-anchor="middle" x="85.75" y="-5.75" font-family="Helvetica,sans-Serif" font-size="10.00">string</text>
</a>
</g>
</g>
<!-- Node2&#45;&gt;Node4 -->
<g id="edge3_Node000002_Node000004" class="edge">
<title>Node2&#45;&gt;Node4</title>
<g id="a_edge3_Node000002_Node000004"><a xlink:title=" ">
<path fill="none" stroke="#63b8ff" d="M85.75,-55.08C85.75,-48.57 85.75,-39.42 85.75,-31.12"/>
<polygon fill="#63b8ff" stroke="#63b8ff" points="89.25,-31.12 85.75,-21.12 82.25,-31.12 89.25,-31.12"/>
</a>
</g>
</g>
<!-- Node5 -->
<g id="Node000005" class="node">
<title>Node5</title>
<g id="a_Node000005"><a xlink:title=" ">
<polygon fill="#e0e0e0" stroke="#999999" points="167.25,-19.25 124.25,-19.25 124.25,0 167.25,0 167.25,-19.25"/>
<text text-anchor="middle" x="145.75" y="-5.75" font-family="Helvetica,sans-Serif" font-size="10.00">vector</text>
</a>
</g>
</g>
<!-- Node2&#45;&gt;Node5 -->
<g id="edge4_Node000002_Node000005" class="edge">
<title>Node2&#45;&gt;Node5</title>
<g id="a_edge4_Node000002_Node000005"><a xlink:title=" ">
<path fill="none" stroke="#63b8ff" d="M95.93,-54.84C104.51,-47.22 117.02,-36.12 127.35,-26.95"/>
<polygon fill="#63b8ff" stroke="#63b8ff" points="129.43,-29.79 134.59,-20.53 124.79,-24.55 129.43,-29.79"/>
</a>
</g>
</g>
</g>
</svg>
</svg>

<style type='text/css'>
<![CDATA[
[data-mouse-over-selected='false'] { opacity: 0.7; }
[data-mouse-over-selected='true']  { opacity: 1.0; }
]]>
</style>
<script type="application/ecmascript"><![CDATA[
document.addEventListener('DOMContentLoaded', (event) => {
  highlightEdges();
  highlightAdjacentNodes();
});
]]></script>
</svg>
