<?xml version="1.0" encoding="UTF-8" standalone="no"?>
<!DOCTYPE svg PUBLIC "-//W3C//DTD SVG 1.1//EN"
 "http://www.w3.org/Graphics/SVG/1.1/DTD/svg11.dtd">
<!-- Generated by graphviz version 9.0.0 (20230911.1827)
 -->
<!-- Title: dino_draw_utils.cpp Pages: 1 -->
<svg width="356pt" height="193pt"
 viewBox="0.00 0.00 355.50 193.00" xmlns="http://www.w3.org/2000/svg" xmlns:xlink="http://www.w3.org/1999/xlink">
<g id="graph0" class="graph" transform="scale(1 1) rotate(0) translate(4 189)">
<title>dino_draw_utils.cpp</title>
<!-- Node1 -->
<g id="Node000001" class="node">
<title>Node1</title>
<g id="a_Node000001"><a xlink:title=" ">
<polygon fill="#999999" stroke="#666666" points="261.5,-185 160,-185 160,-165.75 261.5,-165.75 261.5,-185"/>
<text text-anchor="middle" x="210.75" y="-171.5" font-family="Helvetica,sans-Serif" font-size="10.00">dino_draw_utils.cpp</text>
</a>
</g>
</g>
<!-- Node2 -->
<g id="Node000002" class="node">
<title>Node2</title>
<g id="a_Node000002"><a xlink:href="xdino_8h.html" target="_top" xlink:title="API d&#39;interaction entre le moteur de jeu &quot;XDino&quot; et la logique de jeu.">
<polygon fill="white" stroke="#666666" points="119.25,-74.5 52.25,-74.5 52.25,-55.25 119.25,-55.25 119.25,-74.5"/>
<text text-anchor="middle" x="85.75" y="-61" font-family="Helvetica,sans-Serif" font-size="10.00">dino/xdino.h</text>
</a>
</g>
</g>
<!-- Node1&#45;&gt;Node2 -->
<g id="edge1_Node000001_Node000002" class="edge">
<title>Node1&#45;&gt;Node2</title>
<g id="a_edge1_Node000001_Node000002"><a xlink:title=" ">
<path fill="none" stroke="#63b8ff" d="M159.73,-165.7C137.57,-159.36 113.19,-148.45 97.75,-129.75 87.74,-117.63 85.07,-99.78 84.72,-86.03"/>
<polygon fill="#63b8ff" stroke="#63b8ff" points="88.21,-86.4 84.88,-76.34 81.21,-86.29 88.21,-86.4"/>
</a>
</g>
</g>
<!-- Node6 -->
<g id="Node000006" class="node">
<title>Node6</title>
<g id="a_Node000006"><a xlink:href="dino__draw__utils_8h.html" target="_top" xlink:title="Fonctions pour dessiner des primitives de rendu.">
<polygon fill="white" stroke="#666666" points="218.75,-129.75 106.75,-129.75 106.75,-110.5 218.75,-110.5 218.75,-129.75"/>
<text text-anchor="middle" x="162.75" y="-116.25" font-family="Helvetica,sans-Serif" font-size="10.00">dino/dino_draw_utils.h</text>
</a>
</g>
</g>
<!-- Node1&#45;&gt;Node6 -->
<g id="edge5_Node000001_Node000006" class="edge">
<title>Node1&#45;&gt;Node6</title>
<g id="a_edge5_Node000001_Node000006"><a xlink:title=" ">
<path fill="none" stroke="#63b8ff" d="M202.82,-165.58C196.19,-158.23 186.53,-147.51 178.36,-138.44"/>
<polygon fill="#63b8ff" stroke="#63b8ff" points="181.16,-136.32 171.86,-131.23 175.96,-141 181.16,-136.32"/>
</a>
</g>
</g>
<!-- Node9 -->
<g id="Node000009" class="node">
<title>Node9</title>
<g id="a_Node000009"><a xlink:title=" ">
<polygon fill="#e0e0e0" stroke="#999999" points="282.38,-129.75 237.12,-129.75 237.12,-110.5 282.38,-110.5 282.38,-129.75"/>
<text text-anchor="middle" x="259.75" y="-116.25" font-family="Helvetica,sans-Serif" font-size="10.00">math.h</text>
</a>
</g>
</g>
<!-- Node1&#45;&gt;Node9 -->
<g id="edge9_Node000001_Node000009" class="edge">
<title>Node1&#45;&gt;Node9</title>
<g id="a_edge9_Node000001_Node000009"><a xlink:title=" ">
<path fill="none" stroke="#63b8ff" d="M218.84,-165.58C225.61,-158.23 235.47,-147.51 243.81,-138.44"/>
<polygon fill="#63b8ff" stroke="#63b8ff" points="246.26,-140.95 250.46,-131.22 241.11,-136.21 246.26,-140.95"/>
</a>
</g>
</g>
<!-- Node10 -->
<g id="Node000010" class="node">
<title>Node10</title>
<g id="a_Node000010"><a xlink:title=" ">
<polygon fill="#e0e0e0" stroke="#999999" points="347.5,-129.75 300,-129.75 300,-110.5 347.5,-110.5 347.5,-129.75"/>
<text text-anchor="middle" x="323.75" y="-116.25" font-family="Helvetica,sans-Serif" font-size="10.00">string.h</text>
</a>
</g>
</g>
<!-- Node1&#45;&gt;Node10 -->
<g id="edge10_Node000001_Node000010" class="edge">
<title>Node1&#45;&gt;Node10</title>
<g id="a_edge10_Node000001_Node000010"><a xlink:title=" ">
<path fill="none" stroke="#63b8ff" d="M229.92,-165.34C247.53,-157.04 273.91,-144.61 294.21,-135.04"/>
<polygon fill="#63b8ff" stroke="#63b8ff" points="295.56,-138.28 303.12,-130.85 292.58,-131.94 295.56,-138.28"/>
</a>
</g>
</g>
<!-- Node3 -->
<g id="Node000003" class="node">
<title>Node3</title>
<g id="a_Node000003"><a xlink:title=" ">
<polygon fill="#e0e0e0" stroke="#999999" points="47.5,-19.25 0,-19.25 0,0 47.5,0 47.5,-19.25"/>
<text text-anchor="middle" x="23.75" y="-5.75" font-family="Helvetica,sans-Serif" font-size="10.00">stdint.h</text>
</a>
</g>
</g>
<!-- Node2&#45;&gt;Node3 -->
<g id="edge2_Node000002_Node000003" class="edge">
<title>Node2&#45;&gt;Node3</title>
<g id="a_edge2_Node000002_Node000003"><a xlink:title=" ">
<path fill="none" stroke="#63b8ff" d="M75.23,-54.84C66.36,-47.22 53.44,-36.12 42.76,-26.95"/>
<polygon fill="#63b8ff" stroke="#63b8ff" points="45.13,-24.37 35.26,-20.51 40.57,-29.68 45.13,-24.37"/>
</a>
</g>
</g>
<!-- Node4 -->
<g id="Node000004" class="node">
<title>Node4</title>
<g id="a_Node000004"><a xlink:title=" ">
<polygon fill="#e0e0e0" stroke="#999999" points="105.75,-19.25 65.75,-19.25 65.75,0 105.75,0 105.75,-19.25"/>
<text text-anchor="middle" x="85.75" y="-5.75" font-family="Helvetica,sans-Serif" font-size="10.00">string</text>
</a>
</g>
</g>
<!-- Node2&#45;&gt;Node4 -->
<g id="edge3_Node000002_Node000004" class="edge">
<title>Node2&#45;&gt;Node4</title>
<g id="a_edge3_Node000002_Node000004"><a xlink:title=" ">
<path fill="none" stroke="#63b8ff" d="M85.75,-55.08C85.75,-48.57 85.75,-39.42 85.75,-31.12"/>
<polygon fill="#63b8ff" stroke="#63b8ff" points="89.25,-31.12 85.75,-21.12 82.25,-31.12 89.25,-31.12"/>
</a>
</g>
</g>
<!-- Node5 -->
<g id="Node000005" class="node">
<title>Node5</title>
<g id="a_Node000005"><a xlink:title=" ">
<polygon fill="#e0e0e0" stroke="#999999" points="167.25,-19.25 124.25,-19.25 124.25,0 167.25,0 167.25,-19.25"/>
<text text-anchor="middle" x="145.75" y="-5.75" font-family="Helvetica,sans-Serif" font-size="10.00">vector</text>
</a>
</g>
</g>
<!-- Node2&#45;&gt;Node5 -->
<g id="edge4_Node000002_Node000005" class="edge">
<title>Node2&#45;&gt;Node5</title>
<g id="a_edge4_Node000002_Node000005"><a xlink:title=" ">
<path fill="none" stroke="#63b8ff" d="M95.93,-54.84C104.51,-47.22 117.02,-36.12 127.35,-26.95"/>
<polygon fill="#63b8ff" stroke="#63b8ff" points="129.43,-29.79 134.59,-20.53 124.79,-24.55 129.43,-29.79"/>
</a>
</g>
</g>
<!-- Node6&#45;&gt;Node2 -->
<g id="edge6_Node000006_Node000002" class="edge">
<title>Node6&#45;&gt;Node2</title>
<g id="a_edge6_Node000006_Node000002"><a xlink:title=" ">
<path fill="none" stroke="#63b8ff" d="M149.69,-110.09C138.29,-102.21 121.52,-90.61 108.01,-81.27"/>
<polygon fill="#63b8ff" stroke="#63b8ff" points="110.34,-78.62 100.12,-75.81 106.35,-84.38 110.34,-78.62"/>
</a>
</g>
</g>
<!-- Node7 -->
<g id="Node000007" class="node">
<title>Node7</title>
<g id="a_Node000007"><a xlink:title=" ">
<polygon fill="#e0e0e0" stroke="#999999" points="177.25,-74.5 140.25,-74.5 140.25,-55.25 177.25,-55.25 177.25,-74.5"/>
<text text-anchor="middle" x="158.75" y="-61" font-family="Helvetica,sans-Serif" font-size="10.00">span</text>
</a>
</g>
</g>
<!-- Node6&#45;&gt;Node7 -->
<g id="edge7_Node000006_Node000007" class="edge">
<title>Node6&#45;&gt;Node7</title>
<g id="a_edge7_Node000006_Node000007"><a xlink:title=" ">
<path fill="none" stroke="#63b8ff" d="M162.09,-110.33C161.59,-103.74 160.9,-94.46 160.27,-86.07"/>
<polygon fill="#63b8ff" stroke="#63b8ff" points="163.78,-86.08 159.54,-76.37 156.8,-86.6 163.78,-86.08"/>
</a>
</g>
</g>
<!-- Node8 -->
<g id="Node000008" class="node">
<title>Node8</title>
<g id="a_Node000008"><a xlink:title=" ">
<polygon fill="#e0e0e0" stroke="#999999" points="260.5,-74.5 195,-74.5 195,-55.25 260.5,-55.25 260.5,-74.5"/>
<text text-anchor="middle" x="227.75" y="-61" font-family="Helvetica,sans-Serif" font-size="10.00">string_view</text>
</a>
</g>
</g>
<!-- Node6&#45;&gt;Node8 -->
<g id="edge8_Node000006_Node000008" class="edge">
<title>Node6&#45;&gt;Node8</title>
<g id="a_edge8_Node000006_Node000008"><a xlink:title=" ">
<path fill="none" stroke="#63b8ff" d="M173.78,-110.09C183.17,-102.4 196.9,-91.15 208.16,-81.93"/>
<polygon fill="#63b8ff" stroke="#63b8ff" points="210.2,-84.78 215.72,-75.73 205.76,-79.36 210.2,-84.78"/>
</a>
</g>
</g>
</g>
</svg>
