<?xml version="1.0" encoding="UTF-8" standalone="no"?>
<!DOCTYPE svg PUBLIC "-//W3C//DTD SVG 1.1//EN"
 "http://www.w3.org/Graphics/SVG/1.1/DTD/svg11.dtd">
<!-- Generated by graphviz version 9.0.0 (20230911.1827)
 -->
<!-- Title: Dino_GameInit Pages: 1 -->
<svg width="431pt" height="249pt"
 viewBox="0.00 0.00 431.00 249.25" xmlns="http://www.w3.org/2000/svg" xmlns:xlink="http://www.w3.org/1999/xlink">
<g id="graph0" class="graph" transform="scale(1 1) rotate(0) translate(4 245.25)">
<title>Dino_GameInit</title>
<!-- Node1 -->
<g id="Node000001" class="node">
<title>Node1</title>
<g id="a_Node000001"><a xlink:title="Appelé au tout début, pour initialiser la logique de jeu.">
<polygon fill="#999999" stroke="#666666" points="80.5,-130.25 0,-130.25 0,-111 80.5,-111 80.5,-130.25"/>
<text text-anchor="middle" x="40.25" y="-116.75" font-family="Helvetica,sans-Serif" font-size="10.00">Dino_GameInit</text>
</a>
</g>
</g>
<!-- Node2 -->
<g id="Node000002" class="node">
<title>Node2</title>
<g id="a_Node000002"><a xlink:href="dino__draw__utils_8cpp.html#a8a1875e3a83c7342b6cf774e492fc9e5" target="_top" xlink:title="Produit un dessin de cercle avec la couleur spécifiée. Les sommets doivent être dessiné avec XDino_TE...">
<polygon fill="white" stroke="#666666" points="245.75,-241.25 121,-241.25 121,-222 245.75,-222 245.75,-241.25"/>
<text text-anchor="middle" x="183.38" y="-227.75" font-family="Helvetica,sans-Serif" font-size="10.00">Dino_GenVertices_Circle</text>
</a>
</g>
</g>
<!-- Node1&#45;&gt;Node2 -->
<g id="edge1_Node000001_Node000002" class="edge">
<title>Node1&#45;&gt;Node2</title>
<g id="a_edge1_Node000001_Node000002"><a xlink:title=" ">
<path fill="none" stroke="#63b8ff" d="M46.42,-130.47C56.95,-149.54 82.77,-191.59 116.5,-213.62 118.32,-214.82 120.23,-215.93 122.18,-216.97"/>
<polygon fill="#63b8ff" stroke="#63b8ff" points="120.43,-220.01 130.98,-220.96 123.32,-213.64 120.43,-220.01"/>
</a>
</g>
</g>
<!-- Node3 -->
<g id="Node000003" class="node">
<title>Node3</title>
<g id="a_Node000003"><a xlink:href="dino__draw__utils_8cpp.html#ad4e078eff3e21bb5c840aea64bbf2673" target="_top" xlink:title="Produit un dessin contenant une liste de segments, tous reliés. Les sommets doivent être dessiné avec...">
<polygon fill="white" stroke="#666666" points="250.25,-204.25 116.5,-204.25 116.5,-185 250.25,-185 250.25,-204.25"/>
<text text-anchor="middle" x="183.38" y="-190.75" font-family="Helvetica,sans-Serif" font-size="10.00">Dino_GenVertices_Polyline</text>
</a>
</g>
</g>
<!-- Node1&#45;&gt;Node3 -->
<g id="edge2_Node000001_Node000003" class="edge">
<title>Node1&#45;&gt;Node3</title>
<g id="a_edge2_Node000001_Node000003"><a xlink:title=" ">
<path fill="none" stroke="#63b8ff" d="M51.62,-130.36C65.42,-142.81 91.03,-164.22 116.5,-176.62 119.6,-178.13 122.84,-179.53 126.16,-180.83"/>
<polygon fill="#63b8ff" stroke="#63b8ff" points="124.88,-184.09 135.48,-184.1 127.21,-177.48 124.88,-184.09"/>
</a>
</g>
</g>
<!-- Node4 -->
<g id="Node000004" class="node">
<title>Node4</title>
<g id="a_Node000004"><a xlink:href="xdino__linux__main_8cpp.html#a606a6ce34b0c704a35a8a61db01db625" target="_top" xlink:title="Charge une texture nommée &#39;pName&#39; depuis le disque jusqu&#39;à la carte graphique. Retourne l&#39;identifiant...">
<polygon fill="white" stroke="#666666" points="246.5,-167.25 120.25,-167.25 120.25,-148 246.5,-148 246.5,-167.25"/>
<text text-anchor="middle" x="183.38" y="-153.75" font-family="Helvetica,sans-Serif" font-size="10.00">XDino_CreateGpuTexture</text>
</a>
</g>
</g>
<!-- Node1&#45;&gt;Node4 -->
<g id="edge3_Node000001_Node000004" class="edge">
<title>Node1&#45;&gt;Node4</title>
<g id="a_edge3_Node000001_Node000004"><a xlink:title=" ">
<path fill="none" stroke="#63b8ff" d="M79.81,-130.74C96.15,-135.02 115.39,-140.06 132.76,-144.62"/>
<polygon fill="#63b8ff" stroke="#63b8ff" points="131.83,-147.99 142.39,-147.14 133.61,-141.22 131.83,-147.99"/>
</a>
</g>
</g>
<!-- Node6 -->
<g id="Node000006" class="node">
<title>Node6</title>
<g id="a_Node000006"><a xlink:href="xdino__linux__main_8cpp.html#ad7cc0200df4ae9dc2f3445ce0c5bb02c" target="_top" xlink:title="Copie une liste de sommets de triangles texturés sur la carte graphique. Retourne l&#39;identifiant uniqu...">
<polygon fill="white" stroke="#666666" points="248,-130.25 118.75,-130.25 118.75,-111 248,-111 248,-130.25"/>
<text text-anchor="middle" x="183.38" y="-116.75" font-family="Helvetica,sans-Serif" font-size="10.00">XDino_CreateVertexBuffer</text>
</a>
</g>
</g>
<!-- Node1&#45;&gt;Node6 -->
<g id="edge5_Node000001_Node000006" class="edge">
<title>Node1&#45;&gt;Node6</title>
<g id="a_edge5_Node000001_Node000006"><a xlink:title=" ">
<path fill="none" stroke="#63b8ff" d="M80.94,-120.62C89.13,-120.62 98.02,-120.62 107.02,-120.62"/>
<polygon fill="#63b8ff" stroke="#63b8ff" points="106.91,-124.13 116.91,-120.63 106.91,-117.13 106.91,-124.13"/>
</a>
</g>
</g>
<!-- Node7 -->
<g id="Node000007" class="node">
<title>Node7</title>
<g id="a_Node000007"><a xlink:href="xdino__linux__main_8cpp.html#a0bae910da7641a966b3caf0a765a16c1" target="_top" xlink:title="Retourne la taille en pixels de la texture chargée sur la carte graphique.">
<polygon fill="white" stroke="#666666" points="249.5,-93.25 117.25,-93.25 117.25,-74 249.5,-74 249.5,-93.25"/>
<text text-anchor="middle" x="183.38" y="-79.75" font-family="Helvetica,sans-Serif" font-size="10.00">XDino_GetGpuTextureSize</text>
</a>
</g>
</g>
<!-- Node1&#45;&gt;Node7 -->
<g id="edge6_Node000001_Node000007" class="edge">
<title>Node1&#45;&gt;Node7</title>
<g id="a_edge6_Node000001_Node000007"><a xlink:title=" ">
<path fill="none" stroke="#63b8ff" d="M79.81,-110.51C96.15,-106.23 115.39,-101.19 132.76,-96.63"/>
<polygon fill="#63b8ff" stroke="#63b8ff" points="133.61,-100.03 142.39,-94.11 131.83,-93.26 133.61,-100.03"/>
</a>
</g>
</g>
<!-- Node8 -->
<g id="Node000008" class="node">
<title>Node8</title>
<g id="a_Node000008"><a xlink:href="xdino__linux__main_8cpp.html#a8fb3a63e6442dd880092baee74243dd3" target="_top" xlink:title="Taille de la fenêtre sur l&#39;écran. Attention, différent de la résolution du rendu !">
<polygon fill="white" stroke="#666666" points="241.62,-56.25 125.12,-56.25 125.12,-37 241.62,-37 241.62,-56.25"/>
<text text-anchor="middle" x="183.38" y="-42.75" font-family="Helvetica,sans-Serif" font-size="10.00">XDino_GetWindowSize</text>
</a>
</g>
</g>
<!-- Node1&#45;&gt;Node8 -->
<g id="edge7_Node000001_Node000008" class="edge">
<title>Node1&#45;&gt;Node8</title>
<g id="a_edge7_Node000001_Node000008"><a xlink:title=" ">
<path fill="none" stroke="#63b8ff" d="M51.62,-110.89C65.42,-98.44 91.03,-77.03 116.5,-64.62 119.6,-63.12 122.84,-61.72 126.16,-60.42"/>
<polygon fill="#63b8ff" stroke="#63b8ff" points="127.21,-63.77 135.48,-57.15 124.88,-57.16 127.21,-63.77"/>
</a>
</g>
</g>
<!-- Node9 -->
<g id="Node000009" class="node">
<title>Node9</title>
<g id="a_Node000009"><a xlink:href="xdino__linux__main_8cpp.html#a57ea716600a49f61ffff0bd33bd78a7d" target="_top" xlink:title="Modifie la taille de rendu. Les coordonnées passées dans les vertex sont en rapport à cette taille.">
<polygon fill="white" stroke="#666666" points="239.38,-19.25 127.38,-19.25 127.38,0 239.38,0 239.38,-19.25"/>
<text text-anchor="middle" x="183.38" y="-5.75" font-family="Helvetica,sans-Serif" font-size="10.00">XDino_SetRenderSize</text>
</a>
</g>
</g>
<!-- Node1&#45;&gt;Node9 -->
<g id="edge8_Node000001_Node000009" class="edge">
<title>Node1&#45;&gt;Node9</title>
<g id="a_edge8_Node000001_Node000009"><a xlink:title=" ">
<path fill="none" stroke="#63b8ff" d="M46.42,-110.78C56.95,-91.71 82.77,-49.66 116.5,-27.62 118.32,-26.43 120.23,-25.32 122.18,-24.28"/>
<polygon fill="#63b8ff" stroke="#63b8ff" points="123.32,-27.61 130.98,-20.29 120.43,-21.24 123.32,-27.61"/>
</a>
</g>
</g>
<!-- Node5 -->
<g id="Node000005" class="node">
<title>Node5</title>
<g id="a_Node000005"><a xlink:href="xdino__linux__main_8cpp.html#a9a7f32a9d3a97c86d7e2998d754c811e" target="_top" xlink:title=" ">
<polygon fill="white" stroke="#666666" points="423,-167.25 286.25,-167.25 286.25,-148 423,-148 423,-167.25"/>
<text text-anchor="middle" x="354.62" y="-153.75" font-family="Helvetica,sans-Serif" font-size="10.00">XDino_Linux_CreateTexture</text>
</a>
</g>
</g>
<!-- Node4&#45;&gt;Node5 -->
<g id="edge4_Node000004_Node000005" class="edge">
<title>Node4&#45;&gt;Node5</title>
<g id="a_edge4_Node000004_Node000005"><a xlink:title=" ">
<path fill="none" stroke="#63b8ff" d="M246.92,-157.62C255.95,-157.62 265.35,-157.62 274.66,-157.62"/>
<polygon fill="#63b8ff" stroke="#63b8ff" points="274.42,-161.13 284.42,-157.63 274.42,-154.13 274.42,-161.13"/>
</a>
</g>
</g>
</g>
</svg>
