<?xml version="1.0" encoding="UTF-8" standalone="no"?>
<!DOCTYPE svg PUBLIC "-//W3C//DTD SVG 1.1//EN"
 "http://www.w3.org/Graphics/SVG/1.1/DTD/svg11.dtd">
<!-- Generated by graphviz version 9.0.0 (20230911.1827)
 -->
<!-- Title: Dino_CreateDrawCall_Circle Pages: 1 -->
<svg width="687pt" height="39pt"
 viewBox="0.00 0.00 686.50 38.50" xmlns="http://www.w3.org/2000/svg" xmlns:xlink="http://www.w3.org/1999/xlink">
<g id="graph0" class="graph" transform="scale(1 1) rotate(0) translate(4 34.5)">
<title>Dino_CreateDrawCall_Circle</title>
<!-- Node1 -->
<g id="Node000001" class="node">
<title>Node1</title>
<g id="a_Node000001"><a xlink:title="Produit un dessin de cercle avec la couleur spécifiée. La position (0,0) correspond au centre du cerc...">
<polygon fill="#999999" stroke="#666666" points="678.5,-30.5 570.25,-30.5 570.25,0 678.5,0 678.5,-30.5"/>
<text text-anchor="start" x="578.25" y="-17" font-family="Helvetica,sans-Serif" font-size="10.00">Dino_CreateDrawCall</text>
<text text-anchor="middle" x="624.38" y="-5.75" font-family="Helvetica,sans-Serif" font-size="10.00">_Circle</text>
</a>
</g>
</g>
<!-- Node2 -->
<g id="Node000002" class="node">
<title>Node2</title>
<g id="a_Node000002"><a xlink:href="dino__game_8cpp.html#ac7b7408f18b3729af2f6e7f405f238e7" target="_top" xlink:title="Appelé pour générer chaque frame. Doit lireles entrées de jeu avec XDino_GetGamepad(),...">
<polygon fill="white" stroke="#666666" points="534.25,-24.88 439.5,-24.88 439.5,-5.63 534.25,-5.63 534.25,-24.88"/>
<text text-anchor="middle" x="486.88" y="-11.38" font-family="Helvetica,sans-Serif" font-size="10.00">Dino_GameFrame</text>
</a>
</g>
</g>
<!-- Node1&#45;&gt;Node2 -->
<g id="edge1_Node000001_Node000002" class="edge">
<title>Node1&#45;&gt;Node2</title>
<g id="a_edge1_Node000001_Node000002"><a xlink:title=" ">
<path fill="none" stroke="#63b8ff" d="M558.46,-15.25C550.36,-15.25 542.21,-15.25 534.46,-15.25"/>
<polygon fill="#63b8ff" stroke="#63b8ff" points="558.31,-18.75 568.31,-15.25 558.31,-11.75 558.31,-18.75"/>
</a>
</g>
</g>
<!-- Node3 -->
<g id="Node000003" class="node">
<title>Node3</title>
<g id="a_Node000003"><a xlink:href="xdino__win64__main_8cpp.html#afa07de294d5b620ee39644b9661f0665" target="_top" xlink:title=" ">
<polygon fill="white" stroke="#666666" points="403.5,-24.88 268.25,-24.88 268.25,-5.63 403.5,-5.63 403.5,-24.88"/>
<text text-anchor="middle" x="335.88" y="-11.38" font-family="Helvetica,sans-Serif" font-size="10.00">XDino_Win64_HandleEvent</text>
</a>
</g>
</g>
<!-- Node2&#45;&gt;Node3 -->
<g id="edge2_Node000002_Node000003" class="edge">
<title>Node2&#45;&gt;Node3</title>
<g id="a_edge2_Node000002_Node000003"><a xlink:title=" ">
<path fill="none" stroke="#63b8ff" d="M427.86,-15.25C420.01,-15.25 411.9,-15.25 403.91,-15.25"/>
<polygon fill="#63b8ff" stroke="#63b8ff" points="427.63,-18.75 437.63,-15.25 427.63,-11.75 427.63,-18.75"/>
</a>
</g>
</g>
<!-- Node4 -->
<g id="Node000004" class="node">
<title>Node4</title>
<g id="a_Node000004"><a xlink:href="xdino__win64__main_8cpp.html#a7202590da16f97f4cef692deb9001e27" target="_top" xlink:title=" ">
<polygon fill="white" stroke="#666666" points="232.25,-24.88 89.5,-24.88 89.5,-5.63 232.25,-5.63 232.25,-24.88"/>
<text text-anchor="middle" x="160.88" y="-11.38" font-family="Helvetica,sans-Serif" font-size="10.00">XDino_Win64_CreateWindow</text>
</a>
</g>
</g>
<!-- Node3&#45;&gt;Node4 -->
<g id="edge3_Node000003_Node000004" class="edge">
<title>Node3&#45;&gt;Node4</title>
<g id="a_edge3_Node000003_Node000004"><a xlink:title=" ">
<path fill="none" stroke="#63b8ff" d="M256.72,-15.25C248.68,-15.25 240.54,-15.25 232.59,-15.25"/>
<polygon fill="#63b8ff" stroke="#63b8ff" points="256.48,-18.75 266.48,-15.25 256.48,-11.75 256.48,-18.75"/>
</a>
</g>
</g>
<!-- Node5 -->
<g id="Node000005" class="node">
<title>Node5</title>
<g id="a_Node000005"><a xlink:href="xdino__win64__main_8cpp.html#aa0e1ecfaa9e7f124f36e8666a1cb66f9" target="_top" xlink:title=" ">
<polygon fill="white" stroke="#666666" points="53.5,-24.88 0,-24.88 0,-5.63 53.5,-5.63 53.5,-24.88"/>
<text text-anchor="middle" x="26.75" y="-11.38" font-family="Helvetica,sans-Serif" font-size="10.00">WinMain</text>
</a>
</g>
</g>
<!-- Node4&#45;&gt;Node5 -->
<g id="edge4_Node000004_Node000005" class="edge">
<title>Node4&#45;&gt;Node5</title>
<g id="a_edge4_Node000004_Node000005"><a xlink:title=" ">
<path fill="none" stroke="#63b8ff" d="M77.73,-15.25C69.16,-15.25 60.98,-15.25 53.8,-15.25"/>
<polygon fill="#63b8ff" stroke="#63b8ff" points="77.66,-18.75 87.66,-15.25 77.66,-11.75 77.66,-18.75"/>
</a>
</g>
</g>
</g>
</svg>
