<?xml version="1.0" encoding="UTF-8" standalone="no"?>
<!DOCTYPE svg PUBLIC "-//W3C//DTD SVG 1.1//EN"
 "http://www.w3.org/Graphics/SVG/1.1/DTD/svg11.dtd">
<!-- Generated by graphviz version 9.0.0 (20230911.1827)
 -->
<!-- Title: Dino_GameFrame Pages: 1 -->
<svg width="273pt" height="286pt"
 viewBox="0.00 0.00 272.50 286.25" xmlns="http://www.w3.org/2000/svg" xmlns:xlink="http://www.w3.org/1999/xlink">

<svg id="main" version="1.1" xmlns="http://www.w3.org/2000/svg" xmlns:xlink="http://www.w3.org/1999/xlink" xml:space="preserve" onload="init(evt)">
<style type="text/css"><![CDATA[
.node, .edge {opacity: 0.7;}
.node.selected, .edge.selected {opacity: 1;}
.edge:hover path { stroke: red; }
.edge:hover polygon { stroke: red; fill: red; }
]]></style>
<script type="application/ecmascript" xlink:href="svg.min.js"/>
<svg id="graph" class="graph">
<g id="graph0" class="graph" transform="scale(1 1) rotate(0) translate(4 282.25)">
<title>Dino_GameFrame</title>
<!-- Node1 -->
<g id="Node000001" class="node">
<title>Node1</title>
<g id="a_Node000001"><a xlink:title="Appelé pour générer chaque frame. Doit lireles entrées de jeu avec XDino_GetGamepad(),...">
<polygon fill="#999999" stroke="#666666" points="94.75,-148.25 0,-148.25 0,-129 94.75,-129 94.75,-148.25"/>
<text text-anchor="middle" x="47.38" y="-134.75" font-family="Helvetica,sans-Serif" font-size="10.00">Dino_GameFrame</text>
</a>
</g>
</g>
<!-- Node2 -->
<g id="Node000002" class="node">
<title>Node2</title>
<g id="a_Node000002"><a xlink:href="dino__draw__utils_8cpp.html#a9473461ff91938cb3c388c767b78f785" target="_top" xlink:title="Produit un dessin contenant du texte, avec éventuellement une couleur de fond. Les sommets doivent êt...">
<polygon fill="white" stroke="#666666" points="257,-278.25 138.25,-278.25 138.25,-259 257,-259 257,-278.25"/>
<text text-anchor="middle" x="197.62" y="-264.75" font-family="Helvetica,sans-Serif" font-size="10.00">Dino_GenVertices_Text</text>
</a>
</g>
</g>
<!-- Node1&#45;&gt;Node2 -->
<g id="edge1_Node000001_Node000002" class="edge">
<title>Node1&#45;&gt;Node2</title>
<g id="a_edge1_Node000001_Node000002"><a xlink:title=" ">
<path fill="none" stroke="#63b8ff" d="M52.76,-148.44C63.06,-170.31 90.95,-223.3 130.75,-250.62 132.33,-251.71 133.97,-252.73 135.66,-253.69"/>
<polygon fill="#63b8ff" stroke="#63b8ff" points="133.88,-256.72 144.42,-257.88 136.91,-250.4 133.88,-256.72"/>
</a>
</g>
</g>
<!-- Node3 -->
<g id="Node000003" class="node">
<title>Node3</title>
<g id="a_Node000003"><a xlink:href="xdino__linux__main_8cpp.html#ad7cc0200df4ae9dc2f3445ce0c5bb02c" target="_top" xlink:title="Copie une liste de sommets de triangles texturés sur la carte graphique. Retourne l&#39;identifiant uniqu...">
<polygon fill="white" stroke="#666666" points="262.25,-241.25 133,-241.25 133,-222 262.25,-222 262.25,-241.25"/>
<text text-anchor="middle" x="197.62" y="-227.75" font-family="Helvetica,sans-Serif" font-size="10.00">XDino_CreateVertexBuffer</text>
</a>
</g>
</g>
<!-- Node1&#45;&gt;Node3 -->
<g id="edge2_Node000001_Node000003" class="edge">
<title>Node1&#45;&gt;Node3</title>
<g id="a_edge2_Node000001_Node000003"><a xlink:title=" ">
<path fill="none" stroke="#63b8ff" d="M56.41,-148.49C70.02,-164.56 99.23,-196.29 130.75,-213.62 133.25,-215 135.86,-216.27 138.54,-217.46"/>
<polygon fill="#63b8ff" stroke="#63b8ff" points="137.13,-220.66 147.72,-221.02 139.67,-214.14 137.13,-220.66"/>
</a>
</g>
</g>
<!-- Node4 -->
<g id="Node000004" class="node">
<title>Node4</title>
<g id="a_Node000004"><a xlink:href="xdino__linux__main_8cpp.html#a641cf6ebd62e0ffbcf34a364bb9bf03b" target="_top" xlink:title="Décharge la liste de sommets identifiée par &#39;vbufID&#39; de la carte graphique.">
<polygon fill="white" stroke="#666666" points="264.5,-204.25 130.75,-204.25 130.75,-185 264.5,-185 264.5,-204.25"/>
<text text-anchor="middle" x="197.62" y="-190.75" font-family="Helvetica,sans-Serif" font-size="10.00">XDino_DestroyVertexBuffer</text>
</a>
</g>
</g>
<!-- Node1&#45;&gt;Node4 -->
<g id="edge3_Node000001_Node000004" class="edge">
<title>Node1&#45;&gt;Node4</title>
<g id="a_edge3_Node000001_Node000004"><a xlink:title=" ">
<path fill="none" stroke="#63b8ff" d="M67.63,-148.61C84.09,-156.88 108.55,-168.54 130.75,-176.62 135.2,-178.25 139.86,-179.8 144.57,-181.27"/>
<polygon fill="#63b8ff" stroke="#63b8ff" points="143.5,-184.6 154.08,-184.1 145.49,-177.89 143.5,-184.6"/>
</a>
</g>
</g>
<!-- Node5 -->
<g id="Node000005" class="node">
<title>Node5</title>
<g id="a_Node000005"><a xlink:href="xdino__linux__main_8cpp.html#a7d5347b96a8386cfa0d2ee33abaf36bb" target="_top" xlink:title="Transfère les triangles à dessiner à la carte graphique.">
<polygon fill="white" stroke="#666666" points="232.62,-167.25 162.62,-167.25 162.62,-148 232.62,-148 232.62,-167.25"/>
<text text-anchor="middle" x="197.62" y="-153.75" font-family="Helvetica,sans-Serif" font-size="10.00">XDino_Draw</text>
</a>
</g>
</g>
<!-- Node1&#45;&gt;Node5 -->
<g id="edge4_Node000001_Node000005" class="edge">
<title>Node1&#45;&gt;Node5</title>
<g id="a_edge4_Node000001_Node000005"><a xlink:title=" ">
<path fill="none" stroke="#63b8ff" d="M94.88,-144.58C112.85,-146.89 133.35,-149.52 151.21,-151.81"/>
<polygon fill="#63b8ff" stroke="#63b8ff" points="150.66,-155.26 161.02,-153.06 151.55,-148.32 150.66,-155.26"/>
</a>
</g>
</g>
<!-- Node6 -->
<g id="Node000006" class="node">
<title>Node6</title>
<g id="a_Node000006"><a xlink:href="xdino__linux__main_8cpp.html#afce3fa5d5fa809f786dad62cd3989b7a" target="_top" xlink:title="Affiche les statistiques de consommation mémoire et de ressources chargées.">
<polygon fill="white" stroke="#666666" points="244.25,-130.25 151,-130.25 151,-111 244.25,-111 244.25,-130.25"/>
<text text-anchor="middle" x="197.62" y="-116.75" font-family="Helvetica,sans-Serif" font-size="10.00">XDino_DrawStats</text>
</a>
</g>
</g>
<!-- Node1&#45;&gt;Node6 -->
<g id="edge5_Node000001_Node000006" class="edge">
<title>Node1&#45;&gt;Node6</title>
<g id="a_edge5_Node000001_Node000006"><a xlink:title=" ">
<path fill="none" stroke="#63b8ff" d="M94.88,-132.98C109.02,-131.26 124.73,-129.35 139.48,-127.56"/>
<polygon fill="#63b8ff" stroke="#63b8ff" points="139.54,-131.08 149.04,-126.4 138.69,-124.13 139.54,-131.08"/>
</a>
</g>
</g>
<!-- Node7 -->
<g id="Node000007" class="node">
<title>Node7</title>
<g id="a_Node000007"><a xlink:href="xdino__linux__main_8cpp.html#a68646c879bb2deb348cfa0ae2fc53b92" target="_top" xlink:title="Récupère l&#39;état de la manette concernée.">
<polygon fill="white" stroke="#666666" points="250.25,-93.25 145,-93.25 145,-74 250.25,-74 250.25,-93.25"/>
<text text-anchor="middle" x="197.62" y="-79.75" font-family="Helvetica,sans-Serif" font-size="10.00">XDino_GetGamepad</text>
</a>
</g>
</g>
<!-- Node1&#45;&gt;Node7 -->
<g id="edge6_Node000001_Node000007" class="edge">
<title>Node1&#45;&gt;Node7</title>
<g id="a_edge6_Node000001_Node000007"><a xlink:title=" ">
<path fill="none" stroke="#63b8ff" d="M68.33,-128.61C84.79,-120.6 108.91,-109.46 130.75,-101.62 135.4,-99.96 140.27,-98.36 145.18,-96.85"/>
<polygon fill="#63b8ff" stroke="#63b8ff" points="145.85,-100.3 154.45,-94.11 143.87,-93.58 145.85,-100.3"/>
</a>
</g>
</g>
<!-- Node8 -->
<g id="Node000008" class="node">
<title>Node8</title>
<g id="a_Node000008"><a xlink:href="xdino__linux__main_8cpp.html#a4ded9317bd5f35f70b1473c729e56d1a" target="_top" xlink:title="Taille du rendu. Attention, différent de la résolution affichée à l&#39;écran !">
<polygon fill="white" stroke="#666666" points="254,-56.25 141.25,-56.25 141.25,-37 254,-37 254,-56.25"/>
<text text-anchor="middle" x="197.62" y="-42.75" font-family="Helvetica,sans-Serif" font-size="10.00">XDino_GetRenderSize</text>
</a>
</g>
</g>
<!-- Node1&#45;&gt;Node8 -->
<g id="edge7_Node000001_Node000008" class="edge">
<title>Node1&#45;&gt;Node8</title>
<g id="a_edge7_Node000001_Node000008"><a xlink:title=" ">
<path fill="none" stroke="#63b8ff" d="M56.66,-128.64C70.41,-112.72 99.53,-81.65 130.75,-64.62 133.25,-63.26 135.87,-61.99 138.55,-60.81"/>
<polygon fill="#63b8ff" stroke="#63b8ff" points="139.68,-64.13 147.74,-57.26 137.15,-57.6 139.68,-64.13"/>
</a>
</g>
</g>
<!-- Node9 -->
<g id="Node000009" class="node">
<title>Node9</title>
<g id="a_Node000009"><a xlink:href="xdino__linux__main_8cpp.html#abded2f43911a4a13d4742539b59797e0" target="_top" xlink:title="Pour indiquer la couleur d&#39;arrière&#45;plan.">
<polygon fill="white" stroke="#666666" points="251.38,-19.25 143.88,-19.25 143.88,0 251.38,0 251.38,-19.25"/>
<text text-anchor="middle" x="197.62" y="-5.75" font-family="Helvetica,sans-Serif" font-size="10.00">XDino_SetClearColor</text>
</a>
</g>
</g>
<!-- Node1&#45;&gt;Node9 -->
<g id="edge8_Node000001_Node000009" class="edge">
<title>Node1&#45;&gt;Node9</title>
<g id="a_edge8_Node000001_Node000009"><a xlink:title=" ">
<path fill="none" stroke="#63b8ff" d="M52.94,-128.57C63.42,-106.7 91.32,-54.57 130.75,-27.62 132.33,-26.54 133.98,-25.53 135.67,-24.57"/>
<polygon fill="#63b8ff" stroke="#63b8ff" points="136.91,-27.86 144.43,-20.39 133.9,-21.54 136.91,-27.86"/>
</a>
</g>
</g>
</g>
</svg>
</svg>

<style type='text/css'>
<![CDATA[
[data-mouse-over-selected='false'] { opacity: 0.7; }
[data-mouse-over-selected='true']  { opacity: 1.0; }
]]>
</style>
<script type="application/ecmascript"><![CDATA[
document.addEventListener('DOMContentLoaded', (event) => {
  highlightEdges();
  highlightAdjacentNodes();
});
]]></script>
</svg>
