<?xml version="1.0" encoding="UTF-8" standalone="no"?>
<!DOCTYPE svg PUBLIC "-//W3C//DTD SVG 1.1//EN"
 "http://www.w3.org/Graphics/SVG/1.1/DTD/svg11.dtd">
<!-- Generated by graphviz version 9.0.0 (20230911.1827)
 -->
<!-- Title: dino_draw_utils.cpp Pages: 1 -->
<svg width="266pt" height="193pt"
 viewBox="0.00 0.00 266.25 193.00" xmlns="http://www.w3.org/2000/svg" xmlns:xlink="http://www.w3.org/1999/xlink">

<svg id="main" version="1.1" xmlns="http://www.w3.org/2000/svg" xmlns:xlink="http://www.w3.org/1999/xlink" xml:space="preserve" onload="init(evt)">
<style type="text/css"><![CDATA[
.node, .edge {opacity: 0.7;}
.node.selected, .edge.selected {opacity: 1;}
.edge:hover path { stroke: red; }
.edge:hover polygon { stroke: red; fill: red; }
]]></style>
<script type="application/ecmascript" xlink:href="svg.min.js"/>
<svg id="graph" class="graph">
<g id="graph0" class="graph" transform="scale(1 1) rotate(0) translate(4 189)">
<title>dino_draw_utils.cpp</title>
<!-- Node1 -->
<g id="Node000001" class="node">
<title>Node1</title>
<g id="a_Node000001"><a xlink:title=" ">
<polygon fill="#999999" stroke="#666666" points="221.5,-185 120,-185 120,-165.75 221.5,-165.75 221.5,-185"/>
<text text-anchor="middle" x="170.75" y="-171.5" font-family="Helvetica,sans-Serif" font-size="10.00">dino_draw_utils.cpp</text>
</a>
</g>
</g>
<!-- Node2 -->
<g id="Node000002" class="node">
<title>Node2</title>
<g id="a_Node000002"><a xlink:href="dino__draw__utils_8h.html" target="_top" xlink:title="Fonctions pour dessiner des primitives de rendu.">
<polygon fill="white" stroke="#666666" points="226.75,-129.75 114.75,-129.75 114.75,-110.5 226.75,-110.5 226.75,-129.75"/>
<text text-anchor="middle" x="170.75" y="-116.25" font-family="Helvetica,sans-Serif" font-size="10.00">dino/dino_draw_utils.h</text>
</a>
</g>
</g>
<!-- Node1&#45;&gt;Node2 -->
<g id="edge1_Node000001_Node000002" class="edge">
<title>Node1&#45;&gt;Node2</title>
<g id="a_edge1_Node000001_Node000002"><a xlink:title=" ">
<path fill="none" stroke="#63b8ff" d="M170.75,-165.58C170.75,-159.07 170.75,-149.92 170.75,-141.62"/>
<polygon fill="#63b8ff" stroke="#63b8ff" points="174.25,-141.62 170.75,-131.62 167.25,-141.62 174.25,-141.62"/>
</a>
</g>
</g>
<!-- Node3 -->
<g id="Node000003" class="node">
<title>Node3</title>
<g id="a_Node000003"><a xlink:href="xdino_8h.html" target="_top" xlink:title="API d&#39;interaction entre le moteur de jeu &quot;XDino&quot; et la logique de jeu.">
<polygon fill="white" stroke="#666666" points="120.25,-74.5 53.25,-74.5 53.25,-55.25 120.25,-55.25 120.25,-74.5"/>
<text text-anchor="middle" x="86.75" y="-61" font-family="Helvetica,sans-Serif" font-size="10.00">dino/xdino.h</text>
</a>
</g>
</g>
<!-- Node2&#45;&gt;Node3 -->
<g id="edge2_Node000002_Node000003" class="edge">
<title>Node2&#45;&gt;Node3</title>
<g id="a_edge2_Node000002_Node000003"><a xlink:title=" ">
<path fill="none" stroke="#63b8ff" d="M156.5,-110.09C143.95,-102.14 125.42,-90.39 110.61,-81"/>
<polygon fill="#63b8ff" stroke="#63b8ff" points="112.67,-78.16 102.35,-75.76 108.92,-84.07 112.67,-78.16"/>
</a>
</g>
</g>
<!-- Node7 -->
<g id="Node000007" class="node">
<title>Node7</title>
<g id="a_Node000007"><a xlink:title=" ">
<polygon fill="#e0e0e0" stroke="#999999" points="203.5,-74.5 138,-74.5 138,-55.25 203.5,-55.25 203.5,-74.5"/>
<text text-anchor="middle" x="170.75" y="-61" font-family="Helvetica,sans-Serif" font-size="10.00">string_view</text>
</a>
</g>
</g>
<!-- Node2&#45;&gt;Node7 -->
<g id="edge6_Node000002_Node000007" class="edge">
<title>Node2&#45;&gt;Node7</title>
<g id="a_edge6_Node000002_Node000007"><a xlink:title=" ">
<path fill="none" stroke="#63b8ff" d="M170.75,-110.33C170.75,-103.82 170.75,-94.67 170.75,-86.37"/>
<polygon fill="#63b8ff" stroke="#63b8ff" points="174.25,-86.37 170.75,-76.37 167.25,-86.37 174.25,-86.37"/>
</a>
</g>
</g>
<!-- Node8 -->
<g id="Node000008" class="node">
<title>Node8</title>
<g id="a_Node000008"><a xlink:title=" ">
<polygon fill="#e0e0e0" stroke="#999999" points="258.25,-74.5 221.25,-74.5 221.25,-55.25 258.25,-55.25 258.25,-74.5"/>
<text text-anchor="middle" x="239.75" y="-61" font-family="Helvetica,sans-Serif" font-size="10.00">span</text>
</a>
</g>
</g>
<!-- Node2&#45;&gt;Node8 -->
<g id="edge7_Node000002_Node000008" class="edge">
<title>Node2&#45;&gt;Node8</title>
<g id="a_edge7_Node000002_Node000008"><a xlink:title=" ">
<path fill="none" stroke="#63b8ff" d="M182.45,-110.09C192.53,-102.32 207.29,-90.92 219.31,-81.65"/>
<polygon fill="#63b8ff" stroke="#63b8ff" points="221.24,-84.58 227.02,-75.7 216.96,-79.04 221.24,-84.58"/>
</a>
</g>
</g>
<!-- Node4 -->
<g id="Node000004" class="node">
<title>Node4</title>
<g id="a_Node000004"><a xlink:title=" ">
<polygon fill="#e0e0e0" stroke="#999999" points="47.5,-19.25 0,-19.25 0,0 47.5,0 47.5,-19.25"/>
<text text-anchor="middle" x="23.75" y="-5.75" font-family="Helvetica,sans-Serif" font-size="10.00">stdint.h</text>
</a>
</g>
</g>
<!-- Node3&#45;&gt;Node4 -->
<g id="edge3_Node000003_Node000004" class="edge">
<title>Node3&#45;&gt;Node4</title>
<g id="a_edge3_Node000003_Node000004"><a xlink:title=" ">
<path fill="none" stroke="#63b8ff" d="M76.06,-54.84C67.05,-47.22 53.92,-36.12 43.07,-26.95"/>
<polygon fill="#63b8ff" stroke="#63b8ff" points="45.33,-24.28 35.44,-20.5 40.81,-29.63 45.33,-24.28"/>
</a>
</g>
</g>
<!-- Node5 -->
<g id="Node000005" class="node">
<title>Node5</title>
<g id="a_Node000005"><a xlink:title=" ">
<polygon fill="#e0e0e0" stroke="#999999" points="108.25,-19.25 65.25,-19.25 65.25,0 108.25,0 108.25,-19.25"/>
<text text-anchor="middle" x="86.75" y="-5.75" font-family="Helvetica,sans-Serif" font-size="10.00">vector</text>
</a>
</g>
</g>
<!-- Node3&#45;&gt;Node5 -->
<g id="edge4_Node000003_Node000005" class="edge">
<title>Node3&#45;&gt;Node5</title>
<g id="a_edge4_Node000003_Node000005"><a xlink:title=" ">
<path fill="none" stroke="#63b8ff" d="M86.75,-55.08C86.75,-48.57 86.75,-39.42 86.75,-31.12"/>
<polygon fill="#63b8ff" stroke="#63b8ff" points="90.25,-31.12 86.75,-21.12 83.25,-31.12 90.25,-31.12"/>
</a>
</g>
</g>
<!-- Node6 -->
<g id="Node000006" class="node">
<title>Node6</title>
<g id="a_Node000006"><a xlink:title=" ">
<polygon fill="#e0e0e0" stroke="#999999" points="166.75,-19.25 126.75,-19.25 126.75,0 166.75,0 166.75,-19.25"/>
<text text-anchor="middle" x="146.75" y="-5.75" font-family="Helvetica,sans-Serif" font-size="10.00">string</text>
</a>
</g>
</g>
<!-- Node3&#45;&gt;Node6 -->
<g id="edge5_Node000003_Node000006" class="edge">
<title>Node3&#45;&gt;Node6</title>
<g id="a_edge5_Node000003_Node000006"><a xlink:title=" ">
<path fill="none" stroke="#63b8ff" d="M96.93,-54.84C105.51,-47.22 118.02,-36.12 128.35,-26.95"/>
<polygon fill="#63b8ff" stroke="#63b8ff" points="130.43,-29.79 135.59,-20.53 125.79,-24.55 130.43,-29.79"/>
</a>
</g>
</g>
</g>
</svg>
</svg>

<style type='text/css'>
<![CDATA[
[data-mouse-over-selected='false'] { opacity: 0.7; }
[data-mouse-over-selected='true']  { opacity: 1.0; }
]]>
</style>
<script type="application/ecmascript"><![CDATA[
document.addEventListener('DOMContentLoaded', (event) => {
  highlightEdges();
  highlightAdjacentNodes();
});
]]></script>
</svg>
