<?xml version="1.0" encoding="UTF-8" standalone="no"?>
<!DOCTYPE svg PUBLIC "-//W3C//DTD SVG 1.1//EN"
 "http://www.w3.org/Graphics/SVG/1.1/DTD/svg11.dtd">
<!-- Generated by graphviz version 9.0.0 (20230911.1827)
 -->
<!-- Title: Dino_GameFrame Pages: 1 -->
<svg width="271pt" height="310pt"
 viewBox="0.00 0.00 271.00 309.88" xmlns="http://www.w3.org/2000/svg" xmlns:xlink="http://www.w3.org/1999/xlink">

<svg id="main" version="1.1" xmlns="http://www.w3.org/2000/svg" xmlns:xlink="http://www.w3.org/1999/xlink" xml:space="preserve" onload="init(evt)">
<style type="text/css"><![CDATA[
.node, .edge {opacity: 0.7;}
.node.selected, .edge.selected {opacity: 1;}
.edge:hover path { stroke: red; }
.edge:hover polygon { stroke: red; fill: red; }
]]></style>
<script type="application/ecmascript" xlink:href="svg.min.js"/>
<svg id="graph" class="graph">
<g id="graph0" class="graph" transform="scale(1 1) rotate(0) translate(4 305.88)">
<title>Dino_GameFrame</title>
<!-- Node1 -->
<g id="Node000001" class="node">
<title>Node1</title>
<g id="a_Node000001"><a xlink:title="Appelé pour générer chaque frame. Doit lireles entrées de jeu avec XDino_GetGamepad(),...">
<polygon fill="#999999" stroke="#666666" points="94.75,-148.25 0,-148.25 0,-129 94.75,-129 94.75,-148.25"/>
<text text-anchor="middle" x="47.38" y="-134.75" font-family="Helvetica,sans-Serif" font-size="10.00">Dino_GameFrame</text>
</a>
</g>
</g>
<!-- Node2 -->
<g id="Node000002" class="node">
<title>Node2</title>
<g id="a_Node000002"><a xlink:href="dino__draw__utils_8cpp.html#a70b3d7868b24344ba6b57f9eda900d45" target="_top" xlink:title="Produit un dessin de cercle avec la couleur spécifiée. La position (0,0) correspond au centre du cerc...">
<polygon fill="white" stroke="#666666" points="251,-301.88 142.75,-301.88 142.75,-271.38 251,-271.38 251,-301.88"/>
<text text-anchor="start" x="150.75" y="-288.38" font-family="Helvetica,sans-Serif" font-size="10.00">Dino_CreateDrawCall</text>
<text text-anchor="middle" x="196.88" y="-277.12" font-family="Helvetica,sans-Serif" font-size="10.00">_Circle</text>
</a>
</g>
</g>
<!-- Node1&#45;&gt;Node2 -->
<g id="edge1_Node000001_Node000002" class="edge">
<title>Node1&#45;&gt;Node2</title>
<g id="a_edge1_Node000001_Node000002"><a xlink:title=" ">
<path fill="none" stroke="#63b8ff" d="M52.41,-148.41C62.34,-171.38 90.17,-229.24 130.75,-261.62 132.28,-262.85 133.87,-264.01 135.52,-265.13"/>
<polygon fill="#63b8ff" stroke="#63b8ff" points="133.73,-268.13 144.12,-270.18 137.27,-262.09 133.73,-268.13"/>
</a>
</g>
</g>
<!-- Node3 -->
<g id="Node000003" class="node">
<title>Node3</title>
<g id="a_Node000003"><a xlink:href="dino__draw__utils_8cpp.html#ae65d5defac67d1322c09dcc087933ddf" target="_top" xlink:title="Produit un dessin contenant une liste de segments, tous reliés.">
<polygon fill="white" stroke="#666666" points="251,-252.88 142.75,-252.88 142.75,-222.38 251,-222.38 251,-252.88"/>
<text text-anchor="start" x="150.75" y="-239.38" font-family="Helvetica,sans-Serif" font-size="10.00">Dino_CreateDrawCall</text>
<text text-anchor="middle" x="196.88" y="-228.12" font-family="Helvetica,sans-Serif" font-size="10.00">_Polyline</text>
</a>
</g>
</g>
<!-- Node1&#45;&gt;Node3 -->
<g id="edge2_Node000001_Node000003" class="edge">
<title>Node1&#45;&gt;Node3</title>
<g id="a_edge2_Node000001_Node000003"><a xlink:title=" ">
<path fill="none" stroke="#63b8ff" d="M57.04,-148.7C71.09,-164.49 100.33,-195.15 130.75,-213.62 132.64,-214.77 134.6,-215.88 136.6,-216.95"/>
<polygon fill="#63b8ff" stroke="#63b8ff" points="135.01,-220.07 145.53,-221.28 138.06,-213.77 135.01,-220.07"/>
</a>
</g>
</g>
<!-- Node4 -->
<g id="Node000004" class="node">
<title>Node4</title>
<g id="a_Node000004"><a xlink:href="dino__draw__utils_8cpp.html#abcab1c5d9c9e1321444171dabb795f1b" target="_top" xlink:title="Produit un dessin contenant du texte, avec éventuellement une couleur de fond. La position (0,...">
<polygon fill="white" stroke="#666666" points="263,-204.25 130.75,-204.25 130.75,-185 263,-185 263,-204.25"/>
<text text-anchor="middle" x="196.88" y="-190.75" font-family="Helvetica,sans-Serif" font-size="10.00">Dino_CreateDrawCall_Text</text>
</a>
</g>
</g>
<!-- Node1&#45;&gt;Node4 -->
<g id="edge3_Node000001_Node000004" class="edge">
<title>Node1&#45;&gt;Node4</title>
<g id="a_edge3_Node000001_Node000004"><a xlink:title=" ">
<path fill="none" stroke="#63b8ff" d="M67.64,-148.6C84.1,-156.85 108.57,-168.5 130.75,-176.62 135.21,-178.26 139.89,-179.83 144.61,-181.31"/>
<polygon fill="#63b8ff" stroke="#63b8ff" points="143.56,-184.65 154.15,-184.16 145.57,-177.94 143.56,-184.65"/>
</a>
</g>
</g>
<!-- Node5 -->
<g id="Node000005" class="node">
<title>Node5</title>
<g id="a_Node000005"><a xlink:href="xdino__win64__rdr_8cpp.html#af6f41148f29d2c60fc4f9e51449436fa" target="_top" xlink:title="Transfère les triangles à dessiner à la carte graphique.">
<polygon fill="white" stroke="#666666" points="231.88,-167.25 161.88,-167.25 161.88,-148 231.88,-148 231.88,-167.25"/>
<text text-anchor="middle" x="196.88" y="-153.75" font-family="Helvetica,sans-Serif" font-size="10.00">XDino_Draw</text>
</a>
</g>
</g>
<!-- Node1&#45;&gt;Node5 -->
<g id="edge4_Node000001_Node000005" class="edge">
<title>Node1&#45;&gt;Node5</title>
<g id="a_edge4_Node000001_Node000005"><a xlink:title=" ">
<path fill="none" stroke="#63b8ff" d="M95.04,-144.64C112.68,-146.91 132.72,-149.49 150.27,-151.75"/>
<polygon fill="#63b8ff" stroke="#63b8ff" points="149.8,-155.22 160.16,-153.02 150.69,-148.28 149.8,-155.22"/>
</a>
</g>
</g>
<!-- Node6 -->
<g id="Node000006" class="node">
<title>Node6</title>
<g id="a_Node000006"><a xlink:href="xdino__win64__main_8cpp.html#a68646c879bb2deb348cfa0ae2fc53b92" target="_top" xlink:title="Récupère l&#39;état de la manette concernée.">
<polygon fill="white" stroke="#666666" points="249.5,-130.25 144.25,-130.25 144.25,-111 249.5,-111 249.5,-130.25"/>
<text text-anchor="middle" x="196.88" y="-116.75" font-family="Helvetica,sans-Serif" font-size="10.00">XDino_GetGamepad</text>
</a>
</g>
</g>
<!-- Node1&#45;&gt;Node6 -->
<g id="edge5_Node000001_Node000006" class="edge">
<title>Node1&#45;&gt;Node6</title>
<g id="a_edge5_Node000001_Node000006"><a xlink:title=" ">
<path fill="none" stroke="#63b8ff" d="M95.04,-132.93C106.93,-131.48 119.92,-129.89 132.49,-128.36"/>
<polygon fill="#63b8ff" stroke="#63b8ff" points="132.87,-131.84 142.37,-127.15 132.02,-124.89 132.87,-131.84"/>
</a>
</g>
</g>
<!-- Node7 -->
<g id="Node000007" class="node">
<title>Node7</title>
<g id="a_Node000007"><a xlink:href="xdino__win64__rdr_8cpp.html#a8fb3a63e6442dd880092baee74243dd3" target="_top" xlink:title="Taille de la fenêtre sur l&#39;écran. Attention, différent de la résolution du rendu !">
<polygon fill="white" stroke="#666666" points="255.12,-93.25 138.62,-93.25 138.62,-74 255.12,-74 255.12,-93.25"/>
<text text-anchor="middle" x="196.88" y="-79.75" font-family="Helvetica,sans-Serif" font-size="10.00">XDino_GetWindowSize</text>
</a>
</g>
</g>
<!-- Node1&#45;&gt;Node7 -->
<g id="edge6_Node000001_Node000007" class="edge">
<title>Node1&#45;&gt;Node7</title>
<g id="a_edge6_Node000001_Node000007"><a xlink:title=" ">
<path fill="none" stroke="#63b8ff" d="M68.33,-128.63C84.8,-120.63 108.92,-109.49 130.75,-101.62 135.22,-100.01 139.9,-98.46 144.63,-96.99"/>
<polygon fill="#63b8ff" stroke="#63b8ff" points="145.59,-100.36 154.17,-94.15 143.59,-93.65 145.59,-100.36"/>
</a>
</g>
</g>
<!-- Node8 -->
<g id="Node000008" class="node">
<title>Node8</title>
<g id="a_Node000008"><a xlink:href="xdino__win64__rdr_8cpp.html#abded2f43911a4a13d4742539b59797e0" target="_top" xlink:title="Pour indiquer la couleur d&#39;arrière&#45;plan.">
<polygon fill="white" stroke="#666666" points="250.62,-56.25 143.12,-56.25 143.12,-37 250.62,-37 250.62,-56.25"/>
<text text-anchor="middle" x="196.88" y="-42.75" font-family="Helvetica,sans-Serif" font-size="10.00">XDino_SetClearColor</text>
</a>
</g>
</g>
<!-- Node1&#45;&gt;Node8 -->
<g id="edge7_Node000001_Node000008" class="edge">
<title>Node1&#45;&gt;Node8</title>
<g id="a_edge7_Node000001_Node000008"><a xlink:title=" ">
<path fill="none" stroke="#63b8ff" d="M56.67,-128.65C70.43,-112.74 99.55,-81.7 130.75,-64.62 133.27,-63.25 135.91,-61.96 138.61,-60.78"/>
<polygon fill="#63b8ff" stroke="#63b8ff" points="139.81,-64.06 147.88,-57.19 137.29,-57.54 139.81,-64.06"/>
</a>
</g>
</g>
<!-- Node9 -->
<g id="Node000009" class="node">
<title>Node9</title>
<g id="a_Node000009"><a xlink:href="xdino__win64__rdr_8cpp.html#a57ea716600a49f61ffff0bd33bd78a7d" target="_top" xlink:title="Modifie la taille de rendu. Les coordonnées passées dans les vertex sont en rapport à cette taille.">
<polygon fill="white" stroke="#666666" points="252.88,-19.25 140.88,-19.25 140.88,0 252.88,0 252.88,-19.25"/>
<text text-anchor="middle" x="196.88" y="-5.75" font-family="Helvetica,sans-Serif" font-size="10.00">XDino_SetRenderSize</text>
</a>
</g>
</g>
<!-- Node1&#45;&gt;Node9 -->
<g id="edge8_Node000001_Node000009" class="edge">
<title>Node1&#45;&gt;Node9</title>
<g id="a_edge8_Node000001_Node000009"><a xlink:title=" ">
<path fill="none" stroke="#63b8ff" d="M52.95,-128.58C63.43,-106.72 91.36,-54.63 130.75,-27.62 132.35,-26.53 134.01,-25.5 135.72,-24.54"/>
<polygon fill="#63b8ff" stroke="#63b8ff" points="137.07,-27.77 144.59,-20.31 134.06,-21.45 137.07,-27.77"/>
</a>
</g>
</g>
</g>
</svg>
</svg>

<style type='text/css'>
<![CDATA[
[data-mouse-over-selected='false'] { opacity: 0.7; }
[data-mouse-over-selected='true']  { opacity: 1.0; }
]]>
</style>
<script type="application/ecmascript"><![CDATA[
document.addEventListener('DOMContentLoaded', (event) => {
  highlightEdges();
  highlightAdjacentNodes();
});
]]></script>
</svg>
