<?xml version="1.0" encoding="UTF-8" standalone="no"?>
<!DOCTYPE svg PUBLIC "-//W3C//DTD SVG 1.1//EN"
 "http://www.w3.org/Graphics/SVG/1.1/DTD/svg11.dtd">
<!-- Generated by graphviz version 9.0.0 (20230911.1827)
 -->
<!-- Title: DinoVec2 Pages: 1 -->
<svg width="60pt" height="72pt"
 viewBox="0.00 0.00 60.00 72.00" xmlns="http://www.w3.org/2000/svg" xmlns:xlink="http://www.w3.org/1999/xlink">
<g id="graph0" class="graph" transform="scale(1 1) rotate(0) translate(4 68)">
<title>DinoVec2</title>
<!-- Node1 -->
<g id="Node000001" class="node">
<title>Node1</title>
<g id="a_Node000001"><a xlink:title="Représente une coordonnée 2D en pixels.">
<polygon fill="#999999" stroke="none" points="52,-64 0,-64 0,0 52,0 52,-64"/>
<text text-anchor="start" x="5" y="-50.5" font-family="Helvetica,sans-Serif" font-size="10.00">DinoVec2</text>
<text text-anchor="start" x="11.5" y="-35.5" font-family="Helvetica,sans-Serif" font-size="10.00">+</text>
<text text-anchor="start" x="29" y="-35.5" font-family="Helvetica,sans-Serif" font-size="10.00">x</text>
<text text-anchor="start" x="11.5" y="-20.5" font-family="Helvetica,sans-Serif" font-size="10.00">+</text>
<text text-anchor="start" x="29" y="-20.5" font-family="Helvetica,sans-Serif" font-size="10.00">y</text>
<text text-anchor="start" x="24.5" y="-5.5" font-family="Helvetica,sans-Serif" font-size="10.00"> </text>
<polygon fill="#666666" stroke="#666666" points="0,-47 0,-47 52,-47 52,-47 0,-47"/>
<polygon fill="#666666" stroke="#666666" points="0,-17 0,-17 27,-17 27,-17 0,-17"/>
<polygon fill="#666666" stroke="#666666" points="27,-17 27,-17 52,-17 52,-17 27,-17"/>
<polygon fill="none" stroke="#666666" points="0,0 0,-64 52,-64 52,0 0,0"/>
</a>
</g>
</g>
</g>
</svg>
