<?xml version="1.0" encoding="UTF-8" standalone="no"?>
<!DOCTYPE svg PUBLIC "-//W3C//DTD SVG 1.1//EN"
 "http://www.w3.org/Graphics/SVG/1.1/DTD/svg11.dtd">
<!-- Generated by graphviz version 9.0.0 (20230911.1827)
 -->
<!-- Title: DinoVertex Pages: 1 -->
<svg width="130pt" height="183pt"
 viewBox="0.00 0.00 130.00 183.25" xmlns="http://www.w3.org/2000/svg" xmlns:xlink="http://www.w3.org/1999/xlink">
<g id="graph0" class="graph" transform="scale(1 1) rotate(0) translate(4 179.25)">
<title>DinoVertex</title>
<!-- Node1 -->
<g id="Node000001" class="node">
<title>Node1</title>
<g id="a_Node000001"><a xlink:title="Représente un des sommets d&#39;un triangle envoyé à la carte graphique.">
<polygon fill="#999999" stroke="none" points="89.5,-64 32.5,-64 32.5,0 89.5,0 89.5,-64"/>
<text text-anchor="start" x="37.38" y="-50.5" font-family="Helvetica,sans-Serif" font-size="10.00">DinoVertex</text>
<text text-anchor="start" x="45" y="-35.5" font-family="Helvetica,sans-Serif" font-size="10.00">+</text>
<text text-anchor="start" x="63.5" y="-35.5" font-family="Helvetica,sans-Serif" font-size="10.00">u</text>
<text text-anchor="start" x="45" y="-20.5" font-family="Helvetica,sans-Serif" font-size="10.00">+</text>
<text text-anchor="start" x="63.5" y="-20.5" font-family="Helvetica,sans-Serif" font-size="10.00">v</text>
<text text-anchor="start" x="59.5" y="-5.5" font-family="Helvetica,sans-Serif" font-size="10.00"> </text>
<polygon fill="#666666" stroke="#666666" points="32.5,-47 32.5,-47 89.5,-47 89.5,-47 32.5,-47"/>
<polygon fill="#666666" stroke="#666666" points="32.5,-17 32.5,-17 61.5,-17 61.5,-17 32.5,-17"/>
<polygon fill="#666666" stroke="#666666" points="61.5,-17 61.5,-17 89.5,-17 89.5,-17 61.5,-17"/>
<polygon fill="none" stroke="#666666" points="32.5,0 32.5,-64 89.5,-64 89.5,0 32.5,0"/>
</a>
</g>
</g>
<!-- Node2 -->
<g id="Node000002" class="node">
<title>Node2</title>
<g id="a_Node000002"><a xlink:href="xdino_8h.html#structDinoVec2" target="_top" xlink:title="Représente une coordonnée 2D en pixels.">
<polygon fill="white" stroke="none" points="52,-175.25 0,-175.25 0,-111.25 52,-111.25 52,-175.25"/>
<text text-anchor="start" x="5" y="-161.75" font-family="Helvetica,sans-Serif" font-size="10.00">DinoVec2</text>
<text text-anchor="start" x="11.5" y="-146.75" font-family="Helvetica,sans-Serif" font-size="10.00">+</text>
<text text-anchor="start" x="29" y="-146.75" font-family="Helvetica,sans-Serif" font-size="10.00">x</text>
<text text-anchor="start" x="11.5" y="-131.75" font-family="Helvetica,sans-Serif" font-size="10.00">+</text>
<text text-anchor="start" x="29" y="-131.75" font-family="Helvetica,sans-Serif" font-size="10.00">y</text>
<text text-anchor="start" x="24.5" y="-116.75" font-family="Helvetica,sans-Serif" font-size="10.00"> </text>
<polygon fill="#666666" stroke="#666666" points="0,-158.25 0,-158.25 52,-158.25 52,-158.25 0,-158.25"/>
<polygon fill="#666666" stroke="#666666" points="0,-128.25 0,-128.25 27,-128.25 27,-128.25 0,-128.25"/>
<polygon fill="#666666" stroke="#666666" points="27,-128.25 27,-128.25 52,-128.25 52,-128.25 27,-128.25"/>
<polygon fill="none" stroke="#666666" points="0,-111.25 0,-175.25 52,-175.25 52,-111.25 0,-111.25"/>
</a>
</g>
</g>
<!-- Node2&#45;&gt;Node1 -->
<g id="edge1_Node000001_Node000002" class="edge">
<title>Node2&#45;&gt;Node1</title>
<g id="a_edge1_Node000001_Node000002"><a xlink:title=" ">
<path fill="none" stroke="#63b8ff" d="M35.84,-111.53C39.35,-100.59 43.36,-88.06 47.14,-76.27"/>
<polygon fill="none" stroke="#63b8ff" points="47.17,-76.16 45.2,-69.22 50.84,-64.73 52.81,-71.66 47.17,-76.16"/>
</a>
</g>
<text text-anchor="middle" x="57" y="-83.75" font-family="Helvetica,sans-Serif" font-size="10.00" fill="grey"> +pos</text>
</g>
<!-- Node3 -->
<g id="Node000003" class="node">
<title>Node3</title>
<g id="a_Node000003"><a xlink:href="xdino_8h.html#unionDinoColor" target="_top" xlink:title="Représente une couleur de pixels, utilisée pour moduler l&#39;affichage d&#39;une texture.">
<polygon fill="white" stroke="none" points="122,-175.25 70,-175.25 70,-111.25 122,-111.25 122,-175.25"/>
<text text-anchor="start" x="75" y="-161.75" font-family="Helvetica,sans-Serif" font-size="10.00">DinoColor</text>
<text text-anchor="start" x="78" y="-146.75" font-family="Helvetica,sans-Serif" font-size="10.00">+</text>
<text text-anchor="start" x="92" y="-146.75" font-family="Helvetica,sans-Serif" font-size="10.00">@1</text>
<text text-anchor="start" x="78" y="-131.75" font-family="Helvetica,sans-Serif" font-size="10.00">+</text>
<text text-anchor="start" x="92" y="-131.75" font-family="Helvetica,sans-Serif" font-size="10.00">rgba</text>
<text text-anchor="start" x="94.5" y="-116.75" font-family="Helvetica,sans-Serif" font-size="10.00"> </text>
<polygon fill="#666666" stroke="#666666" points="70,-158.25 70,-158.25 122,-158.25 122,-158.25 70,-158.25"/>
<polygon fill="#666666" stroke="#666666" points="70,-128.25 70,-128.25 90,-128.25 90,-128.25 70,-128.25"/>
<polygon fill="#666666" stroke="#666666" points="90,-128.25 90,-128.25 122,-128.25 122,-128.25 90,-128.25"/>
<polygon fill="none" stroke="#666666" points="70,-111.25 70,-175.25 122,-175.25 122,-111.25 70,-111.25"/>
</a>
</g>
</g>
<!-- Node3&#45;&gt;Node1 -->
<g id="edge2_Node000001_Node000003" class="edge">
<title>Node3&#45;&gt;Node1</title>
<g id="a_edge2_Node000001_Node000003"><a xlink:title=" ">
<path fill="none" stroke="#63b8ff" d="M86.16,-111.53C82.65,-100.59 78.64,-88.06 74.86,-76.27"/>
<polygon fill="none" stroke="#63b8ff" points="74.83,-76.16 69.19,-71.66 71.16,-64.73 76.8,-69.22 74.83,-76.16"/>
</a>
</g>
<text text-anchor="middle" x="93.62" y="-83.75" font-family="Helvetica,sans-Serif" font-size="10.00" fill="grey"> +color</text>
</g>
</g>
</svg>
