<?xml version="1.0" encoding="UTF-8" standalone="no"?>
<!DOCTYPE svg PUBLIC "-//W3C//DTD SVG 1.1//EN"
 "http://www.w3.org/Graphics/SVG/1.1/DTD/svg11.dtd">
<!-- Generated by graphviz version 9.0.0 (20230911.1827)
 -->
<!-- Title: DinoColor.__unnamed1__ Pages: 1 -->
<svg width="128pt" height="102pt"
 viewBox="0.00 0.00 128.00 102.00" xmlns="http://www.w3.org/2000/svg" xmlns:xlink="http://www.w3.org/1999/xlink">
<g id="graph0" class="graph" transform="scale(1 1) rotate(0) translate(4 98)">
<title>DinoColor.__unnamed1__</title>
<!-- Node1 -->
<g id="Node000001" class="node">
<title>Node1</title>
<g id="a_Node000001"><a xlink:title=" ">
<polygon fill="#999999" stroke="none" points="120,-94 0,-94 0,0 120,0 120,-94"/>
<text text-anchor="start" x="4.88" y="-80.5" font-family="Helvetica,sans-Serif" font-size="10.00">DinoColor.__unnamed1__</text>
<text text-anchor="start" x="28" y="-65.5" font-family="Helvetica,sans-Serif" font-size="10.00">+</text>
<text text-anchor="start" x="62" y="-65.5" font-family="Helvetica,sans-Serif" font-size="10.00">r</text>
<text text-anchor="start" x="28" y="-50.5" font-family="Helvetica,sans-Serif" font-size="10.00">+</text>
<text text-anchor="start" x="62" y="-50.5" font-family="Helvetica,sans-Serif" font-size="10.00">g</text>
<text text-anchor="start" x="28" y="-35.5" font-family="Helvetica,sans-Serif" font-size="10.00">+</text>
<text text-anchor="start" x="62" y="-35.5" font-family="Helvetica,sans-Serif" font-size="10.00">b</text>
<text text-anchor="start" x="28" y="-20.5" font-family="Helvetica,sans-Serif" font-size="10.00">+</text>
<text text-anchor="start" x="62" y="-20.5" font-family="Helvetica,sans-Serif" font-size="10.00">a</text>
<text text-anchor="start" x="58.5" y="-5.5" font-family="Helvetica,sans-Serif" font-size="10.00"> </text>
<polygon fill="#666666" stroke="#666666" points="0,-77 0,-77 120,-77 120,-77 0,-77"/>
<polygon fill="#666666" stroke="#666666" points="0,-17 0,-17 60,-17 60,-17 0,-17"/>
<polygon fill="#666666" stroke="#666666" points="60,-17 60,-17 120,-17 120,-17 60,-17"/>
<polygon fill="none" stroke="#666666" points="0,0 0,-94 120,-94 120,0 0,0"/>
</a>
</g>
</g>
</g>
</svg>
