<?xml version="1.0" encoding="UTF-8" standalone="no"?>
<!DOCTYPE svg PUBLIC "-//W3C//DTD SVG 1.1//EN"
 "http://www.w3.org/Graphics/SVG/1.1/DTD/svg11.dtd">
<!-- Generated by graphviz version 9.0.0 (20230911.1827)
 -->
<!-- Title: DinoDrawCall Pages: 1 -->
<svg width="98pt" height="213pt"
 viewBox="0.00 0.00 97.75 213.25" xmlns="http://www.w3.org/2000/svg" xmlns:xlink="http://www.w3.org/1999/xlink">
<g id="graph0" class="graph" transform="scale(1 1) rotate(0) translate(4 209.25)">
<title>DinoDrawCall</title>
<!-- Node1 -->
<g id="Node000001" class="node">
<title>Node1</title>
<g id="a_Node000001"><a xlink:title="Représente une demande de dessin à la carte graphique.">
<polygon fill="#999999" stroke="none" points="73,-94 0,-94 0,0 73,0 73,-94"/>
<text text-anchor="start" x="7.25" y="-80.5" font-family="Helvetica,sans-Serif" font-size="10.00">DinoDrawCall</text>
<text text-anchor="start" x="4" y="-65.5" font-family="Helvetica,sans-Serif" font-size="10.00">+</text>
<text text-anchor="start" x="14" y="-65.5" font-family="Helvetica,sans-Serif" font-size="10.00">vertices</text>
<text text-anchor="start" x="4" y="-50.5" font-family="Helvetica,sans-Serif" font-size="10.00">+</text>
<text text-anchor="start" x="14" y="-50.5" font-family="Helvetica,sans-Serif" font-size="10.00">textureName</text>
<text text-anchor="start" x="4" y="-35.5" font-family="Helvetica,sans-Serif" font-size="10.00">+</text>
<text text-anchor="start" x="14" y="-35.5" font-family="Helvetica,sans-Serif" font-size="10.00">rotation</text>
<text text-anchor="start" x="4" y="-20.5" font-family="Helvetica,sans-Serif" font-size="10.00">+</text>
<text text-anchor="start" x="14" y="-20.5" font-family="Helvetica,sans-Serif" font-size="10.00">scale</text>
<text text-anchor="start" x="35" y="-5.5" font-family="Helvetica,sans-Serif" font-size="10.00"> </text>
<polygon fill="#666666" stroke="#666666" points="0,-77 0,-77 73,-77 73,-77 0,-77"/>
<polygon fill="#666666" stroke="#666666" points="0,-17 0,-17 12,-17 12,-17 0,-17"/>
<polygon fill="#666666" stroke="#666666" points="12,-17 12,-17 73,-17 73,-17 12,-17"/>
<polygon fill="none" stroke="#666666" points="0,0 0,-94 73,-94 73,0 0,0"/>
</a>
</g>
</g>
<!-- Node2 -->
<g id="Node000002" class="node">
<title>Node2</title>
<g id="a_Node000002"><a xlink:href="xdino_8h.html#structDinoVec2" target="_top" xlink:title="Représente une coordonnée 2D en pixels.">
<polygon fill="white" stroke="none" points="62.5,-205.25 10.5,-205.25 10.5,-141.25 62.5,-141.25 62.5,-205.25"/>
<text text-anchor="start" x="15.5" y="-191.75" font-family="Helvetica,sans-Serif" font-size="10.00">DinoVec2</text>
<text text-anchor="start" x="22" y="-176.75" font-family="Helvetica,sans-Serif" font-size="10.00">+</text>
<text text-anchor="start" x="39.5" y="-176.75" font-family="Helvetica,sans-Serif" font-size="10.00">x</text>
<text text-anchor="start" x="22" y="-161.75" font-family="Helvetica,sans-Serif" font-size="10.00">+</text>
<text text-anchor="start" x="39.5" y="-161.75" font-family="Helvetica,sans-Serif" font-size="10.00">y</text>
<text text-anchor="start" x="35" y="-146.75" font-family="Helvetica,sans-Serif" font-size="10.00"> </text>
<polygon fill="#666666" stroke="#666666" points="10.5,-188.25 10.5,-188.25 62.5,-188.25 62.5,-188.25 10.5,-188.25"/>
<polygon fill="#666666" stroke="#666666" points="10.5,-158.25 10.5,-158.25 37.5,-158.25 37.5,-158.25 10.5,-158.25"/>
<polygon fill="#666666" stroke="#666666" points="37.5,-158.25 37.5,-158.25 62.5,-158.25 62.5,-158.25 37.5,-158.25"/>
<polygon fill="none" stroke="#666666" points="10.5,-141.25 10.5,-205.25 62.5,-205.25 62.5,-141.25 10.5,-141.25"/>
</a>
</g>
</g>
<!-- Node2&#45;&gt;Node1 -->
<g id="edge1_Node000001_Node000002" class="edge">
<title>Node2&#45;&gt;Node1</title>
<g id="a_edge1_Node000001_Node000002"><a xlink:title=" ">
<path fill="none" stroke="#63b8ff" d="M36.5,-141.54C36.5,-130.98 36.5,-118.79 36.5,-106.76"/>
<polygon fill="none" stroke="#63b8ff" points="36.5,-106.76 32.5,-100.76 36.5,-94.76 40.5,-100.76 36.5,-106.76"/>
</a>
</g>
<text text-anchor="middle" x="63.12" y="-113.75" font-family="Helvetica,sans-Serif" font-size="10.00" fill="grey"> +translation</text>
</g>
</g>
</svg>
