<?xml version="1.0" encoding="UTF-8" standalone="no"?>
<!DOCTYPE svg PUBLIC "-//W3C//DTD SVG 1.1//EN"
 "http://www.w3.org/Graphics/SVG/1.1/DTD/svg11.dtd">
<!-- Generated by graphviz version 9.0.0 (20230911.1827)
 -->
<!-- Title: XDino_DestroyGpuTexture Pages: 1 -->
<svg width="511pt" height="64pt"
 viewBox="0.00 0.00 510.75 64.25" xmlns="http://www.w3.org/2000/svg" xmlns:xlink="http://www.w3.org/1999/xlink">
<g id="graph0" class="graph" transform="scale(1 1) rotate(0) translate(4 60.25)">
<title>XDino_DestroyGpuTexture</title>
<!-- Node1 -->
<g id="Node000001" class="node">
<title>Node1</title>
<g id="a_Node000001"><a xlink:title="Décharge la texture identifiée par &#39;texID&#39; de la carte graphique.">
<polygon fill="#999999" stroke="#666666" points="502.75,-37.25 372,-37.25 372,-18 502.75,-18 502.75,-37.25"/>
<text text-anchor="middle" x="437.38" y="-23.75" font-family="Helvetica,sans-Serif" font-size="10.00">XDino_DestroyGpuTexture</text>
</a>
</g>
</g>
<!-- Node2 -->
<g id="Node000002" class="node">
<title>Node2</title>
<g id="a_Node000002"><a xlink:href="dino__game_8cpp.html#af5be2c6012bb9e2650a622d88c610fd6" target="_top" xlink:title="Appelé quand l&#39;utilisateur demande à quitter le jeu (touche ECHAP).">
<polygon fill="white" stroke="#666666" points="336,-56.25 248.75,-56.25 248.75,-37 336,-37 336,-56.25"/>
<text text-anchor="middle" x="292.38" y="-42.75" font-family="Helvetica,sans-Serif" font-size="10.00">Dino_GameShut</text>
</a>
</g>
</g>
<!-- Node1&#45;&gt;Node2 -->
<g id="edge1_Node000001_Node000002" class="edge">
<title>Node1&#45;&gt;Node2</title>
<g id="a_edge1_Node000001_Node000002"><a xlink:title=" ">
<path fill="none" stroke="#63b8ff" d="M360.31,-37.73C352.07,-38.83 343.9,-39.91 336.26,-40.93"/>
<polygon fill="#63b8ff" stroke="#63b8ff" points="360.62,-41.22 370.07,-36.43 359.7,-34.28 360.62,-41.22"/>
</a>
</g>
</g>
<!-- Node4 -->
<g id="Node000004" class="node">
<title>Node4</title>
<g id="a_Node000004"><a xlink:href="xdino__linux__main_8cpp.html#a8b096a8c85b239812dd34af59ae9951b" target="_top" xlink:title=" ">
<polygon fill="white" stroke="#666666" points="212.75,-19.25 101.5,-19.25 101.5,0 212.75,0 212.75,-19.25"/>
<text text-anchor="middle" x="157.12" y="-5.75" font-family="Helvetica,sans-Serif" font-size="10.00">XDino_Linux_Cleanup</text>
</a>
</g>
</g>
<!-- Node1&#45;&gt;Node4 -->
<g id="edge5_Node000001_Node000004" class="edge">
<title>Node1&#45;&gt;Node4</title>
<g id="a_edge5_Node000001_Node000004"><a xlink:title=" ">
<path fill="none" stroke="#63b8ff" d="M360.55,-22.72C313.87,-19.7 255.1,-15.9 212.93,-13.17"/>
<polygon fill="#63b8ff" stroke="#63b8ff" points="360.12,-26.2 370.33,-23.35 360.58,-19.21 360.12,-26.2"/>
</a>
</g>
</g>
<!-- Node3 -->
<g id="Node000003" class="node">
<title>Node3</title>
<g id="a_Node000003"><a xlink:href="xdino__win64__main_8cpp.html#aa0e1ecfaa9e7f124f36e8666a1cb66f9" target="_top" xlink:title=" ">
<polygon fill="white" stroke="#666666" points="183.88,-56.25 130.38,-56.25 130.38,-37 183.88,-37 183.88,-56.25"/>
<text text-anchor="middle" x="157.12" y="-42.75" font-family="Helvetica,sans-Serif" font-size="10.00">WinMain</text>
</a>
</g>
</g>
<!-- Node2&#45;&gt;Node3 -->
<g id="edge2_Node000002_Node000003" class="edge">
<title>Node2&#45;&gt;Node3</title>
<g id="a_edge2_Node000002_Node000003"><a xlink:title=" ">
<path fill="none" stroke="#63b8ff" d="M237.04,-46.62C218.81,-46.62 199.3,-46.62 184.24,-46.62"/>
<polygon fill="#63b8ff" stroke="#63b8ff" points="236.97,-50.13 246.97,-46.63 236.97,-43.13 236.97,-50.13"/>
</a>
</g>
</g>
<!-- Node2&#45;&gt;Node4 -->
<g id="edge3_Node000002_Node000004" class="edge">
<title>Node2&#45;&gt;Node4</title>
<g id="a_edge3_Node000002_Node000004"><a xlink:title=" ">
<path fill="none" stroke="#63b8ff" d="M244.01,-33.47C227.73,-28.95 209.76,-23.96 194.49,-19.72"/>
<polygon fill="#63b8ff" stroke="#63b8ff" points="242.93,-36.81 253.51,-36.11 244.81,-30.06 242.93,-36.81"/>
</a>
</g>
</g>
<!-- Node5 -->
<g id="Node000005" class="node">
<title>Node5</title>
<g id="a_Node000005"><a xlink:href="xdino__linux__main_8cpp.html#a4646b314f2ba6df59c9b1805dd568b18" target="_top" xlink:title=" ">
<polygon fill="white" stroke="#666666" points="65.5,-19.25 0,-19.25 0,0 65.5,0 65.5,-19.25"/>
<text text-anchor="middle" x="32.75" y="-5.75" font-family="Helvetica,sans-Serif" font-size="10.00">sokol_main</text>
</a>
</g>
</g>
<!-- Node4&#45;&gt;Node5 -->
<g id="edge4_Node000004_Node000005" class="edge">
<title>Node4&#45;&gt;Node5</title>
<g id="a_edge4_Node000004_Node000005"><a xlink:title=" ">
<path fill="none" stroke="#63b8ff" d="M89.69,-9.62C81.39,-9.62 73.22,-9.62 65.8,-9.62"/>
<polygon fill="#63b8ff" stroke="#63b8ff" points="89.51,-13.13 99.51,-9.63 89.51,-6.13 89.51,-13.13"/>
</a>
</g>
</g>
</g>
</svg>
