<?xml version="1.0" encoding="UTF-8" standalone="no"?>
<!DOCTYPE svg PUBLIC "-//W3C//DTD SVG 1.1//EN"
 "http://www.w3.org/Graphics/SVG/1.1/DTD/svg11.dtd">
<!-- Generated by graphviz version 9.0.0 (20230911.1827)
 -->
<!-- Title: XDino_DestroyVertexBuffer Pages: 1 -->
<svg width="893pt" height="201pt"
 viewBox="0.00 0.00 893.00 200.99" xmlns="http://www.w3.org/2000/svg" xmlns:xlink="http://www.w3.org/1999/xlink">
<g id="graph0" class="graph" transform="scale(1 1) rotate(0) translate(4 196.99)">
<title>XDino_DestroyVertexBuffer</title>
<!-- Node1 -->
<g id="Node000001" class="node">
<title>Node1</title>
<g id="a_Node000001"><a xlink:title="Décharge la liste de sommets identifiée par &#39;vbufID&#39; de la carte graphique.">
<polygon fill="#999999" stroke="#666666" points="885,-102.24 751.25,-102.24 751.25,-82.99 885,-82.99 885,-102.24"/>
<text text-anchor="middle" x="818.12" y="-88.74" font-family="Helvetica,sans-Serif" font-size="10.00">XDino_DestroyVertexBuffer</text>
</a>
</g>
</g>
<!-- Node2 -->
<g id="Node000002" class="node">
<title>Node2</title>
<g id="a_Node000002"><a xlink:href="dino__game_8cpp.html#ac7b7408f18b3729af2f6e7f405f238e7" target="_top" xlink:title="Appelé pour générer chaque frame. Doit lireles entrées de jeu avec XDino_GetGamepad(),...">
<polygon fill="white" stroke="#666666" points="706.62,-177.24 611.88,-177.24 611.88,-157.99 706.62,-157.99 706.62,-177.24"/>
<text text-anchor="middle" x="659.25" y="-163.74" font-family="Helvetica,sans-Serif" font-size="10.00">Dino_GameFrame</text>
</a>
</g>
</g>
<!-- Node1&#45;&gt;Node2 -->
<g id="edge1_Node000001_Node000002" class="edge">
<title>Node1&#45;&gt;Node2</title>
<g id="a_edge1_Node000001_Node000002"><a xlink:title=" ">
<path fill="none" stroke="#63b8ff" d="M791.71,-108.66C771.52,-120.96 742.28,-137.77 715.25,-149.62 708.62,-152.52 701.38,-155.22 694.38,-157.59"/>
<polygon fill="#63b8ff" stroke="#63b8ff" points="793.42,-111.72 800.1,-103.49 789.75,-105.76 793.42,-111.72"/>
</a>
</g>
</g>
<!-- Node8 -->
<g id="Node000008" class="node">
<title>Node8</title>
<g id="a_Node000008"><a xlink:href="dino__game_8cpp.html#af5be2c6012bb9e2650a622d88c610fd6" target="_top" xlink:title="Appelé quand l&#39;utilisateur demande à quitter le jeu (touche ECHAP).">
<polygon fill="white" stroke="#666666" points="702.88,-64.24 615.62,-64.24 615.62,-44.99 702.88,-44.99 702.88,-64.24"/>
<text text-anchor="middle" x="659.25" y="-50.74" font-family="Helvetica,sans-Serif" font-size="10.00">Dino_GameShut</text>
</a>
</g>
</g>
<!-- Node1&#45;&gt;Node8 -->
<g id="edge7_Node000001_Node000008" class="edge">
<title>Node1&#45;&gt;Node8</title>
<g id="a_edge7_Node000001_Node000008"><a xlink:title=" ">
<path fill="none" stroke="#63b8ff" d="M764.47,-79.86C744.05,-74.92 721.01,-69.34 701.8,-64.68"/>
<polygon fill="#63b8ff" stroke="#63b8ff" points="763.48,-83.23 774.03,-82.18 765.13,-76.42 763.48,-83.23"/>
</a>
</g>
</g>
<!-- Node9 -->
<g id="Node000009" class="node">
<title>Node9</title>
<g id="a_Node000009"><a xlink:href="xdino__linux__main_8cpp.html#a8b096a8c85b239812dd34af59ae9951b" target="_top" xlink:title=" ">
<polygon fill="white" stroke="#666666" points="563.5,-102.24 452.25,-102.24 452.25,-82.99 563.5,-82.99 563.5,-102.24"/>
<text text-anchor="middle" x="507.88" y="-88.74" font-family="Helvetica,sans-Serif" font-size="10.00">XDino_Linux_Cleanup</text>
</a>
</g>
</g>
<!-- Node1&#45;&gt;Node9 -->
<g id="edge11_Node000001_Node000009" class="edge">
<title>Node1&#45;&gt;Node9</title>
<g id="a_edge11_Node000001_Node000009"><a xlink:title=" ">
<path fill="none" stroke="#63b8ff" d="M739.57,-92.62C684.71,-92.62 612.49,-92.62 563.58,-92.62"/>
<polygon fill="#63b8ff" stroke="#63b8ff" points="739.48,-96.12 749.48,-92.62 739.48,-89.12 739.48,-96.12"/>
</a>
</g>
</g>
<!-- Node10 -->
<g id="Node000010" class="node">
<title>Node10</title>
<g id="a_Node000010"><a xlink:href="xdino__win64__rdr_8cpp.html#a1114a89a9aca94743092c9e78a348e53" target="_top" xlink:title="Spécifique à la plateforme. Libère les ressources associées au rendu.">
<polygon fill="white" stroke="#666666" points="241.25,-26.24 89.5,-26.24 89.5,-6.99 241.25,-6.99 241.25,-26.24"/>
<text text-anchor="middle" x="165.38" y="-12.74" font-family="Helvetica,sans-Serif" font-size="10.00">XDino_Win64_DestroyRenderer</text>
</a>
</g>
</g>
<!-- Node1&#45;&gt;Node10 -->
<g id="edge12_Node000001_Node000010" class="edge">
<title>Node1&#45;&gt;Node10</title>
<g id="a_edge12_Node000001_Node000010"><a xlink:title=" ">
<path fill="none" stroke="#63b8ff" d="M794.87,-76.03C775.1,-62.34 744.84,-43.88 715.25,-35.62 551.1,10.23 348.58,1.31 241.31,-8.24"/>
<polygon fill="#63b8ff" stroke="#63b8ff" points="792.78,-78.84 802.96,-81.79 796.85,-73.14 792.78,-78.84"/>
</a>
</g>
</g>
<!-- Node11 -->
<g id="Node000011" class="node">
<title>Node11</title>
<g id="a_Node000011"><a xlink:href="xdino__impl_8h.html#afb7598b07900a9b7f46de9fae53de8a0" target="_top" xlink:title="Trucs communs entre les différentes implémentations de l&#39;API XDino. En général, cela concerne le debu...">
<polygon fill="white" stroke="#666666" points="715.25,-140.24 603.25,-140.24 603.25,-120.99 715.25,-120.99 715.25,-140.24"/>
<text text-anchor="middle" x="659.25" y="-126.74" font-family="Helvetica,sans-Serif" font-size="10.00">XDinoImpl_DrawStats</text>
</a>
</g>
</g>
<!-- Node1&#45;&gt;Node11 -->
<g id="edge14_Node000001_Node000011" class="edge">
<title>Node1&#45;&gt;Node11</title>
<g id="a_edge14_Node000001_Node000011"><a xlink:title=" ">
<path fill="none" stroke="#63b8ff" d="M764.47,-105.37C744.05,-110.32 721.01,-115.9 701.8,-120.55"/>
<polygon fill="#63b8ff" stroke="#63b8ff" points="765.13,-108.81 774.03,-103.06 763.48,-102.01 765.13,-108.81"/>
</a>
</g>
</g>
<!-- Node3 -->
<g id="Node000003" class="node">
<title>Node3</title>
<g id="a_Node000003"><a xlink:href="xdino__linux__main_8cpp.html#a23ab8c2bbf03b45563425c6f39f83e8e" target="_top" xlink:title=" ">
<polygon fill="white" stroke="#666666" points="559.75,-176.24 456,-176.24 456,-156.99 559.75,-156.99 559.75,-176.24"/>
<text text-anchor="middle" x="507.88" y="-162.74" font-family="Helvetica,sans-Serif" font-size="10.00">XDino_Linux_Frame</text>
</a>
</g>
</g>
<!-- Node2&#45;&gt;Node3 -->
<g id="edge2_Node000002_Node000003" class="edge">
<title>Node2&#45;&gt;Node3</title>
<g id="a_edge2_Node000002_Node000003"><a xlink:title=" ">
<path fill="none" stroke="#63b8ff" d="M600.07,-167.23C586.93,-167.14 573.07,-167.05 560.23,-166.96"/>
<polygon fill="#63b8ff" stroke="#63b8ff" points="599.86,-170.73 609.88,-167.3 599.91,-163.73 599.86,-170.73"/>
</a>
</g>
</g>
<!-- Node5 -->
<g id="Node000005" class="node">
<title>Node5</title>
<g id="a_Node000005"><a xlink:href="xdino__win64__main_8cpp.html#afa07de294d5b620ee39644b9661f0665" target="_top" xlink:title=" ">
<polygon fill="white" stroke="#666666" points="412.5,-139.24 277.25,-139.24 277.25,-119.99 412.5,-119.99 412.5,-139.24"/>
<text text-anchor="middle" x="344.88" y="-125.74" font-family="Helvetica,sans-Serif" font-size="10.00">XDino_Win64_HandleEvent</text>
</a>
</g>
</g>
<!-- Node2&#45;&gt;Node5 -->
<g id="edge4_Node000002_Node000005" class="edge">
<title>Node2&#45;&gt;Node5</title>
<g id="a_edge4_Node000002_Node000005"><a xlink:title=" ">
<path fill="none" stroke="#63b8ff" d="M611.81,-180.33C568.82,-190.05 503.44,-199.63 448.5,-185.62 413.49,-176.69 377.55,-153.1 358.9,-139.56"/>
<polygon fill="#63b8ff" stroke="#63b8ff" points="612.38,-183.79 621.31,-178.08 610.77,-176.98 612.38,-183.79"/>
</a>
</g>
</g>
<!-- Node4 -->
<g id="Node000004" class="node">
<title>Node4</title>
<g id="a_Node000004"><a xlink:href="xdino__linux__main_8cpp.html#a4646b314f2ba6df59c9b1805dd568b18" target="_top" xlink:title=" ">
<polygon fill="white" stroke="#666666" points="377.62,-102.24 312.12,-102.24 312.12,-82.99 377.62,-82.99 377.62,-102.24"/>
<text text-anchor="middle" x="344.88" y="-88.74" font-family="Helvetica,sans-Serif" font-size="10.00">sokol_main</text>
</a>
</g>
</g>
<!-- Node3&#45;&gt;Node4 -->
<g id="edge3_Node000003_Node000004" class="edge">
<title>Node3&#45;&gt;Node4</title>
<g id="a_edge3_Node000003_Node000004"><a xlink:title=" ">
<path fill="none" stroke="#63b8ff" d="M454.4,-151.93C452.37,-150.9 450.39,-149.79 448.5,-148.62 428.74,-136.34 432.48,-122.54 412.5,-110.62 402.01,-104.36 389.3,-100.23 377.81,-97.52"/>
<polygon fill="#63b8ff" stroke="#63b8ff" points="452.95,-155.12 463.51,-155.95 455.77,-148.71 452.95,-155.12"/>
</a>
</g>
</g>
<!-- Node6 -->
<g id="Node000006" class="node">
<title>Node6</title>
<g id="a_Node000006"><a xlink:href="xdino__win64__main_8cpp.html#a7202590da16f97f4cef692deb9001e27" target="_top" xlink:title=" ">
<polygon fill="white" stroke="#666666" points="236.75,-120.24 94,-120.24 94,-100.99 236.75,-100.99 236.75,-120.24"/>
<text text-anchor="middle" x="165.38" y="-106.74" font-family="Helvetica,sans-Serif" font-size="10.00">XDino_Win64_CreateWindow</text>
</a>
</g>
</g>
<!-- Node5&#45;&gt;Node6 -->
<g id="edge5_Node000005_Node000006" class="edge">
<title>Node5&#45;&gt;Node6</title>
<g id="a_edge5_Node000005_Node000006"><a xlink:title=" ">
<path fill="none" stroke="#63b8ff" d="M265.4,-121.22C255.99,-120.21 246.42,-119.19 237.13,-118.19"/>
<polygon fill="#63b8ff" stroke="#63b8ff" points="264.95,-124.69 275.26,-122.27 265.69,-117.73 264.95,-124.69"/>
</a>
</g>
</g>
<!-- Node7 -->
<g id="Node000007" class="node">
<title>Node7</title>
<g id="a_Node000007"><a xlink:href="xdino__win64__main_8cpp.html#aa0e1ecfaa9e7f124f36e8666a1cb66f9" target="_top" xlink:title=" ">
<polygon fill="white" stroke="#666666" points="53.5,-64.24 0,-64.24 0,-44.99 53.5,-44.99 53.5,-64.24"/>
<text text-anchor="middle" x="26.75" y="-50.74" font-family="Helvetica,sans-Serif" font-size="10.00">WinMain</text>
</a>
</g>
</g>
<!-- Node6&#45;&gt;Node7 -->
<g id="edge6_Node000006_Node000007" class="edge">
<title>Node6&#45;&gt;Node7</title>
<g id="a_edge6_Node000006_Node000007"><a xlink:title=" ">
<path fill="none" stroke="#63b8ff" d="M129.46,-96.31C105.37,-86.43 73.93,-73.55 52.42,-64.73"/>
<polygon fill="#63b8ff" stroke="#63b8ff" points="127.97,-99.48 138.55,-100.03 130.62,-93 127.97,-99.48"/>
</a>
</g>
</g>
<!-- Node8&#45;&gt;Node7 -->
<g id="edge8_Node000008_Node000007" class="edge">
<title>Node8&#45;&gt;Node7</title>
<g id="a_edge8_Node000008_Node000007"><a xlink:title=" ">
<path fill="none" stroke="#63b8ff" d="M604.19,-54.62C474.26,-54.62 148.19,-54.62 53.75,-54.62"/>
<polygon fill="#63b8ff" stroke="#63b8ff" points="603.9,-58.12 613.9,-54.62 603.9,-51.12 603.9,-58.12"/>
</a>
</g>
</g>
<!-- Node8&#45;&gt;Node9 -->
<g id="edge9_Node000008_Node000009" class="edge">
<title>Node8&#45;&gt;Node9</title>
<g id="a_edge9_Node000008_Node000009"><a xlink:title=" ">
<path fill="none" stroke="#63b8ff" d="M607.57,-67.51C588.26,-72.42 566.56,-77.94 548.44,-82.55"/>
<polygon fill="#63b8ff" stroke="#63b8ff" points="608.32,-70.93 617.15,-65.08 606.59,-64.15 608.32,-70.93"/>
</a>
</g>
</g>
<!-- Node9&#45;&gt;Node4 -->
<g id="edge10_Node000009_Node000004" class="edge">
<title>Node9&#45;&gt;Node4</title>
<g id="a_edge10_Node000009_Node000004"><a xlink:title=" ">
<path fill="none" stroke="#63b8ff" d="M440.47,-92.62C418.91,-92.62 395.96,-92.62 378.07,-92.62"/>
<polygon fill="#63b8ff" stroke="#63b8ff" points="440.4,-96.12 450.4,-92.62 440.4,-89.12 440.4,-96.12"/>
</a>
</g>
</g>
<!-- Node10&#45;&gt;Node7 -->
<g id="edge13_Node000010_Node000007" class="edge">
<title>Node10&#45;&gt;Node7</title>
<g id="a_edge13_Node000010_Node000007"><a xlink:title=" ">
<path fill="none" stroke="#63b8ff" d="M117.03,-29.79C95.82,-35.69 71.62,-42.42 53.77,-47.38"/>
<polygon fill="#63b8ff" stroke="#63b8ff" points="117.97,-33.16 126.66,-27.11 116.09,-26.42 117.97,-33.16"/>
</a>
</g>
</g>
<!-- Node11&#45;&gt;Node3 -->
<g id="edge15_Node000011_Node000003" class="edge">
<title>Node11&#45;&gt;Node3</title>
<g id="a_edge15_Node000011_Node000003"><a xlink:title=" ">
<path fill="none" stroke="#63b8ff" d="M605.13,-143.42C587.3,-147.72 567.68,-152.45 550.83,-156.51"/>
<polygon fill="#63b8ff" stroke="#63b8ff" points="605.87,-146.84 614.77,-141.1 604.23,-140.04 605.87,-146.84"/>
</a>
</g>
</g>
<!-- Node12 -->
<g id="Node000012" class="node">
<title>Node12</title>
<g id="a_Node000012"><a xlink:href="xdino__win64__rdr_8cpp.html#ad13ae3c31e66f2cdf34b75465d4bac17" target="_top" xlink:title="Spécifique à la plateforme. Finit la passe de rendu et envoit le travail à la carte graphique.">
<polygon fill="white" stroke="#666666" points="567.25,-139.24 448.5,-139.24 448.5,-119.99 567.25,-119.99 567.25,-139.24"/>
<text text-anchor="middle" x="507.88" y="-125.74" font-family="Helvetica,sans-Serif" font-size="10.00">XDino_Win64_EndDraw</text>
</a>
</g>
</g>
<!-- Node11&#45;&gt;Node12 -->
<g id="edge16_Node000011_Node000012" class="edge">
<title>Node11&#45;&gt;Node12</title>
<g id="a_edge16_Node000011_Node000012"><a xlink:title=" ">
<path fill="none" stroke="#63b8ff" d="M591.79,-130.17C583.73,-130.12 575.54,-130.07 567.6,-130.01"/>
<polygon fill="#63b8ff" stroke="#63b8ff" points="591.52,-133.67 601.54,-130.24 591.56,-126.67 591.52,-133.67"/>
</a>
</g>
</g>
<!-- Node12&#45;&gt;Node5 -->
<g id="edge17_Node000012_Node000005" class="edge">
<title>Node12&#45;&gt;Node5</title>
<g id="a_edge17_Node000012_Node000005"><a xlink:title=" ">
<path fill="none" stroke="#63b8ff" d="M436.79,-129.62C428.85,-129.62 420.77,-129.62 412.87,-129.62"/>
<polygon fill="#63b8ff" stroke="#63b8ff" points="436.78,-133.12 446.78,-129.62 436.78,-126.12 436.78,-133.12"/>
</a>
</g>
</g>
</g>
</svg>
