<?xml version="1.0" encoding="UTF-8" standalone="no"?>
<!DOCTYPE svg PUBLIC "-//W3C//DTD SVG 1.1//EN"
 "http://www.w3.org/Graphics/SVG/1.1/DTD/svg11.dtd">
<!-- Generated by graphviz version 9.0.0 (20230911.1827)
 -->
<!-- Title: xdino_linux_main.cpp Pages: 1 -->
<!--zoomable 248 -->

<svg id="main" version="1.1" xmlns="http://www.w3.org/2000/svg" xmlns:xlink="http://www.w3.org/1999/xlink" xml:space="preserve" onload="init(evt)">
<style type="text/css"><![CDATA[
.node, .edge {opacity: 0.7;}
.node.selected, .edge.selected {opacity: 1;}
.edge:hover path { stroke: red; }
.edge:hover polygon { stroke: red; fill: red; }
]]></style>

<defs>
  <circle id="rim" cx="0" cy="0" r="7"/>
  <circle id="rim2" cx="0" cy="0" r="3.5"/>
  <g id="zoomPlus">
    <use xlink:href="#rim" fill="#404040"><set attributeName="fill" to="#808080" begin="zoomplus.mouseover" end="zoomplus.mouseout"/></use>
    <path d="M-4,0h8M0,-4v8" fill="none" stroke="white" stroke-width="1.5" pointer-events="none"/>
  </g>
  <g id="zoomMin">
    <use xlink:href="#rim" fill="#404040"><set attributeName="fill" to="#808080" begin="zoomminus.mouseover" end="zoomminus.mouseout"/></use>
    <path d="M-4,0h8" fill="none" stroke="white" stroke-width="1.5" pointer-events="none"/>
  </g>
  <g id="arrowUp" transform="translate(30 24)">
    <use xlink:href="#rim"/>
    <path pointer-events="none" fill="none" stroke="white" stroke-width="1.5" d="M0,-3.0v7 M-2.5,-0.5L0,-3.0L2.5,-0.5"/>
  </g>
  <g id="arrowRight" transform="rotate(90) translate(36 -43)">
    <use xlink:href="#rim"/>
    <path pointer-events="none" fill="none" stroke="white" stroke-width="1.5" d="M0,-3.0v7 M-2.5,-0.5L0,-3.0L2.5,-0.5"/>
  </g>
  <g id="arrowDown" transform="rotate(180) translate(-30 -48)">
    <use xlink:href="#rim"/>
    <path pointer-events="none" fill="none" stroke="white" stroke-width="1.5" d="M0,-3.0v7 M-2.5,-0.5L0,-3.0L2.5,-0.5"/>
  </g>
  <g id="arrowLeft" transform="rotate(270) translate(-36 17)">
    <use xlink:href="#rim"/>
    <path pointer-events="none" fill="none" stroke="white" stroke-width="1.5" d="M0,-3.0v7 M-2.5,-0.5L0,-3.0L2.5,-0.5"/>
  </g>
  <g id="resetDef">
    <use xlink:href="#rim2" fill="#404040"><set attributeName="fill" to="#808080" begin="reset.mouseover" end="reset.mouseout"/></use>
  </g>
</defs>
<script type="application/ecmascript">
var viewWidth = 1533;
var viewHeight = 248;
var sectionId = 'dynsection-0';
</script>
<script type="application/ecmascript" xlink:href="svg.min.js"/>
<svg id="graph" class="graph">
<g id="viewport">
<title>xdino_linux_main.cpp</title>
<!-- Node1 -->
<g id="Node000001" class="node">
<title>Node1</title>
<g id="a_Node000001"><a xlink:title=" ">
<polygon fill="#999999" stroke="#666666" points="671.25,-240.25 563.75,-240.25 563.75,-221 671.25,-221 671.25,-240.25"/>
<text text-anchor="middle" x="617.5" y="-226.75" font-family="Helvetica,sans-Serif" font-size="10.00">xdino_linux_main.cpp</text>
</a>
</g>
</g>
<!-- Node2 -->
<g id="Node000002" class="node">
<title>Node2</title>
<g id="a_Node000002"><a xlink:href="dino__draw__utils_8h.html" target="_top" xlink:title="Fonctions pour dessiner des primitives de rendu.">
<polygon fill="white" stroke="#666666" points="139.5,-129.75 27.5,-129.75 27.5,-110.5 139.5,-110.5 139.5,-129.75"/>
<text text-anchor="middle" x="83.5" y="-116.25" font-family="Helvetica,sans-Serif" font-size="10.00">dino/dino_draw_utils.h</text>
</a>
</g>
</g>
<!-- Node1&#45;&gt;Node2 -->
<g id="edge1_Node000001_Node000002" class="edge">
<title>Node1&#45;&gt;Node2</title>
<g id="a_edge1_Node000001_Node000002"><a xlink:title=" ">
<path fill="none" stroke="#63b8ff" d="M563.3,-228.68C457.09,-226.15 225.62,-217.01 153.5,-185 130.56,-174.82 110.1,-154.08 97.31,-138.99"/>
<polygon fill="#63b8ff" stroke="#63b8ff" points="100.04,-136.79 91.02,-131.23 94.6,-141.2 100.04,-136.79"/>
</a>
</g>
</g>
<!-- Node3 -->
<g id="Node000003" class="node">
<title>Node3</title>
<g id="a_Node000003"><a xlink:href="xdino_8h.html" target="_top" xlink:title="API d&#39;interaction entre le moteur de jeu &quot;XDino&quot; et la logique de jeu.">
<polygon fill="white" stroke="#666666" points="212,-74.5 145,-74.5 145,-55.25 212,-55.25 212,-74.5"/>
<text text-anchor="middle" x="178.5" y="-61" font-family="Helvetica,sans-Serif" font-size="10.00">dino/xdino.h</text>
</a>
</g>
</g>
<!-- Node1&#45;&gt;Node3 -->
<g id="edge8_Node000001_Node000003" class="edge">
<title>Node1&#45;&gt;Node3</title>
<g id="a_edge8_Node000001_Node000003"><a xlink:title=" ">
<path fill="none" stroke="#63b8ff" d="M563.48,-227.76C454.27,-223.46 215.33,-211.14 189.5,-185 163.79,-158.98 168.25,-112.39 173.53,-85.84"/>
<polygon fill="#63b8ff" stroke="#63b8ff" points="176.88,-86.89 175.66,-76.37 170.05,-85.36 176.88,-86.89"/>
</a>
</g>
</g>
<!-- Node6 -->
<g id="Node000006" class="node">
<title>Node6</title>
<g id="a_Node000006"><a xlink:title=" ">
<polygon fill="#e0e0e0" stroke="#999999" points="312,-19.25 269,-19.25 269,0 312,0 312,-19.25"/>
<text text-anchor="middle" x="290.5" y="-5.75" font-family="Helvetica,sans-Serif" font-size="10.00">vector</text>
</a>
</g>
</g>
<!-- Node1&#45;&gt;Node6 -->
<g id="edge18_Node000001_Node000006" class="edge">
<title>Node1&#45;&gt;Node6</title>
<g id="a_edge18_Node000001_Node000006"><a xlink:title=" ">
<path fill="none" stroke="#63b8ff" d="M563.43,-227.77C491.83,-224.21 370.84,-213.96 338.5,-185 293.72,-144.9 289.07,-67.27 289.58,-30.66"/>
<polygon fill="#63b8ff" stroke="#63b8ff" points="293.06,-31.16 289.86,-21.06 286.06,-30.95 293.06,-31.16"/>
</a>
</g>
</g>
<!-- Node9 -->
<g id="Node000009" class="node">
<title>Node9</title>
<g id="a_Node000009"><a xlink:href="xdino__impl_8h.html" target="_top" xlink:title=" ">
<polygon fill="white" stroke="#666666" points="288.62,-185 198.38,-185 198.38,-165.75 288.62,-165.75 288.62,-185"/>
<text text-anchor="middle" x="243.5" y="-171.5" font-family="Helvetica,sans-Serif" font-size="10.00">dino/xdino_impl.h</text>
</a>
</g>
</g>
<!-- Node1&#45;&gt;Node9 -->
<g id="edge9_Node000001_Node000009" class="edge">
<title>Node1&#45;&gt;Node9</title>
<g id="a_edge9_Node000001_Node000009"><a xlink:title=" ">
<path fill="none" stroke="#63b8ff" d="M563.52,-221.94C493.33,-211.95 371.33,-194.57 299.95,-184.41"/>
<polygon fill="#63b8ff" stroke="#63b8ff" points="300.84,-181 290.45,-183.06 299.85,-187.93 300.84,-181"/>
</a>
</g>
</g>
<!-- Node10 -->
<g id="Node000010" class="node">
<title>Node10</title>
<g id="a_Node000010"><a xlink:title=" ">
<polygon fill="#e0e0e0" stroke="#999999" points="391.38,-185 347.62,-185 347.62,-165.75 391.38,-165.75 391.38,-185"/>
<text text-anchor="middle" x="369.5" y="-171.5" font-family="Helvetica,sans-Serif" font-size="10.00">format</text>
</a>
</g>
</g>
<!-- Node1&#45;&gt;Node10 -->
<g id="edge14_Node000001_Node000010" class="edge">
<title>Node1&#45;&gt;Node10</title>
<g id="a_edge14_Node000001_Node000010"><a xlink:title=" ">
<path fill="none" stroke="#63b8ff" d="M568.59,-220.56C526.89,-212.61 465.1,-200.3 402.65,-185.39"/>
<polygon fill="#63b8ff" stroke="#63b8ff" points="403.82,-182.07 393.27,-183.13 402.18,-188.88 403.82,-182.07"/>
</a>
</g>
</g>
<!-- Node11 -->
<g id="Node000011" class="node">
<title>Node11</title>
<g id="a_Node000011"><a xlink:title=" ">
<polygon fill="#e0e0e0" stroke="#999999" points="443.88,-185 409.12,-185 409.12,-165.75 443.88,-165.75 443.88,-185"/>
<text text-anchor="middle" x="426.5" y="-171.5" font-family="Helvetica,sans-Serif" font-size="10.00">map</text>
</a>
</g>
</g>
<!-- Node1&#45;&gt;Node11 -->
<g id="edge15_Node000001_Node000011" class="edge">
<title>Node1&#45;&gt;Node11</title>
<g id="a_edge15_Node000001_Node000011"><a xlink:title=" ">
<path fill="none" stroke="#63b8ff" d="M582.5,-220.57C551.49,-212.45 504.73,-199.95 455.14,-185.38"/>
<polygon fill="#63b8ff" stroke="#63b8ff" points="456.22,-182.05 445.64,-182.57 454.23,-188.77 456.22,-182.05"/>
</a>
</g>
</g>
<!-- Node12 -->
<g id="Node000012" class="node">
<title>Node12</title>
<g id="a_Node000012"><a xlink:title=" ">
<polygon fill="#e0e0e0" stroke="#999999" points="510.62,-185 462.38,-185 462.38,-165.75 510.62,-165.75 510.62,-185"/>
<text text-anchor="middle" x="486.5" y="-171.5" font-family="Helvetica,sans-Serif" font-size="10.00">random</text>
</a>
</g>
</g>
<!-- Node1&#45;&gt;Node12 -->
<g id="edge16_Node000001_Node000012" class="edge">
<title>Node1&#45;&gt;Node12</title>
<g id="a_edge16_Node000001_Node000012"><a xlink:title=" ">
<path fill="none" stroke="#63b8ff" d="M595.28,-220.59C574.48,-212.14 543.15,-199.4 519.45,-189.77"/>
<polygon fill="#63b8ff" stroke="#63b8ff" points="520.82,-186.55 510.23,-186.02 518.18,-193.03 520.82,-186.55"/>
</a>
</g>
</g>
<!-- Node13 -->
<g id="Node000013" class="node">
<title>Node13</title>
<g id="a_Node000013"><a xlink:title=" ">
<polygon fill="#e0e0e0" stroke="#999999" points="611.88,-185 529.12,-185 529.12,-165.75 611.88,-165.75 611.88,-185"/>
<text text-anchor="middle" x="570.5" y="-171.5" font-family="Helvetica,sans-Serif" font-size="10.00">unordered_map</text>
</a>
</g>
</g>
<!-- Node1&#45;&gt;Node13 -->
<g id="edge17_Node000001_Node000013" class="edge">
<title>Node1&#45;&gt;Node13</title>
<g id="a_edge17_Node000001_Node000013"><a xlink:title=" ">
<path fill="none" stroke="#63b8ff" d="M609.74,-220.83C603.31,-213.55 593.99,-202.98 586.04,-193.98"/>
<polygon fill="#63b8ff" stroke="#63b8ff" points="588.67,-191.68 579.43,-186.49 583.42,-196.31 588.67,-191.68"/>
</a>
</g>
</g>
<!-- Node14 -->
<g id="Node000014" class="node">
<title>Node14</title>
<g id="a_Node000014"><a xlink:title=" ">
<polygon fill="#e0e0e0" stroke="#999999" points="698.75,-185 630.25,-185 630.25,-165.75 698.75,-165.75 698.75,-185"/>
<text text-anchor="middle" x="664.5" y="-171.5" font-family="Helvetica,sans-Serif" font-size="10.00">sys/mman.h</text>
</a>
</g>
</g>
<!-- Node1&#45;&gt;Node14 -->
<g id="edge19_Node000001_Node000014" class="edge">
<title>Node1&#45;&gt;Node14</title>
<g id="a_edge19_Node000001_Node000014"><a xlink:title=" ">
<path fill="none" stroke="#63b8ff" d="M625.26,-220.83C631.69,-213.55 641.01,-202.98 648.96,-193.98"/>
<polygon fill="#63b8ff" stroke="#63b8ff" points="651.58,-196.31 655.57,-186.49 646.33,-191.68 651.58,-196.31"/>
</a>
</g>
</g>
<!-- Node15 -->
<g id="Node000015" class="node">
<title>Node15</title>
<g id="a_Node000015"><a xlink:title=" ">
<polygon fill="#e0e0e0" stroke="#999999" points="810.5,-185 716.5,-185 716.5,-165.75 810.5,-165.75 810.5,-185"/>
<text text-anchor="middle" x="763.5" y="-171.5" font-family="Helvetica,sans-Serif" font-size="10.00">sokol/sokol_app.h</text>
</a>
</g>
</g>
<!-- Node1&#45;&gt;Node15 -->
<g id="edge20_Node000001_Node000015" class="edge">
<title>Node1&#45;&gt;Node15</title>
<g id="a_edge20_Node000001_Node000015"><a xlink:title=" ">
<path fill="none" stroke="#63b8ff" d="M642.27,-220.59C665.76,-212.02 701.31,-199.06 727.85,-189.38"/>
<polygon fill="#63b8ff" stroke="#63b8ff" points="728.99,-192.69 737.19,-185.97 726.6,-186.11 728.99,-192.69"/>
</a>
</g>
</g>
<!-- Node16 -->
<g id="Node000016" class="node">
<title>Node16</title>
<g id="a_Node000016"><a xlink:title=" ">
<polygon fill="#e0e0e0" stroke="#999999" points="920,-185 829,-185 829,-165.75 920,-165.75 920,-185"/>
<text text-anchor="middle" x="874.5" y="-171.5" font-family="Helvetica,sans-Serif" font-size="10.00">sokol/sokol_gfx.h</text>
</a>
</g>
</g>
<!-- Node1&#45;&gt;Node16 -->
<g id="edge21_Node000001_Node000016" class="edge">
<title>Node1&#45;&gt;Node16</title>
<g id="a_edge21_Node000001_Node000016"><a xlink:title=" ">
<path fill="none" stroke="#63b8ff" d="M661.39,-220.53C705.09,-211.48 772.31,-197.55 819.54,-187.76"/>
<polygon fill="#63b8ff" stroke="#63b8ff" points="820.23,-191.19 829.31,-185.74 818.81,-184.34 820.23,-191.19"/>
</a>
</g>
</g>
<!-- Node17 -->
<g id="Node000017" class="node">
<title>Node17</title>
<g id="a_Node000017"><a xlink:title=" ">
<polygon fill="#e0e0e0" stroke="#999999" points="1034.62,-185 938.38,-185 938.38,-165.75 1034.62,-165.75 1034.62,-185"/>
<text text-anchor="middle" x="986.5" y="-171.5" font-family="Helvetica,sans-Serif" font-size="10.00">sokol/sokol_glue.h</text>
</a>
</g>
</g>
<!-- Node1&#45;&gt;Node17 -->
<g id="edge22_Node000001_Node000017" class="edge">
<title>Node1&#45;&gt;Node17</title>
<g id="a_edge22_Node000001_Node000017"><a xlink:title=" ">
<path fill="none" stroke="#63b8ff" d="M671.63,-222.02C731.5,-213.58 831.14,-199.43 926.67,-185.41"/>
<polygon fill="#63b8ff" stroke="#63b8ff" points="927.11,-188.88 936.5,-183.96 926.09,-181.95 927.11,-188.88"/>
</a>
</g>
</g>
<!-- Node18 -->
<g id="Node000018" class="node">
<title>Node18</title>
<g id="a_Node000018"><a xlink:title=" ">
<polygon fill="#e0e0e0" stroke="#999999" points="1144,-185 1053,-185 1053,-165.75 1144,-165.75 1144,-185"/>
<text text-anchor="middle" x="1098.5" y="-171.5" font-family="Helvetica,sans-Serif" font-size="10.00">sokol/sokol_log.h</text>
</a>
</g>
</g>
<!-- Node1&#45;&gt;Node18 -->
<g id="edge23_Node000001_Node000018" class="edge">
<title>Node1&#45;&gt;Node18</title>
<g id="a_edge23_Node000001_Node000018"><a xlink:title=" ">
<path fill="none" stroke="#63b8ff" d="M671.74,-224.84C750.64,-217.68 901.97,-203.21 1041.32,-185.22"/>
<polygon fill="#63b8ff" stroke="#63b8ff" points="1041.64,-188.71 1051.11,-183.95 1040.74,-181.77 1041.64,-188.71"/>
</a>
</g>
</g>
<!-- Node19 -->
<g id="Node000019" class="node">
<title>Node19</title>
<g id="a_Node000019"><a xlink:title=" ">
<polygon fill="#e0e0e0" stroke="#999999" points="1259,-185 1162,-185 1162,-165.75 1259,-165.75 1259,-185"/>
<text text-anchor="middle" x="1210.5" y="-171.5" font-family="Helvetica,sans-Serif" font-size="10.00">sokol/sokol_time.h</text>
</a>
</g>
</g>
<!-- Node1&#45;&gt;Node19 -->
<g id="edge24_Node000001_Node000019" class="edge">
<title>Node1&#45;&gt;Node19</title>
<g id="a_edge24_Node000001_Node000019"><a xlink:title=" ">
<path fill="none" stroke="#63b8ff" d="M671.64,-226.32C766.51,-220.28 969.22,-206.18 1150.36,-185.3"/>
<polygon fill="#63b8ff" stroke="#63b8ff" points="1150.68,-188.79 1160.21,-184.15 1149.87,-181.83 1150.68,-188.79"/>
</a>
</g>
</g>
<!-- Node20 -->
<g id="Node000020" class="node">
<title>Node20</title>
<g id="a_Node000020"><a xlink:href="xdinordr_8sokol_8h.html" target="_top" xlink:title=" ">
<polygon fill="white" stroke="#666666" points="1421.62,-185 1277.38,-185 1277.38,-165.75 1421.62,-165.75 1421.62,-185"/>
<text text-anchor="middle" x="1349.5" y="-171.5" font-family="Helvetica,sans-Serif" font-size="10.00">dino/x64&#45;linux/xdinordr.sokol.h</text>
</a>
</g>
</g>
<!-- Node1&#45;&gt;Node20 -->
<g id="edge25_Node000001_Node000020" class="edge">
<title>Node1&#45;&gt;Node20</title>
<g id="a_edge25_Node000001_Node000020"><a xlink:title=" ">
<path fill="none" stroke="#63b8ff" d="M671.57,-226.61C781.41,-220.33 1038.83,-204.86 1265.96,-185.19"/>
<polygon fill="#63b8ff" stroke="#63b8ff" points="1265.92,-188.71 1275.58,-184.35 1265.32,-181.73 1265.92,-188.71"/>
</a>
</g>
</g>
<!-- Node21 -->
<g id="Node000021" class="node">
<title>Node21</title>
<g id="a_Node000021"><a xlink:title=" ">
<polygon fill="#e0e0e0" stroke="#999999" points="1525,-185 1440,-185 1440,-165.75 1525,-165.75 1525,-185"/>
<text text-anchor="middle" x="1482.5" y="-171.5" font-family="Helvetica,sans-Serif" font-size="10.00">stb/stb_image.h</text>
</a>
</g>
</g>
<!-- Node1&#45;&gt;Node21 -->
<g id="edge26_Node000001_Node000021" class="edge">
<title>Node1&#45;&gt;Node21</title>
<g id="a_edge26_Node000001_Node000021"><a xlink:title=" ">
<path fill="none" stroke="#63b8ff" d="M671.42,-228.71C800.37,-226.07 1136.93,-216.59 1428.48,-185.08"/>
<polygon fill="#63b8ff" stroke="#63b8ff" points="1428.64,-188.59 1438.2,-184.02 1427.88,-181.63 1428.64,-188.59"/>
</a>
</g>
</g>
<!-- Node2&#45;&gt;Node3 -->
<g id="edge2_Node000002_Node000003" class="edge">
<title>Node2&#45;&gt;Node3</title>
<g id="a_edge2_Node000002_Node000003"><a xlink:title=" ">
<path fill="none" stroke="#63b8ff" d="M99.62,-110.09C114.08,-101.98 135.58,-89.93 152.48,-80.46"/>
<polygon fill="#63b8ff" stroke="#63b8ff" points="153.97,-83.64 160.99,-75.69 150.55,-77.53 153.97,-83.64"/>
</a>
</g>
</g>
<!-- Node7 -->
<g id="Node000007" class="node">
<title>Node7</title>
<g id="a_Node000007"><a xlink:title=" ">
<polygon fill="#e0e0e0" stroke="#999999" points="37,-74.5 0,-74.5 0,-55.25 37,-55.25 37,-74.5"/>
<text text-anchor="middle" x="18.5" y="-61" font-family="Helvetica,sans-Serif" font-size="10.00">span</text>
</a>
</g>
</g>
<!-- Node2&#45;&gt;Node7 -->
<g id="edge6_Node000002_Node000007" class="edge">
<title>Node2&#45;&gt;Node7</title>
<g id="a_edge6_Node000002_Node000007"><a xlink:title=" ">
<path fill="none" stroke="#63b8ff" d="M72.47,-110.09C63.08,-102.4 49.35,-91.15 38.09,-81.93"/>
<polygon fill="#63b8ff" stroke="#63b8ff" points="40.49,-79.36 30.53,-75.73 36.05,-84.78 40.49,-79.36"/>
</a>
</g>
</g>
<!-- Node8 -->
<g id="Node000008" class="node">
<title>Node8</title>
<g id="a_Node000008"><a xlink:title=" ">
<polygon fill="#e0e0e0" stroke="#999999" points="120.25,-74.5 54.75,-74.5 54.75,-55.25 120.25,-55.25 120.25,-74.5"/>
<text text-anchor="middle" x="87.5" y="-61" font-family="Helvetica,sans-Serif" font-size="10.00">string_view</text>
</a>
</g>
</g>
<!-- Node2&#45;&gt;Node8 -->
<g id="edge7_Node000002_Node000008" class="edge">
<title>Node2&#45;&gt;Node8</title>
<g id="a_edge7_Node000002_Node000008"><a xlink:title=" ">
<path fill="none" stroke="#63b8ff" d="M84.16,-110.33C84.66,-103.74 85.35,-94.46 85.98,-86.07"/>
<polygon fill="#63b8ff" stroke="#63b8ff" points="89.45,-86.6 86.71,-76.37 82.47,-86.08 89.45,-86.6"/>
</a>
</g>
</g>
<!-- Node4 -->
<g id="Node000004" class="node">
<title>Node4</title>
<g id="a_Node000004"><a xlink:title=" ">
<polygon fill="#e0e0e0" stroke="#999999" points="192.25,-19.25 144.75,-19.25 144.75,0 192.25,0 192.25,-19.25"/>
<text text-anchor="middle" x="168.5" y="-5.75" font-family="Helvetica,sans-Serif" font-size="10.00">stdint.h</text>
</a>
</g>
</g>
<!-- Node3&#45;&gt;Node4 -->
<g id="edge3_Node000003_Node000004" class="edge">
<title>Node3&#45;&gt;Node4</title>
<g id="a_edge3_Node000003_Node000004"><a xlink:title=" ">
<path fill="none" stroke="#63b8ff" d="M176.85,-55.08C175.61,-48.49 173.87,-39.21 172.29,-30.82"/>
<polygon fill="#63b8ff" stroke="#63b8ff" points="175.75,-30.28 170.47,-21.1 168.87,-31.57 175.75,-30.28"/>
</a>
</g>
</g>
<!-- Node5 -->
<g id="Node000005" class="node">
<title>Node5</title>
<g id="a_Node000005"><a xlink:title=" ">
<polygon fill="#e0e0e0" stroke="#999999" points="250.5,-19.25 210.5,-19.25 210.5,0 250.5,0 250.5,-19.25"/>
<text text-anchor="middle" x="230.5" y="-5.75" font-family="Helvetica,sans-Serif" font-size="10.00">string</text>
</a>
</g>
</g>
<!-- Node3&#45;&gt;Node5 -->
<g id="edge4_Node000003_Node000005" class="edge">
<title>Node3&#45;&gt;Node5</title>
<g id="a_edge4_Node000003_Node000005"><a xlink:title=" ">
<path fill="none" stroke="#63b8ff" d="M187.09,-55.08C194.34,-47.65 204.95,-36.79 213.87,-27.66"/>
<polygon fill="#63b8ff" stroke="#63b8ff" points="216.19,-30.29 220.67,-20.69 211.18,-25.4 216.19,-30.29"/>
</a>
</g>
</g>
<!-- Node3&#45;&gt;Node6 -->
<g id="edge5_Node000003_Node000006" class="edge">
<title>Node3&#45;&gt;Node6</title>
<g id="a_edge5_Node000003_Node000006"><a xlink:title=" ">
<path fill="none" stroke="#63b8ff" d="M197.5,-54.84C214.96,-46.54 241.1,-34.11 261.22,-24.54"/>
<polygon fill="#63b8ff" stroke="#63b8ff" points="262.51,-27.81 270.04,-20.35 259.51,-21.49 262.51,-27.81"/>
</a>
</g>
</g>
<!-- Node9&#45;&gt;Node2 -->
<g id="edge12_Node000009_Node000002" class="edge">
<title>Node9&#45;&gt;Node2</title>
<g id="a_edge12_Node000009_Node000002"><a xlink:title=" ">
<path fill="none" stroke="#63b8ff" d="M216.36,-165.34C190.27,-156.66 150.6,-143.46 121.4,-133.74"/>
<polygon fill="#63b8ff" stroke="#63b8ff" points="122.8,-130.52 112.21,-130.68 120.59,-137.16 122.8,-130.52"/>
</a>
</g>
</g>
<!-- Node9&#45;&gt;Node3 -->
<g id="edge13_Node000009_Node000003" class="edge">
<title>Node9&#45;&gt;Node3</title>
<g id="a_edge13_Node000009_Node000003"><a xlink:title=" ">
<path fill="none" stroke="#63b8ff" d="M238.18,-165.5C227.61,-147.85 203.77,-108.05 189.63,-84.45"/>
<polygon fill="#63b8ff" stroke="#63b8ff" points="192.81,-82.95 184.67,-76.18 186.81,-86.55 192.81,-82.95"/>
</a>
</g>
</g>
<!-- Node9&#45;&gt;Node5 -->
<g id="edge10_Node000009_Node000005" class="edge">
<title>Node9&#45;&gt;Node5</title>
<g id="a_edge10_Node000009_Node000005"><a xlink:title=" ">
<path fill="none" stroke="#63b8ff" d="M242.8,-165.57C240.79,-140.25 234.96,-66.75 232.1,-30.84"/>
<polygon fill="#63b8ff" stroke="#63b8ff" points="235.6,-30.67 231.32,-20.98 228.62,-31.23 235.6,-30.67"/>
</a>
</g>
</g>
<!-- Node9&#45;&gt;Node6 -->
<g id="edge11_Node000009_Node000006" class="edge">
<title>Node9&#45;&gt;Node6</title>
<g id="a_edge11_Node000009_Node000006"><a xlink:title=" ">
<path fill="none" stroke="#63b8ff" d="M246.03,-165.57C253.33,-140.14 274.58,-66.1 284.83,-30.37"/>
<polygon fill="#63b8ff" stroke="#63b8ff" points="288.15,-31.5 287.54,-20.93 281.42,-29.57 288.15,-31.5"/>
</a>
</g>
</g>
</g>
</svg>

<g id="navigator" transform="translate(0 0)" fill="#404254">
  <rect fill="#f2f5e9" fill-opacity="0.5" stroke="#606060" stroke-width=".5" x="0" y="0" width="60" height="60"/>
  <use id="zoomplus" xlink:href="#zoomPlus" x="17" y="9" onmousedown="handleZoom(evt,'in')"/>
  <use id="zoomminus" xlink:href="#zoomMin" x="42" y="9" onmousedown="handleZoom(evt,'out')"/>
  <use id="reset" xlink:href="#resetDef" x="30" y="36" onmousedown="handleReset()"/>
   <use id="arrowup" xlink:href="#arrowUp" x="0" y="0" onmousedown="handlePan(0,-1)"/>
  <use id="arrowright" xlink:href="#arrowRight" x="0" y="0" onmousedown="handlePan(1,0)"/>
  <use id="arrowdown" xlink:href="#arrowDown" x="0" y="0" onmousedown="handlePan(0,1)"/>
  <use id="arrowleft" xlink:href="#arrowLeft" x="0" y="0" onmousedown="handlePan(-1,0)"/>
</g>
<svg viewBox="0 0 15 15" width="100%" height="30px" preserveAspectRatio="xMaxYMin meet">
 <g id="arrow_out" transform="scale(0.3 0.3)">
  <a xlink:href="xdino__linux__main_8cpp__incl_org.svg" target="_base">
   <rect id="button" ry="5" rx="5" y="6" x="6" height="38" width="38"
        fill="#f2f5e9" fill-opacity="0.5" stroke="#606060" stroke-width="1.0"/>
   <path id="arrow"
     d="M 11.500037,31.436501 C 11.940474,20.09759 22.043105,11.32322 32.158766,21.979434 L 37.068811,17.246167 C 37.068811,17.246167 37.088388,32 37.088388,32 L 22.160133,31.978069 C 22.160133,31.978069 26.997745,27.140456 26.997745,27.140456 C 18.528582,18.264221 13.291696,25.230495 11.500037,31.436501 z"
     style="fill:#404040;"/>
  </a>
 </g>
</svg>

<style type='text/css'>
<![CDATA[
[data-mouse-over-selected='false'] { opacity: 0.7; }
[data-mouse-over-selected='true']  { opacity: 1.0; }
]]>
</style>
<script type="application/ecmascript"><![CDATA[
document.addEventListener('DOMContentLoaded', (event) => {
  highlightEdges();
  highlightAdjacentNodes();
});
]]></script>
</svg>
