<?xml version="1.0" encoding="UTF-8" standalone="no"?>
<!DOCTYPE svg PUBLIC "-//W3C//DTD SVG 1.1//EN"
 "http://www.w3.org/Graphics/SVG/1.1/DTD/svg11.dtd">
<!-- Generated by graphviz version 9.0.0 (20230911.1827)
 -->
<!-- Title: Dino_GameInit Pages: 1 -->
<svg width="241pt" height="64pt"
 viewBox="0.00 0.00 241.00 64.25" xmlns="http://www.w3.org/2000/svg" xmlns:xlink="http://www.w3.org/1999/xlink">
<g id="graph0" class="graph" transform="scale(1 1) rotate(0) translate(4 60.25)">
<title>Dino_GameInit</title>
<!-- Node1 -->
<g id="Node000001" class="node">
<title>Node1</title>
<g id="a_Node000001"><a xlink:title="Appelé au tout début, pour initialiser la logique de jeu.">
<polygon fill="#999999" stroke="#666666" points="80.5,-37.25 0,-37.25 0,-18 80.5,-18 80.5,-37.25"/>
<text text-anchor="middle" x="40.25" y="-23.75" font-family="Helvetica,sans-Serif" font-size="10.00">Dino_GameInit</text>
</a>
</g>
</g>
<!-- Node2 -->
<g id="Node000002" class="node">
<title>Node2</title>
<g id="a_Node000002"><a xlink:href="xdino__win64__rdr_8cpp.html#a8fb3a63e6442dd880092baee74243dd3" target="_top" xlink:title="Taille de la fenêtre sur l&#39;écran. Attention, différent de la résolution du rendu !">
<polygon fill="white" stroke="#666666" points="233,-56.25 116.5,-56.25 116.5,-37 233,-37 233,-56.25"/>
<text text-anchor="middle" x="174.75" y="-42.75" font-family="Helvetica,sans-Serif" font-size="10.00">XDino_GetWindowSize</text>
</a>
</g>
</g>
<!-- Node1&#45;&gt;Node2 -->
<g id="edge1_Node000001_Node000002" class="edge">
<title>Node1&#45;&gt;Node2</title>
<g id="a_edge1_Node000001_Node000002"><a xlink:title=" ">
<path fill="none" stroke="#63b8ff" d="M80.65,-33.27C88.3,-34.37 96.54,-35.55 104.82,-36.74"/>
<polygon fill="#63b8ff" stroke="#63b8ff" points="104.22,-40.19 114.62,-38.15 105.21,-33.26 104.22,-40.19"/>
</a>
</g>
</g>
<!-- Node3 -->
<g id="Node000003" class="node">
<title>Node3</title>
<g id="a_Node000003"><a xlink:href="xdino__win64__rdr_8cpp.html#a57ea716600a49f61ffff0bd33bd78a7d" target="_top" xlink:title="Modifie la taille de rendu. Les coordonnées passées dans les vertex sont en rapport à cette taille.">
<polygon fill="white" stroke="#666666" points="230.75,-19.25 118.75,-19.25 118.75,0 230.75,0 230.75,-19.25"/>
<text text-anchor="middle" x="174.75" y="-5.75" font-family="Helvetica,sans-Serif" font-size="10.00">XDino_SetRenderSize</text>
</a>
</g>
</g>
<!-- Node1&#45;&gt;Node3 -->
<g id="edge2_Node000001_Node000003" class="edge">
<title>Node1&#45;&gt;Node3</title>
<g id="a_edge2_Node000001_Node000003"><a xlink:title=" ">
<path fill="none" stroke="#63b8ff" d="M80.65,-22.27C89.11,-21.12 98.27,-19.88 107.44,-18.63"/>
<polygon fill="#63b8ff" stroke="#63b8ff" points="107.63,-22.14 117.07,-17.33 106.69,-15.2 107.63,-22.14"/>
</a>
</g>
</g>
</g>
</svg>
