<?xml version="1.0" encoding="UTF-8" standalone="no"?>
<!DOCTYPE svg PUBLIC "-//W3C//DTD SVG 1.1//EN"
 "http://www.w3.org/Graphics/SVG/1.1/DTD/svg11.dtd">
<!-- Generated by graphviz version 9.0.0 (20230911.1827)
 -->
<!-- Title: xdino_win64_rdr.cpp Pages: 1 -->
<!--zoomable 260 -->

<svg id="main" version="1.1" xmlns="http://www.w3.org/2000/svg" xmlns:xlink="http://www.w3.org/1999/xlink" xml:space="preserve" onload="init(evt)">
<style type="text/css"><![CDATA[
.node, .edge {opacity: 0.7;}
.node.selected, .edge.selected {opacity: 1;}
.edge:hover path { stroke: red; }
.edge:hover polygon { stroke: red; fill: red; }
]]></style>

<defs>
  <circle id="rim" cx="0" cy="0" r="7"/>
  <circle id="rim2" cx="0" cy="0" r="3.5"/>
  <g id="zoomPlus">
    <use xlink:href="#rim" fill="#404040"><set attributeName="fill" to="#808080" begin="zoomplus.mouseover" end="zoomplus.mouseout"/></use>
    <path d="M-4,0h8M0,-4v8" fill="none" stroke="white" stroke-width="1.5" pointer-events="none"/>
  </g>
  <g id="zoomMin">
    <use xlink:href="#rim" fill="#404040"><set attributeName="fill" to="#808080" begin="zoomminus.mouseover" end="zoomminus.mouseout"/></use>
    <path d="M-4,0h8" fill="none" stroke="white" stroke-width="1.5" pointer-events="none"/>
  </g>
  <g id="arrowUp" transform="translate(30 24)">
    <use xlink:href="#rim"/>
    <path pointer-events="none" fill="none" stroke="white" stroke-width="1.5" d="M0,-3.0v7 M-2.5,-0.5L0,-3.0L2.5,-0.5"/>
  </g>
  <g id="arrowRight" transform="rotate(90) translate(36 -43)">
    <use xlink:href="#rim"/>
    <path pointer-events="none" fill="none" stroke="white" stroke-width="1.5" d="M0,-3.0v7 M-2.5,-0.5L0,-3.0L2.5,-0.5"/>
  </g>
  <g id="arrowDown" transform="rotate(180) translate(-30 -48)">
    <use xlink:href="#rim"/>
    <path pointer-events="none" fill="none" stroke="white" stroke-width="1.5" d="M0,-3.0v7 M-2.5,-0.5L0,-3.0L2.5,-0.5"/>
  </g>
  <g id="arrowLeft" transform="rotate(270) translate(-36 17)">
    <use xlink:href="#rim"/>
    <path pointer-events="none" fill="none" stroke="white" stroke-width="1.5" d="M0,-3.0v7 M-2.5,-0.5L0,-3.0L2.5,-0.5"/>
  </g>
  <g id="resetDef">
    <use xlink:href="#rim2" fill="#404040"><set attributeName="fill" to="#808080" begin="reset.mouseover" end="reset.mouseout"/></use>
  </g>
</defs>
<script type="application/ecmascript">
var viewWidth = 1288;
var viewHeight = 260;
var sectionId = 'dynsection-0';
</script>
<script type="application/ecmascript" xlink:href="svg.min.js"/>
<svg id="graph" class="graph">
<g id="viewport">
<title>xdino_win64_rdr.cpp</title>
<!-- Node1 -->
<g id="Node000001" class="node">
<title>Node1</title>
<g id="a_Node000001"><a xlink:title="Implémentation du rendu graphique sur Windows.">
<polygon fill="#999999" stroke="#666666" points="756.5,-251.5 652.75,-251.5 652.75,-232.25 756.5,-232.25 756.5,-251.5"/>
<text text-anchor="middle" x="704.62" y="-238" font-family="Helvetica,sans-Serif" font-size="10.00">xdino_win64_rdr.cpp</text>
</a>
</g>
</g>
<!-- Node2 -->
<g id="Node000002" class="node">
<title>Node2</title>
<g id="a_Node000002"><a xlink:href="xdino__win64__rdr_8h.html" target="_top" xlink:title="Fonctions internes à XDino, pour le rendu graphique sur Windows. Ces fonctions communiquent avec la c...">
<polygon fill="white" stroke="#666666" points="159,-196.25 40.25,-196.25 40.25,-165.75 159,-165.75 159,-196.25"/>
<text text-anchor="start" x="48.25" y="-182.75" font-family="Helvetica,sans-Serif" font-size="10.00">dino/x64&#45;windows/xdino</text>
<text text-anchor="middle" x="99.62" y="-171.5" font-family="Helvetica,sans-Serif" font-size="10.00">_win64_rdr.h</text>
</a>
</g>
</g>
<!-- Node1&#45;&gt;Node2 -->
<g id="edge1_Node000001_Node000002" class="edge">
<title>Node1&#45;&gt;Node2</title>
<g id="a_edge1_Node000001_Node000002"><a xlink:title=" ">
<path fill="none" stroke="#63b8ff" d="M652.46,-238.13C557.63,-232.76 350.78,-219.34 177.62,-196.25 175.28,-195.94 172.9,-195.6 170.49,-195.25"/>
<polygon fill="#63b8ff" stroke="#63b8ff" points="171.07,-191.8 160.65,-193.72 169.99,-198.71 171.07,-191.8"/>
</a>
</g>
</g>
<!-- Node4 -->
<g id="Node000004" class="node">
<title>Node4</title>
<g id="a_Node000004"><a xlink:title=" ">
<polygon fill="#e0e0e0" stroke="#999999" points="230.62,-19.25 190.62,-19.25 190.62,0 230.62,0 230.62,-19.25"/>
<text text-anchor="middle" x="210.62" y="-5.75" font-family="Helvetica,sans-Serif" font-size="10.00">string</text>
</a>
</g>
</g>
<!-- Node1&#45;&gt;Node4 -->
<g id="edge21_Node000001_Node000004" class="edge">
<title>Node1&#45;&gt;Node4</title>
<g id="a_edge21_Node000001_Node000004"><a xlink:title=" ">
<path fill="none" stroke="#63b8ff" d="M652.52,-239.89C586.46,-237.27 469.82,-228.08 375.62,-196.25 318.96,-177.1 301.65,-171.3 258.62,-129.75 237.89,-109.72 235.42,-101.24 224.62,-74.5 218.95,-60.45 215.39,-43.68 213.28,-30.85"/>
<polygon fill="#63b8ff" stroke="#63b8ff" points="216.76,-30.47 211.84,-21.08 209.83,-31.48 216.76,-30.47"/>
</a>
</g>
</g>
<!-- Node6 -->
<g id="Node000006" class="node">
<title>Node6</title>
<g id="a_Node000006"><a xlink:href="xdino_8h.html" target="_top" xlink:title="API d&#39;interaction entre le moteur de jeu &quot;XDino&quot; et la logique de jeu.">
<polygon fill="white" stroke="#666666" points="463.12,-74.5 396.12,-74.5 396.12,-55.25 463.12,-55.25 463.12,-74.5"/>
<text text-anchor="middle" x="429.62" y="-61" font-family="Helvetica,sans-Serif" font-size="10.00">dino/xdino.h</text>
</a>
</g>
</g>
<!-- Node1&#45;&gt;Node6 -->
<g id="edge5_Node000001_Node000006" class="edge">
<title>Node1&#45;&gt;Node6</title>
<g id="a_edge5_Node000001_Node000006"><a xlink:title=" ">
<path fill="none" stroke="#63b8ff" d="M652.3,-237.44C614.16,-232.78 562.7,-221.85 524.62,-196.25 482.34,-167.82 452.18,-113.95 438.26,-85.16"/>
<polygon fill="#63b8ff" stroke="#63b8ff" points="441.48,-83.78 434.09,-76.19 435.14,-86.73 441.48,-83.78"/>
</a>
</g>
</g>
<!-- Node9 -->
<g id="Node000009" class="node">
<title>Node9</title>
<g id="a_Node000009"><a xlink:href="xdino__impl_8h.html" target="_top" xlink:title=" ">
<polygon fill="white" stroke="#666666" points="474.75,-190.62 384.5,-190.62 384.5,-171.38 474.75,-171.38 474.75,-190.62"/>
<text text-anchor="middle" x="429.62" y="-177.12" font-family="Helvetica,sans-Serif" font-size="10.00">dino/xdino_impl.h</text>
</a>
</g>
</g>
<!-- Node1&#45;&gt;Node9 -->
<g id="edge9_Node000001_Node000009" class="edge">
<title>Node1&#45;&gt;Node9</title>
<g id="a_edge9_Node000001_Node000009"><a xlink:title=" ">
<path fill="none" stroke="#63b8ff" d="M660.1,-231.81C616.97,-222.97 549.75,-209.02 491.62,-196.25 487.79,-195.41 483.82,-194.52 479.83,-193.63"/>
<polygon fill="#63b8ff" stroke="#63b8ff" points="480.63,-190.22 470.1,-191.42 479.08,-197.04 480.63,-190.22"/>
</a>
</g>
</g>
<!-- Node13 -->
<g id="Node000013" class="node">
<title>Node13</title>
<g id="a_Node000013"><a xlink:title=" ">
<polygon fill="#e0e0e0" stroke="#999999" points="577.12,-190.62 534.12,-190.62 534.12,-171.38 577.12,-171.38 577.12,-190.62"/>
<text text-anchor="middle" x="555.62" y="-177.12" font-family="Helvetica,sans-Serif" font-size="10.00">cmath</text>
</a>
</g>
</g>
<!-- Node1&#45;&gt;Node13 -->
<g id="edge17_Node000001_Node000013" class="edge">
<title>Node1&#45;&gt;Node13</title>
<g id="a_edge17_Node000001_Node000013"><a xlink:title=" ">
<path fill="none" stroke="#63b8ff" d="M678.37,-231.75C654.09,-223.15 617.11,-209.6 585.62,-196.25 585.15,-196.05 584.67,-195.84 584.18,-195.63"/>
<polygon fill="#63b8ff" stroke="#63b8ff" points="585.85,-192.55 575.3,-191.61 582.97,-198.92 585.85,-192.55"/>
</a>
</g>
</g>
<!-- Node14 -->
<g id="Node000014" class="node">
<title>Node14</title>
<g id="a_Node000014"><a xlink:title=" ">
<polygon fill="#e0e0e0" stroke="#999999" points="638.5,-190.62 594.75,-190.62 594.75,-171.38 638.5,-171.38 638.5,-190.62"/>
<text text-anchor="middle" x="616.62" y="-177.12" font-family="Helvetica,sans-Serif" font-size="10.00">format</text>
</a>
</g>
</g>
<!-- Node1&#45;&gt;Node14 -->
<g id="edge18_Node000001_Node000014" class="edge">
<title>Node1&#45;&gt;Node14</title>
<g id="a_edge18_Node000001_Node000014"><a xlink:title=" ">
<path fill="none" stroke="#63b8ff" d="M691.26,-231.93C677.56,-222.77 656,-208.34 639.57,-197.35"/>
<polygon fill="#63b8ff" stroke="#63b8ff" points="641.63,-194.52 631.37,-191.87 637.74,-200.34 641.63,-194.52"/>
</a>
</g>
</g>
<!-- Node15 -->
<g id="Node000015" class="node">
<title>Node15</title>
<g id="a_Node000015"><a xlink:title=" ">
<polygon fill="#e0e0e0" stroke="#999999" points="691,-190.62 656.25,-190.62 656.25,-171.38 691,-171.38 691,-190.62"/>
<text text-anchor="middle" x="673.62" y="-177.12" font-family="Helvetica,sans-Serif" font-size="10.00">map</text>
</a>
</g>
</g>
<!-- Node1&#45;&gt;Node15 -->
<g id="edge19_Node000001_Node000015" class="edge">
<title>Node1&#45;&gt;Node15</title>
<g id="a_edge19_Node000001_Node000015"><a xlink:title=" ">
<path fill="none" stroke="#63b8ff" d="M699.92,-231.93C695.64,-223.81 689.18,-211.54 683.74,-201.2"/>
<polygon fill="#63b8ff" stroke="#63b8ff" points="686.84,-199.58 679.08,-192.37 680.64,-202.84 686.84,-199.58"/>
</a>
</g>
</g>
<!-- Node16 -->
<g id="Node000016" class="node">
<title>Node16</title>
<g id="a_Node000016"><a xlink:title=" ">
<polygon fill="#e0e0e0" stroke="#999999" points="762.38,-190.62 708.88,-190.62 708.88,-171.38 762.38,-171.38 762.38,-190.62"/>
<text text-anchor="middle" x="735.62" y="-177.12" font-family="Helvetica,sans-Serif" font-size="10.00">numbers</text>
</a>
</g>
</g>
<!-- Node1&#45;&gt;Node16 -->
<g id="edge20_Node000001_Node000016" class="edge">
<title>Node1&#45;&gt;Node16</title>
<g id="a_edge20_Node000001_Node000016"><a xlink:title=" ">
<path fill="none" stroke="#63b8ff" d="M709.33,-231.93C713.61,-223.81 720.07,-211.54 725.51,-201.2"/>
<polygon fill="#63b8ff" stroke="#63b8ff" points="728.61,-202.84 730.17,-192.37 722.41,-199.58 728.61,-202.84"/>
</a>
</g>
</g>
<!-- Node17 -->
<g id="Node000017" class="node">
<title>Node17</title>
<g id="a_Node000017"><a xlink:title=" ">
<polygon fill="#e0e0e0" stroke="#999999" points="863,-190.62 780.25,-190.62 780.25,-171.38 863,-171.38 863,-190.62"/>
<text text-anchor="middle" x="821.62" y="-177.12" font-family="Helvetica,sans-Serif" font-size="10.00">unordered_map</text>
</a>
</g>
</g>
<!-- Node1&#45;&gt;Node17 -->
<g id="edge22_Node000001_Node000017" class="edge">
<title>Node1&#45;&gt;Node17</title>
<g id="a_edge22_Node000001_Node000017"><a xlink:title=" ">
<path fill="none" stroke="#63b8ff" d="M722.65,-231.8C741.6,-222.27 771.66,-207.14 793.69,-196.06"/>
<polygon fill="#63b8ff" stroke="#63b8ff" points="795.06,-199.29 802.42,-191.66 791.91,-193.03 795.06,-199.29"/>
</a>
</g>
</g>
<!-- Node18 -->
<g id="Node000018" class="node">
<title>Node18</title>
<g id="a_Node000018"><a xlink:title=" ">
<polygon fill="#e0e0e0" stroke="#999999" points="930.5,-190.62 880.75,-190.62 880.75,-171.38 930.5,-171.38 930.5,-190.62"/>
<text text-anchor="middle" x="905.62" y="-177.12" font-family="Helvetica,sans-Serif" font-size="10.00">d3d11.h</text>
</a>
</g>
</g>
<!-- Node1&#45;&gt;Node18 -->
<g id="edge23_Node000001_Node000018" class="edge">
<title>Node1&#45;&gt;Node18</title>
<g id="a_edge23_Node000001_Node000018"><a xlink:title=" ">
<path fill="none" stroke="#63b8ff" d="M744.56,-231.82C778.68,-223.7 828.88,-210.84 871.62,-196.25 872.61,-195.92 873.6,-195.57 874.6,-195.21"/>
<polygon fill="#63b8ff" stroke="#63b8ff" points="875.84,-198.48 883.89,-191.59 873.3,-191.95 875.84,-198.48"/>
</a>
</g>
</g>
<!-- Node19 -->
<g id="Node000019" class="node">
<title>Node19</title>
<g id="a_Node000019"><a xlink:title=" ">
<polygon fill="#e0e0e0" stroke="#999999" points="1025,-190.62 948.25,-190.62 948.25,-171.38 1025,-171.38 1025,-190.62"/>
<text text-anchor="middle" x="986.62" y="-177.12" font-family="Helvetica,sans-Serif" font-size="10.00">d3dcommon.h</text>
</a>
</g>
</g>
<!-- Node1&#45;&gt;Node19 -->
<g id="edge24_Node000001_Node000019" class="edge">
<title>Node1&#45;&gt;Node19</title>
<g id="a_edge24_Node000001_Node000019"><a xlink:title=" ">
<path fill="none" stroke="#63b8ff" d="M756.77,-232.61C804.62,-224.65 877.32,-211.56 939.62,-196.25 942.21,-195.61 944.86,-194.92 947.53,-194.2"/>
<polygon fill="#63b8ff" stroke="#63b8ff" points="948.32,-197.61 956.97,-191.5 946.39,-190.88 948.32,-197.61"/>
</a>
</g>
</g>
<!-- Node20 -->
<g id="Node000020" class="node">
<title>Node20</title>
<g id="a_Node000020"><a xlink:title=" ">
<polygon fill="#e0e0e0" stroke="#999999" points="1118.62,-190.62 1042.62,-190.62 1042.62,-171.38 1118.62,-171.38 1118.62,-190.62"/>
<text text-anchor="middle" x="1080.62" y="-177.12" font-family="Helvetica,sans-Serif" font-size="10.00">d3dcompiler.h</text>
</a>
</g>
</g>
<!-- Node1&#45;&gt;Node20 -->
<g id="edge25_Node000001_Node000020" class="edge">
<title>Node1&#45;&gt;Node20</title>
<g id="a_edge25_Node000001_Node000020"><a xlink:title=" ">
<path fill="none" stroke="#63b8ff" d="M756.93,-236.38C822.21,-230.17 937.04,-217.3 1033.62,-196.25 1036.57,-195.61 1039.6,-194.87 1042.63,-194.08"/>
<polygon fill="#63b8ff" stroke="#63b8ff" points="1043.34,-197.51 1052.02,-191.44 1041.45,-190.78 1043.34,-197.51"/>
</a>
</g>
</g>
<!-- Node21 -->
<g id="Node000021" class="node">
<title>Node21</title>
<g id="a_Node000021"><a xlink:title=" ">
<polygon fill="#e0e0e0" stroke="#999999" points="1177,-190.62 1136.25,-190.62 1136.25,-171.38 1177,-171.38 1177,-190.62"/>
<text text-anchor="middle" x="1156.62" y="-177.12" font-family="Helvetica,sans-Serif" font-size="10.00">dxgi.h</text>
</a>
</g>
</g>
<!-- Node1&#45;&gt;Node21 -->
<g id="edge26_Node000001_Node000021" class="edge">
<title>Node1&#45;&gt;Node21</title>
<g id="a_edge26_Node000001_Node000021"><a xlink:title=" ">
<path fill="none" stroke="#63b8ff" d="M756.85,-241.19C837.86,-240.4 997.96,-233.66 1127.62,-196.25 1128.59,-195.97 1129.57,-195.66 1130.54,-195.33"/>
<polygon fill="#63b8ff" stroke="#63b8ff" points="1131.51,-198.72 1139.37,-191.62 1128.8,-192.26 1131.51,-198.72"/>
</a>
</g>
</g>
<!-- Node22 -->
<g id="Node000022" class="node">
<title>Node22</title>
<g id="a_Node000022"><a xlink:title=" ">
<polygon fill="#e0e0e0" stroke="#999999" points="1280.12,-190.62 1195.12,-190.62 1195.12,-171.38 1280.12,-171.38 1280.12,-190.62"/>
<text text-anchor="middle" x="1237.62" y="-177.12" font-family="Helvetica,sans-Serif" font-size="10.00">stb/stb_image.h</text>
</a>
</g>
</g>
<!-- Node1&#45;&gt;Node22 -->
<g id="edge27_Node000001_Node000022" class="edge">
<title>Node1&#45;&gt;Node22</title>
<g id="a_edge27_Node000001_Node000022"><a xlink:title=" ">
<path fill="none" stroke="#63b8ff" d="M756.99,-239.02C845.8,-235.2 1031.33,-224.33 1185.62,-196.25 1189.26,-195.59 1193.02,-194.79 1196.76,-193.92"/>
<polygon fill="#63b8ff" stroke="#63b8ff" points="1197.55,-197.33 1206.39,-191.49 1195.84,-190.54 1197.55,-197.33"/>
</a>
</g>
</g>
<!-- Node3 -->
<g id="Node000003" class="node">
<title>Node3</title>
<g id="a_Node000003"><a xlink:title=" ">
<polygon fill="#e0e0e0" stroke="#999999" points="45.25,-129.75 0,-129.75 0,-110.5 45.25,-110.5 45.25,-129.75"/>
<text text-anchor="middle" x="22.62" y="-116.25" font-family="Helvetica,sans-Serif" font-size="10.00">cstdint</text>
</a>
</g>
</g>
<!-- Node2&#45;&gt;Node3 -->
<g id="edge2_Node000002_Node000003" class="edge">
<title>Node2&#45;&gt;Node3</title>
<g id="a_edge2_Node000002_Node000003"><a xlink:title=" ">
<path fill="none" stroke="#63b8ff" d="M80.59,-165.45C69.32,-156.83 55.02,-145.9 43.45,-137.05"/>
<polygon fill="#63b8ff" stroke="#63b8ff" points="45.77,-134.41 35.7,-131.12 41.52,-139.98 45.77,-134.41"/>
</a>
</g>
</g>
<!-- Node2&#45;&gt;Node4 -->
<g id="edge3_Node000002_Node000004" class="edge">
<title>Node2&#45;&gt;Node4</title>
<g id="a_edge3_Node000002_Node000004"><a xlink:title=" ">
<path fill="none" stroke="#63b8ff" d="M110.38,-165.27C117.48,-155.37 126.87,-141.95 134.62,-129.75 155.12,-97.48 156.67,-87.23 177.62,-55.25 183.49,-46.3 190.48,-36.71 196.51,-28.73"/>
<polygon fill="#63b8ff" stroke="#63b8ff" points="199.26,-30.9 202.57,-20.84 193.7,-26.64 199.26,-30.9"/>
</a>
</g>
</g>
<!-- Node5 -->
<g id="Node000005" class="node">
<title>Node5</title>
<g id="a_Node000005"><a xlink:title=" ">
<polygon fill="#e0e0e0" stroke="#999999" points="125.5,-129.75 63.75,-129.75 63.75,-110.5 125.5,-110.5 125.5,-129.75"/>
<text text-anchor="middle" x="94.62" y="-116.25" font-family="Helvetica,sans-Serif" font-size="10.00">windows.h</text>
</a>
</g>
</g>
<!-- Node2&#45;&gt;Node5 -->
<g id="edge4_Node000002_Node000005" class="edge">
<title>Node2&#45;&gt;Node5</title>
<g id="a_edge4_Node000002_Node000005"><a xlink:title=" ">
<path fill="none" stroke="#63b8ff" d="M98.39,-165.45C97.77,-158.21 97.02,-149.34 96.35,-141.44"/>
<polygon fill="#63b8ff" stroke="#63b8ff" points="99.86,-141.38 95.52,-131.71 92.88,-141.97 99.86,-141.38"/>
</a>
</g>
</g>
<!-- Node6&#45;&gt;Node4 -->
<g id="edge7_Node000006_Node000004" class="edge">
<title>Node6&#45;&gt;Node4</title>
<g id="a_edge7_Node000006_Node000004"><a xlink:title=" ">
<path fill="none" stroke="#63b8ff" d="M395.89,-55.67C353.95,-45.48 282.94,-28.21 242.09,-18.28"/>
<polygon fill="#63b8ff" stroke="#63b8ff" points="242.95,-14.88 232.4,-15.92 241.29,-21.68 242.95,-14.88"/>
</a>
</g>
</g>
<!-- Node7 -->
<g id="Node000007" class="node">
<title>Node7</title>
<g id="a_Node000007"><a xlink:title=" ">
<polygon fill="#e0e0e0" stroke="#999999" points="452.38,-19.25 404.88,-19.25 404.88,0 452.38,0 452.38,-19.25"/>
<text text-anchor="middle" x="428.62" y="-5.75" font-family="Helvetica,sans-Serif" font-size="10.00">stdint.h</text>
</a>
</g>
</g>
<!-- Node6&#45;&gt;Node7 -->
<g id="edge6_Node000006_Node000007" class="edge">
<title>Node6&#45;&gt;Node7</title>
<g id="a_edge6_Node000006_Node000007"><a xlink:title=" ">
<path fill="none" stroke="#63b8ff" d="M429.46,-55.08C429.34,-48.57 429.17,-39.42 429.01,-31.12"/>
<polygon fill="#63b8ff" stroke="#63b8ff" points="432.51,-31.05 428.82,-21.12 425.51,-31.19 432.51,-31.05"/>
</a>
</g>
</g>
<!-- Node8 -->
<g id="Node000008" class="node">
<title>Node8</title>
<g id="a_Node000008"><a xlink:title=" ">
<polygon fill="#e0e0e0" stroke="#999999" points="513.12,-19.25 470.12,-19.25 470.12,0 513.12,0 513.12,-19.25"/>
<text text-anchor="middle" x="491.62" y="-5.75" font-family="Helvetica,sans-Serif" font-size="10.00">vector</text>
</a>
</g>
</g>
<!-- Node6&#45;&gt;Node8 -->
<g id="edge8_Node000006_Node000008" class="edge">
<title>Node6&#45;&gt;Node8</title>
<g id="a_edge8_Node000006_Node000008"><a xlink:title=" ">
<path fill="none" stroke="#63b8ff" d="M440.14,-54.84C449.01,-47.22 461.94,-36.12 472.61,-26.95"/>
<polygon fill="#63b8ff" stroke="#63b8ff" points="474.81,-29.68 480.11,-20.51 470.25,-24.37 474.81,-29.68"/>
</a>
</g>
</g>
<!-- Node9&#45;&gt;Node4 -->
<g id="edge10_Node000009_Node000004" class="edge">
<title>Node9&#45;&gt;Node4</title>
<g id="a_edge10_Node000009_Node000004"><a xlink:title=" ">
<path fill="none" stroke="#63b8ff" d="M384.18,-173.32C352.37,-166.71 310.39,-153.94 280.62,-129.75 247.84,-103.11 227.04,-56.75 217.24,-30.4"/>
<polygon fill="#63b8ff" stroke="#63b8ff" points="220.55,-29.25 213.92,-20.98 213.95,-31.58 220.55,-29.25"/>
</a>
</g>
</g>
<!-- Node9&#45;&gt;Node6 -->
<g id="edge16_Node000009_Node000006" class="edge">
<title>Node9&#45;&gt;Node6</title>
<g id="a_edge16_Node000009_Node000006"><a xlink:title=" ">
<path fill="none" stroke="#63b8ff" d="M429.62,-171.04C429.62,-152.88 429.62,-111.29 429.62,-86.2"/>
<polygon fill="#63b8ff" stroke="#63b8ff" points="433.13,-86.3 429.63,-76.3 426.13,-86.3 433.13,-86.3"/>
</a>
</g>
</g>
<!-- Node9&#45;&gt;Node8 -->
<g id="edge11_Node000009_Node000008" class="edge">
<title>Node9&#45;&gt;Node8</title>
<g id="a_edge11_Node000009_Node000008"><a xlink:title=" ">
<path fill="none" stroke="#63b8ff" d="M433.45,-171.06C441.13,-152.98 458.76,-110.73 471.62,-74.5 476.87,-59.73 482.14,-42.79 485.95,-30.07"/>
<polygon fill="#63b8ff" stroke="#63b8ff" points="489.21,-31.41 488.68,-20.82 482.49,-29.42 489.21,-31.41"/>
</a>
</g>
</g>
<!-- Node10 -->
<g id="Node000010" class="node">
<title>Node10</title>
<g id="a_Node000010"><a xlink:href="dino__draw__utils_8h.html" target="_top" xlink:title="Fonctions pour dessiner des primitives de rendu.">
<polygon fill="white" stroke="#666666" points="401.62,-129.75 289.62,-129.75 289.62,-110.5 401.62,-110.5 401.62,-129.75"/>
<text text-anchor="middle" x="345.62" y="-116.25" font-family="Helvetica,sans-Serif" font-size="10.00">dino/dino_draw_utils.h</text>
</a>
</g>
</g>
<!-- Node9&#45;&gt;Node10 -->
<g id="edge12_Node000009_Node000010" class="edge">
<title>Node9&#45;&gt;Node10</title>
<g id="a_edge12_Node000009_Node000010"><a xlink:title=" ">
<path fill="none" stroke="#63b8ff" d="M416.87,-171.06C403.79,-161.89 383.21,-147.47 367.53,-136.48"/>
<polygon fill="#63b8ff" stroke="#63b8ff" points="369.94,-133.89 359.74,-131.02 365.92,-139.63 369.94,-133.89"/>
</a>
</g>
</g>
<!-- Node10&#45;&gt;Node6 -->
<g id="edge13_Node000010_Node000006" class="edge">
<title>Node10&#45;&gt;Node6</title>
<g id="a_edge13_Node000010_Node000006"><a xlink:title=" ">
<path fill="none" stroke="#63b8ff" d="M359.87,-110.09C372.42,-102.14 390.96,-90.39 405.77,-81"/>
<polygon fill="#63b8ff" stroke="#63b8ff" points="407.46,-84.07 414.03,-75.76 403.71,-78.16 407.46,-84.07"/>
</a>
</g>
</g>
<!-- Node11 -->
<g id="Node000011" class="node">
<title>Node11</title>
<g id="a_Node000011"><a xlink:title=" ">
<polygon fill="#e0e0e0" stroke="#999999" points="295.12,-74.5 258.12,-74.5 258.12,-55.25 295.12,-55.25 295.12,-74.5"/>
<text text-anchor="middle" x="276.62" y="-61" font-family="Helvetica,sans-Serif" font-size="10.00">span</text>
</a>
</g>
</g>
<!-- Node10&#45;&gt;Node11 -->
<g id="edge14_Node000010_Node000011" class="edge">
<title>Node10&#45;&gt;Node11</title>
<g id="a_edge14_Node000010_Node000011"><a xlink:title=" ">
<path fill="none" stroke="#63b8ff" d="M333.92,-110.09C323.85,-102.32 309.08,-90.92 297.06,-81.65"/>
<polygon fill="#63b8ff" stroke="#63b8ff" points="299.41,-79.04 289.36,-75.7 295.13,-84.58 299.41,-79.04"/>
</a>
</g>
</g>
<!-- Node12 -->
<g id="Node000012" class="node">
<title>Node12</title>
<g id="a_Node000012"><a xlink:title=" ">
<polygon fill="#e0e0e0" stroke="#999999" points="378.38,-74.5 312.88,-74.5 312.88,-55.25 378.38,-55.25 378.38,-74.5"/>
<text text-anchor="middle" x="345.62" y="-61" font-family="Helvetica,sans-Serif" font-size="10.00">string_view</text>
</a>
</g>
</g>
<!-- Node10&#45;&gt;Node12 -->
<g id="edge15_Node000010_Node000012" class="edge">
<title>Node10&#45;&gt;Node12</title>
<g id="a_edge15_Node000010_Node000012"><a xlink:title=" ">
<path fill="none" stroke="#63b8ff" d="M345.62,-110.33C345.62,-103.82 345.62,-94.67 345.62,-86.37"/>
<polygon fill="#63b8ff" stroke="#63b8ff" points="349.13,-86.37 345.63,-76.37 342.13,-86.37 349.13,-86.37"/>
</a>
</g>
</g>
</g>
</svg>

<g id="navigator" transform="translate(0 0)" fill="#404254">
  <rect fill="#f2f5e9" fill-opacity="0.5" stroke="#606060" stroke-width=".5" x="0" y="0" width="60" height="60"/>
  <use id="zoomplus" xlink:href="#zoomPlus" x="17" y="9" onmousedown="handleZoom(evt,'in')"/>
  <use id="zoomminus" xlink:href="#zoomMin" x="42" y="9" onmousedown="handleZoom(evt,'out')"/>
  <use id="reset" xlink:href="#resetDef" x="30" y="36" onmousedown="handleReset()"/>
   <use id="arrowup" xlink:href="#arrowUp" x="0" y="0" onmousedown="handlePan(0,-1)"/>
  <use id="arrowright" xlink:href="#arrowRight" x="0" y="0" onmousedown="handlePan(1,0)"/>
  <use id="arrowdown" xlink:href="#arrowDown" x="0" y="0" onmousedown="handlePan(0,1)"/>
  <use id="arrowleft" xlink:href="#arrowLeft" x="0" y="0" onmousedown="handlePan(-1,0)"/>
</g>
<svg viewBox="0 0 15 15" width="100%" height="30px" preserveAspectRatio="xMaxYMin meet">
 <g id="arrow_out" transform="scale(0.3 0.3)">
  <a xlink:href="xdino__win64__rdr_8cpp__incl_org.svg" target="_base">
   <rect id="button" ry="5" rx="5" y="6" x="6" height="38" width="38"
        fill="#f2f5e9" fill-opacity="0.5" stroke="#606060" stroke-width="1.0"/>
   <path id="arrow"
     d="M 11.500037,31.436501 C 11.940474,20.09759 22.043105,11.32322 32.158766,21.979434 L 37.068811,17.246167 C 37.068811,17.246167 37.088388,32 37.088388,32 L 22.160133,31.978069 C 22.160133,31.978069 26.997745,27.140456 26.997745,27.140456 C 18.528582,18.264221 13.291696,25.230495 11.500037,31.436501 z"
     style="fill:#404040;"/>
  </a>
 </g>
</svg>

<style type='text/css'>
<![CDATA[
[data-mouse-over-selected='false'] { opacity: 0.7; }
[data-mouse-over-selected='true']  { opacity: 1.0; }
]]>
</style>
<script type="application/ecmascript"><![CDATA[
document.addEventListener('DOMContentLoaded', (event) => {
  highlightEdges();
  highlightAdjacentNodes();
});
]]></script>
</svg>
