<?xml version="1.0" encoding="UTF-8" standalone="no"?>
<!DOCTYPE svg PUBLIC "-//W3C//DTD SVG 1.1//EN"
 "http://www.w3.org/Graphics/SVG/1.1/DTD/svg11.dtd">
<!-- Generated by graphviz version 9.0.0 (20230911.1827)
 -->
<!-- Title: XDino_Linux_CollectRessources Pages: 1 -->
<svg width="415pt" height="64pt"
 viewBox="0.00 0.00 414.50 64.25" xmlns="http://www.w3.org/2000/svg" xmlns:xlink="http://www.w3.org/1999/xlink">
<g id="graph0" class="graph" transform="scale(1 1) rotate(0) translate(4 60.25)">
<title>XDino_Linux_CollectRessources</title>
<!-- Node1 -->
<g id="Node000001" class="node">
<title>Node1</title>
<g id="a_Node000001"><a xlink:title=" ">
<polygon fill="#999999" stroke="#666666" points="406.5,-37.25 248.75,-37.25 248.75,-18 406.5,-18 406.5,-37.25"/>
<text text-anchor="middle" x="327.62" y="-23.75" font-family="Helvetica,sans-Serif" font-size="10.00">XDino_Linux_CollectRessources</text>
</a>
</g>
</g>
<!-- Node2 -->
<g id="Node000002" class="node">
<title>Node2</title>
<g id="a_Node000002"><a xlink:href="xdino__linux__main_8cpp.html#a8b096a8c85b239812dd34af59ae9951b" target="_top" xlink:title=" ">
<polygon fill="white" stroke="#666666" points="212.75,-56.25 101.5,-56.25 101.5,-37 212.75,-37 212.75,-56.25"/>
<text text-anchor="middle" x="157.12" y="-42.75" font-family="Helvetica,sans-Serif" font-size="10.00">XDino_Linux_Cleanup</text>
</a>
</g>
</g>
<!-- Node1&#45;&gt;Node2 -->
<g id="edge1_Node000001_Node000002" class="edge">
<title>Node1&#45;&gt;Node2</title>
<g id="a_edge1_Node000001_Node000002"><a xlink:title=" ">
<path fill="none" stroke="#63b8ff" d="M236.88,-37.74C228.82,-38.65 220.82,-39.56 213.19,-40.42"/>
<polygon fill="#63b8ff" stroke="#63b8ff" points="237.25,-41.23 246.79,-36.63 236.46,-34.27 237.25,-41.23"/>
</a>
</g>
</g>
<!-- Node4 -->
<g id="Node000004" class="node">
<title>Node4</title>
<g id="a_Node000004"><a xlink:href="xdino__linux__main_8cpp.html#a23ab8c2bbf03b45563425c6f39f83e8e" target="_top" xlink:title=" ">
<polygon fill="white" stroke="#666666" points="209,-19.25 105.25,-19.25 105.25,0 209,0 209,-19.25"/>
<text text-anchor="middle" x="157.12" y="-5.75" font-family="Helvetica,sans-Serif" font-size="10.00">XDino_Linux_Frame</text>
</a>
</g>
</g>
<!-- Node1&#45;&gt;Node4 -->
<g id="edge3_Node000001_Node000004" class="edge">
<title>Node1&#45;&gt;Node4</title>
<g id="a_edge3_Node000001_Node000004"><a xlink:title=" ">
<path fill="none" stroke="#63b8ff" d="M237.11,-18.06C227.59,-17.05 218.17,-16.04 209.32,-15.09"/>
<polygon fill="#63b8ff" stroke="#63b8ff" points="236.47,-21.51 246.79,-19.1 237.22,-14.55 236.47,-21.51"/>
</a>
</g>
</g>
<!-- Node3 -->
<g id="Node000003" class="node">
<title>Node3</title>
<g id="a_Node000003"><a xlink:href="xdino__linux__main_8cpp.html#a4646b314f2ba6df59c9b1805dd568b18" target="_top" xlink:title=" ">
<polygon fill="white" stroke="#666666" points="65.5,-37.25 0,-37.25 0,-18 65.5,-18 65.5,-37.25"/>
<text text-anchor="middle" x="32.75" y="-23.75" font-family="Helvetica,sans-Serif" font-size="10.00">sokol_main</text>
</a>
</g>
</g>
<!-- Node2&#45;&gt;Node3 -->
<g id="edge2_Node000002_Node000003" class="edge">
<title>Node2&#45;&gt;Node3</title>
<g id="a_edge2_Node000002_Node000003"><a xlink:title=" ">
<path fill="none" stroke="#63b8ff" d="M89.69,-36.31C81.39,-35.02 73.22,-33.75 65.8,-32.6"/>
<polygon fill="#63b8ff" stroke="#63b8ff" points="89.11,-39.76 99.53,-37.84 90.18,-32.84 89.11,-39.76"/>
</a>
</g>
</g>
<!-- Node4&#45;&gt;Node3 -->
<g id="edge4_Node000004_Node000003" class="edge">
<title>Node4&#45;&gt;Node3</title>
<g id="a_edge4_Node000004_Node000003"><a xlink:title=" ">
<path fill="none" stroke="#63b8ff" d="M93.68,-18.81C84.06,-20.23 74.47,-21.63 65.89,-22.9"/>
<polygon fill="#63b8ff" stroke="#63b8ff" points="94.05,-22.29 103.44,-17.37 93.04,-15.37 94.05,-22.29"/>
</a>
</g>
</g>
</g>
</svg>
