<?xml version="1.0" encoding="UTF-8" standalone="no"?>
<!DOCTYPE svg PUBLIC "-//W3C//DTD SVG 1.1//EN"
 "http://www.w3.org/Graphics/SVG/1.1/DTD/svg11.dtd">
<!-- Generated by graphviz version 9.0.0 (20230911.1827)
 -->
<!-- Title: XDino_Win64_CreateWindow Pages: 1 -->
<!--zoomable 533 -->

<svg id="main" version="1.1" xmlns="http://www.w3.org/2000/svg" xmlns:xlink="http://www.w3.org/1999/xlink" xml:space="preserve" onload="init(evt)">
<style type="text/css"><![CDATA[
.node, .edge {opacity: 0.7;}
.node.selected, .edge.selected {opacity: 1;}
.edge:hover path { stroke: red; }
.edge:hover polygon { stroke: red; fill: red; }
]]></style>

<defs>
  <circle id="rim" cx="0" cy="0" r="7"/>
  <circle id="rim2" cx="0" cy="0" r="3.5"/>
  <g id="zoomPlus">
    <use xlink:href="#rim" fill="#404040"><set attributeName="fill" to="#808080" begin="zoomplus.mouseover" end="zoomplus.mouseout"/></use>
    <path d="M-4,0h8M0,-4v8" fill="none" stroke="white" stroke-width="1.5" pointer-events="none"/>
  </g>
  <g id="zoomMin">
    <use xlink:href="#rim" fill="#404040"><set attributeName="fill" to="#808080" begin="zoomminus.mouseover" end="zoomminus.mouseout"/></use>
    <path d="M-4,0h8" fill="none" stroke="white" stroke-width="1.5" pointer-events="none"/>
  </g>
  <g id="arrowUp" transform="translate(30 24)">
    <use xlink:href="#rim"/>
    <path pointer-events="none" fill="none" stroke="white" stroke-width="1.5" d="M0,-3.0v7 M-2.5,-0.5L0,-3.0L2.5,-0.5"/>
  </g>
  <g id="arrowRight" transform="rotate(90) translate(36 -43)">
    <use xlink:href="#rim"/>
    <path pointer-events="none" fill="none" stroke="white" stroke-width="1.5" d="M0,-3.0v7 M-2.5,-0.5L0,-3.0L2.5,-0.5"/>
  </g>
  <g id="arrowDown" transform="rotate(180) translate(-30 -48)">
    <use xlink:href="#rim"/>
    <path pointer-events="none" fill="none" stroke="white" stroke-width="1.5" d="M0,-3.0v7 M-2.5,-0.5L0,-3.0L2.5,-0.5"/>
  </g>
  <g id="arrowLeft" transform="rotate(270) translate(-36 17)">
    <use xlink:href="#rim"/>
    <path pointer-events="none" fill="none" stroke="white" stroke-width="1.5" d="M0,-3.0v7 M-2.5,-0.5L0,-3.0L2.5,-0.5"/>
  </g>
  <g id="resetDef">
    <use xlink:href="#rim2" fill="#404040"><set attributeName="fill" to="#808080" begin="reset.mouseover" end="reset.mouseout"/></use>
  </g>
</defs>
<script type="application/ecmascript">
var viewWidth = 683;
var viewHeight = 533;
var sectionId = 'dynsection-2';
</script>
<script type="application/ecmascript" xlink:href="svg.min.js"/>
<svg id="graph" class="graph">
<g id="viewport">
<title>XDino_Win64_CreateWindow</title>
<!-- Node1 -->
<g id="Node000001" class="node">
<title>Node1</title>
<g id="a_Node000001"><a xlink:title=" ">
<polygon fill="#999999" stroke="#666666" points="142.75,-150.25 0,-150.25 0,-131 142.75,-131 142.75,-150.25"/>
<text text-anchor="middle" x="71.38" y="-136.75" font-family="Helvetica,sans-Serif" font-size="10.00">XDino_Win64_CreateWindow</text>
</a>
</g>
</g>
<!-- Node2 -->
<g id="Node000002" class="node">
<title>Node2</title>
<g id="a_Node000002"><a xlink:href="xdino__win64__main_8cpp.html#afa07de294d5b620ee39644b9661f0665" target="_top" xlink:title=" ">
<polygon fill="white" stroke="#666666" points="314,-150.25 178.75,-150.25 178.75,-131 314,-131 314,-150.25"/>
<text text-anchor="middle" x="246.38" y="-136.75" font-family="Helvetica,sans-Serif" font-size="10.00">XDino_Win64_HandleEvent</text>
</a>
</g>
</g>
<!-- Node1&#45;&gt;Node2 -->
<g id="edge1_Node000001_Node000002" class="edge">
<title>Node1&#45;&gt;Node2</title>
<g id="a_edge1_Node000001_Node000002"><a xlink:title=" ">
<path fill="none" stroke="#63b8ff" d="M143.24,-140.62C151.08,-140.62 159.09,-140.62 167.01,-140.62"/>
<polygon fill="#63b8ff" stroke="#63b8ff" points="167.01,-144.13 177.01,-140.63 167.01,-137.13 167.01,-144.13"/>
</a>
</g>
</g>
<!-- Node3 -->
<g id="Node000003" class="node">
<title>Node3</title>
<g id="a_Node000003"><a xlink:href="dino__game_8cpp.html#ac7b7408f18b3729af2f6e7f405f238e7" target="_top" xlink:title="Appelé pour générer chaque frame. Doit lireles entrées de jeu avec XDino_GetGamepad(),...">
<polygon fill="white" stroke="#666666" points="471.38,-359.25 376.62,-359.25 376.62,-340 471.38,-340 471.38,-359.25"/>
<text text-anchor="middle" x="424" y="-345.75" font-family="Helvetica,sans-Serif" font-size="10.00">Dino_GameFrame</text>
</a>
</g>
</g>
<!-- Node2&#45;&gt;Node3 -->
<g id="edge2_Node000002_Node000003" class="edge">
<title>Node2&#45;&gt;Node3</title>
<g id="a_edge2_Node000002_Node000003"><a xlink:title=" ">
<path fill="none" stroke="#63b8ff" d="M255.85,-150.71C283.49,-183.61 371.37,-288.19 407.38,-331.04"/>
<polygon fill="#63b8ff" stroke="#63b8ff" points="404.53,-333.08 413.64,-338.49 409.89,-328.58 404.53,-333.08"/>
</a>
</g>
</g>
<!-- Node12 -->
<g id="Node000012" class="node">
<title>Node12</title>
<g id="a_Node000012"><a xlink:href="dino__game_8cpp.html#a34e4cc788612f46dea16beb4b24dd0ab" target="_top" xlink:title="Appelé au tout début, pour initialiser la logique de jeu.">
<polygon fill="white" stroke="#666666" points="464.25,-245.25 383.75,-245.25 383.75,-226 464.25,-226 464.25,-245.25"/>
<text text-anchor="middle" x="424" y="-231.75" font-family="Helvetica,sans-Serif" font-size="10.00">Dino_GameInit</text>
</a>
</g>
</g>
<!-- Node2&#45;&gt;Node12 -->
<g id="edge11_Node000002_Node000012" class="edge">
<title>Node2&#45;&gt;Node12</title>
<g id="a_edge11_Node000002_Node000012"><a xlink:title=" ">
<path fill="none" stroke="#63b8ff" d="M259.29,-150.59C277.72,-165.59 314.69,-194.07 350,-211.62 357.72,-215.47 366.2,-218.9 374.57,-221.88"/>
<polygon fill="#63b8ff" stroke="#63b8ff" points="373.39,-225.18 383.98,-225.06 375.62,-218.55 373.39,-225.18"/>
</a>
</g>
</g>
<!-- Node13 -->
<g id="Node000013" class="node">
<title>Node13</title>
<g id="a_Node000013"><a xlink:href="xdino__win64__main_8cpp.html#ab579fc5249712eea9dab54bbad4808f0" target="_top" xlink:title="Commence un intervalle de profiling visible sur PIX. Les intervalles de profiling peuvent être l&#39;un d...">
<polygon fill="white" stroke="#666666" points="653.88,-205.25 554.62,-205.25 554.62,-186 653.88,-186 653.88,-205.25"/>
<text text-anchor="middle" x="604.25" y="-191.75" font-family="Helvetica,sans-Serif" font-size="10.00">XDino_ProfileBegin</text>
</a>
</g>
</g>
<!-- Node2&#45;&gt;Node13 -->
<g id="edge14_Node000002_Node000013" class="edge">
<title>Node2&#45;&gt;Node13</title>
<g id="a_edge14_Node000002_Node000013"><a xlink:title=" ">
<path fill="none" stroke="#63b8ff" d="M268.85,-150.65C289.25,-159.67 321.02,-172.42 350,-178.62 414.9,-192.51 491.09,-195.94 542.82,-196.42"/>
<polygon fill="#63b8ff" stroke="#63b8ff" points="542.59,-199.91 552.61,-196.47 542.63,-192.91 542.59,-199.91"/>
</a>
</g>
</g>
<!-- Node14 -->
<g id="Node000014" class="node">
<title>Node14</title>
<g id="a_Node000014"><a xlink:href="xdino__win64__main_8cpp.html#a847ecb99f82286c5ba044e4e50d6ca2c" target="_top" xlink:title="Finit un intervalle de profiling.">
<polygon fill="white" stroke="#666666" points="649.75,-131.25 558.75,-131.25 558.75,-112 649.75,-112 649.75,-131.25"/>
<text text-anchor="middle" x="604.25" y="-117.75" font-family="Helvetica,sans-Serif" font-size="10.00">XDino_ProfileEnd</text>
</a>
</g>
</g>
<!-- Node2&#45;&gt;Node14 -->
<g id="edge15_Node000002_Node000014" class="edge">
<title>Node2&#45;&gt;Node14</title>
<g id="a_edge15_Node000002_Node000014"><a xlink:title=" ">
<path fill="none" stroke="#63b8ff" d="M314.31,-137.05C381.51,-133.46 483.86,-128 546.99,-124.63"/>
<polygon fill="#63b8ff" stroke="#63b8ff" points="547,-128.13 556.8,-124.11 546.63,-121.14 547,-128.13"/>
</a>
</g>
</g>
<!-- Node15 -->
<g id="Node000015" class="node">
<title>Node15</title>
<g id="a_Node000015"><a xlink:href="xdino__win64__rdr_8cpp.html#a19e4f0d170af5a9a4eb73f6274dc1217" target="_top" xlink:title="Spécifique à la plateforme. Commence la passe de rendu.">
<polygon fill="white" stroke="#666666" points="487.5,-93.25 360.5,-93.25 360.5,-74 487.5,-74 487.5,-93.25"/>
<text text-anchor="middle" x="424" y="-79.75" font-family="Helvetica,sans-Serif" font-size="10.00">XDino_Win64_BeginDraw</text>
</a>
</g>
</g>
<!-- Node2&#45;&gt;Node15 -->
<g id="edge16_Node000002_Node000015" class="edge">
<title>Node2&#45;&gt;Node15</title>
<g id="a_edge16_Node000002_Node000015"><a xlink:title=" ">
<path fill="none" stroke="#63b8ff" d="M278.37,-130.57C307,-121.27 349.75,-107.4 381.35,-97.14"/>
<polygon fill="#63b8ff" stroke="#63b8ff" points="382.15,-100.56 390.58,-94.15 379.99,-93.9 382.15,-100.56"/>
</a>
</g>
</g>
<!-- Node16 -->
<g id="Node000016" class="node">
<title>Node16</title>
<g id="a_Node000016"><a xlink:href="xdino__win64__main_8cpp.html#a5f03a33705fae3997a21af54ca15a039" target="_top" xlink:title=" ">
<polygon fill="white" stroke="#666666" points="497.62,-56.25 350.38,-56.25 350.38,-37 497.62,-37 497.62,-56.25"/>
<text text-anchor="middle" x="424" y="-42.75" font-family="Helvetica,sans-Serif" font-size="10.00">XDino_Win64_CreateRenderer</text>
</a>
</g>
</g>
<!-- Node2&#45;&gt;Node16 -->
<g id="edge17_Node000002_Node000016" class="edge">
<title>Node2&#45;&gt;Node16</title>
<g id="a_edge17_Node000002_Node000016"><a xlink:title=" ">
<path fill="none" stroke="#63b8ff" d="M257.83,-130.62C275.42,-114.34 312.68,-82.17 350,-64.62 353.31,-63.07 356.76,-61.64 360.3,-60.32"/>
<polygon fill="#63b8ff" stroke="#63b8ff" points="361.26,-63.7 369.63,-57.2 359.03,-57.06 361.26,-63.7"/>
</a>
</g>
</g>
<!-- Node17 -->
<g id="Node000017" class="node">
<title>Node17</title>
<g id="a_Node000017"><a xlink:href="xdino__win64__rdr_8cpp.html#ad13ae3c31e66f2cdf34b75465d4bac17" target="_top" xlink:title="Spécifique à la plateforme. Finit la passe de rendu et envoit le travail à la carte graphique.">
<polygon fill="white" stroke="#666666" points="483.38,-169.25 364.62,-169.25 364.62,-150 483.38,-150 483.38,-169.25"/>
<text text-anchor="middle" x="424" y="-155.75" font-family="Helvetica,sans-Serif" font-size="10.00">XDino_Win64_EndDraw</text>
</a>
</g>
</g>
<!-- Node2&#45;&gt;Node17 -->
<g id="edge18_Node000002_Node000017" class="edge">
<title>Node2&#45;&gt;Node17</title>
<g id="a_edge18_Node000002_Node000017"><a xlink:title=" ">
<path fill="none" stroke="#63b8ff" d="M314.27,-147.86C327.02,-149.24 340.39,-150.69 353.22,-152.08"/>
<polygon fill="#63b8ff" stroke="#63b8ff" points="352.51,-155.52 362.83,-153.12 353.26,-148.56 352.51,-155.52"/>
</a>
</g>
</g>
<!-- Node19 -->
<g id="Node000019" class="node">
<title>Node19</title>
<g id="a_Node000019"><a xlink:href="xdino__win64__rdr_8cpp.html#a9ff5efef1703f2710d3e28a03a61ae85" target="_top" xlink:title="Spécifique à la plateforme. Redimensionnne le rendu.">
<polygon fill="white" stroke="#666666" points="498,-19.25 350,-19.25 350,0 498,0 498,-19.25"/>
<text text-anchor="middle" x="424" y="-5.75" font-family="Helvetica,sans-Serif" font-size="10.00">XDino_Win64_ResizeRenderer</text>
</a>
</g>
</g>
<!-- Node2&#45;&gt;Node19 -->
<g id="edge22_Node000002_Node000019" class="edge">
<title>Node2&#45;&gt;Node19</title>
<g id="a_edge22_Node000002_Node000019"><a xlink:title=" ">
<path fill="none" stroke="#63b8ff" d="M253.42,-130.67C267.45,-108.47 304.47,-54.77 350,-27.62 352.06,-26.4 354.2,-25.25 356.39,-24.19"/>
<polygon fill="#63b8ff" stroke="#63b8ff" points="357.74,-27.42 365.62,-20.33 355.04,-20.96 357.74,-27.42"/>
</a>
</g>
</g>
<!-- Node4 -->
<g id="Node000004" class="node">
<title>Node4</title>
<g id="a_Node000004"><a xlink:href="dino__draw__utils_8cpp.html#a70b3d7868b24344ba6b57f9eda900d45" target="_top" xlink:title="Produit un dessin de cercle avec la couleur spécifiée. La position (0,0) correspond au centre du cerc...">
<polygon fill="white" stroke="#666666" points="658.38,-413.88 550.12,-413.88 550.12,-383.38 658.38,-383.38 658.38,-413.88"/>
<text text-anchor="start" x="558.12" y="-400.38" font-family="Helvetica,sans-Serif" font-size="10.00">Dino_CreateDrawCall</text>
<text text-anchor="middle" x="604.25" y="-389.12" font-family="Helvetica,sans-Serif" font-size="10.00">_Circle</text>
</a>
</g>
</g>
<!-- Node3&#45;&gt;Node4 -->
<g id="edge3_Node000003_Node000004" class="edge">
<title>Node3&#45;&gt;Node4</title>
<g id="a_edge3_Node000003_Node000004"><a xlink:title=" ">
<path fill="none" stroke="#63b8ff" d="M461.5,-359.66C483.78,-365.78 512.9,-373.79 538.94,-380.95"/>
<polygon fill="#63b8ff" stroke="#63b8ff" points="537.86,-384.28 548.43,-383.55 539.71,-377.53 537.86,-384.28"/>
</a>
</g>
</g>
<!-- Node5 -->
<g id="Node000005" class="node">
<title>Node5</title>
<g id="a_Node000005"><a xlink:href="dino__draw__utils_8cpp.html#ae65d5defac67d1322c09dcc087933ddf" target="_top" xlink:title="Produit un dessin contenant une liste de segments, tous reliés.">
<polygon fill="white" stroke="#666666" points="658.38,-364.88 550.12,-364.88 550.12,-334.38 658.38,-334.38 658.38,-364.88"/>
<text text-anchor="start" x="558.12" y="-351.38" font-family="Helvetica,sans-Serif" font-size="10.00">Dino_CreateDrawCall</text>
<text text-anchor="middle" x="604.25" y="-340.12" font-family="Helvetica,sans-Serif" font-size="10.00">_Polyline</text>
</a>
</g>
</g>
<!-- Node3&#45;&gt;Node5 -->
<g id="edge4_Node000003_Node000005" class="edge">
<title>Node3&#45;&gt;Node5</title>
<g id="a_edge4_Node000003_Node000005"><a xlink:title=" ">
<path fill="none" stroke="#63b8ff" d="M471.83,-349.62C492.21,-349.62 516.43,-349.62 538.49,-349.62"/>
<polygon fill="#63b8ff" stroke="#63b8ff" points="538.29,-353.13 548.29,-349.63 538.29,-346.13 538.29,-353.13"/>
</a>
</g>
</g>
<!-- Node6 -->
<g id="Node000006" class="node">
<title>Node6</title>
<g id="a_Node000006"><a xlink:href="dino__draw__utils_8cpp.html#abcab1c5d9c9e1321444171dabb795f1b" target="_top" xlink:title="Produit un dessin contenant du texte, avec éventuellement une couleur de fond. La position (0,...">
<polygon fill="white" stroke="#666666" points="670.38,-316.25 538.12,-316.25 538.12,-297 670.38,-297 670.38,-316.25"/>
<text text-anchor="middle" x="604.25" y="-302.75" font-family="Helvetica,sans-Serif" font-size="10.00">Dino_CreateDrawCall_Text</text>
</a>
</g>
</g>
<!-- Node3&#45;&gt;Node6 -->
<g id="edge5_Node000003_Node000006" class="edge">
<title>Node3&#45;&gt;Node6</title>
<g id="a_edge5_Node000003_Node000006"><a xlink:title=" ">
<path fill="none" stroke="#63b8ff" d="M466.79,-339.54C491.73,-333.53 523.64,-325.83 550.33,-319.39"/>
<polygon fill="#63b8ff" stroke="#63b8ff" points="551.04,-322.82 559.94,-317.07 549.4,-316.02 551.04,-322.82"/>
</a>
</g>
</g>
<!-- Node7 -->
<g id="Node000007" class="node">
<title>Node7</title>
<g id="a_Node000007"><a xlink:href="xdino__win64__rdr_8cpp.html#af6f41148f29d2c60fc4f9e51449436fa" target="_top" xlink:title="Transfère les triangles à dessiner à la carte graphique.">
<polygon fill="white" stroke="#666666" points="639.25,-525.25 569.25,-525.25 569.25,-506 639.25,-506 639.25,-525.25"/>
<text text-anchor="middle" x="604.25" y="-511.75" font-family="Helvetica,sans-Serif" font-size="10.00">XDino_Draw</text>
</a>
</g>
</g>
<!-- Node3&#45;&gt;Node7 -->
<g id="edge6_Node000003_Node000007" class="edge">
<title>Node3&#45;&gt;Node7</title>
<g id="a_edge6_Node000003_Node000007"><a xlink:title=" ">
<path fill="none" stroke="#63b8ff" d="M429.44,-359.75C441.79,-386.68 479.3,-460.59 534,-497.62 541.15,-502.47 549.53,-506.01 557.93,-508.59"/>
<polygon fill="#63b8ff" stroke="#63b8ff" points="556.88,-511.94 567.44,-511.09 558.66,-505.17 556.88,-511.94"/>
</a>
</g>
</g>
<!-- Node8 -->
<g id="Node000008" class="node">
<title>Node8</title>
<g id="a_Node000008"><a xlink:href="xdino__win64__main_8cpp.html#a68646c879bb2deb348cfa0ae2fc53b92" target="_top" xlink:title="Récupère l&#39;état de la manette concernée.">
<polygon fill="white" stroke="#666666" points="656.88,-488.25 551.62,-488.25 551.62,-469 656.88,-469 656.88,-488.25"/>
<text text-anchor="middle" x="604.25" y="-474.75" font-family="Helvetica,sans-Serif" font-size="10.00">XDino_GetGamepad</text>
</a>
</g>
</g>
<!-- Node3&#45;&gt;Node8 -->
<g id="edge7_Node000003_Node000008" class="edge">
<title>Node3&#45;&gt;Node8</title>
<g id="a_edge7_Node000003_Node000008"><a xlink:title=" ">
<path fill="none" stroke="#63b8ff" d="M431.89,-359.68C447.42,-381.57 487.47,-433.71 534,-460.62 536.31,-461.96 538.73,-463.2 541.21,-464.35"/>
<polygon fill="#63b8ff" stroke="#63b8ff" points="539.71,-467.52 550.3,-468.02 542.33,-461.03 539.71,-467.52"/>
</a>
</g>
</g>
<!-- Node9 -->
<g id="Node000009" class="node">
<title>Node9</title>
<g id="a_Node000009"><a xlink:href="xdino__win64__rdr_8cpp.html#a8fb3a63e6442dd880092baee74243dd3" target="_top" xlink:title="Taille de la fenêtre sur l&#39;écran. Attention, différent de la résolution du rendu !">
<polygon fill="white" stroke="#666666" points="662.5,-242.25 546,-242.25 546,-223 662.5,-223 662.5,-242.25"/>
<text text-anchor="middle" x="604.25" y="-228.75" font-family="Helvetica,sans-Serif" font-size="10.00">XDino_GetWindowSize</text>
</a>
</g>
</g>
<!-- Node3&#45;&gt;Node9 -->
<g id="edge8_Node000003_Node000009" class="edge">
<title>Node3&#45;&gt;Node9</title>
<g id="a_edge8_Node000003_Node000009"><a xlink:title=" ">
<path fill="none" stroke="#63b8ff" d="M432.89,-339.79C449.45,-319.83 489.93,-274.46 534,-250.62 536.53,-249.25 539.18,-247.98 541.89,-246.81"/>
<polygon fill="#63b8ff" stroke="#63b8ff" points="543.09,-250.1 551.19,-243.26 540.59,-243.56 543.09,-250.1"/>
</a>
</g>
</g>
<!-- Node10 -->
<g id="Node000010" class="node">
<title>Node10</title>
<g id="a_Node000010"><a xlink:href="xdino__win64__rdr_8cpp.html#abded2f43911a4a13d4742539b59797e0" target="_top" xlink:title="Pour indiquer la couleur d&#39;arrière&#45;plan.">
<polygon fill="white" stroke="#666666" points="658,-451.25 550.5,-451.25 550.5,-432 658,-432 658,-451.25"/>
<text text-anchor="middle" x="604.25" y="-437.75" font-family="Helvetica,sans-Serif" font-size="10.00">XDino_SetClearColor</text>
</a>
</g>
</g>
<!-- Node3&#45;&gt;Node10 -->
<g id="edge9_Node000003_Node000010" class="edge">
<title>Node3&#45;&gt;Node10</title>
<g id="a_edge9_Node000003_Node000010"><a xlink:title=" ">
<path fill="none" stroke="#63b8ff" d="M436.97,-359.56C456.25,-375.11 495.89,-405.2 534,-422.62 538.27,-424.58 542.79,-426.37 547.38,-428"/>
<polygon fill="#63b8ff" stroke="#63b8ff" points="546.14,-431.28 556.73,-431.06 548.31,-424.62 546.14,-431.28"/>
</a>
</g>
</g>
<!-- Node11 -->
<g id="Node000011" class="node">
<title>Node11</title>
<g id="a_Node000011"><a xlink:href="xdino__win64__rdr_8cpp.html#a57ea716600a49f61ffff0bd33bd78a7d" target="_top" xlink:title="Modifie la taille de rendu. Les coordonnées passées dans les vertex sont en rapport à cette taille.">
<polygon fill="white" stroke="#666666" points="660.25,-279.25 548.25,-279.25 548.25,-260 660.25,-260 660.25,-279.25"/>
<text text-anchor="middle" x="604.25" y="-265.75" font-family="Helvetica,sans-Serif" font-size="10.00">XDino_SetRenderSize</text>
</a>
</g>
</g>
<!-- Node3&#45;&gt;Node11 -->
<g id="edge10_Node000003_Node000011" class="edge">
<title>Node3&#45;&gt;Node11</title>
<g id="a_edge10_Node000003_Node000011"><a xlink:title=" ">
<path fill="none" stroke="#63b8ff" d="M439.53,-339.7C459.86,-326.21 498.3,-302.12 534,-287.62 538.09,-285.96 542.38,-284.42 546.74,-282.98"/>
<polygon fill="#63b8ff" stroke="#63b8ff" points="547.63,-286.37 556.17,-280.1 545.59,-279.68 547.63,-286.37"/>
</a>
</g>
</g>
<!-- Node12&#45;&gt;Node9 -->
<g id="edge12_Node000012_Node000009" class="edge">
<title>Node12&#45;&gt;Node9</title>
<g id="a_edge12_Node000012_Node000009"><a xlink:title=" ">
<path fill="none" stroke="#63b8ff" d="M464.56,-234.96C485.01,-234.62 510.56,-234.18 534.14,-233.79"/>
<polygon fill="#63b8ff" stroke="#63b8ff" points="534.08,-237.29 544.02,-233.62 533.96,-230.29 534.08,-237.29"/>
</a>
</g>
</g>
<!-- Node12&#45;&gt;Node11 -->
<g id="edge13_Node000012_Node000011" class="edge">
<title>Node12&#45;&gt;Node11</title>
<g id="a_edge13_Node000012_Node000011"><a xlink:title=" ">
<path fill="none" stroke="#63b8ff" d="M464.56,-243.17C486.44,-247.34 514.16,-252.63 539.06,-257.38"/>
<polygon fill="#63b8ff" stroke="#63b8ff" points="538.31,-260.8 548.79,-259.24 539.62,-253.92 538.31,-260.8"/>
</a>
</g>
</g>
<!-- Node17&#45;&gt;Node13 -->
<g id="edge19_Node000017_Node000013" class="edge">
<title>Node17&#45;&gt;Node13</title>
<g id="a_edge19_Node000017_Node000013"><a xlink:title=" ">
<path fill="none" stroke="#63b8ff" d="M475.13,-169.75C496.26,-174.02 521.04,-179.02 543.14,-183.48"/>
<polygon fill="#63b8ff" stroke="#63b8ff" points="542.44,-186.91 552.94,-185.46 543.83,-180.05 542.44,-186.91"/>
</a>
</g>
</g>
<!-- Node17&#45;&gt;Node14 -->
<g id="edge20_Node000017_Node000014" class="edge">
<title>Node17&#45;&gt;Node14</title>
<g id="a_edge20_Node000017_Node000014"><a xlink:title=" ">
<path fill="none" stroke="#63b8ff" d="M472.3,-149.54C495.36,-144.63 523.25,-138.68 547.36,-133.54"/>
<polygon fill="#63b8ff" stroke="#63b8ff" points="547.96,-136.99 557.01,-131.48 546.5,-130.14 547.96,-136.99"/>
</a>
</g>
</g>
<!-- Node18 -->
<g id="Node000018" class="node">
<title>Node18</title>
<g id="a_Node000018"><a xlink:href="xdino__win64__rdr_8cpp.html#af0297fec7b8843bff04ad8b0e7477845" target="_top" xlink:title="Spécifique à la plateforme. Charge une texture.">
<polygon fill="white" stroke="#666666" points="674.5,-168.25 534,-168.25 534,-149 674.5,-149 674.5,-168.25"/>
<text text-anchor="middle" x="604.25" y="-154.75" font-family="Helvetica,sans-Serif" font-size="10.00">XDino_Win64_CreateTexture</text>
</a>
</g>
</g>
<!-- Node17&#45;&gt;Node18 -->
<g id="edge21_Node000017_Node000018" class="edge">
<title>Node17&#45;&gt;Node18</title>
<g id="a_edge21_Node000017_Node000018"><a xlink:title=" ">
<path fill="none" stroke="#63b8ff" d="M483.86,-159.29C496.17,-159.23 509.36,-159.15 522.32,-159.08"/>
<polygon fill="#63b8ff" stroke="#63b8ff" points="522.12,-162.58 532.1,-159.02 522.08,-155.58 522.12,-162.58"/>
</a>
</g>
</g>
</g>
</svg>

<g id="navigator" transform="translate(0 0)" fill="#404254">
  <rect fill="#f2f5e9" fill-opacity="0.5" stroke="#606060" stroke-width=".5" x="0" y="0" width="60" height="60"/>
  <use id="zoomplus" xlink:href="#zoomPlus" x="17" y="9" onmousedown="handleZoom(evt,'in')"/>
  <use id="zoomminus" xlink:href="#zoomMin" x="42" y="9" onmousedown="handleZoom(evt,'out')"/>
  <use id="reset" xlink:href="#resetDef" x="30" y="36" onmousedown="handleReset()"/>
   <use id="arrowup" xlink:href="#arrowUp" x="0" y="0" onmousedown="handlePan(0,-1)"/>
  <use id="arrowright" xlink:href="#arrowRight" x="0" y="0" onmousedown="handlePan(1,0)"/>
  <use id="arrowdown" xlink:href="#arrowDown" x="0" y="0" onmousedown="handlePan(0,1)"/>
  <use id="arrowleft" xlink:href="#arrowLeft" x="0" y="0" onmousedown="handlePan(-1,0)"/>
</g>
<svg viewBox="0 0 15 15" width="100%" height="30px" preserveAspectRatio="xMaxYMin meet">
 <g id="arrow_out" transform="scale(0.3 0.3)">
  <a xlink:href="xdino__win64__main_8cpp_a7202590da16f97f4cef692deb9001e27_cgraph_org.svg" target="_base">
   <rect id="button" ry="5" rx="5" y="6" x="6" height="38" width="38"
        fill="#f2f5e9" fill-opacity="0.5" stroke="#606060" stroke-width="1.0"/>
   <path id="arrow"
     d="M 11.500037,31.436501 C 11.940474,20.09759 22.043105,11.32322 32.158766,21.979434 L 37.068811,17.246167 C 37.068811,17.246167 37.088388,32 37.088388,32 L 22.160133,31.978069 C 22.160133,31.978069 26.997745,27.140456 26.997745,27.140456 C 18.528582,18.264221 13.291696,25.230495 11.500037,31.436501 z"
     style="fill:#404040;"/>
  </a>
 </g>
</svg>

<style type='text/css'>
<![CDATA[
[data-mouse-over-selected='false'] { opacity: 0.7; }
[data-mouse-over-selected='true']  { opacity: 1.0; }
]]>
</style>
<script type="application/ecmascript"><![CDATA[
document.addEventListener('DOMContentLoaded', (event) => {
  highlightEdges();
  highlightAdjacentNodes();
});
]]></script>
</svg>
