<?xml version="1.0" encoding="UTF-8" standalone="no"?>
<!DOCTYPE svg PUBLIC "-//W3C//DTD SVG 1.1//EN"
 "http://www.w3.org/Graphics/SVG/1.1/DTD/svg11.dtd">
<!-- Generated by graphviz version 9.0.0 (20230911.1827)
 -->
<!-- Title: xdino.h Pages: 1 -->
<svg width="432pt" height="138pt"
 viewBox="0.00 0.00 431.62 137.75" xmlns="http://www.w3.org/2000/svg" xmlns:xlink="http://www.w3.org/1999/xlink">
<g id="graph0" class="graph" transform="scale(1 1) rotate(0) translate(4 133.75)">
<title>xdino.h</title>
<!-- Node1 -->
<g id="Node000001" class="node">
<title>Node1</title>
<g id="a_Node000001"><a xlink:title="API d&#39;interaction entre le moteur de jeu &quot;XDino&quot; et la logique de jeu.">
<polygon fill="#999999" stroke="#666666" points="224.75,-129.75 178.75,-129.75 178.75,-110.5 224.75,-110.5 224.75,-129.75"/>
<text text-anchor="middle" x="201.75" y="-116.25" font-family="Helvetica,sans-Serif" font-size="10.00">xdino.h</text>
</a>
</g>
</g>
<!-- Node2 -->
<g id="Node000002" class="node">
<title>Node2</title>
<g id="a_Node000002"><a xlink:href="dino__draw__utils_8h.html" target="_top" xlink:title="Fonctions pour dessiner des primitives de rendu.">
<polygon fill="white" stroke="#666666" points="131.25,-74.5 40.25,-74.5 40.25,-55.25 131.25,-55.25 131.25,-74.5"/>
<text text-anchor="middle" x="85.75" y="-61" font-family="Helvetica,sans-Serif" font-size="10.00">dino_draw_utils.h</text>
</a>
</g>
</g>
<!-- Node1&#45;&gt;Node2 -->
<g id="edge1_Node000001_Node000002" class="edge">
<title>Node1&#45;&gt;Node2</title>
<g id="a_edge1_Node000001_Node000002"><a xlink:title=" ">
<path fill="none" stroke="#63b8ff" d="M171.83,-105.39C150.97,-95.81 123.72,-83.31 105.52,-74.95"/>
<polygon fill="#63b8ff" stroke="#63b8ff" points="170.15,-108.47 180.7,-109.46 173.07,-102.11 170.15,-108.47"/>
</a>
</g>
</g>
<!-- Node4 -->
<g id="Node000004" class="node">
<title>Node4</title>
<g id="a_Node000004"><a xlink:href="dino__game_8cpp.html" target="_top" xlink:title="Implémentation des fonctions principales de la logique de jeu.">
<polygon fill="white" stroke="#666666" points="200.38,-19.25 119.12,-19.25 119.12,0 200.38,0 200.38,-19.25"/>
<text text-anchor="middle" x="159.75" y="-5.75" font-family="Helvetica,sans-Serif" font-size="10.00">dino_game.cpp</text>
</a>
</g>
</g>
<!-- Node1&#45;&gt;Node4 -->
<g id="edge4_Node000001_Node000004" class="edge">
<title>Node1&#45;&gt;Node4</title>
<g id="a_edge4_Node000001_Node000004"><a xlink:title=" ">
<path fill="none" stroke="#63b8ff" d="M191.03,-100.25C186.85,-92.43 182.24,-83.18 178.75,-74.5 171.06,-55.39 164.88,-31.98 161.83,-19.48"/>
<polygon fill="#63b8ff" stroke="#63b8ff" points="187.85,-101.74 195.75,-108.8 193.98,-98.36 187.85,-101.74"/>
</a>
</g>
</g>
<!-- Node5 -->
<g id="Node000005" class="node">
<title>Node5</title>
<g id="a_Node000005"><a xlink:href="xdino__win64__main_8cpp.html" target="_top" xlink:title="Implémentation de la fenêtre et des événements sur Windows.">
<polygon fill="white" stroke="#666666" points="301.5,-74.5 188,-74.5 188,-55.25 301.5,-55.25 301.5,-74.5"/>
<text text-anchor="middle" x="244.75" y="-61" font-family="Helvetica,sans-Serif" font-size="10.00">xdino_win64_main.cpp</text>
</a>
</g>
</g>
<!-- Node1&#45;&gt;Node5 -->
<g id="edge5_Node000001_Node000005" class="edge">
<title>Node1&#45;&gt;Node5</title>
<g id="a_edge5_Node000001_Node000005"><a xlink:title=" ">
<path fill="none" stroke="#63b8ff" d="M216,-101.47C223.2,-92.56 231.63,-82.12 237.5,-74.86"/>
<polygon fill="#63b8ff" stroke="#63b8ff" points="213.36,-99.18 209.8,-109.15 218.81,-103.57 213.36,-99.18"/>
</a>
</g>
</g>
<!-- Node6 -->
<g id="Node000006" class="node">
<title>Node6</title>
<g id="a_Node000006"><a xlink:href="xdino__win64__rdr_8cpp.html" target="_top" xlink:title="Implémentation du rendu graphique sur Windows.">
<polygon fill="white" stroke="#666666" points="423.62,-74.5 319.88,-74.5 319.88,-55.25 423.62,-55.25 423.62,-74.5"/>
<text text-anchor="middle" x="371.75" y="-61" font-family="Helvetica,sans-Serif" font-size="10.00">xdino_win64_rdr.cpp</text>
</a>
</g>
</g>
<!-- Node1&#45;&gt;Node6 -->
<g id="edge6_Node000001_Node000006" class="edge">
<title>Node1&#45;&gt;Node6</title>
<g id="a_edge6_Node000001_Node000006"><a xlink:title=" ">
<path fill="none" stroke="#63b8ff" d="M235.86,-108.44C267.21,-98.62 313.18,-84.22 342.79,-74.95"/>
<polygon fill="#63b8ff" stroke="#63b8ff" points="234.97,-105.05 226.48,-111.38 237.06,-111.73 234.97,-105.05"/>
</a>
</g>
</g>
<!-- Node3 -->
<g id="Node000003" class="node">
<title>Node3</title>
<g id="a_Node000003"><a xlink:href="dino__draw__utils_8cpp.html" target="_top" xlink:title=" ">
<polygon fill="white" stroke="#666666" points="101.5,-19.25 0,-19.25 0,0 101.5,0 101.5,-19.25"/>
<text text-anchor="middle" x="50.75" y="-5.75" font-family="Helvetica,sans-Serif" font-size="10.00">dino_draw_utils.cpp</text>
</a>
</g>
</g>
<!-- Node2&#45;&gt;Node3 -->
<g id="edge2_Node000002_Node000003" class="edge">
<title>Node2&#45;&gt;Node3</title>
<g id="a_edge2_Node000002_Node000003"><a xlink:title=" ">
<path fill="none" stroke="#63b8ff" d="M73.77,-45.65C68,-36.86 61.32,-26.71 56.66,-19.61"/>
<polygon fill="#63b8ff" stroke="#63b8ff" points="70.72,-47.38 79.14,-53.82 76.57,-43.54 70.72,-47.38"/>
</a>
</g>
</g>
<!-- Node2&#45;&gt;Node4 -->
<g id="edge3_Node000002_Node000004" class="edge">
<title>Node2&#45;&gt;Node4</title>
<g id="a_edge3_Node000002_Node000004"><a xlink:title=" ">
<path fill="none" stroke="#63b8ff" d="M107.51,-48.22C120.5,-38.87 136.53,-27.33 147.38,-19.52"/>
<polygon fill="#63b8ff" stroke="#63b8ff" points="105.6,-45.28 99.53,-53.96 109.69,-50.96 105.6,-45.28"/>
</a>
</g>
</g>
</g>
</svg>
