<?xml version="1.0" encoding="UTF-8" standalone="no"?>
<!DOCTYPE svg PUBLIC "-//W3C//DTD SVG 1.1//EN"
 "http://www.w3.org/Graphics/SVG/1.1/DTD/svg11.dtd">
<!-- Generated by graphviz version 9.0.0 (20230911.1827)
 -->
<!-- Title: XDino_DestroyGpuTexture Pages: 1 -->
<svg width="416pt" height="27pt"
 viewBox="0.00 0.00 416.00 27.25" xmlns="http://www.w3.org/2000/svg" xmlns:xlink="http://www.w3.org/1999/xlink">
<g id="graph0" class="graph" transform="scale(1 1) rotate(0) translate(4 23.25)">
<title>XDino_DestroyGpuTexture</title>
<!-- Node1 -->
<g id="Node000001" class="node">
<title>Node1</title>
<g id="a_Node000001"><a xlink:title="Décharge la texture identifiée par &#39;texID&#39; de la carte graphique.">
<polygon fill="#999999" stroke="#666666" points="408,-19.25 277.25,-19.25 277.25,0 408,0 408,-19.25"/>
<text text-anchor="middle" x="342.62" y="-5.75" font-family="Helvetica,sans-Serif" font-size="10.00">XDino_DestroyGpuTexture</text>
</a>
</g>
</g>
<!-- Node2 -->
<g id="Node000002" class="node">
<title>Node2</title>
<g id="a_Node000002"><a xlink:href="xdino__win64__rdr_8cpp.html#a1114a89a9aca94743092c9e78a348e53" target="_top" xlink:title="Spécifique à la plateforme. Libère les ressources associées au rendu.">
<polygon fill="white" stroke="#666666" points="241.25,-19.25 89.5,-19.25 89.5,0 241.25,0 241.25,-19.25"/>
<text text-anchor="middle" x="165.38" y="-5.75" font-family="Helvetica,sans-Serif" font-size="10.00">XDino_Win64_DestroyRenderer</text>
</a>
</g>
</g>
<!-- Node1&#45;&gt;Node2 -->
<g id="edge1_Node000001_Node000002" class="edge">
<title>Node1&#45;&gt;Node2</title>
<g id="a_edge1_Node000001_Node000002"><a xlink:title=" ">
<path fill="none" stroke="#63b8ff" d="M265.39,-9.62C257.47,-9.62 249.43,-9.62 241.53,-9.62"/>
<polygon fill="#63b8ff" stroke="#63b8ff" points="265.35,-13.13 275.35,-9.63 265.35,-6.13 265.35,-13.13"/>
</a>
</g>
</g>
<!-- Node3 -->
<g id="Node000003" class="node">
<title>Node3</title>
<g id="a_Node000003"><a xlink:href="xdino__win64__main_8cpp.html#aa0e1ecfaa9e7f124f36e8666a1cb66f9" target="_top" xlink:title=" ">
<polygon fill="white" stroke="#666666" points="53.5,-19.25 0,-19.25 0,0 53.5,0 53.5,-19.25"/>
<text text-anchor="middle" x="26.75" y="-5.75" font-family="Helvetica,sans-Serif" font-size="10.00">WinMain</text>
</a>
</g>
</g>
<!-- Node2&#45;&gt;Node3 -->
<g id="edge2_Node000002_Node000003" class="edge">
<title>Node2&#45;&gt;Node3</title>
<g id="a_edge2_Node000002_Node000003"><a xlink:title=" ">
<path fill="none" stroke="#63b8ff" d="M78.02,-9.62C69.29,-9.62 60.98,-9.62 53.72,-9.62"/>
<polygon fill="#63b8ff" stroke="#63b8ff" points="77.75,-13.13 87.75,-9.63 77.75,-6.13 77.75,-13.13"/>
</a>
</g>
</g>
</g>
</svg>
