<?xml version="1.0" encoding="UTF-8" standalone="no"?>
<!DOCTYPE svg PUBLIC "-//W3C//DTD SVG 1.1//EN"
 "http://www.w3.org/Graphics/SVG/1.1/DTD/svg11.dtd">
<!-- Generated by graphviz version 9.0.0 (20230911.1827)
 -->
<!-- Title: XDinoImpl_DrawStats Pages: 1 -->
<svg width="714pt" height="64pt"
 viewBox="0.00 0.00 714.25 64.25" xmlns="http://www.w3.org/2000/svg" xmlns:xlink="http://www.w3.org/1999/xlink">
<g id="graph0" class="graph" transform="scale(1 1) rotate(0) translate(4 60.25)">
<title>XDinoImpl_DrawStats</title>
<!-- Node1 -->
<g id="Node000001" class="node">
<title>Node1</title>
<g id="a_Node000001"><a xlink:title="Trucs communs entre les différentes implémentations de l&#39;API XDino. En général, cela concerne le debu...">
<polygon fill="#999999" stroke="#666666" points="706.25,-37.25 594.25,-37.25 594.25,-18 706.25,-18 706.25,-37.25"/>
<text text-anchor="middle" x="650.25" y="-23.75" font-family="Helvetica,sans-Serif" font-size="10.00">XDinoImpl_DrawStats</text>
</a>
</g>
</g>
<!-- Node2 -->
<g id="Node000002" class="node">
<title>Node2</title>
<g id="a_Node000002"><a xlink:href="xdino__linux__main_8cpp.html#a23ab8c2bbf03b45563425c6f39f83e8e" target="_top" xlink:title=" ">
<polygon fill="white" stroke="#666666" points="550.75,-56.25 447,-56.25 447,-37 550.75,-37 550.75,-56.25"/>
<text text-anchor="middle" x="498.88" y="-42.75" font-family="Helvetica,sans-Serif" font-size="10.00">XDino_Linux_Frame</text>
</a>
</g>
</g>
<!-- Node1&#45;&gt;Node2 -->
<g id="edge1_Node000001_Node000002" class="edge">
<title>Node1&#45;&gt;Node2</title>
<g id="a_edge1_Node000001_Node000002"><a xlink:title=" ">
<path fill="none" stroke="#63b8ff" d="M582.96,-36.06C572.2,-37.42 561.21,-38.82 550.89,-40.14"/>
<polygon fill="#63b8ff" stroke="#63b8ff" points="583.07,-39.57 592.55,-34.84 582.19,-32.63 583.07,-39.57"/>
</a>
</g>
</g>
<!-- Node4 -->
<g id="Node000004" class="node">
<title>Node4</title>
<g id="a_Node000004"><a xlink:href="xdino__win64__rdr_8cpp.html#ad13ae3c31e66f2cdf34b75465d4bac17" target="_top" xlink:title="Spécifique à la plateforme. Finit la passe de rendu et envoit le travail à la carte graphique.">
<polygon fill="white" stroke="#666666" points="558.25,-19.25 439.5,-19.25 439.5,0 558.25,0 558.25,-19.25"/>
<text text-anchor="middle" x="498.88" y="-5.75" font-family="Helvetica,sans-Serif" font-size="10.00">XDino_Win64_EndDraw</text>
</a>
</g>
</g>
<!-- Node1&#45;&gt;Node4 -->
<g id="edge3_Node000001_Node000004" class="edge">
<title>Node1&#45;&gt;Node4</title>
<g id="a_edge3_Node000001_Node000004"><a xlink:title=" ">
<path fill="none" stroke="#63b8ff" d="M582.79,-19.62C574.73,-18.64 566.54,-17.66 558.6,-16.7"/>
<polygon fill="#63b8ff" stroke="#63b8ff" points="582.2,-23.07 592.55,-20.79 583.04,-16.12 582.2,-23.07"/>
</a>
</g>
</g>
<!-- Node3 -->
<g id="Node000003" class="node">
<title>Node3</title>
<g id="a_Node000003"><a xlink:href="xdino__linux__main_8cpp.html#a4646b314f2ba6df59c9b1805dd568b18" target="_top" xlink:title=" ">
<polygon fill="white" stroke="#666666" points="368.62,-56.25 303.12,-56.25 303.12,-37 368.62,-37 368.62,-56.25"/>
<text text-anchor="middle" x="335.88" y="-42.75" font-family="Helvetica,sans-Serif" font-size="10.00">sokol_main</text>
</a>
</g>
</g>
<!-- Node2&#45;&gt;Node3 -->
<g id="edge2_Node000002_Node000003" class="edge">
<title>Node2&#45;&gt;Node3</title>
<g id="a_edge2_Node000002_Node000003"><a xlink:title=" ">
<path fill="none" stroke="#63b8ff" d="M435.58,-46.62C412.75,-46.62 387.85,-46.62 368.78,-46.62"/>
<polygon fill="#63b8ff" stroke="#63b8ff" points="435.42,-50.13 445.42,-46.63 435.42,-43.13 435.42,-50.13"/>
</a>
</g>
</g>
<!-- Node5 -->
<g id="Node000005" class="node">
<title>Node5</title>
<g id="a_Node000005"><a xlink:href="xdino__win64__main_8cpp.html#afa07de294d5b620ee39644b9661f0665" target="_top" xlink:title=" ">
<polygon fill="white" stroke="#666666" points="403.5,-19.25 268.25,-19.25 268.25,0 403.5,0 403.5,-19.25"/>
<text text-anchor="middle" x="335.88" y="-5.75" font-family="Helvetica,sans-Serif" font-size="10.00">XDino_Win64_HandleEvent</text>
</a>
</g>
</g>
<!-- Node4&#45;&gt;Node5 -->
<g id="edge4_Node000004_Node000005" class="edge">
<title>Node4&#45;&gt;Node5</title>
<g id="a_edge4_Node000004_Node000005"><a xlink:title=" ">
<path fill="none" stroke="#63b8ff" d="M427.79,-9.62C419.85,-9.62 411.77,-9.62 403.87,-9.62"/>
<polygon fill="#63b8ff" stroke="#63b8ff" points="427.78,-13.13 437.78,-9.63 427.78,-6.13 427.78,-13.13"/>
</a>
</g>
</g>
<!-- Node6 -->
<g id="Node000006" class="node">
<title>Node6</title>
<g id="a_Node000006"><a xlink:href="xdino__win64__main_8cpp.html#a7202590da16f97f4cef692deb9001e27" target="_top" xlink:title=" ">
<polygon fill="white" stroke="#666666" points="232.25,-19.25 89.5,-19.25 89.5,0 232.25,0 232.25,-19.25"/>
<text text-anchor="middle" x="160.88" y="-5.75" font-family="Helvetica,sans-Serif" font-size="10.00">XDino_Win64_CreateWindow</text>
</a>
</g>
</g>
<!-- Node5&#45;&gt;Node6 -->
<g id="edge5_Node000005_Node000006" class="edge">
<title>Node5&#45;&gt;Node6</title>
<g id="a_edge5_Node000005_Node000006"><a xlink:title=" ">
<path fill="none" stroke="#63b8ff" d="M256.72,-9.62C248.68,-9.62 240.54,-9.62 232.59,-9.62"/>
<polygon fill="#63b8ff" stroke="#63b8ff" points="256.48,-13.13 266.48,-9.63 256.48,-6.13 256.48,-13.13"/>
</a>
</g>
</g>
<!-- Node7 -->
<g id="Node000007" class="node">
<title>Node7</title>
<g id="a_Node000007"><a xlink:href="xdino__win64__main_8cpp.html#aa0e1ecfaa9e7f124f36e8666a1cb66f9" target="_top" xlink:title=" ">
<polygon fill="white" stroke="#666666" points="53.5,-19.25 0,-19.25 0,0 53.5,0 53.5,-19.25"/>
<text text-anchor="middle" x="26.75" y="-5.75" font-family="Helvetica,sans-Serif" font-size="10.00">WinMain</text>
</a>
</g>
</g>
<!-- Node6&#45;&gt;Node7 -->
<g id="edge6_Node000006_Node000007" class="edge">
<title>Node6&#45;&gt;Node7</title>
<g id="a_edge6_Node000006_Node000007"><a xlink:title=" ">
<path fill="none" stroke="#63b8ff" d="M77.73,-9.62C69.16,-9.62 60.98,-9.62 53.8,-9.62"/>
<polygon fill="#63b8ff" stroke="#63b8ff" points="77.66,-13.13 87.66,-9.63 77.66,-6.13 77.66,-13.13"/>
</a>
</g>
</g>
</g>
</svg>
