<?xml version="1.0" encoding="UTF-8" standalone="no"?>
<!DOCTYPE svg PUBLIC "-//W3C//DTD SVG 1.1//EN"
 "http://www.w3.org/Graphics/SVG/1.1/DTD/svg11.dtd">
<!-- Generated by graphviz version 9.0.0 (20230911.1827)
 -->
<!-- Title: XDino_Win64_HandleEvent Pages: 1 -->
<!--zoomable 656 -->

<svg id="main" version="1.1" xmlns="http://www.w3.org/2000/svg" xmlns:xlink="http://www.w3.org/1999/xlink" xml:space="preserve" onload="init(evt)">
<style type="text/css"><![CDATA[
.node, .edge {opacity: 0.7;}
.node.selected, .edge.selected {opacity: 1;}
.edge:hover path { stroke: red; }
.edge:hover polygon { stroke: red; fill: red; }
]]></style>

<defs>
  <circle id="rim" cx="0" cy="0" r="7"/>
  <circle id="rim2" cx="0" cy="0" r="3.5"/>
  <g id="zoomPlus">
    <use xlink:href="#rim" fill="#404040"><set attributeName="fill" to="#808080" begin="zoomplus.mouseover" end="zoomplus.mouseout"/></use>
    <path d="M-4,0h8M0,-4v8" fill="none" stroke="white" stroke-width="1.5" pointer-events="none"/>
  </g>
  <g id="zoomMin">
    <use xlink:href="#rim" fill="#404040"><set attributeName="fill" to="#808080" begin="zoomminus.mouseover" end="zoomminus.mouseout"/></use>
    <path d="M-4,0h8" fill="none" stroke="white" stroke-width="1.5" pointer-events="none"/>
  </g>
  <g id="arrowUp" transform="translate(30 24)">
    <use xlink:href="#rim"/>
    <path pointer-events="none" fill="none" stroke="white" stroke-width="1.5" d="M0,-3.0v7 M-2.5,-0.5L0,-3.0L2.5,-0.5"/>
  </g>
  <g id="arrowRight" transform="rotate(90) translate(36 -43)">
    <use xlink:href="#rim"/>
    <path pointer-events="none" fill="none" stroke="white" stroke-width="1.5" d="M0,-3.0v7 M-2.5,-0.5L0,-3.0L2.5,-0.5"/>
  </g>
  <g id="arrowDown" transform="rotate(180) translate(-30 -48)">
    <use xlink:href="#rim"/>
    <path pointer-events="none" fill="none" stroke="white" stroke-width="1.5" d="M0,-3.0v7 M-2.5,-0.5L0,-3.0L2.5,-0.5"/>
  </g>
  <g id="arrowLeft" transform="rotate(270) translate(-36 17)">
    <use xlink:href="#rim"/>
    <path pointer-events="none" fill="none" stroke="white" stroke-width="1.5" d="M0,-3.0v7 M-2.5,-0.5L0,-3.0L2.5,-0.5"/>
  </g>
  <g id="resetDef">
    <use xlink:href="#rim2" fill="#404040"><set attributeName="fill" to="#808080" begin="reset.mouseover" end="reset.mouseout"/></use>
  </g>
</defs>
<script type="application/ecmascript">
var viewWidth = 710;
var viewHeight = 656;
var sectionId = 'dynsection-6';
</script>
<script type="application/ecmascript" xlink:href="svg.min.js"/>
<svg id="graph" class="graph">
<g id="viewport">
<title>XDino_Win64_HandleEvent</title>
<!-- Node1 -->
<g id="Node000001" class="node">
<title>Node1</title>
<g id="a_Node000001"><a xlink:title=" ">
<polygon fill="#999999" stroke="#666666" points="135.25,-150.25 0,-150.25 0,-131 135.25,-131 135.25,-150.25"/>
<text text-anchor="middle" x="67.62" y="-136.75" font-family="Helvetica,sans-Serif" font-size="10.00">XDino_Win64_HandleEvent</text>
</a>
</g>
</g>
<!-- Node2 -->
<g id="Node000002" class="node">
<title>Node2</title>
<g id="a_Node000002"><a xlink:href="dino__game_8cpp.html#ac7b7408f18b3729af2f6e7f405f238e7" target="_top" xlink:title="Appelé pour générer chaque frame. Doit lireles entrées de jeu avec XDino_GetGamepad(),...">
<polygon fill="white" stroke="#666666" points="489.75,-577.25 395,-577.25 395,-558 489.75,-558 489.75,-577.25"/>
<text text-anchor="middle" x="442.38" y="-563.75" font-family="Helvetica,sans-Serif" font-size="10.00">Dino_GameFrame</text>
</a>
</g>
</g>
<!-- Node1&#45;&gt;Node2 -->
<g id="edge1_Node000001_Node000002" class="edge">
<title>Node1&#45;&gt;Node2</title>
<g id="a_edge1_Node000001_Node000002"><a xlink:title=" ">
<path fill="none" stroke="#63b8ff" d="M70.09,-150.54C76.15,-188.88 102.32,-329.72 171.25,-419.62 232.17,-499.09 263.44,-509.66 355.25,-549.62 364.11,-553.48 373.85,-556.53 383.49,-558.94"/>
<polygon fill="#63b8ff" stroke="#63b8ff" points="382.71,-562.35 393.23,-561.14 384.25,-555.52 382.71,-562.35"/>
</a>
</g>
</g>
<!-- Node11 -->
<g id="Node000011" class="node">
<title>Node11</title>
<g id="a_Node000011"><a xlink:href="dino__game_8cpp.html#a34e4cc788612f46dea16beb4b24dd0ab" target="_top" xlink:title="Appelé au tout début, pour initialiser la logique de jeu.">
<polygon fill="white" stroke="#666666" points="285.5,-410.25 205,-410.25 205,-391 285.5,-391 285.5,-410.25"/>
<text text-anchor="middle" x="245.25" y="-396.75" font-family="Helvetica,sans-Serif" font-size="10.00">Dino_GameInit</text>
</a>
</g>
</g>
<!-- Node1&#45;&gt;Node11 -->
<g id="edge10_Node000001_Node000011" class="edge">
<title>Node1&#45;&gt;Node11</title>
<g id="a_edge10_Node000001_Node000011"><a xlink:title=" ">
<path fill="none" stroke="#63b8ff" d="M75.3,-150.5C101.32,-189.03 196.32,-329.67 231.25,-381.38"/>
<polygon fill="#63b8ff" stroke="#63b8ff" points="228.23,-383.16 236.73,-389.49 234.03,-379.24 228.23,-383.16"/>
</a>
</g>
</g>
<!-- Node19 -->
<g id="Node000019" class="node">
<title>Node19</title>
<g id="a_Node000019"><a xlink:href="xdino__win64__main_8cpp.html#ab579fc5249712eea9dab54bbad4808f0" target="_top" xlink:title="Commence un intervalle de profiling visible sur PIX. Les intervalles de profiling peuvent être l&#39;un d...">
<polygon fill="white" stroke="#666666" points="492,-168.25 392.75,-168.25 392.75,-149 492,-149 492,-168.25"/>
<text text-anchor="middle" x="442.38" y="-154.75" font-family="Helvetica,sans-Serif" font-size="10.00">XDino_ProfileBegin</text>
</a>
</g>
</g>
<!-- Node1&#45;&gt;Node19 -->
<g id="edge19_Node000001_Node000019" class="edge">
<title>Node1&#45;&gt;Node19</title>
<g id="a_edge19_Node000001_Node000019"><a xlink:title=" ">
<path fill="none" stroke="#63b8ff" d="M135.7,-143.86C205.54,-147.24 313.95,-152.47 381.14,-155.72"/>
<polygon fill="#63b8ff" stroke="#63b8ff" points="380.7,-159.2 390.86,-156.19 381.04,-152.21 380.7,-159.2"/>
</a>
</g>
</g>
<!-- Node20 -->
<g id="Node000020" class="node">
<title>Node20</title>
<g id="a_Node000020"><a xlink:href="xdino__win64__main_8cpp.html#a847ecb99f82286c5ba044e4e50d6ca2c" target="_top" xlink:title="Finit un intervalle de profiling.">
<polygon fill="white" stroke="#666666" points="487.88,-131.25 396.88,-131.25 396.88,-112 487.88,-112 487.88,-131.25"/>
<text text-anchor="middle" x="442.38" y="-117.75" font-family="Helvetica,sans-Serif" font-size="10.00">XDino_ProfileEnd</text>
</a>
</g>
</g>
<!-- Node1&#45;&gt;Node20 -->
<g id="edge20_Node000001_Node000020" class="edge">
<title>Node1&#45;&gt;Node20</title>
<g id="a_edge20_Node000001_Node000020"><a xlink:title=" ">
<path fill="none" stroke="#63b8ff" d="M135.7,-137.21C207.03,-133.57 318.58,-127.88 385.37,-124.48"/>
<polygon fill="#63b8ff" stroke="#63b8ff" points="385.18,-127.99 394.99,-123.99 384.82,-121 385.18,-127.99"/>
</a>
</g>
</g>
<!-- Node21 -->
<g id="Node000021" class="node">
<title>Node21</title>
<g id="a_Node000021"><a xlink:href="xdino__win64__rdr_8cpp.html#a19e4f0d170af5a9a4eb73f6274dc1217" target="_top" xlink:title="Spécifique à la plateforme. Commence la passe de rendu.">
<polygon fill="white" stroke="#666666" points="308.75,-93.25 181.75,-93.25 181.75,-74 308.75,-74 308.75,-93.25"/>
<text text-anchor="middle" x="245.25" y="-79.75" font-family="Helvetica,sans-Serif" font-size="10.00">XDino_Win64_BeginDraw</text>
</a>
</g>
</g>
<!-- Node1&#45;&gt;Node21 -->
<g id="edge21_Node000001_Node000021" class="edge">
<title>Node1&#45;&gt;Node21</title>
<g id="a_edge21_Node000001_Node000021"><a xlink:title=" ">
<path fill="none" stroke="#63b8ff" d="M99.62,-130.57C128.25,-121.27 171,-107.4 202.6,-97.14"/>
<polygon fill="#63b8ff" stroke="#63b8ff" points="203.4,-100.56 211.83,-94.15 201.24,-93.9 203.4,-100.56"/>
</a>
</g>
</g>
<!-- Node22 -->
<g id="Node000022" class="node">
<title>Node22</title>
<g id="a_Node000022"><a xlink:href="xdino__win64__main_8cpp.html#a5f03a33705fae3997a21af54ca15a039" target="_top" xlink:title=" ">
<polygon fill="white" stroke="#666666" points="318.88,-56.25 171.62,-56.25 171.62,-37 318.88,-37 318.88,-56.25"/>
<text text-anchor="middle" x="245.25" y="-42.75" font-family="Helvetica,sans-Serif" font-size="10.00">XDino_Win64_CreateRenderer</text>
</a>
</g>
</g>
<!-- Node1&#45;&gt;Node22 -->
<g id="edge22_Node000001_Node000022" class="edge">
<title>Node1&#45;&gt;Node22</title>
<g id="a_edge22_Node000001_Node000022"><a xlink:title=" ">
<path fill="none" stroke="#63b8ff" d="M79.08,-130.62C96.67,-114.34 133.93,-82.17 171.25,-64.62 174.56,-63.07 178.01,-61.64 181.55,-60.32"/>
<polygon fill="#63b8ff" stroke="#63b8ff" points="182.51,-63.7 190.88,-57.2 180.28,-57.06 182.51,-63.7"/>
</a>
</g>
</g>
<!-- Node23 -->
<g id="Node000023" class="node">
<title>Node23</title>
<g id="a_Node000023"><a xlink:href="xdino__win64__rdr_8cpp.html#ad13ae3c31e66f2cdf34b75465d4bac17" target="_top" xlink:title="Spécifique à la plateforme. Finit la passe de rendu et envoit le travail à la carte graphique.">
<polygon fill="white" stroke="#666666" points="304.62,-207.25 185.88,-207.25 185.88,-188 304.62,-188 304.62,-207.25"/>
<text text-anchor="middle" x="245.25" y="-193.75" font-family="Helvetica,sans-Serif" font-size="10.00">XDino_Win64_EndDraw</text>
</a>
</g>
</g>
<!-- Node1&#45;&gt;Node23 -->
<g id="edge23_Node000001_Node000023" class="edge">
<title>Node1&#45;&gt;Node23</title>
<g id="a_edge23_Node000001_Node000023"><a xlink:title=" ">
<path fill="none" stroke="#63b8ff" d="M99.62,-150.68C128.25,-159.98 171,-173.85 202.6,-184.11"/>
<polygon fill="#63b8ff" stroke="#63b8ff" points="201.24,-187.35 211.83,-187.1 203.4,-180.69 201.24,-187.35"/>
</a>
</g>
</g>
<!-- Node27 -->
<g id="Node000027" class="node">
<title>Node27</title>
<g id="a_Node000027"><a xlink:href="xdino__win64__rdr_8cpp.html#a9ff5efef1703f2710d3e28a03a61ae85" target="_top" xlink:title="Spécifique à la plateforme. Redimensionnne le rendu.">
<polygon fill="white" stroke="#666666" points="319.25,-19.25 171.25,-19.25 171.25,0 319.25,0 319.25,-19.25"/>
<text text-anchor="middle" x="245.25" y="-5.75" font-family="Helvetica,sans-Serif" font-size="10.00">XDino_Win64_ResizeRenderer</text>
</a>
</g>
</g>
<!-- Node1&#45;&gt;Node27 -->
<g id="edge33_Node000001_Node000027" class="edge">
<title>Node1&#45;&gt;Node27</title>
<g id="a_edge33_Node000001_Node000027"><a xlink:title=" ">
<path fill="none" stroke="#63b8ff" d="M74.67,-130.67C88.7,-108.47 125.72,-54.77 171.25,-27.62 173.31,-26.4 175.45,-25.25 177.64,-24.19"/>
<polygon fill="#63b8ff" stroke="#63b8ff" points="178.99,-27.42 186.87,-20.33 176.29,-20.96 178.99,-27.42"/>
</a>
</g>
</g>
<!-- Node3 -->
<g id="Node000003" class="node">
<title>Node3</title>
<g id="a_Node000003"><a xlink:href="dino__draw__utils_8cpp.html#a9473461ff91938cb3c388c767b78f785" target="_top" xlink:title="Produit un dessin contenant du texte, avec éventuellement une couleur de fond. Les sommets doivent êt...">
<polygon fill="white" stroke="#666666" points="693.25,-410.25 574.5,-410.25 574.5,-391 693.25,-391 693.25,-410.25"/>
<text text-anchor="middle" x="633.88" y="-396.75" font-family="Helvetica,sans-Serif" font-size="10.00">Dino_GenVertices_Text</text>
</a>
</g>
</g>
<!-- Node2&#45;&gt;Node3 -->
<g id="edge2_Node000002_Node000003" class="edge">
<title>Node2&#45;&gt;Node3</title>
<g id="a_edge2_Node000002_Node000003"><a xlink:title=" ">
<path fill="none" stroke="#63b8ff" d="M490.06,-566.89C504.22,-564.48 518.83,-559.46 529.5,-549.62 571.06,-511.3 527.45,-469.44 565.5,-427.62 569.9,-422.79 575.29,-418.8 581.08,-415.52"/>
<polygon fill="#63b8ff" stroke="#63b8ff" points="582.28,-418.83 589.74,-411.31 579.21,-412.54 582.28,-418.83"/>
</a>
</g>
</g>
<!-- Node4 -->
<g id="Node000004" class="node">
<title>Node4</title>
<g id="a_Node000004"><a xlink:href="xdino__linux__main_8cpp.html#ad7cc0200df4ae9dc2f3445ce0c5bb02c" target="_top" xlink:title="Copie une liste de sommets de triangles texturés sur la carte graphique. Retourne l&#39;identifiant uniqu...">
<polygon fill="white" stroke="#666666" points="698.5,-355.25 569.25,-355.25 569.25,-336 698.5,-336 698.5,-355.25"/>
<text text-anchor="middle" x="633.88" y="-341.75" font-family="Helvetica,sans-Serif" font-size="10.00">XDino_CreateVertexBuffer</text>
</a>
</g>
</g>
<!-- Node2&#45;&gt;Node4 -->
<g id="edge3_Node000002_Node000004" class="edge">
<title>Node2&#45;&gt;Node4</title>
<g id="a_edge3_Node000002_Node000004"><a xlink:title=" ">
<path fill="none" stroke="#63b8ff" d="M490.07,-567.44C504.39,-565.08 519.1,-559.97 529.5,-549.62 583.63,-495.77 519.56,-442.62 565.5,-381.62 572.13,-372.82 581.56,-365.94 591.27,-360.66"/>
<polygon fill="#63b8ff" stroke="#63b8ff" points="592.57,-363.92 600.03,-356.38 589.5,-357.62 592.57,-363.92"/>
</a>
</g>
</g>
<!-- Node5 -->
<g id="Node000005" class="node">
<title>Node5</title>
<g id="a_Node000005"><a xlink:href="xdino__linux__main_8cpp.html#a641cf6ebd62e0ffbcf34a364bb9bf03b" target="_top" xlink:title="Décharge la liste de sommets identifiée par &#39;vbufID&#39; de la carte graphique.">
<polygon fill="white" stroke="#666666" points="700.75,-456.25 567,-456.25 567,-437 700.75,-437 700.75,-456.25"/>
<text text-anchor="middle" x="633.88" y="-442.75" font-family="Helvetica,sans-Serif" font-size="10.00">XDino_DestroyVertexBuffer</text>
</a>
</g>
</g>
<!-- Node2&#45;&gt;Node5 -->
<g id="edge4_Node000002_Node000005" class="edge">
<title>Node2&#45;&gt;Node5</title>
<g id="a_edge4_Node000002_Node000005"><a xlink:title=" ">
<path fill="none" stroke="#63b8ff" d="M490.19,-565.85C504.03,-563.33 518.43,-558.52 529.5,-549.62 559.89,-525.2 536.67,-495.87 565.5,-469.62 568.85,-466.58 572.62,-463.93 576.62,-461.63"/>
<polygon fill="#63b8ff" stroke="#63b8ff" points="578.12,-464.79 585.58,-457.27 575.06,-458.5 578.12,-464.79"/>
</a>
</g>
</g>
<!-- Node6 -->
<g id="Node000006" class="node">
<title>Node6</title>
<g id="a_Node000006"><a xlink:href="xdino__linux__main_8cpp.html#a7d5347b96a8386cfa0d2ee33abaf36bb" target="_top" xlink:title="Transfère les triangles à dessiner à la carte graphique.">
<polygon fill="white" stroke="#666666" points="668.88,-498.25 598.88,-498.25 598.88,-479 668.88,-479 668.88,-498.25"/>
<text text-anchor="middle" x="633.88" y="-484.75" font-family="Helvetica,sans-Serif" font-size="10.00">XDino_Draw</text>
</a>
</g>
</g>
<!-- Node2&#45;&gt;Node6 -->
<g id="edge5_Node000002_Node000006" class="edge">
<title>Node2&#45;&gt;Node6</title>
<g id="a_edge5_Node000002_Node000006"><a xlink:title=" ">
<path fill="none" stroke="#63b8ff" d="M490.07,-563.47C503.46,-560.83 517.63,-556.55 529.5,-549.62 550.45,-537.4 545.08,-521.7 565.5,-508.62 572.21,-504.33 579.87,-500.93 587.57,-498.24"/>
<polygon fill="#63b8ff" stroke="#63b8ff" points="588.41,-501.64 596.93,-495.34 586.35,-494.96 588.41,-501.64"/>
</a>
</g>
</g>
<!-- Node7 -->
<g id="Node000007" class="node">
<title>Node7</title>
<g id="a_Node000007"><a xlink:href="xdino__linux__main_8cpp.html#afce3fa5d5fa809f786dad62cd3989b7a" target="_top" xlink:title="Affiche les statistiques de consommation mémoire et de ressources chargées.">
<polygon fill="white" stroke="#666666" points="680.5,-574.25 587.25,-574.25 587.25,-555 680.5,-555 680.5,-574.25"/>
<text text-anchor="middle" x="633.88" y="-560.75" font-family="Helvetica,sans-Serif" font-size="10.00">XDino_DrawStats</text>
</a>
</g>
</g>
<!-- Node2&#45;&gt;Node7 -->
<g id="edge6_Node000002_Node000007" class="edge">
<title>Node2&#45;&gt;Node7</title>
<g id="a_edge6_Node000002_Node000007"><a xlink:title=" ">
<path fill="none" stroke="#63b8ff" d="M490.22,-566.88C516.02,-566.48 548.24,-565.96 575.54,-565.53"/>
<polygon fill="#63b8ff" stroke="#63b8ff" points="575.44,-569.03 585.39,-565.38 575.33,-562.04 575.44,-569.03"/>
</a>
</g>
</g>
<!-- Node8 -->
<g id="Node000008" class="node">
<title>Node8</title>
<g id="a_Node000008"><a xlink:href="xdino__linux__main_8cpp.html#a68646c879bb2deb348cfa0ae2fc53b92" target="_top" xlink:title="Récupère l&#39;état de la manette concernée.">
<polygon fill="white" stroke="#666666" points="686.5,-537.25 581.25,-537.25 581.25,-518 686.5,-518 686.5,-537.25"/>
<text text-anchor="middle" x="633.88" y="-523.75" font-family="Helvetica,sans-Serif" font-size="10.00">XDino_GetGamepad</text>
</a>
</g>
</g>
<!-- Node2&#45;&gt;Node8 -->
<g id="edge7_Node000002_Node000008" class="edge">
<title>Node2&#45;&gt;Node8</title>
<g id="a_edge7_Node000002_Node000008"><a xlink:title=" ">
<path fill="none" stroke="#63b8ff" d="M489.87,-557.94C502.71,-555.26 516.65,-552.34 529.5,-549.62 544.09,-546.55 559.84,-543.21 574.54,-540.08"/>
<polygon fill="#63b8ff" stroke="#63b8ff" points="575,-543.56 584.06,-538.05 573.55,-536.71 575,-543.56"/>
</a>
</g>
</g>
<!-- Node9 -->
<g id="Node000009" class="node">
<title>Node9</title>
<g id="a_Node000009"><a xlink:href="xdino__linux__main_8cpp.html#a4ded9317bd5f35f70b1473c729e56d1a" target="_top" xlink:title="Taille du rendu. Attention, différent de la résolution affichée à l&#39;écran !">
<polygon fill="white" stroke="#666666" points="690.25,-648.25 577.5,-648.25 577.5,-629 690.25,-629 690.25,-648.25"/>
<text text-anchor="middle" x="633.88" y="-634.75" font-family="Helvetica,sans-Serif" font-size="10.00">XDino_GetRenderSize</text>
</a>
</g>
</g>
<!-- Node2&#45;&gt;Node9 -->
<g id="edge8_Node000002_Node000009" class="edge">
<title>Node2&#45;&gt;Node9</title>
<g id="a_edge8_Node000002_Node000009"><a xlink:title=" ">
<path fill="none" stroke="#63b8ff" d="M463.75,-577.58C487.7,-589.02 528.83,-607.85 565.5,-620.62 570.26,-622.28 575.25,-623.88 580.28,-625.39"/>
<polygon fill="#63b8ff" stroke="#63b8ff" points="579.22,-628.72 589.79,-628.12 581.15,-622 579.22,-628.72"/>
</a>
</g>
</g>
<!-- Node10 -->
<g id="Node000010" class="node">
<title>Node10</title>
<g id="a_Node000010"><a xlink:href="xdino__linux__main_8cpp.html#abded2f43911a4a13d4742539b59797e0" target="_top" xlink:title="Pour indiquer la couleur d&#39;arrière&#45;plan.">
<polygon fill="white" stroke="#666666" points="687.62,-611.25 580.12,-611.25 580.12,-592 687.62,-592 687.62,-611.25"/>
<text text-anchor="middle" x="633.88" y="-597.75" font-family="Helvetica,sans-Serif" font-size="10.00">XDino_SetClearColor</text>
</a>
</g>
</g>
<!-- Node2&#45;&gt;Node10 -->
<g id="edge9_Node000002_Node000010" class="edge">
<title>Node2&#45;&gt;Node10</title>
<g id="a_edge9_Node000002_Node000010"><a xlink:title=" ">
<path fill="none" stroke="#63b8ff" d="M490.22,-576.03C513.9,-580.28 542.99,-585.5 568.71,-590.11"/>
<polygon fill="#63b8ff" stroke="#63b8ff" points="567.93,-593.53 578.39,-591.85 569.17,-586.64 567.93,-593.53"/>
</a>
</g>
</g>
<!-- Node11&#45;&gt;Node4 -->
<g id="edge15_Node000011_Node000004" class="edge">
<title>Node11&#45;&gt;Node4</title>
<g id="a_edge15_Node000011_Node000004"><a xlink:title=" ">
<path fill="none" stroke="#63b8ff" d="M256.25,-390.68C274.21,-373.61 313.93,-339.33 355.25,-326.62 434.31,-302.32 531.79,-319.02 587.7,-332.75"/>
<polygon fill="#63b8ff" stroke="#63b8ff" points="586.62,-336.09 597.17,-335.16 588.34,-329.31 586.62,-336.09"/>
</a>
</g>
</g>
<!-- Node12 -->
<g id="Node000012" class="node">
<title>Node12</title>
<g id="a_Node000012"><a xlink:href="dino__draw__utils_8cpp.html#a8a1875e3a83c7342b6cf774e492fc9e5" target="_top" xlink:title="Produit un dessin de cercle avec la couleur spécifiée. Les sommets doivent être dessiné avec XDino_TE...">
<polygon fill="white" stroke="#666666" points="504.75,-540.25 380,-540.25 380,-521 504.75,-521 504.75,-540.25"/>
<text text-anchor="middle" x="442.38" y="-526.75" font-family="Helvetica,sans-Serif" font-size="10.00">Dino_GenVertices_Circle</text>
</a>
</g>
</g>
<!-- Node11&#45;&gt;Node12 -->
<g id="edge11_Node000011_Node000012" class="edge">
<title>Node11&#45;&gt;Node12</title>
<g id="a_edge11_Node000011_Node000012"><a xlink:title=" ">
<path fill="none" stroke="#63b8ff" d="M252.79,-410.61C267.92,-432.83 307.69,-486.49 355.25,-512.62 359.58,-515.01 364.2,-517.07 368.96,-518.87"/>
<polygon fill="#63b8ff" stroke="#63b8ff" points="367.51,-522.08 378.1,-521.9 369.71,-515.43 367.51,-522.08"/>
</a>
</g>
</g>
<!-- Node13 -->
<g id="Node000013" class="node">
<title>Node13</title>
<g id="a_Node000013"><a xlink:href="dino__draw__utils_8cpp.html#ad4e078eff3e21bb5c840aea64bbf2673" target="_top" xlink:title="Produit un dessin contenant une liste de segments, tous reliés. Les sommets doivent être dessiné avec...">
<polygon fill="white" stroke="#666666" points="509.25,-503.25 375.5,-503.25 375.5,-484 509.25,-484 509.25,-503.25"/>
<text text-anchor="middle" x="442.38" y="-489.75" font-family="Helvetica,sans-Serif" font-size="10.00">Dino_GenVertices_Polyline</text>
</a>
</g>
</g>
<!-- Node11&#45;&gt;Node13 -->
<g id="edge12_Node000011_Node000013" class="edge">
<title>Node11&#45;&gt;Node13</title>
<g id="a_edge12_Node000011_Node000013"><a xlink:title=" ">
<path fill="none" stroke="#63b8ff" d="M257.43,-410.61C276.23,-426.84 315.97,-458.82 355.25,-475.62 359.24,-477.33 363.41,-478.89 367.67,-480.29"/>
<polygon fill="#63b8ff" stroke="#63b8ff" points="366.34,-483.55 376.93,-483.07 368.36,-476.85 366.34,-483.55"/>
</a>
</g>
</g>
<!-- Node14 -->
<g id="Node000014" class="node">
<title>Node14</title>
<g id="a_Node000014"><a xlink:href="xdino__linux__main_8cpp.html#a606a6ce34b0c704a35a8a61db01db625" target="_top" xlink:title="Charge une texture nommée &#39;pName&#39; depuis le disque jusqu&#39;à la carte graphique. Retourne l&#39;identifiant...">
<polygon fill="white" stroke="#666666" points="505.5,-279.25 379.25,-279.25 379.25,-260 505.5,-260 505.5,-279.25"/>
<text text-anchor="middle" x="442.38" y="-265.75" font-family="Helvetica,sans-Serif" font-size="10.00">XDino_CreateGpuTexture</text>
</a>
</g>
</g>
<!-- Node11&#45;&gt;Node14 -->
<g id="edge13_Node000011_Node000014" class="edge">
<title>Node11&#45;&gt;Node14</title>
<g id="a_edge13_Node000011_Node000014"><a xlink:title=" ">
<path fill="none" stroke="#63b8ff" d="M253.5,-390.68C269.45,-369.54 309.79,-319.89 355.25,-293.62 362.36,-289.51 370.22,-286.08 378.2,-283.21"/>
<polygon fill="#63b8ff" stroke="#63b8ff" points="379.26,-286.55 387.68,-280.12 377.08,-279.89 379.26,-286.55"/>
</a>
</g>
</g>
<!-- Node16 -->
<g id="Node000016" class="node">
<title>Node16</title>
<g id="a_Node000016"><a xlink:href="xdino__linux__main_8cpp.html#a0bae910da7641a966b3caf0a765a16c1" target="_top" xlink:title="Retourne la taille en pixels de la texture chargée sur la carte graphique.">
<polygon fill="white" stroke="#666666" points="508.5,-466.25 376.25,-466.25 376.25,-447 508.5,-447 508.5,-466.25"/>
<text text-anchor="middle" x="442.38" y="-452.75" font-family="Helvetica,sans-Serif" font-size="10.00">XDino_GetGpuTextureSize</text>
</a>
</g>
</g>
<!-- Node11&#45;&gt;Node16 -->
<g id="edge16_Node000011_Node000016" class="edge">
<title>Node11&#45;&gt;Node16</title>
<g id="a_edge16_Node000011_Node000016"><a xlink:title=" ">
<path fill="none" stroke="#63b8ff" d="M271.94,-410.64C293.84,-418.92 326.28,-430.59 355.25,-438.62 362.19,-440.55 369.49,-442.38 376.79,-444.08"/>
<polygon fill="#63b8ff" stroke="#63b8ff" points="375.82,-447.45 386.35,-446.22 377.36,-440.62 375.82,-447.45"/>
</a>
</g>
</g>
<!-- Node17 -->
<g id="Node000017" class="node">
<title>Node17</title>
<g id="a_Node000017"><a xlink:href="xdino__linux__main_8cpp.html#a8fb3a63e6442dd880092baee74243dd3" target="_top" xlink:title="Taille de la fenêtre sur l&#39;écran. Attention, différent de la résolution du rendu !">
<polygon fill="white" stroke="#666666" points="500.62,-429.25 384.12,-429.25 384.12,-410 500.62,-410 500.62,-429.25"/>
<text text-anchor="middle" x="442.38" y="-415.75" font-family="Helvetica,sans-Serif" font-size="10.00">XDino_GetWindowSize</text>
</a>
</g>
</g>
<!-- Node11&#45;&gt;Node17 -->
<g id="edge17_Node000011_Node000017" class="edge">
<title>Node11&#45;&gt;Node17</title>
<g id="a_edge17_Node000011_Node000017"><a xlink:title=" ">
<path fill="none" stroke="#63b8ff" d="M285.74,-404.47C310.61,-406.89 343.4,-410.08 372.47,-412.92"/>
<polygon fill="#63b8ff" stroke="#63b8ff" points="372.02,-416.39 382.31,-413.87 372.7,-409.42 372.02,-416.39"/>
</a>
</g>
</g>
<!-- Node18 -->
<g id="Node000018" class="node">
<title>Node18</title>
<g id="a_Node000018"><a xlink:href="xdino__linux__main_8cpp.html#a57ea716600a49f61ffff0bd33bd78a7d" target="_top" xlink:title="Modifie la taille de rendu. Les coordonnées passées dans les vertex sont en rapport à cette taille.">
<polygon fill="white" stroke="#666666" points="498.38,-392.25 386.38,-392.25 386.38,-373 498.38,-373 498.38,-392.25"/>
<text text-anchor="middle" x="442.38" y="-378.75" font-family="Helvetica,sans-Serif" font-size="10.00">XDino_SetRenderSize</text>
</a>
</g>
</g>
<!-- Node11&#45;&gt;Node18 -->
<g id="edge18_Node000011_Node000018" class="edge">
<title>Node11&#45;&gt;Node18</title>
<g id="a_edge18_Node000011_Node000018"><a xlink:title=" ">
<path fill="none" stroke="#63b8ff" d="M285.74,-396.98C311.31,-394.62 345.26,-391.49 374.92,-388.76"/>
<polygon fill="#63b8ff" stroke="#63b8ff" points="374.91,-392.27 384.54,-387.87 374.26,-385.3 374.91,-392.27"/>
</a>
</g>
</g>
<!-- Node15 -->
<g id="Node000015" class="node">
<title>Node15</title>
<g id="a_Node000015"><a xlink:href="xdino__linux__main_8cpp.html#a9a7f32a9d3a97c86d7e2998d754c811e" target="_top" xlink:title=" ">
<polygon fill="white" stroke="#666666" points="702.25,-279.25 565.5,-279.25 565.5,-260 702.25,-260 702.25,-279.25"/>
<text text-anchor="middle" x="633.88" y="-265.75" font-family="Helvetica,sans-Serif" font-size="10.00">XDino_Linux_CreateTexture</text>
</a>
</g>
</g>
<!-- Node14&#45;&gt;Node15 -->
<g id="edge14_Node000014_Node000015" class="edge">
<title>Node14&#45;&gt;Node15</title>
<g id="a_edge14_Node000014_Node000015"><a xlink:title=" ">
<path fill="none" stroke="#63b8ff" d="M505.95,-269.62C521.22,-269.62 537.75,-269.62 553.68,-269.62"/>
<polygon fill="#63b8ff" stroke="#63b8ff" points="553.63,-273.13 563.63,-269.63 553.63,-266.13 553.63,-273.13"/>
</a>
</g>
</g>
<!-- Node23&#45;&gt;Node19 -->
<g id="edge24_Node000023_Node000019" class="edge">
<title>Node23&#45;&gt;Node19</title>
<g id="a_edge24_Node000023_Node000019"><a xlink:title=" ">
<path fill="none" stroke="#63b8ff" d="M296.75,-187.53C322.54,-182.38 354.1,-176.07 381.15,-170.66"/>
<polygon fill="#63b8ff" stroke="#63b8ff" points="381.83,-174.1 390.95,-168.7 380.46,-167.23 381.83,-174.1"/>
</a>
</g>
</g>
<!-- Node23&#45;&gt;Node20 -->
<g id="edge25_Node000023_Node000020" class="edge">
<title>Node23&#45;&gt;Node20</title>
<g id="a_edge25_Node000023_Node000020"><a xlink:title=" ">
<path fill="none" stroke="#63b8ff" d="M261.49,-187.72C281.99,-174.81 319.98,-152.4 355.25,-139.62 364.85,-136.15 375.3,-133.26 385.52,-130.89"/>
<polygon fill="#63b8ff" stroke="#63b8ff" points="385.94,-134.38 394.97,-128.84 384.46,-127.54 385.94,-134.38"/>
</a>
</g>
</g>
<!-- Node24 -->
<g id="Node000024" class="node">
<title>Node24</title>
<g id="a_Node000024"><a xlink:href="xdino__win64__rdr_8cpp.html#a9b6c6fcbcefafee47511b2494be31bc5" target="_top" xlink:title=" ">
<polygon fill="white" stroke="#666666" points="523.12,-242.25 361.62,-242.25 361.62,-223 523.12,-223 523.12,-242.25"/>
<text text-anchor="middle" x="442.38" y="-228.75" font-family="Helvetica,sans-Serif" font-size="10.00">XDino_Win64_CollectRessources</text>
</a>
</g>
</g>
<!-- Node23&#45;&gt;Node24 -->
<g id="edge26_Node000023_Node000024" class="edge">
<title>Node23&#45;&gt;Node24</title>
<g id="a_edge26_Node000023_Node000024"><a xlink:title=" ">
<path fill="none" stroke="#63b8ff" d="M302.69,-207.75C324.94,-211.74 350.67,-216.36 373.89,-220.52"/>
<polygon fill="#63b8ff" stroke="#63b8ff" points="373.11,-223.94 383.57,-222.26 374.35,-217.05 373.11,-223.94"/>
</a>
</g>
</g>
<!-- Node25 -->
<g id="Node000025" class="node">
<title>Node25</title>
<g id="a_Node000025"><a xlink:href="xdino__win64__rdr_8cpp.html#aee77bfe8f28763649ad0fb85717cbddf" target="_top" xlink:title=" ">
<polygon fill="white" stroke="#666666" points="529.5,-205.25 355.25,-205.25 355.25,-186 529.5,-186 529.5,-205.25"/>
<text text-anchor="middle" x="442.38" y="-191.75" font-family="Helvetica,sans-Serif" font-size="10.00">XDino_Win64_PurgeDeadResources</text>
</a>
</g>
</g>
<!-- Node23&#45;&gt;Node25 -->
<g id="edge27_Node000023_Node000025" class="edge">
<title>Node23&#45;&gt;Node25</title>
<g id="a_edge27_Node000023_Node000025"><a xlink:title=" ">
<path fill="none" stroke="#63b8ff" d="M305.06,-197.02C317.21,-196.9 330.32,-196.76 343.43,-196.63"/>
<polygon fill="#63b8ff" stroke="#63b8ff" points="343.46,-200.13 353.43,-196.53 343.39,-193.13 343.46,-200.13"/>
</a>
</g>
</g>
<!-- Node26 -->
<g id="Node000026" class="node">
<title>Node26</title>
<g id="a_Node000026"><a xlink:href="xdino__impl_8h.html#afb7598b07900a9b7f46de9fae53de8a0" target="_top" xlink:title="Trucs communs entre les différentes implémentations de l&#39;API XDino. En général, cela concerne le debu...">
<polygon fill="white" stroke="#666666" points="498.38,-355.25 386.38,-355.25 386.38,-336 498.38,-336 498.38,-355.25"/>
<text text-anchor="middle" x="442.38" y="-341.75" font-family="Helvetica,sans-Serif" font-size="10.00">XDinoImpl_DrawStats</text>
</a>
</g>
</g>
<!-- Node23&#45;&gt;Node26 -->
<g id="edge28_Node000023_Node000026" class="edge">
<title>Node23&#45;&gt;Node26</title>
<g id="a_edge28_Node000023_Node000026"><a xlink:title=" ">
<path fill="none" stroke="#63b8ff" d="M257.37,-207.62C276.72,-224.84 318.08,-260.94 355.25,-288.62 374.96,-303.31 398.26,-318.61 415.65,-329.66"/>
<polygon fill="#63b8ff" stroke="#63b8ff" points="413.53,-332.46 423.86,-334.83 417.26,-326.54 413.53,-332.46"/>
</a>
</g>
</g>
<!-- Node26&#45;&gt;Node3 -->
<g id="edge29_Node000026_Node000003" class="edge">
<title>Node26&#45;&gt;Node3</title>
<g id="a_edge29_Node000026_Node000003"><a xlink:title=" ">
<path fill="none" stroke="#63b8ff" d="M497.41,-355.73C508.11,-358.06 519.21,-360.72 529.5,-363.62 552.3,-370.06 577.33,-378.96 597.05,-386.43"/>
<polygon fill="#63b8ff" stroke="#63b8ff" points="595.7,-389.66 606.29,-389.97 598.21,-383.12 595.7,-389.66"/>
</a>
</g>
</g>
<!-- Node26&#45;&gt;Node4 -->
<g id="edge30_Node000026_Node000004" class="edge">
<title>Node26&#45;&gt;Node4</title>
<g id="a_edge30_Node000026_Node000004"><a xlink:title=" ">
<path fill="none" stroke="#63b8ff" d="M498.7,-345.62C517.05,-345.62 537.81,-345.62 557.42,-345.62"/>
<polygon fill="#63b8ff" stroke="#63b8ff" points="557.29,-349.13 567.29,-345.63 557.29,-342.13 557.29,-349.13"/>
</a>
</g>
</g>
<!-- Node26&#45;&gt;Node5 -->
<g id="edge31_Node000026_Node000005" class="edge">
<title>Node26&#45;&gt;Node5</title>
<g id="a_edge31_Node000026_Node000005"><a xlink:title=" ">
<path fill="none" stroke="#63b8ff" d="M498.85,-350.49C509.66,-353.24 520.44,-357.39 529.5,-363.62 553.87,-380.4 542.69,-400.78 565.5,-419.62 571.44,-424.53 578.39,-428.63 585.52,-432.04"/>
<polygon fill="#63b8ff" stroke="#63b8ff" points="584.05,-435.21 594.62,-435.94 586.8,-428.78 584.05,-435.21"/>
</a>
</g>
</g>
<!-- Node26&#45;&gt;Node6 -->
<g id="edge32_Node000026_Node000006" class="edge">
<title>Node26&#45;&gt;Node6</title>
<g id="a_edge32_Node000026_Node000006"><a xlink:title=" ">
<path fill="none" stroke="#63b8ff" d="M498.72,-348.58C509.92,-351.41 520.88,-356.08 529.5,-363.62 565.68,-395.28 531.33,-431.81 565.5,-465.62 571.67,-471.73 579.52,-476.22 587.68,-479.51"/>
<polygon fill="#63b8ff" stroke="#63b8ff" points="586.42,-482.78 597.01,-482.71 588.68,-476.16 586.42,-482.78"/>
</a>
</g>
</g>
</g>
</svg>

<g id="navigator" transform="translate(0 0)" fill="#404254">
  <rect fill="#f2f5e9" fill-opacity="0.5" stroke="#606060" stroke-width=".5" x="0" y="0" width="60" height="60"/>
  <use id="zoomplus" xlink:href="#zoomPlus" x="17" y="9" onmousedown="handleZoom(evt,'in')"/>
  <use id="zoomminus" xlink:href="#zoomMin" x="42" y="9" onmousedown="handleZoom(evt,'out')"/>
  <use id="reset" xlink:href="#resetDef" x="30" y="36" onmousedown="handleReset()"/>
   <use id="arrowup" xlink:href="#arrowUp" x="0" y="0" onmousedown="handlePan(0,-1)"/>
  <use id="arrowright" xlink:href="#arrowRight" x="0" y="0" onmousedown="handlePan(1,0)"/>
  <use id="arrowdown" xlink:href="#arrowDown" x="0" y="0" onmousedown="handlePan(0,1)"/>
  <use id="arrowleft" xlink:href="#arrowLeft" x="0" y="0" onmousedown="handlePan(-1,0)"/>
</g>
<svg viewBox="0 0 15 15" width="100%" height="30px" preserveAspectRatio="xMaxYMin meet">
 <g id="arrow_out" transform="scale(0.3 0.3)">
  <a xlink:href="xdino__win64__main_8cpp_afa07de294d5b620ee39644b9661f0665_cgraph_org.svg" target="_base">
   <rect id="button" ry="5" rx="5" y="6" x="6" height="38" width="38"
        fill="#f2f5e9" fill-opacity="0.5" stroke="#606060" stroke-width="1.0"/>
   <path id="arrow"
     d="M 11.500037,31.436501 C 11.940474,20.09759 22.043105,11.32322 32.158766,21.979434 L 37.068811,17.246167 C 37.068811,17.246167 37.088388,32 37.088388,32 L 22.160133,31.978069 C 22.160133,31.978069 26.997745,27.140456 26.997745,27.140456 C 18.528582,18.264221 13.291696,25.230495 11.500037,31.436501 z"
     style="fill:#404040;"/>
  </a>
 </g>
</svg>

<style type='text/css'>
<![CDATA[
[data-mouse-over-selected='false'] { opacity: 0.7; }
[data-mouse-over-selected='true']  { opacity: 1.0; }
]]>
</style>
<script type="application/ecmascript"><![CDATA[
document.addEventListener('DOMContentLoaded', (event) => {
  highlightEdges();
  highlightAdjacentNodes();
});
]]></script>
</svg>
