<?xml version="1.0" encoding="UTF-8" standalone="no"?>
<!DOCTYPE svg PUBLIC "-//W3C//DTD SVG 1.1//EN"
 "http://www.w3.org/Graphics/SVG/1.1/DTD/svg11.dtd">
<!-- Generated by graphviz version 9.0.0 (20230911.1827)
 -->
<!-- Title: XDinoImpl_DrawStats Pages: 1 -->
<svg width="290pt" height="138pt"
 viewBox="0.00 0.00 289.75 138.25" xmlns="http://www.w3.org/2000/svg" xmlns:xlink="http://www.w3.org/1999/xlink">

<svg id="main" version="1.1" xmlns="http://www.w3.org/2000/svg" xmlns:xlink="http://www.w3.org/1999/xlink" xml:space="preserve" onload="init(evt)">
<style type="text/css"><![CDATA[
.node, .edge {opacity: 0.7;}
.node.selected, .edge.selected {opacity: 1;}
.edge:hover path { stroke: red; }
.edge:hover polygon { stroke: red; fill: red; }
]]></style>
<script type="application/ecmascript" xlink:href="svg.min.js"/>
<svg id="graph" class="graph">
<g id="graph0" class="graph" transform="scale(1 1) rotate(0) translate(4 134.25)">
<title>XDinoImpl_DrawStats</title>
<!-- Node1 -->
<g id="Node000001" class="node">
<title>Node1</title>
<g id="a_Node000001"><a xlink:title="Trucs communs entre les différentes implémentations de l&#39;API XDino. En général, cela concerne le debu...">
<polygon fill="#999999" stroke="#666666" points="112,-74.25 0,-74.25 0,-55 112,-55 112,-74.25"/>
<text text-anchor="middle" x="56" y="-60.75" font-family="Helvetica,sans-Serif" font-size="10.00">XDinoImpl_DrawStats</text>
</a>
</g>
</g>
<!-- Node2 -->
<g id="Node000002" class="node">
<title>Node2</title>
<g id="a_Node000002"><a xlink:href="dino__draw__utils_8cpp.html#a9473461ff91938cb3c388c767b78f785" target="_top" xlink:title="Produit un dessin contenant du texte, avec éventuellement une couleur de fond. Les sommets doivent êt...">
<polygon fill="white" stroke="#666666" points="274.25,-130.25 155.5,-130.25 155.5,-111 274.25,-111 274.25,-130.25"/>
<text text-anchor="middle" x="214.88" y="-116.75" font-family="Helvetica,sans-Serif" font-size="10.00">Dino_GenVertices_Text</text>
</a>
</g>
</g>
<!-- Node1&#45;&gt;Node2 -->
<g id="edge1_Node000001_Node000002" class="edge">
<title>Node1&#45;&gt;Node2</title>
<g id="a_edge1_Node000001_Node000002"><a xlink:title=" ">
<path fill="none" stroke="#63b8ff" d="M78.76,-74.64C97.01,-82.82 123.88,-94.33 148,-102.62 152.8,-104.27 157.83,-105.87 162.89,-107.4"/>
<polygon fill="#63b8ff" stroke="#63b8ff" points="161.88,-110.75 172.46,-110.17 163.83,-104.03 161.88,-110.75"/>
</a>
</g>
</g>
<!-- Node3 -->
<g id="Node000003" class="node">
<title>Node3</title>
<g id="a_Node000003"><a xlink:href="xdino__linux__main_8cpp.html#ad7cc0200df4ae9dc2f3445ce0c5bb02c" target="_top" xlink:title="Copie une liste de sommets de triangles texturés sur la carte graphique. Retourne l&#39;identifiant uniqu...">
<polygon fill="white" stroke="#666666" points="279.5,-93.25 150.25,-93.25 150.25,-74 279.5,-74 279.5,-93.25"/>
<text text-anchor="middle" x="214.88" y="-79.75" font-family="Helvetica,sans-Serif" font-size="10.00">XDino_CreateVertexBuffer</text>
</a>
</g>
</g>
<!-- Node1&#45;&gt;Node3 -->
<g id="edge2_Node000001_Node000003" class="edge">
<title>Node1&#45;&gt;Node3</title>
<g id="a_edge2_Node000001_Node000003"><a xlink:title=" ">
<path fill="none" stroke="#63b8ff" d="M112.31,-71.32C120.87,-72.36 129.83,-73.45 138.74,-74.52"/>
<polygon fill="#63b8ff" stroke="#63b8ff" points="138.1,-77.97 148.45,-75.7 138.94,-71.02 138.1,-77.97"/>
</a>
</g>
</g>
<!-- Node4 -->
<g id="Node000004" class="node">
<title>Node4</title>
<g id="a_Node000004"><a xlink:href="xdino__linux__main_8cpp.html#a641cf6ebd62e0ffbcf34a364bb9bf03b" target="_top" xlink:title="Décharge la liste de sommets identifiée par &#39;vbufID&#39; de la carte graphique.">
<polygon fill="white" stroke="#666666" points="281.75,-56.25 148,-56.25 148,-37 281.75,-37 281.75,-56.25"/>
<text text-anchor="middle" x="214.88" y="-42.75" font-family="Helvetica,sans-Serif" font-size="10.00">XDino_DestroyVertexBuffer</text>
</a>
</g>
</g>
<!-- Node1&#45;&gt;Node4 -->
<g id="edge3_Node000001_Node000004" class="edge">
<title>Node1&#45;&gt;Node4</title>
<g id="a_edge3_Node000001_Node000004"><a xlink:title=" ">
<path fill="none" stroke="#63b8ff" d="M112.31,-58.28C120.04,-57.39 128.11,-56.47 136.16,-55.54"/>
<polygon fill="#63b8ff" stroke="#63b8ff" points="136.47,-59.03 146,-54.41 135.67,-52.08 136.47,-59.03"/>
</a>
</g>
</g>
<!-- Node5 -->
<g id="Node000005" class="node">
<title>Node5</title>
<g id="a_Node000005"><a xlink:href="xdino__linux__main_8cpp.html#a7d5347b96a8386cfa0d2ee33abaf36bb" target="_top" xlink:title="Transfère les triangles à dessiner à la carte graphique.">
<polygon fill="white" stroke="#666666" points="249.88,-19.25 179.88,-19.25 179.88,0 249.88,0 249.88,-19.25"/>
<text text-anchor="middle" x="214.88" y="-5.75" font-family="Helvetica,sans-Serif" font-size="10.00">XDino_Draw</text>
</a>
</g>
</g>
<!-- Node1&#45;&gt;Node5 -->
<g id="edge4_Node000001_Node000005" class="edge">
<title>Node1&#45;&gt;Node5</title>
<g id="a_edge4_Node000001_Node000005"><a xlink:title=" ">
<path fill="none" stroke="#63b8ff" d="M79.53,-54.59C97.77,-46.67 124.25,-35.66 148,-27.62 154.63,-25.38 161.71,-23.21 168.68,-21.21"/>
<polygon fill="#63b8ff" stroke="#63b8ff" points="169.3,-24.67 177.99,-18.61 167.42,-17.92 169.3,-24.67"/>
</a>
</g>
</g>
</g>
</svg>
</svg>

<style type='text/css'>
<![CDATA[
[data-mouse-over-selected='false'] { opacity: 0.7; }
[data-mouse-over-selected='true']  { opacity: 1.0; }
]]>
</style>
<script type="application/ecmascript"><![CDATA[
document.addEventListener('DOMContentLoaded', (event) => {
  highlightEdges();
  highlightAdjacentNodes();
});
]]></script>
</svg>
