<?xml version="1.0" encoding="UTF-8" standalone="no"?>
<!DOCTYPE svg PUBLIC "-//W3C//DTD SVG 1.1//EN"
 "http://www.w3.org/Graphics/SVG/1.1/DTD/svg11.dtd">
<!-- Generated by graphviz version 9.0.0 (20230911.1827)
 -->
<!-- Title: WinMain Pages: 1 -->
<svg width="781pt" height="533pt"
 viewBox="0.00 0.00 781.00 533.25" xmlns="http://www.w3.org/2000/svg" xmlns:xlink="http://www.w3.org/1999/xlink">
<g id="graph0" class="graph" transform="scale(1 1) rotate(0) translate(4 529.25)">
<title>WinMain</title>
<!-- Node1 -->
<g id="Node000001" class="node">
<title>Node1</title>
<g id="a_Node000001"><a xlink:title=" ">
<polygon fill="#999999" stroke="#666666" points="53.5,-131.25 0,-131.25 0,-112 53.5,-112 53.5,-131.25"/>
<text text-anchor="middle" x="26.75" y="-117.75" font-family="Helvetica,sans-Serif" font-size="10.00">WinMain</text>
</a>
</g>
</g>
<!-- Node2 -->
<g id="Node000002" class="node">
<title>Node2</title>
<g id="a_Node000002"><a xlink:href="dino__game_8cpp.html#af5be2c6012bb9e2650a622d88c610fd6" target="_top" xlink:title="Appelé quand l&#39;utilisateur demande à quitter le jeu (touche ECHAP).">
<polygon fill="white" stroke="#666666" points="209,-187.25 121.75,-187.25 121.75,-168 209,-168 209,-187.25"/>
<text text-anchor="middle" x="165.38" y="-173.75" font-family="Helvetica,sans-Serif" font-size="10.00">Dino_GameShut</text>
</a>
</g>
</g>
<!-- Node1&#45;&gt;Node2 -->
<g id="edge1_Node000001_Node000002" class="edge">
<title>Node1&#45;&gt;Node2</title>
<g id="a_edge1_Node000001_Node000002"><a xlink:title=" ">
<path fill="none" stroke="#63b8ff" d="M41.29,-131.71C53.37,-140.26 71.83,-152.28 89.5,-159.62 96.06,-162.35 103.13,-164.72 110.21,-166.77"/>
<polygon fill="#63b8ff" stroke="#63b8ff" points="109.24,-170.13 119.8,-169.33 111.04,-163.37 109.24,-170.13"/>
</a>
</g>
</g>
<!-- Node3 -->
<g id="Node000003" class="node">
<title>Node3</title>
<g id="a_Node000003"><a xlink:href="xdino__win64__main_8cpp.html#a7202590da16f97f4cef692deb9001e27" target="_top" xlink:title=" ">
<polygon fill="white" stroke="#666666" points="236.75,-150.25 94,-150.25 94,-131 236.75,-131 236.75,-150.25"/>
<text text-anchor="middle" x="165.38" y="-136.75" font-family="Helvetica,sans-Serif" font-size="10.00">XDino_Win64_CreateWindow</text>
</a>
</g>
</g>
<!-- Node1&#45;&gt;Node3 -->
<g id="edge2_Node000001_Node000003" class="edge">
<title>Node1&#45;&gt;Node3</title>
<g id="a_edge2_Node000001_Node000003"><a xlink:title=" ">
<path fill="none" stroke="#63b8ff" d="M53.77,-125.24C62.18,-126.41 72.01,-127.78 82.27,-129.21"/>
<polygon fill="#63b8ff" stroke="#63b8ff" points="81.64,-132.65 92.03,-130.56 82.61,-125.72 81.64,-132.65"/>
</a>
</g>
</g>
<!-- Node22 -->
<g id="Node000022" class="node">
<title>Node22</title>
<g id="a_Node000022"><a xlink:href="xdino__win64__rdr_8cpp.html#a1114a89a9aca94743092c9e78a348e53" target="_top" xlink:title="Spécifique à la plateforme. Libère les ressources associées au rendu.">
<polygon fill="white" stroke="#666666" points="241.25,-113.25 89.5,-113.25 89.5,-94 241.25,-94 241.25,-113.25"/>
<text text-anchor="middle" x="165.38" y="-99.75" font-family="Helvetica,sans-Serif" font-size="10.00">XDino_Win64_DestroyRenderer</text>
</a>
</g>
</g>
<!-- Node1&#45;&gt;Node22 -->
<g id="edge25_Node000001_Node000022" class="edge">
<title>Node1&#45;&gt;Node22</title>
<g id="a_edge25_Node000001_Node000022"><a xlink:title=" ">
<path fill="none" stroke="#63b8ff" d="M53.77,-118.2C61.01,-117.24 69.3,-116.15 78,-115"/>
<polygon fill="#63b8ff" stroke="#63b8ff" points="78.25,-118.5 87.71,-113.73 77.34,-111.56 78.25,-118.5"/>
</a>
</g>
</g>
<!-- Node23 -->
<g id="Node000023" class="node">
<title>Node23</title>
<g id="a_Node000023"><a xlink:href="xdino__win64__main_8cpp.html#a782c99a514da9425987b481ccc596104" target="_top" xlink:title=" ">
<polygon fill="white" stroke="#666666" points="239,-76.25 91.75,-76.25 91.75,-57 239,-57 239,-76.25"/>
<text text-anchor="middle" x="165.38" y="-62.75" font-family="Helvetica,sans-Serif" font-size="10.00">XDino_Win64_DestroyWindow</text>
</a>
</g>
</g>
<!-- Node1&#45;&gt;Node23 -->
<g id="edge26_Node000001_Node000023" class="edge">
<title>Node1&#45;&gt;Node23</title>
<g id="a_edge26_Node000001_Node000023"><a xlink:title=" ">
<path fill="none" stroke="#63b8ff" d="M41.34,-111.82C53.44,-103.51 71.91,-91.81 89.5,-84.62 93.63,-82.94 97.95,-81.39 102.35,-79.96"/>
<polygon fill="#63b8ff" stroke="#63b8ff" points="103.33,-83.32 111.92,-77.11 101.34,-76.61 103.33,-83.32"/>
</a>
</g>
</g>
<!-- Node4 -->
<g id="Node000004" class="node">
<title>Node4</title>
<g id="a_Node000004"><a xlink:href="xdino__win64__main_8cpp.html#afa07de294d5b620ee39644b9661f0665" target="_top" xlink:title=" ">
<polygon fill="white" stroke="#666666" points="412.5,-150.25 277.25,-150.25 277.25,-131 412.5,-131 412.5,-150.25"/>
<text text-anchor="middle" x="344.88" y="-136.75" font-family="Helvetica,sans-Serif" font-size="10.00">XDino_Win64_HandleEvent</text>
</a>
</g>
</g>
<!-- Node3&#45;&gt;Node4 -->
<g id="edge3_Node000003_Node000004" class="edge">
<title>Node3&#45;&gt;Node4</title>
<g id="a_edge3_Node000003_Node000004"><a xlink:title=" ">
<path fill="none" stroke="#63b8ff" d="M237.04,-140.62C246.39,-140.62 256.01,-140.62 265.48,-140.62"/>
<polygon fill="#63b8ff" stroke="#63b8ff" points="265.41,-144.13 275.41,-140.63 265.41,-137.13 265.41,-144.13"/>
</a>
</g>
</g>
<!-- Node5 -->
<g id="Node000005" class="node">
<title>Node5</title>
<g id="a_Node000005"><a xlink:href="dino__game_8cpp.html#ac7b7408f18b3729af2f6e7f405f238e7" target="_top" xlink:title="Appelé pour générer chaque frame. Doit lireles entrées de jeu avec XDino_GetGamepad(),...">
<polygon fill="white" stroke="#666666" points="569.88,-359.25 475.12,-359.25 475.12,-340 569.88,-340 569.88,-359.25"/>
<text text-anchor="middle" x="522.5" y="-345.75" font-family="Helvetica,sans-Serif" font-size="10.00">Dino_GameFrame</text>
</a>
</g>
</g>
<!-- Node4&#45;&gt;Node5 -->
<g id="edge4_Node000004_Node000005" class="edge">
<title>Node4&#45;&gt;Node5</title>
<g id="a_edge4_Node000004_Node000005"><a xlink:title=" ">
<path fill="none" stroke="#63b8ff" d="M354.35,-150.71C381.99,-183.61 469.87,-288.19 505.88,-331.04"/>
<polygon fill="#63b8ff" stroke="#63b8ff" points="503.03,-333.08 512.14,-338.49 508.39,-328.58 503.03,-333.08"/>
</a>
</g>
</g>
<!-- Node14 -->
<g id="Node000014" class="node">
<title>Node14</title>
<g id="a_Node000014"><a xlink:href="dino__game_8cpp.html#a34e4cc788612f46dea16beb4b24dd0ab" target="_top" xlink:title="Appelé au tout début, pour initialiser la logique de jeu.">
<polygon fill="white" stroke="#666666" points="562.75,-245.25 482.25,-245.25 482.25,-226 562.75,-226 562.75,-245.25"/>
<text text-anchor="middle" x="522.5" y="-231.75" font-family="Helvetica,sans-Serif" font-size="10.00">Dino_GameInit</text>
</a>
</g>
</g>
<!-- Node4&#45;&gt;Node14 -->
<g id="edge13_Node000004_Node000014" class="edge">
<title>Node4&#45;&gt;Node14</title>
<g id="a_edge13_Node000004_Node000014"><a xlink:title=" ">
<path fill="none" stroke="#63b8ff" d="M357.79,-150.59C376.22,-165.59 413.19,-194.07 448.5,-211.62 456.22,-215.47 464.7,-218.9 473.07,-221.88"/>
<polygon fill="#63b8ff" stroke="#63b8ff" points="471.89,-225.18 482.48,-225.06 474.12,-218.55 471.89,-225.18"/>
</a>
</g>
</g>
<!-- Node15 -->
<g id="Node000015" class="node">
<title>Node15</title>
<g id="a_Node000015"><a xlink:href="xdino__win64__main_8cpp.html#ab579fc5249712eea9dab54bbad4808f0" target="_top" xlink:title="Commence un intervalle de profiling visible sur PIX. Les intervalles de profiling peuvent être l&#39;un d...">
<polygon fill="white" stroke="#666666" points="752.38,-205.25 653.12,-205.25 653.12,-186 752.38,-186 752.38,-205.25"/>
<text text-anchor="middle" x="702.75" y="-191.75" font-family="Helvetica,sans-Serif" font-size="10.00">XDino_ProfileBegin</text>
</a>
</g>
</g>
<!-- Node4&#45;&gt;Node15 -->
<g id="edge16_Node000004_Node000015" class="edge">
<title>Node4&#45;&gt;Node15</title>
<g id="a_edge16_Node000004_Node000015"><a xlink:title=" ">
<path fill="none" stroke="#63b8ff" d="M367.35,-150.65C387.75,-159.67 419.52,-172.42 448.5,-178.62 513.4,-192.51 589.59,-195.94 641.32,-196.42"/>
<polygon fill="#63b8ff" stroke="#63b8ff" points="641.09,-199.91 651.11,-196.47 641.13,-192.91 641.09,-199.91"/>
</a>
</g>
</g>
<!-- Node16 -->
<g id="Node000016" class="node">
<title>Node16</title>
<g id="a_Node000016"><a xlink:href="xdino__win64__main_8cpp.html#a847ecb99f82286c5ba044e4e50d6ca2c" target="_top" xlink:title="Finit un intervalle de profiling.">
<polygon fill="white" stroke="#666666" points="748.25,-131.25 657.25,-131.25 657.25,-112 748.25,-112 748.25,-131.25"/>
<text text-anchor="middle" x="702.75" y="-117.75" font-family="Helvetica,sans-Serif" font-size="10.00">XDino_ProfileEnd</text>
</a>
</g>
</g>
<!-- Node4&#45;&gt;Node16 -->
<g id="edge17_Node000004_Node000016" class="edge">
<title>Node4&#45;&gt;Node16</title>
<g id="a_edge17_Node000004_Node000016"><a xlink:title=" ">
<path fill="none" stroke="#63b8ff" d="M412.81,-137.05C480.01,-133.46 582.36,-128 645.49,-124.63"/>
<polygon fill="#63b8ff" stroke="#63b8ff" points="645.5,-128.13 655.3,-124.11 645.13,-121.14 645.5,-128.13"/>
</a>
</g>
</g>
<!-- Node17 -->
<g id="Node000017" class="node">
<title>Node17</title>
<g id="a_Node000017"><a xlink:href="xdino__win64__rdr_8cpp.html#a19e4f0d170af5a9a4eb73f6274dc1217" target="_top" xlink:title="Spécifique à la plateforme. Commence la passe de rendu.">
<polygon fill="white" stroke="#666666" points="586,-93.25 459,-93.25 459,-74 586,-74 586,-93.25"/>
<text text-anchor="middle" x="522.5" y="-79.75" font-family="Helvetica,sans-Serif" font-size="10.00">XDino_Win64_BeginDraw</text>
</a>
</g>
</g>
<!-- Node4&#45;&gt;Node17 -->
<g id="edge18_Node000004_Node000017" class="edge">
<title>Node4&#45;&gt;Node17</title>
<g id="a_edge18_Node000004_Node000017"><a xlink:title=" ">
<path fill="none" stroke="#63b8ff" d="M376.87,-130.57C405.5,-121.27 448.25,-107.4 479.85,-97.14"/>
<polygon fill="#63b8ff" stroke="#63b8ff" points="480.65,-100.56 489.08,-94.15 478.49,-93.9 480.65,-100.56"/>
</a>
</g>
</g>
<!-- Node18 -->
<g id="Node000018" class="node">
<title>Node18</title>
<g id="a_Node000018"><a xlink:href="xdino__win64__main_8cpp.html#a5f03a33705fae3997a21af54ca15a039" target="_top" xlink:title=" ">
<polygon fill="white" stroke="#666666" points="596.12,-56.25 448.88,-56.25 448.88,-37 596.12,-37 596.12,-56.25"/>
<text text-anchor="middle" x="522.5" y="-42.75" font-family="Helvetica,sans-Serif" font-size="10.00">XDino_Win64_CreateRenderer</text>
</a>
</g>
</g>
<!-- Node4&#45;&gt;Node18 -->
<g id="edge19_Node000004_Node000018" class="edge">
<title>Node4&#45;&gt;Node18</title>
<g id="a_edge19_Node000004_Node000018"><a xlink:title=" ">
<path fill="none" stroke="#63b8ff" d="M356.33,-130.62C373.92,-114.34 411.18,-82.17 448.5,-64.62 451.81,-63.07 455.26,-61.64 458.8,-60.32"/>
<polygon fill="#63b8ff" stroke="#63b8ff" points="459.76,-63.7 468.13,-57.2 457.53,-57.06 459.76,-63.7"/>
</a>
</g>
</g>
<!-- Node19 -->
<g id="Node000019" class="node">
<title>Node19</title>
<g id="a_Node000019"><a xlink:href="xdino__win64__rdr_8cpp.html#ad13ae3c31e66f2cdf34b75465d4bac17" target="_top" xlink:title="Spécifique à la plateforme. Finit la passe de rendu et envoit le travail à la carte graphique.">
<polygon fill="white" stroke="#666666" points="581.88,-169.25 463.12,-169.25 463.12,-150 581.88,-150 581.88,-169.25"/>
<text text-anchor="middle" x="522.5" y="-155.75" font-family="Helvetica,sans-Serif" font-size="10.00">XDino_Win64_EndDraw</text>
</a>
</g>
</g>
<!-- Node4&#45;&gt;Node19 -->
<g id="edge20_Node000004_Node000019" class="edge">
<title>Node4&#45;&gt;Node19</title>
<g id="a_edge20_Node000004_Node000019"><a xlink:title=" ">
<path fill="none" stroke="#63b8ff" d="M412.77,-147.86C425.52,-149.24 438.89,-150.69 451.72,-152.08"/>
<polygon fill="#63b8ff" stroke="#63b8ff" points="451.01,-155.52 461.33,-153.12 451.76,-148.56 451.01,-155.52"/>
</a>
</g>
</g>
<!-- Node21 -->
<g id="Node000021" class="node">
<title>Node21</title>
<g id="a_Node000021"><a xlink:href="xdino__win64__rdr_8cpp.html#a9ff5efef1703f2710d3e28a03a61ae85" target="_top" xlink:title="Spécifique à la plateforme. Redimensionnne le rendu.">
<polygon fill="white" stroke="#666666" points="596.5,-19.25 448.5,-19.25 448.5,0 596.5,0 596.5,-19.25"/>
<text text-anchor="middle" x="522.5" y="-5.75" font-family="Helvetica,sans-Serif" font-size="10.00">XDino_Win64_ResizeRenderer</text>
</a>
</g>
</g>
<!-- Node4&#45;&gt;Node21 -->
<g id="edge24_Node000004_Node000021" class="edge">
<title>Node4&#45;&gt;Node21</title>
<g id="a_edge24_Node000004_Node000021"><a xlink:title=" ">
<path fill="none" stroke="#63b8ff" d="M351.92,-130.67C365.95,-108.47 402.97,-54.77 448.5,-27.62 450.56,-26.4 452.7,-25.25 454.89,-24.19"/>
<polygon fill="#63b8ff" stroke="#63b8ff" points="456.24,-27.42 464.12,-20.33 453.54,-20.96 456.24,-27.42"/>
</a>
</g>
</g>
<!-- Node6 -->
<g id="Node000006" class="node">
<title>Node6</title>
<g id="a_Node000006"><a xlink:href="dino__draw__utils_8cpp.html#a70b3d7868b24344ba6b57f9eda900d45" target="_top" xlink:title="Produit un dessin de cercle avec la couleur spécifiée. La position (0,0) correspond au centre du cerc...">
<polygon fill="white" stroke="#666666" points="756.88,-413.88 648.62,-413.88 648.62,-383.38 756.88,-383.38 756.88,-413.88"/>
<text text-anchor="start" x="656.62" y="-400.38" font-family="Helvetica,sans-Serif" font-size="10.00">Dino_CreateDrawCall</text>
<text text-anchor="middle" x="702.75" y="-389.12" font-family="Helvetica,sans-Serif" font-size="10.00">_Circle</text>
</a>
</g>
</g>
<!-- Node5&#45;&gt;Node6 -->
<g id="edge5_Node000005_Node000006" class="edge">
<title>Node5&#45;&gt;Node6</title>
<g id="a_edge5_Node000005_Node000006"><a xlink:title=" ">
<path fill="none" stroke="#63b8ff" d="M560,-359.66C582.28,-365.78 611.4,-373.79 637.44,-380.95"/>
<polygon fill="#63b8ff" stroke="#63b8ff" points="636.36,-384.28 646.93,-383.55 638.21,-377.53 636.36,-384.28"/>
</a>
</g>
</g>
<!-- Node7 -->
<g id="Node000007" class="node">
<title>Node7</title>
<g id="a_Node000007"><a xlink:href="dino__draw__utils_8cpp.html#ae65d5defac67d1322c09dcc087933ddf" target="_top" xlink:title="Produit un dessin contenant une liste de segments, tous reliés.">
<polygon fill="white" stroke="#666666" points="756.88,-364.88 648.62,-364.88 648.62,-334.38 756.88,-334.38 756.88,-364.88"/>
<text text-anchor="start" x="656.62" y="-351.38" font-family="Helvetica,sans-Serif" font-size="10.00">Dino_CreateDrawCall</text>
<text text-anchor="middle" x="702.75" y="-340.12" font-family="Helvetica,sans-Serif" font-size="10.00">_Polyline</text>
</a>
</g>
</g>
<!-- Node5&#45;&gt;Node7 -->
<g id="edge6_Node000005_Node000007" class="edge">
<title>Node5&#45;&gt;Node7</title>
<g id="a_edge6_Node000005_Node000007"><a xlink:title=" ">
<path fill="none" stroke="#63b8ff" d="M570.33,-349.62C590.71,-349.62 614.93,-349.62 636.99,-349.62"/>
<polygon fill="#63b8ff" stroke="#63b8ff" points="636.79,-353.13 646.79,-349.63 636.79,-346.13 636.79,-353.13"/>
</a>
</g>
</g>
<!-- Node8 -->
<g id="Node000008" class="node">
<title>Node8</title>
<g id="a_Node000008"><a xlink:href="dino__draw__utils_8cpp.html#abcab1c5d9c9e1321444171dabb795f1b" target="_top" xlink:title="Produit un dessin contenant du texte, avec éventuellement une couleur de fond. La position (0,...">
<polygon fill="white" stroke="#666666" points="768.88,-316.25 636.62,-316.25 636.62,-297 768.88,-297 768.88,-316.25"/>
<text text-anchor="middle" x="702.75" y="-302.75" font-family="Helvetica,sans-Serif" font-size="10.00">Dino_CreateDrawCall_Text</text>
</a>
</g>
</g>
<!-- Node5&#45;&gt;Node8 -->
<g id="edge7_Node000005_Node000008" class="edge">
<title>Node5&#45;&gt;Node8</title>
<g id="a_edge7_Node000005_Node000008"><a xlink:title=" ">
<path fill="none" stroke="#63b8ff" d="M565.29,-339.54C590.23,-333.53 622.14,-325.83 648.83,-319.39"/>
<polygon fill="#63b8ff" stroke="#63b8ff" points="649.54,-322.82 658.44,-317.07 647.9,-316.02 649.54,-322.82"/>
</a>
</g>
</g>
<!-- Node9 -->
<g id="Node000009" class="node">
<title>Node9</title>
<g id="a_Node000009"><a xlink:href="xdino__win64__rdr_8cpp.html#af6f41148f29d2c60fc4f9e51449436fa" target="_top" xlink:title="Transfère les triangles à dessiner à la carte graphique.">
<polygon fill="white" stroke="#666666" points="737.75,-525.25 667.75,-525.25 667.75,-506 737.75,-506 737.75,-525.25"/>
<text text-anchor="middle" x="702.75" y="-511.75" font-family="Helvetica,sans-Serif" font-size="10.00">XDino_Draw</text>
</a>
</g>
</g>
<!-- Node5&#45;&gt;Node9 -->
<g id="edge8_Node000005_Node000009" class="edge">
<title>Node5&#45;&gt;Node9</title>
<g id="a_edge8_Node000005_Node000009"><a xlink:title=" ">
<path fill="none" stroke="#63b8ff" d="M527.94,-359.75C540.29,-386.68 577.8,-460.59 632.5,-497.62 639.65,-502.47 648.03,-506.01 656.43,-508.59"/>
<polygon fill="#63b8ff" stroke="#63b8ff" points="655.38,-511.94 665.94,-511.09 657.16,-505.17 655.38,-511.94"/>
</a>
</g>
</g>
<!-- Node10 -->
<g id="Node000010" class="node">
<title>Node10</title>
<g id="a_Node000010"><a xlink:href="xdino__win64__main_8cpp.html#a68646c879bb2deb348cfa0ae2fc53b92" target="_top" xlink:title="Récupère l&#39;état de la manette concernée.">
<polygon fill="white" stroke="#666666" points="755.38,-488.25 650.12,-488.25 650.12,-469 755.38,-469 755.38,-488.25"/>
<text text-anchor="middle" x="702.75" y="-474.75" font-family="Helvetica,sans-Serif" font-size="10.00">XDino_GetGamepad</text>
</a>
</g>
</g>
<!-- Node5&#45;&gt;Node10 -->
<g id="edge9_Node000005_Node000010" class="edge">
<title>Node5&#45;&gt;Node10</title>
<g id="a_edge9_Node000005_Node000010"><a xlink:title=" ">
<path fill="none" stroke="#63b8ff" d="M530.39,-359.68C545.92,-381.57 585.97,-433.71 632.5,-460.62 634.81,-461.96 637.23,-463.2 639.71,-464.35"/>
<polygon fill="#63b8ff" stroke="#63b8ff" points="638.21,-467.52 648.8,-468.02 640.83,-461.03 638.21,-467.52"/>
</a>
</g>
</g>
<!-- Node11 -->
<g id="Node000011" class="node">
<title>Node11</title>
<g id="a_Node000011"><a xlink:href="xdino__win64__rdr_8cpp.html#a8fb3a63e6442dd880092baee74243dd3" target="_top" xlink:title="Taille de la fenêtre sur l&#39;écran. Attention, différent de la résolution du rendu !">
<polygon fill="white" stroke="#666666" points="761,-242.25 644.5,-242.25 644.5,-223 761,-223 761,-242.25"/>
<text text-anchor="middle" x="702.75" y="-228.75" font-family="Helvetica,sans-Serif" font-size="10.00">XDino_GetWindowSize</text>
</a>
</g>
</g>
<!-- Node5&#45;&gt;Node11 -->
<g id="edge10_Node000005_Node000011" class="edge">
<title>Node5&#45;&gt;Node11</title>
<g id="a_edge10_Node000005_Node000011"><a xlink:title=" ">
<path fill="none" stroke="#63b8ff" d="M531.39,-339.79C547.95,-319.83 588.43,-274.46 632.5,-250.62 635.03,-249.25 637.68,-247.98 640.39,-246.81"/>
<polygon fill="#63b8ff" stroke="#63b8ff" points="641.59,-250.1 649.69,-243.26 639.09,-243.56 641.59,-250.1"/>
</a>
</g>
</g>
<!-- Node12 -->
<g id="Node000012" class="node">
<title>Node12</title>
<g id="a_Node000012"><a xlink:href="xdino__win64__rdr_8cpp.html#abded2f43911a4a13d4742539b59797e0" target="_top" xlink:title="Pour indiquer la couleur d&#39;arrière&#45;plan.">
<polygon fill="white" stroke="#666666" points="756.5,-451.25 649,-451.25 649,-432 756.5,-432 756.5,-451.25"/>
<text text-anchor="middle" x="702.75" y="-437.75" font-family="Helvetica,sans-Serif" font-size="10.00">XDino_SetClearColor</text>
</a>
</g>
</g>
<!-- Node5&#45;&gt;Node12 -->
<g id="edge11_Node000005_Node000012" class="edge">
<title>Node5&#45;&gt;Node12</title>
<g id="a_edge11_Node000005_Node000012"><a xlink:title=" ">
<path fill="none" stroke="#63b8ff" d="M535.47,-359.56C554.75,-375.11 594.39,-405.2 632.5,-422.62 636.77,-424.58 641.29,-426.37 645.88,-428"/>
<polygon fill="#63b8ff" stroke="#63b8ff" points="644.64,-431.28 655.23,-431.06 646.81,-424.62 644.64,-431.28"/>
</a>
</g>
</g>
<!-- Node13 -->
<g id="Node000013" class="node">
<title>Node13</title>
<g id="a_Node000013"><a xlink:href="xdino__win64__rdr_8cpp.html#a57ea716600a49f61ffff0bd33bd78a7d" target="_top" xlink:title="Modifie la taille de rendu. Les coordonnées passées dans les vertex sont en rapport à cette taille.">
<polygon fill="white" stroke="#666666" points="758.75,-279.25 646.75,-279.25 646.75,-260 758.75,-260 758.75,-279.25"/>
<text text-anchor="middle" x="702.75" y="-265.75" font-family="Helvetica,sans-Serif" font-size="10.00">XDino_SetRenderSize</text>
</a>
</g>
</g>
<!-- Node5&#45;&gt;Node13 -->
<g id="edge12_Node000005_Node000013" class="edge">
<title>Node5&#45;&gt;Node13</title>
<g id="a_edge12_Node000005_Node000013"><a xlink:title=" ">
<path fill="none" stroke="#63b8ff" d="M538.03,-339.7C558.36,-326.21 596.8,-302.12 632.5,-287.62 636.59,-285.96 640.88,-284.42 645.24,-282.98"/>
<polygon fill="#63b8ff" stroke="#63b8ff" points="646.13,-286.37 654.67,-280.1 644.09,-279.68 646.13,-286.37"/>
</a>
</g>
</g>
<!-- Node14&#45;&gt;Node11 -->
<g id="edge14_Node000014_Node000011" class="edge">
<title>Node14&#45;&gt;Node11</title>
<g id="a_edge14_Node000014_Node000011"><a xlink:title=" ">
<path fill="none" stroke="#63b8ff" d="M563.06,-234.96C583.51,-234.62 609.06,-234.18 632.64,-233.79"/>
<polygon fill="#63b8ff" stroke="#63b8ff" points="632.58,-237.29 642.52,-233.62 632.46,-230.29 632.58,-237.29"/>
</a>
</g>
</g>
<!-- Node14&#45;&gt;Node13 -->
<g id="edge15_Node000014_Node000013" class="edge">
<title>Node14&#45;&gt;Node13</title>
<g id="a_edge15_Node000014_Node000013"><a xlink:title=" ">
<path fill="none" stroke="#63b8ff" d="M563.06,-243.17C584.94,-247.34 612.66,-252.63 637.56,-257.38"/>
<polygon fill="#63b8ff" stroke="#63b8ff" points="636.81,-260.8 647.29,-259.24 638.12,-253.92 636.81,-260.8"/>
</a>
</g>
</g>
<!-- Node19&#45;&gt;Node15 -->
<g id="edge21_Node000019_Node000015" class="edge">
<title>Node19&#45;&gt;Node15</title>
<g id="a_edge21_Node000019_Node000015"><a xlink:title=" ">
<path fill="none" stroke="#63b8ff" d="M573.63,-169.75C594.76,-174.02 619.54,-179.02 641.64,-183.48"/>
<polygon fill="#63b8ff" stroke="#63b8ff" points="640.94,-186.91 651.44,-185.46 642.33,-180.05 640.94,-186.91"/>
</a>
</g>
</g>
<!-- Node19&#45;&gt;Node16 -->
<g id="edge22_Node000019_Node000016" class="edge">
<title>Node19&#45;&gt;Node16</title>
<g id="a_edge22_Node000019_Node000016"><a xlink:title=" ">
<path fill="none" stroke="#63b8ff" d="M570.8,-149.54C593.86,-144.63 621.75,-138.68 645.86,-133.54"/>
<polygon fill="#63b8ff" stroke="#63b8ff" points="646.46,-136.99 655.51,-131.48 645,-130.14 646.46,-136.99"/>
</a>
</g>
</g>
<!-- Node20 -->
<g id="Node000020" class="node">
<title>Node20</title>
<g id="a_Node000020"><a xlink:href="xdino__win64__rdr_8cpp.html#af0297fec7b8843bff04ad8b0e7477845" target="_top" xlink:title="Spécifique à la plateforme. Charge une texture.">
<polygon fill="white" stroke="#666666" points="773,-168.25 632.5,-168.25 632.5,-149 773,-149 773,-168.25"/>
<text text-anchor="middle" x="702.75" y="-154.75" font-family="Helvetica,sans-Serif" font-size="10.00">XDino_Win64_CreateTexture</text>
</a>
</g>
</g>
<!-- Node19&#45;&gt;Node20 -->
<g id="edge23_Node000019_Node000020" class="edge">
<title>Node19&#45;&gt;Node20</title>
<g id="a_edge23_Node000019_Node000020"><a xlink:title=" ">
<path fill="none" stroke="#63b8ff" d="M582.36,-159.29C594.67,-159.23 607.86,-159.15 620.82,-159.08"/>
<polygon fill="#63b8ff" stroke="#63b8ff" points="620.62,-162.58 630.6,-159.02 620.58,-155.58 620.62,-162.58"/>
</a>
</g>
</g>
</g>
</svg>
