<?xml version="1.0" encoding="UTF-8" standalone="no"?>
<!DOCTYPE svg PUBLIC "-//W3C//DTD SVG 1.1//EN"
 "http://www.w3.org/Graphics/SVG/1.1/DTD/svg11.dtd">
<!-- Generated by graphviz version 9.0.0 (20230911.1827)
 -->
<!-- Title: XDino_Win64_HandleEvent Pages: 1 -->
<!--zoomable 421 -->

<svg id="main" version="1.1" xmlns="http://www.w3.org/2000/svg" xmlns:xlink="http://www.w3.org/1999/xlink" xml:space="preserve" onload="init(evt)">
<style type="text/css"><![CDATA[
.node, .edge {opacity: 0.7;}
.node.selected, .edge.selected {opacity: 1;}
.edge:hover path { stroke: red; }
.edge:hover polygon { stroke: red; fill: red; }
]]></style>

<defs>
  <circle id="rim" cx="0" cy="0" r="7"/>
  <circle id="rim2" cx="0" cy="0" r="3.5"/>
  <g id="zoomPlus">
    <use xlink:href="#rim" fill="#404040"><set attributeName="fill" to="#808080" begin="zoomplus.mouseover" end="zoomplus.mouseout"/></use>
    <path d="M-4,0h8M0,-4v8" fill="none" stroke="white" stroke-width="1.5" pointer-events="none"/>
  </g>
  <g id="zoomMin">
    <use xlink:href="#rim" fill="#404040"><set attributeName="fill" to="#808080" begin="zoomminus.mouseover" end="zoomminus.mouseout"/></use>
    <path d="M-4,0h8" fill="none" stroke="white" stroke-width="1.5" pointer-events="none"/>
  </g>
  <g id="arrowUp" transform="translate(30 24)">
    <use xlink:href="#rim"/>
    <path pointer-events="none" fill="none" stroke="white" stroke-width="1.5" d="M0,-3.0v7 M-2.5,-0.5L0,-3.0L2.5,-0.5"/>
  </g>
  <g id="arrowRight" transform="rotate(90) translate(36 -43)">
    <use xlink:href="#rim"/>
    <path pointer-events="none" fill="none" stroke="white" stroke-width="1.5" d="M0,-3.0v7 M-2.5,-0.5L0,-3.0L2.5,-0.5"/>
  </g>
  <g id="arrowDown" transform="rotate(180) translate(-30 -48)">
    <use xlink:href="#rim"/>
    <path pointer-events="none" fill="none" stroke="white" stroke-width="1.5" d="M0,-3.0v7 M-2.5,-0.5L0,-3.0L2.5,-0.5"/>
  </g>
  <g id="arrowLeft" transform="rotate(270) translate(-36 17)">
    <use xlink:href="#rim"/>
    <path pointer-events="none" fill="none" stroke="white" stroke-width="1.5" d="M0,-3.0v7 M-2.5,-0.5L0,-3.0L2.5,-0.5"/>
  </g>
  <g id="resetDef">
    <use xlink:href="#rim2" fill="#404040"><set attributeName="fill" to="#808080" begin="reset.mouseover" end="reset.mouseout"/></use>
  </g>
</defs>
<script type="application/ecmascript">
var viewWidth = 504;
var viewHeight = 421;
var sectionId = 'dynsection-5';
</script>
<script type="application/ecmascript" xlink:href="svg.min.js"/>
<svg id="graph" class="graph">
<g id="viewport">
<title>XDino_Win64_HandleEvent</title>
<!-- Node1 -->
<g id="Node000001" class="node">
<title>Node1</title>
<g id="a_Node000001"><a xlink:title="Gère les événements qu&#39;envoie le système d&#39;exploitation.">
<polygon fill="#999999" stroke="#666666" points="135.25,-111.25 0,-111.25 0,-92 135.25,-92 135.25,-111.25"/>
<text text-anchor="middle" x="67.62" y="-97.75" font-family="Helvetica,sans-Serif" font-size="10.00">XDino_Win64_HandleEvent</text>
</a>
</g>
</g>
<!-- Node2 -->
<g id="Node000002" class="node">
<title>Node2</title>
<g id="a_Node000002"><a xlink:href="dino__game_8cpp.html#ac7b7408f18b3729af2f6e7f405f238e7" target="_top" xlink:title="Appelé pour générer chaque frame. Doit lireles entrées de jeu avec XDino_GetGamepad(),...">
<polygon fill="white" stroke="#666666" points="292.62,-247.25 197.88,-247.25 197.88,-228 292.62,-228 292.62,-247.25"/>
<text text-anchor="middle" x="245.25" y="-233.75" font-family="Helvetica,sans-Serif" font-size="10.00">Dino_GameFrame</text>
</a>
</g>
</g>
<!-- Node1&#45;&gt;Node2 -->
<g id="edge1_Node000001_Node000002" class="edge">
<title>Node1&#45;&gt;Node2</title>
<g id="a_edge1_Node000001_Node000002"><a xlink:title=" ">
<path fill="none" stroke="#63b8ff" d="M81.54,-111.63C111.35,-134.71 185.26,-191.94 222.32,-220.64"/>
<polygon fill="#63b8ff" stroke="#63b8ff" points="220.07,-223.33 230.12,-226.68 224.36,-217.79 220.07,-223.33"/>
</a>
</g>
</g>
<!-- Node11 -->
<g id="Node000011" class="node">
<title>Node11</title>
<g id="a_Node000011"><a xlink:href="dino__game_8cpp.html#a34e4cc788612f46dea16beb4b24dd0ab" target="_top" xlink:title="Appelé au tout début, pour initialiser la logique de jeu.">
<polygon fill="white" stroke="#666666" points="285.5,-167.25 205,-167.25 205,-148 285.5,-148 285.5,-167.25"/>
<text text-anchor="middle" x="245.25" y="-153.75" font-family="Helvetica,sans-Serif" font-size="10.00">Dino_GameInit</text>
</a>
</g>
</g>
<!-- Node1&#45;&gt;Node11 -->
<g id="edge10_Node000001_Node000011" class="edge">
<title>Node1&#45;&gt;Node11</title>
<g id="a_edge10_Node000001_Node000011"><a xlink:title=" ">
<path fill="none" stroke="#63b8ff" d="M93.24,-111.63C113.86,-119.8 144.19,-131.31 171.25,-139.62 178.46,-141.84 186.13,-143.97 193.69,-145.95"/>
<polygon fill="#63b8ff" stroke="#63b8ff" points="192.6,-149.28 203.16,-148.35 194.32,-142.5 192.6,-149.28"/>
</a>
</g>
</g>
<!-- Node12 -->
<g id="Node000012" class="node">
<title>Node12</title>
<g id="a_Node000012"><a xlink:href="xdino__win64__rdr_8cpp.html#a19e4f0d170af5a9a4eb73f6274dc1217" target="_top" xlink:title="Spécifique à la plateforme. Commence la passe de rendu.">
<polygon fill="white" stroke="#666666" points="308.75,-130.25 181.75,-130.25 181.75,-111 308.75,-111 308.75,-130.25"/>
<text text-anchor="middle" x="245.25" y="-116.75" font-family="Helvetica,sans-Serif" font-size="10.00">XDino_Win64_BeginDraw</text>
</a>
</g>
</g>
<!-- Node1&#45;&gt;Node12 -->
<g id="edge13_Node000001_Node000012" class="edge">
<title>Node1&#45;&gt;Node12</title>
<g id="a_edge13_Node000001_Node000012"><a xlink:title=" ">
<path fill="none" stroke="#63b8ff" d="M135.52,-108.86C146.79,-110.08 158.55,-111.35 169.99,-112.59"/>
<polygon fill="#63b8ff" stroke="#63b8ff" points="169.47,-116.06 179.79,-113.65 170.23,-109.1 169.47,-116.06"/>
</a>
</g>
</g>
<!-- Node13 -->
<g id="Node000013" class="node">
<title>Node13</title>
<g id="a_Node000013"><a xlink:href="xdino__win64__main_8cpp.html#a5f03a33705fae3997a21af54ca15a039" target="_top" xlink:title=" ">
<polygon fill="white" stroke="#666666" points="318.88,-93.25 171.62,-93.25 171.62,-74 318.88,-74 318.88,-93.25"/>
<text text-anchor="middle" x="245.25" y="-79.75" font-family="Helvetica,sans-Serif" font-size="10.00">XDino_Win64_CreateRenderer</text>
</a>
</g>
</g>
<!-- Node1&#45;&gt;Node13 -->
<g id="edge14_Node000001_Node000013" class="edge">
<title>Node1&#45;&gt;Node13</title>
<g id="a_edge14_Node000001_Node000013"><a xlink:title=" ">
<path fill="none" stroke="#63b8ff" d="M135.52,-94.77C143.59,-93.94 151.9,-93.09 160.17,-92.24"/>
<polygon fill="#63b8ff" stroke="#63b8ff" points="160.29,-95.75 169.89,-91.25 159.58,-88.78 160.29,-95.75"/>
</a>
</g>
</g>
<!-- Node14 -->
<g id="Node000014" class="node">
<title>Node14</title>
<g id="a_Node000014"><a xlink:href="xdino__win64__rdr_8cpp.html#ad13ae3c31e66f2cdf34b75465d4bac17" target="_top" xlink:title="Spécifique à la plateforme. Finit la passe de rendu et envoit le travail à la carte graphique.">
<polygon fill="white" stroke="#666666" points="304.62,-56.25 185.88,-56.25 185.88,-37 304.62,-37 304.62,-56.25"/>
<text text-anchor="middle" x="245.25" y="-42.75" font-family="Helvetica,sans-Serif" font-size="10.00">XDino_Win64_EndDraw</text>
</a>
</g>
</g>
<!-- Node1&#45;&gt;Node14 -->
<g id="edge15_Node000001_Node000014" class="edge">
<title>Node1&#45;&gt;Node14</title>
<g id="a_edge15_Node000001_Node000014"><a xlink:title=" ">
<path fill="none" stroke="#63b8ff" d="M94.1,-91.6C114.72,-83.69 144.6,-72.69 171.25,-64.62 177.03,-62.88 183.1,-61.17 189.17,-59.55"/>
<polygon fill="#63b8ff" stroke="#63b8ff" points="189.77,-63.01 198.58,-57.12 188.02,-56.24 189.77,-63.01"/>
</a>
</g>
</g>
<!-- Node16 -->
<g id="Node000016" class="node">
<title>Node16</title>
<g id="a_Node000016"><a xlink:href="xdino__win64__rdr_8cpp.html#a9ff5efef1703f2710d3e28a03a61ae85" target="_top" xlink:title="Spécifique à la plateforme. Redimensionnne le rendu.">
<polygon fill="white" stroke="#666666" points="319.25,-19.25 171.25,-19.25 171.25,0 319.25,0 319.25,-19.25"/>
<text text-anchor="middle" x="245.25" y="-5.75" font-family="Helvetica,sans-Serif" font-size="10.00">XDino_Win64_ResizeRenderer</text>
</a>
</g>
</g>
<!-- Node1&#45;&gt;Node16 -->
<g id="edge17_Node000001_Node000016" class="edge">
<title>Node1&#45;&gt;Node16</title>
<g id="a_edge17_Node000001_Node000016"><a xlink:title=" ">
<path fill="none" stroke="#63b8ff" d="M79.42,-91.64C97.2,-75.73 134.37,-44.68 171.25,-27.62 174.73,-26.01 178.38,-24.54 182.1,-23.18"/>
<polygon fill="#63b8ff" stroke="#63b8ff" points="182.89,-26.61 191.3,-20.16 180.71,-19.96 182.89,-26.61"/>
</a>
</g>
</g>
<!-- Node3 -->
<g id="Node000003" class="node">
<title>Node3</title>
<g id="a_Node000003"><a xlink:href="dino__draw__utils_8cpp.html#a70b3d7868b24344ba6b57f9eda900d45" target="_top" xlink:title="Produit un dessin de cercle avec la couleur spécifiée. La position (0,0) correspond au centre du cerc...">
<polygon fill="white" stroke="#666666" points="479.62,-301.88 371.38,-301.88 371.38,-271.38 479.62,-271.38 479.62,-301.88"/>
<text text-anchor="start" x="379.38" y="-288.38" font-family="Helvetica,sans-Serif" font-size="10.00">Dino_CreateDrawCall</text>
<text text-anchor="middle" x="425.5" y="-277.12" font-family="Helvetica,sans-Serif" font-size="10.00">_Circle</text>
</a>
</g>
</g>
<!-- Node2&#45;&gt;Node3 -->
<g id="edge2_Node000002_Node000003" class="edge">
<title>Node2&#45;&gt;Node3</title>
<g id="a_edge2_Node000002_Node000003"><a xlink:title=" ">
<path fill="none" stroke="#63b8ff" d="M282.75,-247.66C305.03,-253.78 334.15,-261.79 360.19,-268.95"/>
<polygon fill="#63b8ff" stroke="#63b8ff" points="359.11,-272.28 369.68,-271.55 360.96,-265.53 359.11,-272.28"/>
</a>
</g>
</g>
<!-- Node4 -->
<g id="Node000004" class="node">
<title>Node4</title>
<g id="a_Node000004"><a xlink:href="dino__draw__utils_8cpp.html#ae65d5defac67d1322c09dcc087933ddf" target="_top" xlink:title="Produit un dessin contenant une liste de segments, tous reliés.">
<polygon fill="white" stroke="#666666" points="479.62,-252.88 371.38,-252.88 371.38,-222.38 479.62,-222.38 479.62,-252.88"/>
<text text-anchor="start" x="379.38" y="-239.38" font-family="Helvetica,sans-Serif" font-size="10.00">Dino_CreateDrawCall</text>
<text text-anchor="middle" x="425.5" y="-228.12" font-family="Helvetica,sans-Serif" font-size="10.00">_Polyline</text>
</a>
</g>
</g>
<!-- Node2&#45;&gt;Node4 -->
<g id="edge3_Node000002_Node000004" class="edge">
<title>Node2&#45;&gt;Node4</title>
<g id="a_edge3_Node000002_Node000004"><a xlink:title=" ">
<path fill="none" stroke="#63b8ff" d="M293.08,-237.62C313.46,-237.62 337.68,-237.62 359.74,-237.62"/>
<polygon fill="#63b8ff" stroke="#63b8ff" points="359.54,-241.13 369.54,-237.63 359.54,-234.13 359.54,-241.13"/>
</a>
</g>
</g>
<!-- Node5 -->
<g id="Node000005" class="node">
<title>Node5</title>
<g id="a_Node000005"><a xlink:href="dino__draw__utils_8cpp.html#a17814530f19db0ce5f6ffe17f9d5b431" target="_top" xlink:title="Produit un dessin contenant du texte, avec éventuellement une couleur de fond. La position (0,...">
<polygon fill="white" stroke="#666666" points="491.62,-204.25 359.38,-204.25 359.38,-185 491.62,-185 491.62,-204.25"/>
<text text-anchor="middle" x="425.5" y="-190.75" font-family="Helvetica,sans-Serif" font-size="10.00">Dino_CreateDrawCall_Text</text>
</a>
</g>
</g>
<!-- Node2&#45;&gt;Node5 -->
<g id="edge4_Node000002_Node000005" class="edge">
<title>Node2&#45;&gt;Node5</title>
<g id="a_edge4_Node000002_Node000005"><a xlink:title=" ">
<path fill="none" stroke="#63b8ff" d="M288.04,-227.54C312.98,-221.53 344.89,-213.83 371.58,-207.39"/>
<polygon fill="#63b8ff" stroke="#63b8ff" points="372.29,-210.82 381.19,-205.07 370.65,-204.02 372.29,-210.82"/>
</a>
</g>
</g>
<!-- Node6 -->
<g id="Node000006" class="node">
<title>Node6</title>
<g id="a_Node000006"><a xlink:href="xdino__win64__rdr_8cpp.html#af6f41148f29d2c60fc4f9e51449436fa" target="_top" xlink:title="Transfère les triangles à dessiner à la carte graphique.">
<polygon fill="white" stroke="#666666" points="460.5,-413.25 390.5,-413.25 390.5,-394 460.5,-394 460.5,-413.25"/>
<text text-anchor="middle" x="425.5" y="-399.75" font-family="Helvetica,sans-Serif" font-size="10.00">XDino_Draw</text>
</a>
</g>
</g>
<!-- Node2&#45;&gt;Node6 -->
<g id="edge5_Node000002_Node000006" class="edge">
<title>Node2&#45;&gt;Node6</title>
<g id="a_edge5_Node000002_Node000006"><a xlink:title=" ">
<path fill="none" stroke="#63b8ff" d="M250.69,-247.75C263.04,-274.68 300.55,-348.59 355.25,-385.62 362.4,-390.47 370.78,-394.01 379.18,-396.59"/>
<polygon fill="#63b8ff" stroke="#63b8ff" points="378.13,-399.94 388.69,-399.09 379.91,-393.17 378.13,-399.94"/>
</a>
</g>
</g>
<!-- Node7 -->
<g id="Node000007" class="node">
<title>Node7</title>
<g id="a_Node000007"><a xlink:href="xdino__win64__main_8cpp.html#a68646c879bb2deb348cfa0ae2fc53b92" target="_top" xlink:title="Récupère l&#39;état de la manette concernée.">
<polygon fill="white" stroke="#666666" points="478.12,-376.25 372.88,-376.25 372.88,-357 478.12,-357 478.12,-376.25"/>
<text text-anchor="middle" x="425.5" y="-362.75" font-family="Helvetica,sans-Serif" font-size="10.00">XDino_GetGamepad</text>
</a>
</g>
</g>
<!-- Node2&#45;&gt;Node7 -->
<g id="edge6_Node000002_Node000007" class="edge">
<title>Node2&#45;&gt;Node7</title>
<g id="a_edge6_Node000002_Node000007"><a xlink:title=" ">
<path fill="none" stroke="#63b8ff" d="M253.14,-247.68C268.67,-269.57 308.72,-321.71 355.25,-348.62 357.56,-349.96 359.98,-351.2 362.46,-352.35"/>
<polygon fill="#63b8ff" stroke="#63b8ff" points="360.96,-355.52 371.55,-356.02 363.58,-349.03 360.96,-355.52"/>
</a>
</g>
</g>
<!-- Node8 -->
<g id="Node000008" class="node">
<title>Node8</title>
<g id="a_Node000008"><a xlink:href="xdino__win64__rdr_8cpp.html#a8fb3a63e6442dd880092baee74243dd3" target="_top" xlink:title="Taille de la fenêtre sur l&#39;écran. Attention, différent de la résolution du rendu !">
<polygon fill="white" stroke="#666666" points="483.75,-130.25 367.25,-130.25 367.25,-111 483.75,-111 483.75,-130.25"/>
<text text-anchor="middle" x="425.5" y="-116.75" font-family="Helvetica,sans-Serif" font-size="10.00">XDino_GetWindowSize</text>
</a>
</g>
</g>
<!-- Node2&#45;&gt;Node8 -->
<g id="edge7_Node000002_Node000008" class="edge">
<title>Node2&#45;&gt;Node8</title>
<g id="a_edge7_Node000002_Node000008"><a xlink:title=" ">
<path fill="none" stroke="#63b8ff" d="M259.03,-227.69C273.91,-215.96 299.03,-195.62 319.25,-176.62 336.2,-160.69 335.22,-150.45 355.25,-138.62 357.42,-137.34 359.69,-136.15 362.01,-135.04"/>
<polygon fill="#63b8ff" stroke="#63b8ff" points="363.23,-138.33 371.13,-131.28 360.55,-131.86 363.23,-138.33"/>
</a>
</g>
</g>
<!-- Node9 -->
<g id="Node000009" class="node">
<title>Node9</title>
<g id="a_Node000009"><a xlink:href="xdino__win64__rdr_8cpp.html#abded2f43911a4a13d4742539b59797e0" target="_top" xlink:title="Pour indiquer la couleur d&#39;arrière&#45;plan.">
<polygon fill="white" stroke="#666666" points="479.25,-339.25 371.75,-339.25 371.75,-320 479.25,-320 479.25,-339.25"/>
<text text-anchor="middle" x="425.5" y="-325.75" font-family="Helvetica,sans-Serif" font-size="10.00">XDino_SetClearColor</text>
</a>
</g>
</g>
<!-- Node2&#45;&gt;Node9 -->
<g id="edge8_Node000002_Node000009" class="edge">
<title>Node2&#45;&gt;Node9</title>
<g id="a_edge8_Node000002_Node000009"><a xlink:title=" ">
<path fill="none" stroke="#63b8ff" d="M258.22,-247.56C277.5,-263.11 317.14,-293.2 355.25,-310.62 359.52,-312.58 364.04,-314.37 368.63,-316"/>
<polygon fill="#63b8ff" stroke="#63b8ff" points="367.39,-319.28 377.98,-319.06 369.56,-312.62 367.39,-319.28"/>
</a>
</g>
</g>
<!-- Node10 -->
<g id="Node000010" class="node">
<title>Node10</title>
<g id="a_Node000010"><a xlink:href="xdino__win64__rdr_8cpp.html#a57ea716600a49f61ffff0bd33bd78a7d" target="_top" xlink:title="Modifie la taille de rendu. Les coordonnées passées dans les vertex sont en rapport à cette taille.">
<polygon fill="white" stroke="#666666" points="481.5,-167.25 369.5,-167.25 369.5,-148 481.5,-148 481.5,-167.25"/>
<text text-anchor="middle" x="425.5" y="-153.75" font-family="Helvetica,sans-Serif" font-size="10.00">XDino_SetRenderSize</text>
</a>
</g>
</g>
<!-- Node2&#45;&gt;Node10 -->
<g id="edge9_Node000002_Node000010" class="edge">
<title>Node2&#45;&gt;Node10</title>
<g id="a_edge9_Node000002_Node000010"><a xlink:title=" ">
<path fill="none" stroke="#63b8ff" d="M260.78,-227.7C281.11,-214.21 319.55,-190.12 355.25,-175.62 359.34,-173.96 363.63,-172.42 367.99,-170.98"/>
<polygon fill="#63b8ff" stroke="#63b8ff" points="368.88,-174.37 377.42,-168.1 366.84,-167.68 368.88,-174.37"/>
</a>
</g>
</g>
<!-- Node11&#45;&gt;Node8 -->
<g id="edge11_Node000011_Node000008" class="edge">
<title>Node11&#45;&gt;Node8</title>
<g id="a_edge11_Node000011_Node000008"><a xlink:title=" ">
<path fill="none" stroke="#63b8ff" d="M285.81,-149.41C308.95,-144.61 338.63,-138.45 364.59,-133.06"/>
<polygon fill="#63b8ff" stroke="#63b8ff" points="365.27,-136.49 374.35,-131.03 363.85,-129.64 365.27,-136.49"/>
</a>
</g>
</g>
<!-- Node11&#45;&gt;Node10 -->
<g id="edge12_Node000011_Node000010" class="edge">
<title>Node11&#45;&gt;Node10</title>
<g id="a_edge12_Node000011_Node000010"><a xlink:title=" ">
<path fill="none" stroke="#63b8ff" d="M285.81,-157.62C306.97,-157.62 333.6,-157.62 357.85,-157.62"/>
<polygon fill="#63b8ff" stroke="#63b8ff" points="357.65,-161.13 367.65,-157.63 357.65,-154.13 357.65,-161.13"/>
</a>
</g>
</g>
<!-- Node15 -->
<g id="Node000015" class="node">
<title>Node15</title>
<g id="a_Node000015"><a xlink:href="xdino__win64__rdr_8cpp.html#af0297fec7b8843bff04ad8b0e7477845" target="_top" xlink:title="Spécifique à la plateforme. Charge une texture.">
<polygon fill="white" stroke="#666666" points="495.75,-56.25 355.25,-56.25 355.25,-37 495.75,-37 495.75,-56.25"/>
<text text-anchor="middle" x="425.5" y="-42.75" font-family="Helvetica,sans-Serif" font-size="10.00">XDino_Win64_CreateTexture</text>
</a>
</g>
</g>
<!-- Node14&#45;&gt;Node15 -->
<g id="edge16_Node000014_Node000015" class="edge">
<title>Node14&#45;&gt;Node15</title>
<g id="a_edge16_Node000014_Node000015"><a xlink:title=" ">
<path fill="none" stroke="#63b8ff" d="M305.11,-46.62C317.42,-46.62 330.61,-46.62 343.57,-46.62"/>
<polygon fill="#63b8ff" stroke="#63b8ff" points="343.35,-50.13 353.35,-46.63 343.35,-43.13 343.35,-50.13"/>
</a>
</g>
</g>
</g>
</svg>

<g id="navigator" transform="translate(0 0)" fill="#404254">
  <rect fill="#f2f5e9" fill-opacity="0.5" stroke="#606060" stroke-width=".5" x="0" y="0" width="60" height="60"/>
  <use id="zoomplus" xlink:href="#zoomPlus" x="17" y="9" onmousedown="handleZoom(evt,'in')"/>
  <use id="zoomminus" xlink:href="#zoomMin" x="42" y="9" onmousedown="handleZoom(evt,'out')"/>
  <use id="reset" xlink:href="#resetDef" x="30" y="36" onmousedown="handleReset()"/>
   <use id="arrowup" xlink:href="#arrowUp" x="0" y="0" onmousedown="handlePan(0,-1)"/>
  <use id="arrowright" xlink:href="#arrowRight" x="0" y="0" onmousedown="handlePan(1,0)"/>
  <use id="arrowdown" xlink:href="#arrowDown" x="0" y="0" onmousedown="handlePan(0,1)"/>
  <use id="arrowleft" xlink:href="#arrowLeft" x="0" y="0" onmousedown="handlePan(-1,0)"/>
</g>
<svg viewBox="0 0 15 15" width="100%" height="30px" preserveAspectRatio="xMaxYMin meet">
 <g id="arrow_out" transform="scale(0.3 0.3)">
  <a xlink:href="xdino__win64__main_8cpp_afa07de294d5b620ee39644b9661f0665_cgraph_org.svg" target="_base">
   <rect id="button" ry="5" rx="5" y="6" x="6" height="38" width="38"
        fill="#f2f5e9" fill-opacity="0.5" stroke="#606060" stroke-width="1.0"/>
   <path id="arrow"
     d="M 11.500037,31.436501 C 11.940474,20.09759 22.043105,11.32322 32.158766,21.979434 L 37.068811,17.246167 C 37.068811,17.246167 37.088388,32 37.088388,32 L 22.160133,31.978069 C 22.160133,31.978069 26.997745,27.140456 26.997745,27.140456 C 18.528582,18.264221 13.291696,25.230495 11.500037,31.436501 z"
     style="fill:#404040;"/>
  </a>
 </g>
</svg>

<style type='text/css'>
<![CDATA[
[data-mouse-over-selected='false'] { opacity: 0.7; }
[data-mouse-over-selected='true']  { opacity: 1.0; }
]]>
</style>
<script type="application/ecmascript"><![CDATA[
document.addEventListener('DOMContentLoaded', (event) => {
  highlightEdges();
  highlightAdjacentNodes();
});
]]></script>
</svg>
