<?xml version="1.0" encoding="UTF-8" standalone="no"?>
<!DOCTYPE svg PUBLIC "-//W3C//DTD SVG 1.1//EN"
 "http://www.w3.org/Graphics/SVG/1.1/DTD/svg11.dtd">
<!-- Generated by graphviz version 9.0.0 (20230911.1827)
 -->
<!-- Title: xdino.h Pages: 1 -->
<svg width="175pt" height="83pt"
 viewBox="0.00 0.00 175.25 82.50" xmlns="http://www.w3.org/2000/svg" xmlns:xlink="http://www.w3.org/1999/xlink">
<g id="graph0" class="graph" transform="scale(1 1) rotate(0) translate(4 78.5)">
<title>xdino.h</title>
<!-- Node1 -->
<g id="Node000001" class="node">
<title>Node1</title>
<g id="a_Node000001"><a xlink:title="API d&#39;interaction entre le moteur de jeu &quot;XDino&quot; et la logique de jeu.">
<polygon fill="#999999" stroke="#666666" points="108.75,-74.5 62.75,-74.5 62.75,-55.25 108.75,-55.25 108.75,-74.5"/>
<text text-anchor="middle" x="85.75" y="-61" font-family="Helvetica,sans-Serif" font-size="10.00">xdino.h</text>
</a>
</g>
</g>
<!-- Node2 -->
<g id="Node000002" class="node">
<title>Node2</title>
<g id="a_Node000002"><a xlink:title=" ">
<polygon fill="#e0e0e0" stroke="#999999" points="47.5,-19.25 0,-19.25 0,0 47.5,0 47.5,-19.25"/>
<text text-anchor="middle" x="23.75" y="-5.75" font-family="Helvetica,sans-Serif" font-size="10.00">stdint.h</text>
</a>
</g>
</g>
<!-- Node1&#45;&gt;Node2 -->
<g id="edge1_Node000001_Node000002" class="edge">
<title>Node1&#45;&gt;Node2</title>
<g id="a_edge1_Node000001_Node000002"><a xlink:title=" ">
<path fill="none" stroke="#63b8ff" d="M75.23,-54.84C66.36,-47.22 53.44,-36.12 42.76,-26.95"/>
<polygon fill="#63b8ff" stroke="#63b8ff" points="45.13,-24.37 35.26,-20.51 40.57,-29.68 45.13,-24.37"/>
</a>
</g>
</g>
<!-- Node3 -->
<g id="Node000003" class="node">
<title>Node3</title>
<g id="a_Node000003"><a xlink:title=" ">
<polygon fill="#e0e0e0" stroke="#999999" points="105.75,-19.25 65.75,-19.25 65.75,0 105.75,0 105.75,-19.25"/>
<text text-anchor="middle" x="85.75" y="-5.75" font-family="Helvetica,sans-Serif" font-size="10.00">string</text>
</a>
</g>
</g>
<!-- Node1&#45;&gt;Node3 -->
<g id="edge2_Node000001_Node000003" class="edge">
<title>Node1&#45;&gt;Node3</title>
<g id="a_edge2_Node000001_Node000003"><a xlink:title=" ">
<path fill="none" stroke="#63b8ff" d="M85.75,-55.08C85.75,-48.57 85.75,-39.42 85.75,-31.12"/>
<polygon fill="#63b8ff" stroke="#63b8ff" points="89.25,-31.12 85.75,-21.12 82.25,-31.12 89.25,-31.12"/>
</a>
</g>
</g>
<!-- Node4 -->
<g id="Node000004" class="node">
<title>Node4</title>
<g id="a_Node000004"><a xlink:title=" ">
<polygon fill="#e0e0e0" stroke="#999999" points="167.25,-19.25 124.25,-19.25 124.25,0 167.25,0 167.25,-19.25"/>
<text text-anchor="middle" x="145.75" y="-5.75" font-family="Helvetica,sans-Serif" font-size="10.00">vector</text>
</a>
</g>
</g>
<!-- Node1&#45;&gt;Node4 -->
<g id="edge3_Node000001_Node000004" class="edge">
<title>Node1&#45;&gt;Node4</title>
<g id="a_edge3_Node000001_Node000004"><a xlink:title=" ">
<path fill="none" stroke="#63b8ff" d="M95.93,-54.84C104.51,-47.22 117.02,-36.12 127.35,-26.95"/>
<polygon fill="#63b8ff" stroke="#63b8ff" points="129.43,-29.79 134.59,-20.53 124.79,-24.55 129.43,-29.79"/>
</a>
</g>
</g>
</g>
</svg>
