<?xml version="1.0" encoding="UTF-8" standalone="no"?>
<!DOCTYPE svg PUBLIC "-//W3C//DTD SVG 1.1//EN"
 "http://www.w3.org/Graphics/SVG/1.1/DTD/svg11.dtd">
<!-- Generated by graphviz version 9.0.0 (20230911.1827)
 -->
<!-- Title: xdino_win64_main.cpp Pages: 1 -->
<svg width="581pt" height="149pt"
 viewBox="0.00 0.00 581.25 149.00" xmlns="http://www.w3.org/2000/svg" xmlns:xlink="http://www.w3.org/1999/xlink">
<g id="graph0" class="graph" transform="scale(1 1) rotate(0) translate(4 145)">
<title>xdino_win64_main.cpp</title>
<!-- Node1 -->
<g id="Node000001" class="node">
<title>Node1</title>
<g id="a_Node000001"><a xlink:title="Implémentation de la fenêtre et des événements sur Windows.">
<polygon fill="#999999" stroke="#666666" points="385.62,-141 272.12,-141 272.12,-121.75 385.62,-121.75 385.62,-141"/>
<text text-anchor="middle" x="328.88" y="-127.5" font-family="Helvetica,sans-Serif" font-size="10.00">xdino_win64_main.cpp</text>
</a>
</g>
</g>
<!-- Node2 -->
<g id="Node000002" class="node">
<title>Node2</title>
<g id="a_Node000002"><a xlink:href="xdino__win64__rdr_8h.html" target="_top" xlink:title="Fonctions internes à XDino, pour le rendu graphique sur Windows. Ces fonctions communiquent avec la c...">
<polygon fill="white" stroke="#666666" points="174.25,-85.75 55.5,-85.75 55.5,-55.25 174.25,-55.25 174.25,-85.75"/>
<text text-anchor="start" x="63.5" y="-72.25" font-family="Helvetica,sans-Serif" font-size="10.00">dino/x64&#45;windows/xdino</text>
<text text-anchor="middle" x="114.88" y="-61" font-family="Helvetica,sans-Serif" font-size="10.00">_win64_rdr.h</text>
</a>
</g>
</g>
<!-- Node1&#45;&gt;Node2 -->
<g id="edge1_Node000001_Node000002" class="edge">
<title>Node1&#45;&gt;Node2</title>
<g id="a_edge1_Node000001_Node000002"><a xlink:title=" ">
<path fill="none" stroke="#63b8ff" d="M295.91,-121.3C264.96,-112.79 217.81,-99.82 179.39,-89.25"/>
<polygon fill="#63b8ff" stroke="#63b8ff" points="180.32,-85.87 169.75,-86.6 178.46,-92.62 180.32,-85.87"/>
</a>
</g>
</g>
<!-- Node5 -->
<g id="Node000005" class="node">
<title>Node5</title>
<g id="a_Node000005"><a xlink:title=" ">
<polygon fill="#e0e0e0" stroke="#999999" points="61.75,-19.25 0,-19.25 0,0 61.75,0 61.75,-19.25"/>
<text text-anchor="middle" x="30.88" y="-5.75" font-family="Helvetica,sans-Serif" font-size="10.00">windows.h</text>
</a>
</g>
</g>
<!-- Node1&#45;&gt;Node5 -->
<g id="edge12_Node000001_Node000005" class="edge">
<title>Node1&#45;&gt;Node5</title>
<g id="a_edge12_Node000001_Node000005"><a xlink:title=" ">
<path fill="none" stroke="#63b8ff" d="M271.81,-128.78C198.91,-125.52 78.39,-115.64 46.88,-85.75 32.23,-71.86 29.31,-48.12 29.37,-31.04"/>
<polygon fill="#63b8ff" stroke="#63b8ff" points="32.87,-31.2 29.79,-21.07 25.87,-30.91 32.87,-31.2"/>
</a>
</g>
</g>
<!-- Node6 -->
<g id="Node000006" class="node">
<title>Node6</title>
<g id="a_Node000006"><a xlink:href="xdino_8h.html" target="_top" xlink:title="API d&#39;interaction entre le moteur de jeu &quot;XDino&quot; et la logique de jeu.">
<polygon fill="white" stroke="#666666" points="259.38,-80.12 192.38,-80.12 192.38,-60.88 259.38,-60.88 259.38,-80.12"/>
<text text-anchor="middle" x="225.88" y="-66.62" font-family="Helvetica,sans-Serif" font-size="10.00">dino/xdino.h</text>
</a>
</g>
</g>
<!-- Node1&#45;&gt;Node6 -->
<g id="edge5_Node000001_Node000006" class="edge">
<title>Node1&#45;&gt;Node6</title>
<g id="a_edge5_Node000001_Node000006"><a xlink:title=" ">
<path fill="none" stroke="#63b8ff" d="M313.23,-121.43C296.9,-112.1 271.01,-97.3 251.65,-86.23"/>
<polygon fill="#63b8ff" stroke="#63b8ff" points="253.4,-83.2 242.98,-81.28 249.92,-89.28 253.4,-83.2"/>
</a>
</g>
</g>
<!-- Node9 -->
<g id="Node000009" class="node">
<title>Node9</title>
<g id="a_Node000009"><a xlink:title=" ">
<polygon fill="#e0e0e0" stroke="#999999" points="320.38,-80.12 277.38,-80.12 277.38,-60.88 320.38,-60.88 320.38,-80.12"/>
<text text-anchor="middle" x="298.88" y="-66.62" font-family="Helvetica,sans-Serif" font-size="10.00">cmath</text>
</a>
</g>
</g>
<!-- Node1&#45;&gt;Node9 -->
<g id="edge9_Node000001_Node000009" class="edge">
<title>Node1&#45;&gt;Node9</title>
<g id="a_edge9_Node000001_Node000009"><a xlink:title=" ">
<path fill="none" stroke="#63b8ff" d="M324.32,-121.43C320.18,-113.31 313.93,-101.04 308.66,-90.7"/>
<polygon fill="#63b8ff" stroke="#63b8ff" points="311.82,-89.2 304.16,-81.87 305.58,-92.37 311.82,-89.2"/>
</a>
</g>
</g>
<!-- Node10 -->
<g id="Node000010" class="node">
<title>Node10</title>
<g id="a_Node000010"><a xlink:title=" ">
<polygon fill="#e0e0e0" stroke="#999999" points="381,-80.12 338.75,-80.12 338.75,-60.88 381,-60.88 381,-80.12"/>
<text text-anchor="middle" x="359.88" y="-66.62" font-family="Helvetica,sans-Serif" font-size="10.00">cstdio</text>
</a>
</g>
</g>
<!-- Node1&#45;&gt;Node10 -->
<g id="edge10_Node000001_Node000010" class="edge">
<title>Node1&#45;&gt;Node10</title>
<g id="a_edge10_Node000001_Node000010"><a xlink:title=" ">
<path fill="none" stroke="#63b8ff" d="M333.58,-121.43C337.86,-113.31 344.32,-101.04 349.76,-90.7"/>
<polygon fill="#63b8ff" stroke="#63b8ff" points="352.86,-92.34 354.42,-81.87 346.66,-89.08 352.86,-92.34"/>
</a>
</g>
</g>
<!-- Node11 -->
<g id="Node000011" class="node">
<title>Node11</title>
<g id="a_Node000011"><a xlink:title=" ">
<polygon fill="#e0e0e0" stroke="#999999" points="447,-80.12 398.75,-80.12 398.75,-60.88 447,-60.88 447,-80.12"/>
<text text-anchor="middle" x="422.88" y="-66.62" font-family="Helvetica,sans-Serif" font-size="10.00">random</text>
</a>
</g>
</g>
<!-- Node1&#45;&gt;Node11 -->
<g id="edge11_Node000001_Node000011" class="edge">
<title>Node1&#45;&gt;Node11</title>
<g id="a_edge11_Node000001_Node000011"><a xlink:title=" ">
<path fill="none" stroke="#63b8ff" d="M343.15,-121.43C357.92,-112.18 381.25,-97.57 398.86,-86.54"/>
<polygon fill="#63b8ff" stroke="#63b8ff" points="400.56,-89.6 407.18,-81.33 396.85,-83.67 400.56,-89.6"/>
</a>
</g>
</g>
<!-- Node12 -->
<g id="Node000012" class="node">
<title>Node12</title>
<g id="a_Node000012"><a xlink:title=" ">
<polygon fill="#e0e0e0" stroke="#999999" points="514.38,-80.12 465.38,-80.12 465.38,-60.88 514.38,-60.88 514.38,-80.12"/>
<text text-anchor="middle" x="489.88" y="-66.62" font-family="Helvetica,sans-Serif" font-size="10.00">xinput.h</text>
</a>
</g>
</g>
<!-- Node1&#45;&gt;Node12 -->
<g id="edge13_Node000001_Node000012" class="edge">
<title>Node1&#45;&gt;Node12</title>
<g id="a_edge13_Node000001_Node000012"><a xlink:title=" ">
<path fill="none" stroke="#63b8ff" d="M356.3,-121.26C382.13,-112.55 421.85,-98.84 455.88,-85.75 456.66,-85.45 457.45,-85.14 458.25,-84.83"/>
<polygon fill="#63b8ff" stroke="#63b8ff" points="459.37,-88.15 467.33,-81.16 456.75,-81.66 459.37,-88.15"/>
</a>
</g>
</g>
<!-- Node13 -->
<g id="Node000013" class="node">
<title>Node13</title>
<g id="a_Node000013"><a xlink:title=" ">
<polygon fill="#e0e0e0" stroke="#999999" points="573.25,-80.12 532.5,-80.12 532.5,-60.88 573.25,-60.88 573.25,-80.12"/>
<text text-anchor="middle" x="552.88" y="-66.62" font-family="Helvetica,sans-Serif" font-size="10.00">pix3.h</text>
</a>
</g>
</g>
<!-- Node1&#45;&gt;Node13 -->
<g id="edge14_Node000001_Node000013" class="edge">
<title>Node1&#45;&gt;Node13</title>
<g id="a_edge14_Node000001_Node000013"><a xlink:title=" ">
<path fill="none" stroke="#63b8ff" d="M384.06,-121.28C423.64,-113.91 477.89,-102.06 523.88,-85.75 524.5,-85.53 525.13,-85.29 525.77,-85.05"/>
<polygon fill="#63b8ff" stroke="#63b8ff" points="526.82,-88.41 534.6,-81.22 524.03,-81.99 526.82,-88.41"/>
</a>
</g>
</g>
<!-- Node3 -->
<g id="Node000003" class="node">
<title>Node3</title>
<g id="a_Node000003"><a xlink:title=" ">
<polygon fill="#e0e0e0" stroke="#999999" points="127.5,-19.25 82.25,-19.25 82.25,0 127.5,0 127.5,-19.25"/>
<text text-anchor="middle" x="104.88" y="-5.75" font-family="Helvetica,sans-Serif" font-size="10.00">cstdint</text>
</a>
</g>
</g>
<!-- Node2&#45;&gt;Node3 -->
<g id="edge2_Node000002_Node000003" class="edge">
<title>Node2&#45;&gt;Node3</title>
<g id="a_edge2_Node000002_Node000003"><a xlink:title=" ">
<path fill="none" stroke="#63b8ff" d="M112.4,-54.95C111.17,-47.71 109.67,-38.84 108.33,-30.94"/>
<polygon fill="#63b8ff" stroke="#63b8ff" points="111.8,-30.47 106.67,-21.19 104.89,-31.64 111.8,-30.47"/>
</a>
</g>
</g>
<!-- Node4 -->
<g id="Node000004" class="node">
<title>Node4</title>
<g id="a_Node000004"><a xlink:title=" ">
<polygon fill="#e0e0e0" stroke="#999999" points="185.88,-19.25 145.88,-19.25 145.88,0 185.88,0 185.88,-19.25"/>
<text text-anchor="middle" x="165.88" y="-5.75" font-family="Helvetica,sans-Serif" font-size="10.00">string</text>
</a>
</g>
</g>
<!-- Node2&#45;&gt;Node4 -->
<g id="edge3_Node000002_Node000004" class="edge">
<title>Node2&#45;&gt;Node4</title>
<g id="a_edge3_Node000002_Node000004"><a xlink:title=" ">
<path fill="none" stroke="#63b8ff" d="M127.48,-54.95C134.5,-46.84 143.29,-36.7 150.68,-28.16"/>
<polygon fill="#63b8ff" stroke="#63b8ff" points="153.12,-30.7 157.02,-20.85 147.83,-26.11 153.12,-30.7"/>
</a>
</g>
</g>
<!-- Node2&#45;&gt;Node5 -->
<g id="edge4_Node000002_Node000005" class="edge">
<title>Node2&#45;&gt;Node5</title>
<g id="a_edge4_Node000002_Node000005"><a xlink:title=" ">
<path fill="none" stroke="#63b8ff" d="M94.11,-54.95C81.69,-46.24 65.91,-35.18 53.22,-26.28"/>
<polygon fill="#63b8ff" stroke="#63b8ff" points="55.26,-23.44 45.06,-20.57 51.24,-29.18 55.26,-23.44"/>
</a>
</g>
</g>
<!-- Node6&#45;&gt;Node4 -->
<g id="edge7_Node000006_Node000004" class="edge">
<title>Node6&#45;&gt;Node4</title>
<g id="a_edge7_Node000006_Node000004"><a xlink:title=" ">
<path fill="none" stroke="#63b8ff" d="M216.76,-60.56C207.86,-51.83 194.1,-38.32 183.13,-27.55"/>
<polygon fill="#63b8ff" stroke="#63b8ff" points="185.74,-25.22 176.15,-20.71 180.84,-30.21 185.74,-25.22"/>
</a>
</g>
</g>
<!-- Node7 -->
<g id="Node000007" class="node">
<title>Node7</title>
<g id="a_Node000007"><a xlink:title=" ">
<polygon fill="#e0e0e0" stroke="#999999" points="312.62,-19.25 265.12,-19.25 265.12,0 312.62,0 312.62,-19.25"/>
<text text-anchor="middle" x="288.88" y="-5.75" font-family="Helvetica,sans-Serif" font-size="10.00">stdint.h</text>
</a>
</g>
</g>
<!-- Node6&#45;&gt;Node7 -->
<g id="edge6_Node000006_Node000007" class="edge">
<title>Node6&#45;&gt;Node7</title>
<g id="a_edge6_Node000006_Node000007"><a xlink:title=" ">
<path fill="none" stroke="#63b8ff" d="M235.44,-60.56C244.88,-51.74 259.53,-38.05 271.1,-27.23"/>
<polygon fill="#63b8ff" stroke="#63b8ff" points="273.19,-30.07 278.11,-20.68 268.41,-24.96 273.19,-30.07"/>
</a>
</g>
</g>
<!-- Node8 -->
<g id="Node000008" class="node">
<title>Node8</title>
<g id="a_Node000008"><a xlink:title=" ">
<polygon fill="#e0e0e0" stroke="#999999" points="247.38,-19.25 204.38,-19.25 204.38,0 247.38,0 247.38,-19.25"/>
<text text-anchor="middle" x="225.88" y="-5.75" font-family="Helvetica,sans-Serif" font-size="10.00">vector</text>
</a>
</g>
</g>
<!-- Node6&#45;&gt;Node8 -->
<g id="edge8_Node000006_Node000008" class="edge">
<title>Node6&#45;&gt;Node8</title>
<g id="a_edge8_Node000006_Node000008"><a xlink:title=" ">
<path fill="none" stroke="#63b8ff" d="M225.88,-60.56C225.88,-52.78 225.88,-41.2 225.88,-31.16"/>
<polygon fill="#63b8ff" stroke="#63b8ff" points="229.38,-31.16 225.88,-21.16 222.38,-31.16 229.38,-31.16"/>
</a>
</g>
</g>
</g>
</svg>
