<?xml version="1.0" encoding="UTF-8" standalone="no"?>
<!DOCTYPE svg PUBLIC "-//W3C//DTD SVG 1.1//EN"
 "http://www.w3.org/Graphics/SVG/1.1/DTD/svg11.dtd">
<!-- Generated by graphviz version 9.0.0 (20230911.1827)
 -->
<!-- Title: XDino_Win64_CreateWindow Pages: 1 -->
<svg width="889pt" height="656pt"
 viewBox="0.00 0.00 889.00 656.25" xmlns="http://www.w3.org/2000/svg" xmlns:xlink="http://www.w3.org/1999/xlink">
<g id="graph0" class="graph" transform="scale(1 1) rotate(0) translate(4 652.25)">
<title>XDino_Win64_CreateWindow</title>
<!-- Node1 -->
<g id="Node000001" class="node">
<title>Node1</title>
<g id="a_Node000001"><a xlink:title=" ">
<polygon fill="#999999" stroke="#666666" points="142.75,-150.25 0,-150.25 0,-131 142.75,-131 142.75,-150.25"/>
<text text-anchor="middle" x="71.38" y="-136.75" font-family="Helvetica,sans-Serif" font-size="10.00">XDino_Win64_CreateWindow</text>
</a>
</g>
</g>
<!-- Node2 -->
<g id="Node000002" class="node">
<title>Node2</title>
<g id="a_Node000002"><a xlink:href="xdino__win64__main_8cpp.html#afa07de294d5b620ee39644b9661f0665" target="_top" xlink:title=" ">
<polygon fill="white" stroke="#666666" points="314,-150.25 178.75,-150.25 178.75,-131 314,-131 314,-150.25"/>
<text text-anchor="middle" x="246.38" y="-136.75" font-family="Helvetica,sans-Serif" font-size="10.00">XDino_Win64_HandleEvent</text>
</a>
</g>
</g>
<!-- Node1&#45;&gt;Node2 -->
<g id="edge1_Node000001_Node000002" class="edge">
<title>Node1&#45;&gt;Node2</title>
<g id="a_edge1_Node000001_Node000002"><a xlink:title=" ">
<path fill="none" stroke="#63b8ff" d="M143.24,-140.62C151.08,-140.62 159.09,-140.62 167.01,-140.62"/>
<polygon fill="#63b8ff" stroke="#63b8ff" points="167.01,-144.13 177.01,-140.63 167.01,-137.13 167.01,-144.13"/>
</a>
</g>
</g>
<!-- Node3 -->
<g id="Node000003" class="node">
<title>Node3</title>
<g id="a_Node000003"><a xlink:href="dino__game_8cpp.html#ac7b7408f18b3729af2f6e7f405f238e7" target="_top" xlink:title="Appelé pour générer chaque frame. Doit lireles entrées de jeu avec XDino_GetGamepad(),...">
<polygon fill="white" stroke="#666666" points="668.5,-577.25 573.75,-577.25 573.75,-558 668.5,-558 668.5,-577.25"/>
<text text-anchor="middle" x="621.12" y="-563.75" font-family="Helvetica,sans-Serif" font-size="10.00">Dino_GameFrame</text>
</a>
</g>
</g>
<!-- Node2&#45;&gt;Node3 -->
<g id="edge2_Node000002_Node000003" class="edge">
<title>Node2&#45;&gt;Node3</title>
<g id="a_edge2_Node000002_Node000003"><a xlink:title=" ">
<path fill="none" stroke="#63b8ff" d="M248.84,-150.54C254.9,-188.88 281.07,-329.72 350,-419.62 410.92,-499.09 442.19,-509.66 534,-549.62 542.86,-553.48 552.6,-556.53 562.24,-558.94"/>
<polygon fill="#63b8ff" stroke="#63b8ff" points="561.46,-562.35 571.98,-561.14 563,-555.52 561.46,-562.35"/>
</a>
</g>
</g>
<!-- Node12 -->
<g id="Node000012" class="node">
<title>Node12</title>
<g id="a_Node000012"><a xlink:href="dino__game_8cpp.html#a34e4cc788612f46dea16beb4b24dd0ab" target="_top" xlink:title="Appelé au tout début, pour initialiser la logique de jeu.">
<polygon fill="white" stroke="#666666" points="464.25,-410.25 383.75,-410.25 383.75,-391 464.25,-391 464.25,-410.25"/>
<text text-anchor="middle" x="424" y="-396.75" font-family="Helvetica,sans-Serif" font-size="10.00">Dino_GameInit</text>
</a>
</g>
</g>
<!-- Node2&#45;&gt;Node12 -->
<g id="edge11_Node000002_Node000012" class="edge">
<title>Node2&#45;&gt;Node12</title>
<g id="a_edge11_Node000002_Node000012"><a xlink:title=" ">
<path fill="none" stroke="#63b8ff" d="M254.05,-150.5C280.07,-189.03 375.07,-329.67 410,-381.38"/>
<polygon fill="#63b8ff" stroke="#63b8ff" points="406.98,-383.16 415.48,-389.49 412.78,-379.24 406.98,-383.16"/>
</a>
</g>
</g>
<!-- Node20 -->
<g id="Node000020" class="node">
<title>Node20</title>
<g id="a_Node000020"><a xlink:href="xdino__win64__main_8cpp.html#ab579fc5249712eea9dab54bbad4808f0" target="_top" xlink:title="Commence un intervalle de profiling visible sur PIX. Les intervalles de profiling peuvent être l&#39;un d...">
<polygon fill="white" stroke="#666666" points="670.75,-168.25 571.5,-168.25 571.5,-149 670.75,-149 670.75,-168.25"/>
<text text-anchor="middle" x="621.12" y="-154.75" font-family="Helvetica,sans-Serif" font-size="10.00">XDino_ProfileBegin</text>
</a>
</g>
</g>
<!-- Node2&#45;&gt;Node20 -->
<g id="edge20_Node000002_Node000020" class="edge">
<title>Node2&#45;&gt;Node20</title>
<g id="a_edge20_Node000002_Node000020"><a xlink:title=" ">
<path fill="none" stroke="#63b8ff" d="M314.45,-143.86C384.29,-147.24 492.7,-152.47 559.89,-155.72"/>
<polygon fill="#63b8ff" stroke="#63b8ff" points="559.45,-159.2 569.61,-156.19 559.79,-152.21 559.45,-159.2"/>
</a>
</g>
</g>
<!-- Node21 -->
<g id="Node000021" class="node">
<title>Node21</title>
<g id="a_Node000021"><a xlink:href="xdino__win64__main_8cpp.html#a847ecb99f82286c5ba044e4e50d6ca2c" target="_top" xlink:title="Finit un intervalle de profiling.">
<polygon fill="white" stroke="#666666" points="666.62,-131.25 575.62,-131.25 575.62,-112 666.62,-112 666.62,-131.25"/>
<text text-anchor="middle" x="621.12" y="-117.75" font-family="Helvetica,sans-Serif" font-size="10.00">XDino_ProfileEnd</text>
</a>
</g>
</g>
<!-- Node2&#45;&gt;Node21 -->
<g id="edge21_Node000002_Node000021" class="edge">
<title>Node2&#45;&gt;Node21</title>
<g id="a_edge21_Node000002_Node000021"><a xlink:title=" ">
<path fill="none" stroke="#63b8ff" d="M314.45,-137.21C385.78,-133.57 497.33,-127.88 564.12,-124.48"/>
<polygon fill="#63b8ff" stroke="#63b8ff" points="563.93,-127.99 573.74,-123.99 563.57,-121 563.93,-127.99"/>
</a>
</g>
</g>
<!-- Node22 -->
<g id="Node000022" class="node">
<title>Node22</title>
<g id="a_Node000022"><a xlink:href="xdino__win64__rdr_8cpp.html#a19e4f0d170af5a9a4eb73f6274dc1217" target="_top" xlink:title="Spécifique à la plateforme. Commence la passe de rendu.">
<polygon fill="white" stroke="#666666" points="487.5,-93.25 360.5,-93.25 360.5,-74 487.5,-74 487.5,-93.25"/>
<text text-anchor="middle" x="424" y="-79.75" font-family="Helvetica,sans-Serif" font-size="10.00">XDino_Win64_BeginDraw</text>
</a>
</g>
</g>
<!-- Node2&#45;&gt;Node22 -->
<g id="edge22_Node000002_Node000022" class="edge">
<title>Node2&#45;&gt;Node22</title>
<g id="a_edge22_Node000002_Node000022"><a xlink:title=" ">
<path fill="none" stroke="#63b8ff" d="M278.37,-130.57C307,-121.27 349.75,-107.4 381.35,-97.14"/>
<polygon fill="#63b8ff" stroke="#63b8ff" points="382.15,-100.56 390.58,-94.15 379.99,-93.9 382.15,-100.56"/>
</a>
</g>
</g>
<!-- Node23 -->
<g id="Node000023" class="node">
<title>Node23</title>
<g id="a_Node000023"><a xlink:href="xdino__win64__main_8cpp.html#a5f03a33705fae3997a21af54ca15a039" target="_top" xlink:title=" ">
<polygon fill="white" stroke="#666666" points="497.62,-56.25 350.38,-56.25 350.38,-37 497.62,-37 497.62,-56.25"/>
<text text-anchor="middle" x="424" y="-42.75" font-family="Helvetica,sans-Serif" font-size="10.00">XDino_Win64_CreateRenderer</text>
</a>
</g>
</g>
<!-- Node2&#45;&gt;Node23 -->
<g id="edge23_Node000002_Node000023" class="edge">
<title>Node2&#45;&gt;Node23</title>
<g id="a_edge23_Node000002_Node000023"><a xlink:title=" ">
<path fill="none" stroke="#63b8ff" d="M257.83,-130.62C275.42,-114.34 312.68,-82.17 350,-64.62 353.31,-63.07 356.76,-61.64 360.3,-60.32"/>
<polygon fill="#63b8ff" stroke="#63b8ff" points="361.26,-63.7 369.63,-57.2 359.03,-57.06 361.26,-63.7"/>
</a>
</g>
</g>
<!-- Node24 -->
<g id="Node000024" class="node">
<title>Node24</title>
<g id="a_Node000024"><a xlink:href="xdino__win64__rdr_8cpp.html#ad13ae3c31e66f2cdf34b75465d4bac17" target="_top" xlink:title="Spécifique à la plateforme. Finit la passe de rendu et envoit le travail à la carte graphique.">
<polygon fill="white" stroke="#666666" points="483.38,-207.25 364.62,-207.25 364.62,-188 483.38,-188 483.38,-207.25"/>
<text text-anchor="middle" x="424" y="-193.75" font-family="Helvetica,sans-Serif" font-size="10.00">XDino_Win64_EndDraw</text>
</a>
</g>
</g>
<!-- Node2&#45;&gt;Node24 -->
<g id="edge24_Node000002_Node000024" class="edge">
<title>Node2&#45;&gt;Node24</title>
<g id="a_edge24_Node000002_Node000024"><a xlink:title=" ">
<path fill="none" stroke="#63b8ff" d="M278.37,-150.68C307,-159.98 349.75,-173.85 381.35,-184.11"/>
<polygon fill="#63b8ff" stroke="#63b8ff" points="379.99,-187.35 390.58,-187.1 382.15,-180.69 379.99,-187.35"/>
</a>
</g>
</g>
<!-- Node28 -->
<g id="Node000028" class="node">
<title>Node28</title>
<g id="a_Node000028"><a xlink:href="xdino__win64__rdr_8cpp.html#a9ff5efef1703f2710d3e28a03a61ae85" target="_top" xlink:title="Spécifique à la plateforme. Redimensionnne le rendu.">
<polygon fill="white" stroke="#666666" points="498,-19.25 350,-19.25 350,0 498,0 498,-19.25"/>
<text text-anchor="middle" x="424" y="-5.75" font-family="Helvetica,sans-Serif" font-size="10.00">XDino_Win64_ResizeRenderer</text>
</a>
</g>
</g>
<!-- Node2&#45;&gt;Node28 -->
<g id="edge34_Node000002_Node000028" class="edge">
<title>Node2&#45;&gt;Node28</title>
<g id="a_edge34_Node000002_Node000028"><a xlink:title=" ">
<path fill="none" stroke="#63b8ff" d="M253.42,-130.67C267.45,-108.47 304.47,-54.77 350,-27.62 352.06,-26.4 354.2,-25.25 356.39,-24.19"/>
<polygon fill="#63b8ff" stroke="#63b8ff" points="357.74,-27.42 365.62,-20.33 355.04,-20.96 357.74,-27.42"/>
</a>
</g>
</g>
<!-- Node4 -->
<g id="Node000004" class="node">
<title>Node4</title>
<g id="a_Node000004"><a xlink:href="dino__draw__utils_8cpp.html#a9473461ff91938cb3c388c767b78f785" target="_top" xlink:title="Produit un dessin contenant du texte, avec éventuellement une couleur de fond. Les sommets doivent êt...">
<polygon fill="white" stroke="#666666" points="872,-410.25 753.25,-410.25 753.25,-391 872,-391 872,-410.25"/>
<text text-anchor="middle" x="812.62" y="-396.75" font-family="Helvetica,sans-Serif" font-size="10.00">Dino_GenVertices_Text</text>
</a>
</g>
</g>
<!-- Node3&#45;&gt;Node4 -->
<g id="edge3_Node000003_Node000004" class="edge">
<title>Node3&#45;&gt;Node4</title>
<g id="a_edge3_Node000003_Node000004"><a xlink:title=" ">
<path fill="none" stroke="#63b8ff" d="M668.81,-566.89C682.97,-564.48 697.58,-559.46 708.25,-549.62 749.81,-511.3 706.2,-469.44 744.25,-427.62 748.65,-422.79 754.04,-418.8 759.83,-415.52"/>
<polygon fill="#63b8ff" stroke="#63b8ff" points="761.03,-418.83 768.49,-411.31 757.96,-412.54 761.03,-418.83"/>
</a>
</g>
</g>
<!-- Node5 -->
<g id="Node000005" class="node">
<title>Node5</title>
<g id="a_Node000005"><a xlink:href="xdino__linux__main_8cpp.html#ad7cc0200df4ae9dc2f3445ce0c5bb02c" target="_top" xlink:title="Copie une liste de sommets de triangles texturés sur la carte graphique. Retourne l&#39;identifiant uniqu...">
<polygon fill="white" stroke="#666666" points="877.25,-355.25 748,-355.25 748,-336 877.25,-336 877.25,-355.25"/>
<text text-anchor="middle" x="812.62" y="-341.75" font-family="Helvetica,sans-Serif" font-size="10.00">XDino_CreateVertexBuffer</text>
</a>
</g>
</g>
<!-- Node3&#45;&gt;Node5 -->
<g id="edge4_Node000003_Node000005" class="edge">
<title>Node3&#45;&gt;Node5</title>
<g id="a_edge4_Node000003_Node000005"><a xlink:title=" ">
<path fill="none" stroke="#63b8ff" d="M668.82,-567.44C683.14,-565.08 697.85,-559.97 708.25,-549.62 762.38,-495.77 698.31,-442.62 744.25,-381.62 750.88,-372.82 760.31,-365.94 770.02,-360.66"/>
<polygon fill="#63b8ff" stroke="#63b8ff" points="771.32,-363.92 778.78,-356.38 768.25,-357.62 771.32,-363.92"/>
</a>
</g>
</g>
<!-- Node6 -->
<g id="Node000006" class="node">
<title>Node6</title>
<g id="a_Node000006"><a xlink:href="xdino__linux__main_8cpp.html#a641cf6ebd62e0ffbcf34a364bb9bf03b" target="_top" xlink:title="Décharge la liste de sommets identifiée par &#39;vbufID&#39; de la carte graphique.">
<polygon fill="white" stroke="#666666" points="879.5,-456.25 745.75,-456.25 745.75,-437 879.5,-437 879.5,-456.25"/>
<text text-anchor="middle" x="812.62" y="-442.75" font-family="Helvetica,sans-Serif" font-size="10.00">XDino_DestroyVertexBuffer</text>
</a>
</g>
</g>
<!-- Node3&#45;&gt;Node6 -->
<g id="edge5_Node000003_Node000006" class="edge">
<title>Node3&#45;&gt;Node6</title>
<g id="a_edge5_Node000003_Node000006"><a xlink:title=" ">
<path fill="none" stroke="#63b8ff" d="M668.94,-565.85C682.78,-563.33 697.18,-558.52 708.25,-549.62 738.64,-525.2 715.42,-495.87 744.25,-469.62 747.6,-466.58 751.37,-463.93 755.37,-461.63"/>
<polygon fill="#63b8ff" stroke="#63b8ff" points="756.87,-464.79 764.33,-457.27 753.81,-458.5 756.87,-464.79"/>
</a>
</g>
</g>
<!-- Node7 -->
<g id="Node000007" class="node">
<title>Node7</title>
<g id="a_Node000007"><a xlink:href="xdino__linux__main_8cpp.html#a7d5347b96a8386cfa0d2ee33abaf36bb" target="_top" xlink:title="Transfère les triangles à dessiner à la carte graphique.">
<polygon fill="white" stroke="#666666" points="847.62,-498.25 777.62,-498.25 777.62,-479 847.62,-479 847.62,-498.25"/>
<text text-anchor="middle" x="812.62" y="-484.75" font-family="Helvetica,sans-Serif" font-size="10.00">XDino_Draw</text>
</a>
</g>
</g>
<!-- Node3&#45;&gt;Node7 -->
<g id="edge6_Node000003_Node000007" class="edge">
<title>Node3&#45;&gt;Node7</title>
<g id="a_edge6_Node000003_Node000007"><a xlink:title=" ">
<path fill="none" stroke="#63b8ff" d="M668.82,-563.47C682.21,-560.83 696.38,-556.55 708.25,-549.62 729.2,-537.4 723.83,-521.7 744.25,-508.62 750.96,-504.33 758.62,-500.93 766.32,-498.24"/>
<polygon fill="#63b8ff" stroke="#63b8ff" points="767.16,-501.64 775.68,-495.34 765.1,-494.96 767.16,-501.64"/>
</a>
</g>
</g>
<!-- Node8 -->
<g id="Node000008" class="node">
<title>Node8</title>
<g id="a_Node000008"><a xlink:href="xdino__linux__main_8cpp.html#afce3fa5d5fa809f786dad62cd3989b7a" target="_top" xlink:title="Affiche les statistiques de consommation mémoire et de ressources chargées.">
<polygon fill="white" stroke="#666666" points="859.25,-574.25 766,-574.25 766,-555 859.25,-555 859.25,-574.25"/>
<text text-anchor="middle" x="812.62" y="-560.75" font-family="Helvetica,sans-Serif" font-size="10.00">XDino_DrawStats</text>
</a>
</g>
</g>
<!-- Node3&#45;&gt;Node8 -->
<g id="edge7_Node000003_Node000008" class="edge">
<title>Node3&#45;&gt;Node8</title>
<g id="a_edge7_Node000003_Node000008"><a xlink:title=" ">
<path fill="none" stroke="#63b8ff" d="M668.97,-566.88C694.77,-566.48 726.99,-565.96 754.29,-565.53"/>
<polygon fill="#63b8ff" stroke="#63b8ff" points="754.19,-569.03 764.14,-565.38 754.08,-562.04 754.19,-569.03"/>
</a>
</g>
</g>
<!-- Node9 -->
<g id="Node000009" class="node">
<title>Node9</title>
<g id="a_Node000009"><a xlink:href="xdino__linux__main_8cpp.html#a68646c879bb2deb348cfa0ae2fc53b92" target="_top" xlink:title="Récupère l&#39;état de la manette concernée.">
<polygon fill="white" stroke="#666666" points="865.25,-537.25 760,-537.25 760,-518 865.25,-518 865.25,-537.25"/>
<text text-anchor="middle" x="812.62" y="-523.75" font-family="Helvetica,sans-Serif" font-size="10.00">XDino_GetGamepad</text>
</a>
</g>
</g>
<!-- Node3&#45;&gt;Node9 -->
<g id="edge8_Node000003_Node000009" class="edge">
<title>Node3&#45;&gt;Node9</title>
<g id="a_edge8_Node000003_Node000009"><a xlink:title=" ">
<path fill="none" stroke="#63b8ff" d="M668.62,-557.94C681.46,-555.26 695.4,-552.34 708.25,-549.62 722.84,-546.55 738.59,-543.21 753.29,-540.08"/>
<polygon fill="#63b8ff" stroke="#63b8ff" points="753.75,-543.56 762.81,-538.05 752.3,-536.71 753.75,-543.56"/>
</a>
</g>
</g>
<!-- Node10 -->
<g id="Node000010" class="node">
<title>Node10</title>
<g id="a_Node000010"><a xlink:href="xdino__linux__main_8cpp.html#a4ded9317bd5f35f70b1473c729e56d1a" target="_top" xlink:title="Taille du rendu. Attention, différent de la résolution affichée à l&#39;écran !">
<polygon fill="white" stroke="#666666" points="869,-648.25 756.25,-648.25 756.25,-629 869,-629 869,-648.25"/>
<text text-anchor="middle" x="812.62" y="-634.75" font-family="Helvetica,sans-Serif" font-size="10.00">XDino_GetRenderSize</text>
</a>
</g>
</g>
<!-- Node3&#45;&gt;Node10 -->
<g id="edge9_Node000003_Node000010" class="edge">
<title>Node3&#45;&gt;Node10</title>
<g id="a_edge9_Node000003_Node000010"><a xlink:title=" ">
<path fill="none" stroke="#63b8ff" d="M642.5,-577.58C666.45,-589.02 707.58,-607.85 744.25,-620.62 749.01,-622.28 754,-623.88 759.03,-625.39"/>
<polygon fill="#63b8ff" stroke="#63b8ff" points="757.97,-628.72 768.54,-628.12 759.9,-622 757.97,-628.72"/>
</a>
</g>
</g>
<!-- Node11 -->
<g id="Node000011" class="node">
<title>Node11</title>
<g id="a_Node000011"><a xlink:href="xdino__linux__main_8cpp.html#abded2f43911a4a13d4742539b59797e0" target="_top" xlink:title="Pour indiquer la couleur d&#39;arrière&#45;plan.">
<polygon fill="white" stroke="#666666" points="866.38,-611.25 758.88,-611.25 758.88,-592 866.38,-592 866.38,-611.25"/>
<text text-anchor="middle" x="812.62" y="-597.75" font-family="Helvetica,sans-Serif" font-size="10.00">XDino_SetClearColor</text>
</a>
</g>
</g>
<!-- Node3&#45;&gt;Node11 -->
<g id="edge10_Node000003_Node000011" class="edge">
<title>Node3&#45;&gt;Node11</title>
<g id="a_edge10_Node000003_Node000011"><a xlink:title=" ">
<path fill="none" stroke="#63b8ff" d="M668.97,-576.03C692.65,-580.28 721.74,-585.5 747.46,-590.11"/>
<polygon fill="#63b8ff" stroke="#63b8ff" points="746.68,-593.53 757.14,-591.85 747.92,-586.64 746.68,-593.53"/>
</a>
</g>
</g>
<!-- Node12&#45;&gt;Node5 -->
<g id="edge16_Node000012_Node000005" class="edge">
<title>Node12&#45;&gt;Node5</title>
<g id="a_edge16_Node000012_Node000005"><a xlink:title=" ">
<path fill="none" stroke="#63b8ff" d="M435,-390.68C452.96,-373.61 492.68,-339.33 534,-326.62 613.06,-302.32 710.54,-319.02 766.45,-332.75"/>
<polygon fill="#63b8ff" stroke="#63b8ff" points="765.37,-336.09 775.92,-335.16 767.09,-329.31 765.37,-336.09"/>
</a>
</g>
</g>
<!-- Node13 -->
<g id="Node000013" class="node">
<title>Node13</title>
<g id="a_Node000013"><a xlink:href="dino__draw__utils_8cpp.html#a8a1875e3a83c7342b6cf774e492fc9e5" target="_top" xlink:title="Produit un dessin de cercle avec la couleur spécifiée. Les sommets doivent être dessiné avec XDino_TE...">
<polygon fill="white" stroke="#666666" points="683.5,-540.25 558.75,-540.25 558.75,-521 683.5,-521 683.5,-540.25"/>
<text text-anchor="middle" x="621.12" y="-526.75" font-family="Helvetica,sans-Serif" font-size="10.00">Dino_GenVertices_Circle</text>
</a>
</g>
</g>
<!-- Node12&#45;&gt;Node13 -->
<g id="edge12_Node000012_Node000013" class="edge">
<title>Node12&#45;&gt;Node13</title>
<g id="a_edge12_Node000012_Node000013"><a xlink:title=" ">
<path fill="none" stroke="#63b8ff" d="M431.54,-410.61C446.67,-432.83 486.44,-486.49 534,-512.62 538.33,-515.01 542.95,-517.07 547.71,-518.87"/>
<polygon fill="#63b8ff" stroke="#63b8ff" points="546.26,-522.08 556.85,-521.9 548.46,-515.43 546.26,-522.08"/>
</a>
</g>
</g>
<!-- Node14 -->
<g id="Node000014" class="node">
<title>Node14</title>
<g id="a_Node000014"><a xlink:href="dino__draw__utils_8cpp.html#ad4e078eff3e21bb5c840aea64bbf2673" target="_top" xlink:title="Produit un dessin contenant une liste de segments, tous reliés. Les sommets doivent être dessiné avec...">
<polygon fill="white" stroke="#666666" points="688,-503.25 554.25,-503.25 554.25,-484 688,-484 688,-503.25"/>
<text text-anchor="middle" x="621.12" y="-489.75" font-family="Helvetica,sans-Serif" font-size="10.00">Dino_GenVertices_Polyline</text>
</a>
</g>
</g>
<!-- Node12&#45;&gt;Node14 -->
<g id="edge13_Node000012_Node000014" class="edge">
<title>Node12&#45;&gt;Node14</title>
<g id="a_edge13_Node000012_Node000014"><a xlink:title=" ">
<path fill="none" stroke="#63b8ff" d="M436.18,-410.61C454.98,-426.84 494.72,-458.82 534,-475.62 537.99,-477.33 542.16,-478.89 546.42,-480.29"/>
<polygon fill="#63b8ff" stroke="#63b8ff" points="545.09,-483.55 555.68,-483.07 547.11,-476.85 545.09,-483.55"/>
</a>
</g>
</g>
<!-- Node15 -->
<g id="Node000015" class="node">
<title>Node15</title>
<g id="a_Node000015"><a xlink:href="xdino__linux__main_8cpp.html#a606a6ce34b0c704a35a8a61db01db625" target="_top" xlink:title="Charge une texture nommée &#39;pName&#39; depuis le disque jusqu&#39;à la carte graphique. Retourne l&#39;identifiant...">
<polygon fill="white" stroke="#666666" points="684.25,-279.25 558,-279.25 558,-260 684.25,-260 684.25,-279.25"/>
<text text-anchor="middle" x="621.12" y="-265.75" font-family="Helvetica,sans-Serif" font-size="10.00">XDino_CreateGpuTexture</text>
</a>
</g>
</g>
<!-- Node12&#45;&gt;Node15 -->
<g id="edge14_Node000012_Node000015" class="edge">
<title>Node12&#45;&gt;Node15</title>
<g id="a_edge14_Node000012_Node000015"><a xlink:title=" ">
<path fill="none" stroke="#63b8ff" d="M432.25,-390.68C448.2,-369.54 488.54,-319.89 534,-293.62 541.11,-289.51 548.97,-286.08 556.95,-283.21"/>
<polygon fill="#63b8ff" stroke="#63b8ff" points="558.01,-286.55 566.43,-280.12 555.83,-279.89 558.01,-286.55"/>
</a>
</g>
</g>
<!-- Node17 -->
<g id="Node000017" class="node">
<title>Node17</title>
<g id="a_Node000017"><a xlink:href="xdino__linux__main_8cpp.html#a0bae910da7641a966b3caf0a765a16c1" target="_top" xlink:title="Retourne la taille en pixels de la texture chargée sur la carte graphique.">
<polygon fill="white" stroke="#666666" points="687.25,-466.25 555,-466.25 555,-447 687.25,-447 687.25,-466.25"/>
<text text-anchor="middle" x="621.12" y="-452.75" font-family="Helvetica,sans-Serif" font-size="10.00">XDino_GetGpuTextureSize</text>
</a>
</g>
</g>
<!-- Node12&#45;&gt;Node17 -->
<g id="edge17_Node000012_Node000017" class="edge">
<title>Node12&#45;&gt;Node17</title>
<g id="a_edge17_Node000012_Node000017"><a xlink:title=" ">
<path fill="none" stroke="#63b8ff" d="M450.69,-410.64C472.59,-418.92 505.03,-430.59 534,-438.62 540.94,-440.55 548.24,-442.38 555.54,-444.08"/>
<polygon fill="#63b8ff" stroke="#63b8ff" points="554.57,-447.45 565.1,-446.22 556.11,-440.62 554.57,-447.45"/>
</a>
</g>
</g>
<!-- Node18 -->
<g id="Node000018" class="node">
<title>Node18</title>
<g id="a_Node000018"><a xlink:href="xdino__linux__main_8cpp.html#a8fb3a63e6442dd880092baee74243dd3" target="_top" xlink:title="Taille de la fenêtre sur l&#39;écran. Attention, différent de la résolution du rendu !">
<polygon fill="white" stroke="#666666" points="679.38,-429.25 562.88,-429.25 562.88,-410 679.38,-410 679.38,-429.25"/>
<text text-anchor="middle" x="621.12" y="-415.75" font-family="Helvetica,sans-Serif" font-size="10.00">XDino_GetWindowSize</text>
</a>
</g>
</g>
<!-- Node12&#45;&gt;Node18 -->
<g id="edge18_Node000012_Node000018" class="edge">
<title>Node12&#45;&gt;Node18</title>
<g id="a_edge18_Node000012_Node000018"><a xlink:title=" ">
<path fill="none" stroke="#63b8ff" d="M464.49,-404.47C489.36,-406.89 522.15,-410.08 551.22,-412.92"/>
<polygon fill="#63b8ff" stroke="#63b8ff" points="550.77,-416.39 561.06,-413.87 551.45,-409.42 550.77,-416.39"/>
</a>
</g>
</g>
<!-- Node19 -->
<g id="Node000019" class="node">
<title>Node19</title>
<g id="a_Node000019"><a xlink:href="xdino__linux__main_8cpp.html#a57ea716600a49f61ffff0bd33bd78a7d" target="_top" xlink:title="Modifie la taille de rendu. Les coordonnées passées dans les vertex sont en rapport à cette taille.">
<polygon fill="white" stroke="#666666" points="677.12,-392.25 565.12,-392.25 565.12,-373 677.12,-373 677.12,-392.25"/>
<text text-anchor="middle" x="621.12" y="-378.75" font-family="Helvetica,sans-Serif" font-size="10.00">XDino_SetRenderSize</text>
</a>
</g>
</g>
<!-- Node12&#45;&gt;Node19 -->
<g id="edge19_Node000012_Node000019" class="edge">
<title>Node12&#45;&gt;Node19</title>
<g id="a_edge19_Node000012_Node000019"><a xlink:title=" ">
<path fill="none" stroke="#63b8ff" d="M464.49,-396.98C490.06,-394.62 524.01,-391.49 553.67,-388.76"/>
<polygon fill="#63b8ff" stroke="#63b8ff" points="553.66,-392.27 563.29,-387.87 553.01,-385.3 553.66,-392.27"/>
</a>
</g>
</g>
<!-- Node16 -->
<g id="Node000016" class="node">
<title>Node16</title>
<g id="a_Node000016"><a xlink:href="xdino__linux__main_8cpp.html#a9a7f32a9d3a97c86d7e2998d754c811e" target="_top" xlink:title=" ">
<polygon fill="white" stroke="#666666" points="881,-279.25 744.25,-279.25 744.25,-260 881,-260 881,-279.25"/>
<text text-anchor="middle" x="812.62" y="-265.75" font-family="Helvetica,sans-Serif" font-size="10.00">XDino_Linux_CreateTexture</text>
</a>
</g>
</g>
<!-- Node15&#45;&gt;Node16 -->
<g id="edge15_Node000015_Node000016" class="edge">
<title>Node15&#45;&gt;Node16</title>
<g id="a_edge15_Node000015_Node000016"><a xlink:title=" ">
<path fill="none" stroke="#63b8ff" d="M684.7,-269.62C699.97,-269.62 716.5,-269.62 732.43,-269.62"/>
<polygon fill="#63b8ff" stroke="#63b8ff" points="732.38,-273.13 742.38,-269.63 732.38,-266.13 732.38,-273.13"/>
</a>
</g>
</g>
<!-- Node24&#45;&gt;Node20 -->
<g id="edge25_Node000024_Node000020" class="edge">
<title>Node24&#45;&gt;Node20</title>
<g id="a_edge25_Node000024_Node000020"><a xlink:title=" ">
<path fill="none" stroke="#63b8ff" d="M475.5,-187.53C501.29,-182.38 532.85,-176.07 559.9,-170.66"/>
<polygon fill="#63b8ff" stroke="#63b8ff" points="560.58,-174.1 569.7,-168.7 559.21,-167.23 560.58,-174.1"/>
</a>
</g>
</g>
<!-- Node24&#45;&gt;Node21 -->
<g id="edge26_Node000024_Node000021" class="edge">
<title>Node24&#45;&gt;Node21</title>
<g id="a_edge26_Node000024_Node000021"><a xlink:title=" ">
<path fill="none" stroke="#63b8ff" d="M440.24,-187.72C460.74,-174.81 498.73,-152.4 534,-139.62 543.6,-136.15 554.05,-133.26 564.27,-130.89"/>
<polygon fill="#63b8ff" stroke="#63b8ff" points="564.69,-134.38 573.72,-128.84 563.21,-127.54 564.69,-134.38"/>
</a>
</g>
</g>
<!-- Node25 -->
<g id="Node000025" class="node">
<title>Node25</title>
<g id="a_Node000025"><a xlink:href="xdino__win64__rdr_8cpp.html#a9b6c6fcbcefafee47511b2494be31bc5" target="_top" xlink:title=" ">
<polygon fill="white" stroke="#666666" points="701.88,-242.25 540.38,-242.25 540.38,-223 701.88,-223 701.88,-242.25"/>
<text text-anchor="middle" x="621.12" y="-228.75" font-family="Helvetica,sans-Serif" font-size="10.00">XDino_Win64_CollectRessources</text>
</a>
</g>
</g>
<!-- Node24&#45;&gt;Node25 -->
<g id="edge27_Node000024_Node000025" class="edge">
<title>Node24&#45;&gt;Node25</title>
<g id="a_edge27_Node000024_Node000025"><a xlink:title=" ">
<path fill="none" stroke="#63b8ff" d="M481.44,-207.75C503.69,-211.74 529.42,-216.36 552.64,-220.52"/>
<polygon fill="#63b8ff" stroke="#63b8ff" points="551.86,-223.94 562.32,-222.26 553.1,-217.05 551.86,-223.94"/>
</a>
</g>
</g>
<!-- Node26 -->
<g id="Node000026" class="node">
<title>Node26</title>
<g id="a_Node000026"><a xlink:href="xdino__win64__rdr_8cpp.html#aee77bfe8f28763649ad0fb85717cbddf" target="_top" xlink:title=" ">
<polygon fill="white" stroke="#666666" points="708.25,-205.25 534,-205.25 534,-186 708.25,-186 708.25,-205.25"/>
<text text-anchor="middle" x="621.12" y="-191.75" font-family="Helvetica,sans-Serif" font-size="10.00">XDino_Win64_PurgeDeadResources</text>
</a>
</g>
</g>
<!-- Node24&#45;&gt;Node26 -->
<g id="edge28_Node000024_Node000026" class="edge">
<title>Node24&#45;&gt;Node26</title>
<g id="a_edge28_Node000024_Node000026"><a xlink:title=" ">
<path fill="none" stroke="#63b8ff" d="M483.81,-197.02C495.96,-196.9 509.07,-196.76 522.18,-196.63"/>
<polygon fill="#63b8ff" stroke="#63b8ff" points="522.21,-200.13 532.18,-196.53 522.14,-193.13 522.21,-200.13"/>
</a>
</g>
</g>
<!-- Node27 -->
<g id="Node000027" class="node">
<title>Node27</title>
<g id="a_Node000027"><a xlink:href="xdino__impl_8h.html#afb7598b07900a9b7f46de9fae53de8a0" target="_top" xlink:title="Trucs communs entre les différentes implémentations de l&#39;API XDino. En général, cela concerne le debu...">
<polygon fill="white" stroke="#666666" points="677.12,-355.25 565.12,-355.25 565.12,-336 677.12,-336 677.12,-355.25"/>
<text text-anchor="middle" x="621.12" y="-341.75" font-family="Helvetica,sans-Serif" font-size="10.00">XDinoImpl_DrawStats</text>
</a>
</g>
</g>
<!-- Node24&#45;&gt;Node27 -->
<g id="edge29_Node000024_Node000027" class="edge">
<title>Node24&#45;&gt;Node27</title>
<g id="a_edge29_Node000024_Node000027"><a xlink:title=" ">
<path fill="none" stroke="#63b8ff" d="M436.12,-207.62C455.47,-224.84 496.83,-260.94 534,-288.62 553.71,-303.31 577.01,-318.61 594.4,-329.66"/>
<polygon fill="#63b8ff" stroke="#63b8ff" points="592.28,-332.46 602.61,-334.83 596.01,-326.54 592.28,-332.46"/>
</a>
</g>
</g>
<!-- Node27&#45;&gt;Node4 -->
<g id="edge30_Node000027_Node000004" class="edge">
<title>Node27&#45;&gt;Node4</title>
<g id="a_edge30_Node000027_Node000004"><a xlink:title=" ">
<path fill="none" stroke="#63b8ff" d="M676.16,-355.73C686.86,-358.06 697.96,-360.72 708.25,-363.62 731.05,-370.06 756.08,-378.96 775.8,-386.43"/>
<polygon fill="#63b8ff" stroke="#63b8ff" points="774.45,-389.66 785.04,-389.97 776.96,-383.12 774.45,-389.66"/>
</a>
</g>
</g>
<!-- Node27&#45;&gt;Node5 -->
<g id="edge31_Node000027_Node000005" class="edge">
<title>Node27&#45;&gt;Node5</title>
<g id="a_edge31_Node000027_Node000005"><a xlink:title=" ">
<path fill="none" stroke="#63b8ff" d="M677.45,-345.62C695.8,-345.62 716.56,-345.62 736.17,-345.62"/>
<polygon fill="#63b8ff" stroke="#63b8ff" points="736.04,-349.13 746.04,-345.63 736.04,-342.13 736.04,-349.13"/>
</a>
</g>
</g>
<!-- Node27&#45;&gt;Node6 -->
<g id="edge32_Node000027_Node000006" class="edge">
<title>Node27&#45;&gt;Node6</title>
<g id="a_edge32_Node000027_Node000006"><a xlink:title=" ">
<path fill="none" stroke="#63b8ff" d="M677.6,-350.49C688.41,-353.24 699.19,-357.39 708.25,-363.62 732.62,-380.4 721.44,-400.78 744.25,-419.62 750.19,-424.53 757.14,-428.63 764.27,-432.04"/>
<polygon fill="#63b8ff" stroke="#63b8ff" points="762.8,-435.21 773.37,-435.94 765.55,-428.78 762.8,-435.21"/>
</a>
</g>
</g>
<!-- Node27&#45;&gt;Node7 -->
<g id="edge33_Node000027_Node000007" class="edge">
<title>Node27&#45;&gt;Node7</title>
<g id="a_edge33_Node000027_Node000007"><a xlink:title=" ">
<path fill="none" stroke="#63b8ff" d="M677.47,-348.58C688.67,-351.41 699.63,-356.08 708.25,-363.62 744.43,-395.28 710.08,-431.81 744.25,-465.62 750.42,-471.73 758.27,-476.22 766.43,-479.51"/>
<polygon fill="#63b8ff" stroke="#63b8ff" points="765.17,-482.78 775.76,-482.71 767.43,-476.16 765.17,-482.78"/>
</a>
</g>
</g>
</g>
</svg>
