<?xml version="1.0" encoding="UTF-8" standalone="no"?>
<!DOCTYPE svg PUBLIC "-//W3C//DTD SVG 1.1//EN"
 "http://www.w3.org/Graphics/SVG/1.1/DTD/svg11.dtd">
<!-- Generated by graphviz version 9.0.0 (20230911.1827)
 -->
<!-- Title: XDino_CreateGpuTexture Pages: 1 -->
<svg width="757pt" height="101pt"
 viewBox="0.00 0.00 757.00 101.25" xmlns="http://www.w3.org/2000/svg" xmlns:xlink="http://www.w3.org/1999/xlink">
<g id="graph0" class="graph" transform="scale(1 1) rotate(0) translate(4 97.25)">
<title>XDino_CreateGpuTexture</title>
<!-- Node1 -->
<g id="Node000001" class="node">
<title>Node1</title>
<g id="a_Node000001"><a xlink:title="Charge une texture nommée &#39;pName&#39; depuis le disque jusqu&#39;à la carte graphique. Retourne l&#39;identifiant...">
<polygon fill="#999999" stroke="#666666" points="749,-56.25 622.75,-56.25 622.75,-37 749,-37 749,-56.25"/>
<text text-anchor="middle" x="685.88" y="-42.75" font-family="Helvetica,sans-Serif" font-size="10.00">XDino_CreateGpuTexture</text>
</a>
</g>
</g>
<!-- Node2 -->
<g id="Node000002" class="node">
<title>Node2</title>
<g id="a_Node000002"><a xlink:href="dino__game_8cpp.html#a34e4cc788612f46dea16beb4b24dd0ab" target="_top" xlink:title="Appelé au tout début, pour initialiser la logique de jeu.">
<polygon fill="white" stroke="#666666" points="553.38,-56.25 472.88,-56.25 472.88,-37 553.38,-37 553.38,-56.25"/>
<text text-anchor="middle" x="513.12" y="-42.75" font-family="Helvetica,sans-Serif" font-size="10.00">Dino_GameInit</text>
</a>
</g>
</g>
<!-- Node1&#45;&gt;Node2 -->
<g id="edge1_Node000001_Node000002" class="edge">
<title>Node1&#45;&gt;Node2</title>
<g id="a_edge1_Node000001_Node000002"><a xlink:title=" ">
<path fill="none" stroke="#63b8ff" d="M610.81,-46.62C591.16,-46.62 570.68,-46.62 553.66,-46.62"/>
<polygon fill="#63b8ff" stroke="#63b8ff" points="610.75,-50.13 620.75,-46.63 610.75,-43.13 610.75,-50.13"/>
</a>
</g>
</g>
<!-- Node3 -->
<g id="Node000003" class="node">
<title>Node3</title>
<g id="a_Node000003"><a xlink:href="xdino__linux__main_8cpp.html#a1c1b5043b07b3c147c6b32c1d87b2f54" target="_top" xlink:title=" ">
<polygon fill="white" stroke="#666666" points="380.62,-93.25 291.12,-93.25 291.12,-74 380.62,-74 380.62,-93.25"/>
<text text-anchor="middle" x="335.88" y="-79.75" font-family="Helvetica,sans-Serif" font-size="10.00">XDino_Linux_Init</text>
</a>
</g>
</g>
<!-- Node1&#45;&gt;Node3 -->
<g id="edge7_Node000001_Node000003" class="edge">
<title>Node1&#45;&gt;Node3</title>
<g id="a_edge7_Node000001_Node000003"><a xlink:title=" ">
<path fill="none" stroke="#63b8ff" d="M628.05,-58.82C614.56,-61.38 600.19,-63.85 586.75,-65.62 514.96,-75.13 430.85,-79.88 380.82,-82.05"/>
<polygon fill="#63b8ff" stroke="#63b8ff" points="628.5,-62.3 637.65,-56.95 627.16,-55.43 628.5,-62.3"/>
</a>
</g>
</g>
<!-- Node8 -->
<g id="Node000008" class="node">
<title>Node8</title>
<g id="a_Node000008"><a xlink:href="xdino__win64__rdr_8cpp.html#a6b04f71512315740371806b657af4aff" target="_top" xlink:title="Spécifique à la plateforme. Initialise le rendu.">
<polygon fill="white" stroke="#666666" points="586.75,-19.25 439.5,-19.25 439.5,0 586.75,0 586.75,-19.25"/>
<text text-anchor="middle" x="513.12" y="-5.75" font-family="Helvetica,sans-Serif" font-size="10.00">XDino_Win64_CreateRenderer</text>
</a>
</g>
</g>
<!-- Node1&#45;&gt;Node8 -->
<g id="edge8_Node000001_Node000008" class="edge">
<title>Node1&#45;&gt;Node8</title>
<g id="a_edge8_Node000001_Node000008"><a xlink:title=" ">
<path fill="none" stroke="#63b8ff" d="M627.18,-34.12C605.54,-29.43 581.24,-24.17 560.73,-19.72"/>
<polygon fill="#63b8ff" stroke="#63b8ff" points="626.22,-37.5 636.74,-36.19 627.71,-30.66 626.22,-37.5"/>
</a>
</g>
</g>
<!-- Node2&#45;&gt;Node3 -->
<g id="edge2_Node000002_Node000003" class="edge">
<title>Node2&#45;&gt;Node3</title>
<g id="a_edge2_Node000002_Node000003"><a xlink:title=" ">
<path fill="none" stroke="#63b8ff" d="M461.84,-57.24C436.32,-62.63 405.6,-69.12 381,-74.31"/>
<polygon fill="#63b8ff" stroke="#63b8ff" points="462.25,-60.73 471.31,-55.24 460.81,-53.88 462.25,-60.73"/>
</a>
</g>
</g>
<!-- Node5 -->
<g id="Node000005" class="node">
<title>Node5</title>
<g id="a_Node000005"><a xlink:href="xdino__win64__main_8cpp.html#afa07de294d5b620ee39644b9661f0665" target="_top" xlink:title=" ">
<polygon fill="white" stroke="#666666" points="403.5,-56.25 268.25,-56.25 268.25,-37 403.5,-37 403.5,-56.25"/>
<text text-anchor="middle" x="335.88" y="-42.75" font-family="Helvetica,sans-Serif" font-size="10.00">XDino_Win64_HandleEvent</text>
</a>
</g>
</g>
<!-- Node2&#45;&gt;Node5 -->
<g id="edge4_Node000002_Node000005" class="edge">
<title>Node2&#45;&gt;Node5</title>
<g id="a_edge4_Node000002_Node000005"><a xlink:title=" ">
<path fill="none" stroke="#63b8ff" d="M461.42,-46.62C443.48,-46.62 423.03,-46.62 403.95,-46.62"/>
<polygon fill="#63b8ff" stroke="#63b8ff" points="461.28,-50.13 471.28,-46.63 461.28,-43.13 461.28,-50.13"/>
</a>
</g>
</g>
<!-- Node4 -->
<g id="Node000004" class="node">
<title>Node4</title>
<g id="a_Node000004"><a xlink:href="xdino__linux__main_8cpp.html#a4646b314f2ba6df59c9b1805dd568b18" target="_top" xlink:title=" ">
<polygon fill="white" stroke="#666666" points="193.62,-93.25 128.12,-93.25 128.12,-74 193.62,-74 193.62,-93.25"/>
<text text-anchor="middle" x="160.88" y="-79.75" font-family="Helvetica,sans-Serif" font-size="10.00">sokol_main</text>
</a>
</g>
</g>
<!-- Node3&#45;&gt;Node4 -->
<g id="edge3_Node000003_Node000004" class="edge">
<title>Node3&#45;&gt;Node4</title>
<g id="a_edge3_Node000003_Node000004"><a xlink:title=" ">
<path fill="none" stroke="#63b8ff" d="M279.42,-83.62C251.17,-83.62 217.83,-83.62 193.88,-83.62"/>
<polygon fill="#63b8ff" stroke="#63b8ff" points="279.26,-87.13 289.26,-83.63 279.26,-80.13 279.26,-87.13"/>
</a>
</g>
</g>
<!-- Node6 -->
<g id="Node000006" class="node">
<title>Node6</title>
<g id="a_Node000006"><a xlink:href="xdino__win64__main_8cpp.html#a7202590da16f97f4cef692deb9001e27" target="_top" xlink:title=" ">
<polygon fill="white" stroke="#666666" points="232.25,-56.25 89.5,-56.25 89.5,-37 232.25,-37 232.25,-56.25"/>
<text text-anchor="middle" x="160.88" y="-42.75" font-family="Helvetica,sans-Serif" font-size="10.00">XDino_Win64_CreateWindow</text>
</a>
</g>
</g>
<!-- Node5&#45;&gt;Node6 -->
<g id="edge5_Node000005_Node000006" class="edge">
<title>Node5&#45;&gt;Node6</title>
<g id="a_edge5_Node000005_Node000006"><a xlink:title=" ">
<path fill="none" stroke="#63b8ff" d="M256.72,-46.62C248.68,-46.62 240.54,-46.62 232.59,-46.62"/>
<polygon fill="#63b8ff" stroke="#63b8ff" points="256.48,-50.13 266.48,-46.63 256.48,-43.13 256.48,-50.13"/>
</a>
</g>
</g>
<!-- Node7 -->
<g id="Node000007" class="node">
<title>Node7</title>
<g id="a_Node000007"><a xlink:href="xdino__win64__main_8cpp.html#aa0e1ecfaa9e7f124f36e8666a1cb66f9" target="_top" xlink:title=" ">
<polygon fill="white" stroke="#666666" points="53.5,-56.25 0,-56.25 0,-37 53.5,-37 53.5,-56.25"/>
<text text-anchor="middle" x="26.75" y="-42.75" font-family="Helvetica,sans-Serif" font-size="10.00">WinMain</text>
</a>
</g>
</g>
<!-- Node6&#45;&gt;Node7 -->
<g id="edge6_Node000006_Node000007" class="edge">
<title>Node6&#45;&gt;Node7</title>
<g id="a_edge6_Node000006_Node000007"><a xlink:title=" ">
<path fill="none" stroke="#63b8ff" d="M77.73,-46.62C69.16,-46.62 60.98,-46.62 53.8,-46.62"/>
<polygon fill="#63b8ff" stroke="#63b8ff" points="77.66,-50.13 87.66,-46.63 77.66,-43.13 77.66,-50.13"/>
</a>
</g>
</g>
</g>
</svg>
