<?xml version="1.0" encoding="UTF-8" standalone="no"?>
<!DOCTYPE svg PUBLIC "-//W3C//DTD SVG 1.1//EN"
 "http://www.w3.org/Graphics/SVG/1.1/DTD/svg11.dtd">
<!-- Generated by graphviz version 9.0.0 (20230911.1827)
 -->
<!-- Title: xdino.h Pages: 1 -->
<svg width="647pt" height="193pt"
 viewBox="0.00 0.00 646.50 193.00" xmlns="http://www.w3.org/2000/svg" xmlns:xlink="http://www.w3.org/1999/xlink">
<g id="graph0" class="graph" transform="scale(1 1) rotate(0) translate(4 189)">
<title>xdino.h</title>
<!-- Node1 -->
<g id="Node000001" class="node">
<title>Node1</title>
<g id="a_Node000001"><a xlink:title="API d&#39;interaction entre le moteur de jeu &quot;XDino&quot; et la logique de jeu.">
<polygon fill="#999999" stroke="#666666" points="326.75,-185 280.75,-185 280.75,-165.75 326.75,-165.75 326.75,-185"/>
<text text-anchor="middle" x="303.75" y="-171.5" font-family="Helvetica,sans-Serif" font-size="10.00">xdino.h</text>
</a>
</g>
</g>
<!-- Node2 -->
<g id="Node000002" class="node">
<title>Node2</title>
<g id="a_Node000002"><a xlink:href="dino__draw__utils_8cpp.html" target="_top" xlink:title=" ">
<polygon fill="white" stroke="#666666" points="101.5,-74.5 0,-74.5 0,-55.25 101.5,-55.25 101.5,-74.5"/>
<text text-anchor="middle" x="50.75" y="-61" font-family="Helvetica,sans-Serif" font-size="10.00">dino_draw_utils.cpp</text>
</a>
</g>
</g>
<!-- Node1&#45;&gt;Node2 -->
<g id="edge1_Node000001_Node000002" class="edge">
<title>Node1&#45;&gt;Node2</title>
<g id="a_edge1_Node000001_Node000002"><a xlink:title=" ">
<path fill="none" stroke="#63b8ff" d="M269.22,-169.33C234.05,-163.28 178.61,-151.16 134.75,-129.75 104.46,-114.96 74.32,-88.43 59.76,-74.68"/>
<polygon fill="#63b8ff" stroke="#63b8ff" points="268.4,-172.75 278.83,-170.91 269.53,-165.84 268.4,-172.75"/>
</a>
</g>
</g>
<!-- Node3 -->
<g id="Node000003" class="node">
<title>Node3</title>
<g id="a_Node000003"><a xlink:href="dino__draw__utils_8h.html" target="_top" xlink:title="Fonctions pour dessiner des primitives de rendu.">
<polygon fill="white" stroke="#666666" points="244.25,-129.75 153.25,-129.75 153.25,-110.5 244.25,-110.5 244.25,-129.75"/>
<text text-anchor="middle" x="198.75" y="-116.25" font-family="Helvetica,sans-Serif" font-size="10.00">dino_draw_utils.h</text>
</a>
</g>
</g>
<!-- Node1&#45;&gt;Node3 -->
<g id="edge2_Node000001_Node000003" class="edge">
<title>Node1&#45;&gt;Node3</title>
<g id="a_edge2_Node000001_Node000003"><a xlink:title=" ">
<path fill="none" stroke="#63b8ff" d="M275.88,-160.24C257.11,-150.72 232.89,-138.44 216.65,-130.2"/>
<polygon fill="#63b8ff" stroke="#63b8ff" points="274.09,-163.26 284.59,-164.66 277.25,-157.01 274.09,-163.26"/>
</a>
</g>
</g>
<!-- Node4 -->
<g id="Node000004" class="node">
<title>Node4</title>
<g id="a_Node000004"><a xlink:href="dino__game_8cpp.html" target="_top" xlink:title="Implémentation des fonctions principales de la logique de jeu.">
<polygon fill="white" stroke="#666666" points="200.38,-74.5 119.12,-74.5 119.12,-55.25 200.38,-55.25 200.38,-74.5"/>
<text text-anchor="middle" x="159.75" y="-61" font-family="Helvetica,sans-Serif" font-size="10.00">dino_game.cpp</text>
</a>
</g>
</g>
<!-- Node1&#45;&gt;Node4 -->
<g id="edge9_Node000001_Node000004" class="edge">
<title>Node1&#45;&gt;Node4</title>
<g id="a_edge9_Node000001_Node000004"><a xlink:title=" ">
<path fill="none" stroke="#63b8ff" d="M269.11,-169.63C226.77,-163.05 158.85,-149.64 143.75,-129.75 131.17,-113.18 144.56,-87.89 153.36,-74.65"/>
<polygon fill="#63b8ff" stroke="#63b8ff" points="268.41,-173.07 278.82,-171.09 269.45,-166.14 268.41,-173.07"/>
</a>
</g>
</g>
<!-- Node5 -->
<g id="Node000005" class="node">
<title>Node5</title>
<g id="a_Node000005"><a xlink:href="xdino__impl_8h.html" target="_top" xlink:title=" ">
<polygon fill="white" stroke="#666666" points="364.38,-74.5 295.12,-74.5 295.12,-55.25 364.38,-55.25 364.38,-74.5"/>
<text text-anchor="middle" x="329.75" y="-61" font-family="Helvetica,sans-Serif" font-size="10.00">xdino_impl.h</text>
</a>
</g>
</g>
<!-- Node1&#45;&gt;Node5 -->
<g id="edge12_Node000001_Node000005" class="edge">
<title>Node1&#45;&gt;Node5</title>
<g id="a_edge12_Node000001_Node000005"><a xlink:title=" ">
<path fill="none" stroke="#63b8ff" d="M308.55,-154.35C314.23,-130.65 323.44,-92.22 327.59,-74.88"/>
<polygon fill="#63b8ff" stroke="#63b8ff" points="305.16,-153.48 306.23,-164.02 311.96,-155.12 305.16,-153.48"/>
</a>
</g>
</g>
<!-- Node6 -->
<g id="Node000006" class="node">
<title>Node6</title>
<g id="a_Node000006"><a xlink:href="xdino__linux__main_8cpp.html" target="_top" xlink:title=" ">
<polygon fill="white" stroke="#666666" points="320.5,-19.25 213,-19.25 213,0 320.5,0 320.5,-19.25"/>
<text text-anchor="middle" x="266.75" y="-5.75" font-family="Helvetica,sans-Serif" font-size="10.00">xdino_linux_main.cpp</text>
</a>
</g>
</g>
<!-- Node1&#45;&gt;Node6 -->
<g id="edge13_Node000001_Node000006" class="edge">
<title>Node1&#45;&gt;Node6</title>
<g id="a_edge13_Node000001_Node000006"><a xlink:title=" ">
<path fill="none" stroke="#63b8ff" d="M299.3,-154.69C291.24,-119 274.51,-44.96 268.75,-19.47"/>
<polygon fill="#63b8ff" stroke="#63b8ff" points="295.81,-155.11 301.43,-164.09 302.64,-153.57 295.81,-155.11"/>
</a>
</g>
</g>
<!-- Node7 -->
<g id="Node000007" class="node">
<title>Node7</title>
<g id="a_Node000007"><a xlink:href="xdino__win64__rdr_8cpp.html" target="_top" xlink:title="Implémentation du rendu graphique sur Windows.">
<polygon fill="white" stroke="#666666" points="443.62,-19.25 339.88,-19.25 339.88,0 443.62,0 443.62,-19.25"/>
<text text-anchor="middle" x="391.75" y="-5.75" font-family="Helvetica,sans-Serif" font-size="10.00">xdino_win64_rdr.cpp</text>
</a>
</g>
</g>
<!-- Node1&#45;&gt;Node7 -->
<g id="edge15_Node000001_Node000007" class="edge">
<title>Node1&#45;&gt;Node7</title>
<g id="a_edge15_Node000001_Node000007"><a xlink:title=" ">
<path fill="none" stroke="#63b8ff" d="M319,-156.63C334.73,-137.51 358.99,-105.62 373.75,-74.5 382.54,-55.97 387.81,-32.33 390.2,-19.64"/>
<polygon fill="#63b8ff" stroke="#63b8ff" points="316.36,-154.33 312.62,-164.24 321.73,-158.82 316.36,-154.33"/>
</a>
</g>
</g>
<!-- Node8 -->
<g id="Node000008" class="node">
<title>Node8</title>
<g id="a_Node000008"><a xlink:href="dino__geometry_8h.html" target="_top" xlink:title=" ">
<polygon fill="white" stroke="#666666" points="507,-129.75 420.5,-129.75 420.5,-110.5 507,-110.5 507,-129.75"/>
<text text-anchor="middle" x="463.75" y="-116.25" font-family="Helvetica,sans-Serif" font-size="10.00">dino_geometry.h</text>
</a>
</g>
</g>
<!-- Node1&#45;&gt;Node8 -->
<g id="edge10_Node000001_Node000008" class="edge">
<title>Node1&#45;&gt;Node8</title>
<g id="a_edge10_Node000001_Node000008"><a xlink:title=" ">
<path fill="none" stroke="#63b8ff" d="M337.62,-163.1C367.04,-153.31 409.12,-139.31 436.43,-130.22"/>
<polygon fill="#63b8ff" stroke="#63b8ff" points="336.83,-159.68 328.45,-166.15 339.05,-166.32 336.83,-159.68"/>
</a>
</g>
</g>
<!-- Node10 -->
<g id="Node000010" class="node">
<title>Node10</title>
<g id="a_Node000010"><a xlink:href="xdino__win64__main_8cpp.html" target="_top" xlink:title="Implémentation de la fenêtre et des événements sur Windows.">
<polygon fill="white" stroke="#666666" points="638.5,-129.75 525,-129.75 525,-110.5 638.5,-110.5 638.5,-129.75"/>
<text text-anchor="middle" x="581.75" y="-116.25" font-family="Helvetica,sans-Serif" font-size="10.00">xdino_win64_main.cpp</text>
</a>
</g>
</g>
<!-- Node1&#45;&gt;Node10 -->
<g id="edge14_Node000001_Node000010" class="edge">
<title>Node1&#45;&gt;Node10</title>
<g id="a_edge14_Node000001_Node000010"><a xlink:title=" ">
<path fill="none" stroke="#63b8ff" d="M337.99,-167.82C387.31,-158.37 478.53,-140.9 534.31,-130.21"/>
<polygon fill="#63b8ff" stroke="#63b8ff" points="337.62,-164.32 328.46,-169.64 338.94,-171.2 337.62,-164.32"/>
</a>
</g>
</g>
<!-- Node3&#45;&gt;Node2 -->
<g id="edge3_Node000003_Node000002" class="edge">
<title>Node3&#45;&gt;Node2</title>
<g id="a_edge3_Node000003_Node000002"><a xlink:title=" ">
<path fill="none" stroke="#63b8ff" d="M163.11,-106.3C136.2,-96.62 99.94,-83.57 75.98,-74.95"/>
<polygon fill="#63b8ff" stroke="#63b8ff" points="161.63,-109.49 172.22,-109.58 164,-102.9 161.63,-109.49"/>
</a>
</g>
</g>
<!-- Node3&#45;&gt;Node4 -->
<g id="edge4_Node000003_Node000004" class="edge">
<title>Node3&#45;&gt;Node4</title>
<g id="a_edge4_Node000003_Node000004"><a xlink:title=" ">
<path fill="none" stroke="#63b8ff" d="M185.61,-101.19C179.13,-92.34 171.59,-82.04 166.33,-74.86"/>
<polygon fill="#63b8ff" stroke="#63b8ff" points="182.68,-103.11 191.42,-109.11 188.33,-98.98 182.68,-103.11"/>
</a>
</g>
</g>
<!-- Node3&#45;&gt;Node5 -->
<g id="edge5_Node000003_Node000005" class="edge">
<title>Node3&#45;&gt;Node5</title>
<g id="a_edge5_Node000003_Node000005"><a xlink:title=" ">
<path fill="none" stroke="#63b8ff" d="M231.57,-105.78C255.25,-96.16 286.59,-83.42 307.42,-74.95"/>
<polygon fill="#63b8ff" stroke="#63b8ff" points="230.32,-102.51 222.37,-109.52 232.96,-109 230.32,-102.51"/>
</a>
</g>
</g>
<!-- Node3&#45;&gt;Node6 -->
<g id="edge8_Node000003_Node000006" class="edge">
<title>Node3&#45;&gt;Node6</title>
<g id="a_edge8_Node000003_Node000006"><a xlink:title=" ">
<path fill="none" stroke="#63b8ff" d="M210.29,-100.72C225.03,-77.19 249.99,-37.37 261.11,-19.63"/>
<polygon fill="#63b8ff" stroke="#63b8ff" points="207.46,-98.63 205.12,-108.96 213.39,-102.35 207.46,-98.63"/>
</a>
</g>
</g>
<!-- Node5&#45;&gt;Node6 -->
<g id="edge6_Node000005_Node000006" class="edge">
<title>Node5&#45;&gt;Node6</title>
<g id="a_edge6_Node000005_Node000006"><a xlink:title=" ">
<path fill="none" stroke="#63b8ff" d="M310.57,-47.66C299.63,-38.42 286.34,-27.18 277.28,-19.52"/>
<polygon fill="#63b8ff" stroke="#63b8ff" points="308.01,-50.08 317.91,-53.86 312.53,-44.74 308.01,-50.08"/>
</a>
</g>
</g>
<!-- Node5&#45;&gt;Node7 -->
<g id="edge7_Node000005_Node000007" class="edge">
<title>Node5&#45;&gt;Node7</title>
<g id="a_edge7_Node000005_Node000007"><a xlink:title=" ">
<path fill="none" stroke="#63b8ff" d="M348.95,-47.39C359.65,-38.19 372.56,-27.1 381.39,-19.52"/>
<polygon fill="#63b8ff" stroke="#63b8ff" points="346.72,-44.69 341.42,-53.86 351.28,-50 346.72,-44.69"/>
</a>
</g>
</g>
<!-- Node9 -->
<g id="Node000009" class="node">
<title>Node9</title>
<g id="a_Node000009"><a xlink:href="dino__geometry_8cpp.html" target="_top" xlink:title=" ">
<polygon fill="white" stroke="#666666" points="518.25,-74.5 421.25,-74.5 421.25,-55.25 518.25,-55.25 518.25,-74.5"/>
<text text-anchor="middle" x="469.75" y="-61" font-family="Helvetica,sans-Serif" font-size="10.00">dino_geometry.cpp</text>
</a>
</g>
</g>
<!-- Node8&#45;&gt;Node9 -->
<g id="edge11_Node000008_Node000009" class="edge">
<title>Node8&#45;&gt;Node9</title>
<g id="a_edge11_Node000008_Node000009"><a xlink:title=" ">
<path fill="none" stroke="#63b8ff" d="M466,-99.17C466.94,-90.8 467.99,-81.5 468.74,-74.86"/>
<polygon fill="#63b8ff" stroke="#63b8ff" points="462.55,-98.5 464.91,-108.83 469.51,-99.28 462.55,-98.5"/>
</a>
</g>
</g>
</g>
</svg>
