<?xml version="1.0" encoding="UTF-8" standalone="no"?>
<!DOCTYPE svg PUBLIC "-//W3C//DTD SVG 1.1//EN"
 "http://www.w3.org/Graphics/SVG/1.1/DTD/svg11.dtd">
<!-- Generated by graphviz version 9.0.0 (20230911.1827)
 -->
<!-- Title: XDino_GetWindowSize Pages: 1 -->
<svg width="695pt" height="64pt"
 viewBox="0.00 0.00 694.75 64.25" xmlns="http://www.w3.org/2000/svg" xmlns:xlink="http://www.w3.org/1999/xlink">
<g id="graph0" class="graph" transform="scale(1 1) rotate(0) translate(4 60.25)">
<title>XDino_GetWindowSize</title>
<!-- Node1 -->
<g id="Node000001" class="node">
<title>Node1</title>
<g id="a_Node000001"><a xlink:title="Taille de la fenêtre sur l&#39;écran. Attention, différent de la résolution du rendu !">
<polygon fill="#999999" stroke="#666666" points="686.75,-37.25 570.25,-37.25 570.25,-18 686.75,-18 686.75,-37.25"/>
<text text-anchor="middle" x="628.5" y="-23.75" font-family="Helvetica,sans-Serif" font-size="10.00">XDino_GetWindowSize</text>
</a>
</g>
</g>
<!-- Node2 -->
<g id="Node000002" class="node">
<title>Node2</title>
<g id="a_Node000002"><a xlink:href="dino__game_8cpp.html#ac7b7408f18b3729af2f6e7f405f238e7" target="_top" xlink:title="Appelé pour générer chaque frame. Doit lireles entrées de jeu avec XDino_GetGamepad(),...">
<polygon fill="white" stroke="#666666" points="534.25,-56.25 439.5,-56.25 439.5,-37 534.25,-37 534.25,-56.25"/>
<text text-anchor="middle" x="486.88" y="-42.75" font-family="Helvetica,sans-Serif" font-size="10.00">Dino_GameFrame</text>
</a>
</g>
</g>
<!-- Node1&#45;&gt;Node2 -->
<g id="edge1_Node000001_Node000002" class="edge">
<title>Node1&#45;&gt;Node2</title>
<g id="a_edge1_Node000001_Node000002"><a xlink:title=" ">
<path fill="none" stroke="#63b8ff" d="M558.54,-37.01C550.47,-38.11 542.38,-39.21 534.7,-40.25"/>
<polygon fill="#63b8ff" stroke="#63b8ff" points="558.97,-40.48 568.4,-35.67 558.02,-33.55 558.97,-40.48"/>
</a>
</g>
</g>
<!-- Node6 -->
<g id="Node000006" class="node">
<title>Node6</title>
<g id="a_Node000006"><a xlink:href="dino__game_8cpp.html#a34e4cc788612f46dea16beb4b24dd0ab" target="_top" xlink:title="Appelé au tout début, pour initialiser la logique de jeu.">
<polygon fill="white" stroke="#666666" points="527.12,-19.25 446.62,-19.25 446.62,0 527.12,0 527.12,-19.25"/>
<text text-anchor="middle" x="486.88" y="-5.75" font-family="Helvetica,sans-Serif" font-size="10.00">Dino_GameInit</text>
</a>
</g>
</g>
<!-- Node1&#45;&gt;Node6 -->
<g id="edge5_Node000001_Node000006" class="edge">
<title>Node1&#45;&gt;Node6</title>
<g id="a_edge5_Node000001_Node000006"><a xlink:title=" ">
<path fill="none" stroke="#63b8ff" d="M558.77,-18.76C548.03,-17.38 537.25,-15.99 527.46,-14.73"/>
<polygon fill="#63b8ff" stroke="#63b8ff" points="558.04,-22.2 568.4,-20.01 558.93,-15.26 558.04,-22.2"/>
</a>
</g>
</g>
<!-- Node3 -->
<g id="Node000003" class="node">
<title>Node3</title>
<g id="a_Node000003"><a xlink:href="xdino__win64__main_8cpp.html#afa07de294d5b620ee39644b9661f0665" target="_top" xlink:title=" ">
<polygon fill="white" stroke="#666666" points="403.5,-37.25 268.25,-37.25 268.25,-18 403.5,-18 403.5,-37.25"/>
<text text-anchor="middle" x="335.88" y="-23.75" font-family="Helvetica,sans-Serif" font-size="10.00">XDino_Win64_HandleEvent</text>
</a>
</g>
</g>
<!-- Node2&#45;&gt;Node3 -->
<g id="edge2_Node000002_Node000003" class="edge">
<title>Node2&#45;&gt;Node3</title>
<g id="a_edge2_Node000002_Node000003"><a xlink:title=" ">
<path fill="none" stroke="#63b8ff" d="M427.86,-39.23C420.01,-38.23 411.9,-37.19 403.91,-36.17"/>
<polygon fill="#63b8ff" stroke="#63b8ff" points="427.28,-42.68 437.64,-40.47 428.16,-35.74 427.28,-42.68"/>
</a>
</g>
</g>
<!-- Node4 -->
<g id="Node000004" class="node">
<title>Node4</title>
<g id="a_Node000004"><a xlink:href="xdino__win64__main_8cpp.html#a7202590da16f97f4cef692deb9001e27" target="_top" xlink:title=" ">
<polygon fill="white" stroke="#666666" points="232.25,-37.25 89.5,-37.25 89.5,-18 232.25,-18 232.25,-37.25"/>
<text text-anchor="middle" x="160.88" y="-23.75" font-family="Helvetica,sans-Serif" font-size="10.00">XDino_Win64_CreateWindow</text>
</a>
</g>
</g>
<!-- Node3&#45;&gt;Node4 -->
<g id="edge3_Node000003_Node000004" class="edge">
<title>Node3&#45;&gt;Node4</title>
<g id="a_edge3_Node000003_Node000004"><a xlink:title=" ">
<path fill="none" stroke="#63b8ff" d="M256.72,-27.62C248.68,-27.62 240.54,-27.62 232.59,-27.62"/>
<polygon fill="#63b8ff" stroke="#63b8ff" points="256.48,-31.13 266.48,-27.63 256.48,-24.13 256.48,-31.13"/>
</a>
</g>
</g>
<!-- Node5 -->
<g id="Node000005" class="node">
<title>Node5</title>
<g id="a_Node000005"><a xlink:href="xdino__win64__main_8cpp.html#aa0e1ecfaa9e7f124f36e8666a1cb66f9" target="_top" xlink:title=" ">
<polygon fill="white" stroke="#666666" points="53.5,-37.25 0,-37.25 0,-18 53.5,-18 53.5,-37.25"/>
<text text-anchor="middle" x="26.75" y="-23.75" font-family="Helvetica,sans-Serif" font-size="10.00">WinMain</text>
</a>
</g>
</g>
<!-- Node4&#45;&gt;Node5 -->
<g id="edge4_Node000004_Node000005" class="edge">
<title>Node4&#45;&gt;Node5</title>
<g id="a_edge4_Node000004_Node000005"><a xlink:title=" ">
<path fill="none" stroke="#63b8ff" d="M77.73,-27.62C69.16,-27.62 60.98,-27.62 53.8,-27.62"/>
<polygon fill="#63b8ff" stroke="#63b8ff" points="77.66,-31.13 87.66,-27.63 77.66,-24.13 77.66,-31.13"/>
</a>
</g>
</g>
<!-- Node6&#45;&gt;Node3 -->
<g id="edge6_Node000006_Node000003" class="edge">
<title>Node6&#45;&gt;Node3</title>
<g id="a_edge6_Node000006_Node000003"><a xlink:title=" ">
<path fill="none" stroke="#63b8ff" d="M434.96,-15.78C424.99,-16.98 414.38,-18.26 403.97,-19.52"/>
<polygon fill="#63b8ff" stroke="#63b8ff" points="435.33,-19.26 444.83,-14.58 434.49,-12.31 435.33,-19.26"/>
</a>
</g>
</g>
</g>
</svg>
