<?xml version="1.0" encoding="UTF-8" standalone="no"?>
<!DOCTYPE svg PUBLIC "-//W3C//DTD SVG 1.1//EN"
 "http://www.w3.org/Graphics/SVG/1.1/DTD/svg11.dtd">
<!-- Generated by graphviz version 9.0.0 (20230911.1827)
 -->
<!-- Title: XDino_ProfileBegin Pages: 1 -->
<svg width="712pt" height="121pt"
 viewBox="0.00 0.00 712.00 120.52" xmlns="http://www.w3.org/2000/svg" xmlns:xlink="http://www.w3.org/1999/xlink">
<g id="graph0" class="graph" transform="scale(1 1) rotate(0) translate(4 116.52)">
<title>XDino_ProfileBegin</title>
<!-- Node1 -->
<g id="Node000001" class="node">
<title>Node1</title>
<g id="a_Node000001"><a xlink:title="Commence un intervalle de profiling visible sur PIX. Les intervalles de profiling peuvent être l&#39;un d...">
<polygon fill="#999999" stroke="#666666" points="704,-56.52 604.75,-56.52 604.75,-37.27 704,-37.27 704,-56.52"/>
<text text-anchor="middle" x="654.38" y="-43.02" font-family="Helvetica,sans-Serif" font-size="10.00">XDino_ProfileBegin</text>
</a>
</g>
</g>
<!-- Node2 -->
<g id="Node000002" class="node">
<title>Node2</title>
<g id="a_Node000002"><a xlink:href="xdino__win64__rdr_8cpp.html#ad7cc0200df4ae9dc2f3445ce0c5bb02c" target="_top" xlink:title="Copie une liste de sommets de triangles texturés sur la carte graphique. Retourne l&#39;identifiant uniqu...">
<polygon fill="white" stroke="#666666" points="568.75,-112.52 439.5,-112.52 439.5,-93.27 568.75,-93.27 568.75,-112.52"/>
<text text-anchor="middle" x="504.12" y="-99.02" font-family="Helvetica,sans-Serif" font-size="10.00">XDino_CreateVertexBuffer</text>
</a>
</g>
</g>
<!-- Node1&#45;&gt;Node2 -->
<g id="edge1_Node000001_Node000002" class="edge">
<title>Node1&#45;&gt;Node2</title>
<g id="a_edge1_Node000001_Node000002"><a xlink:title=" ">
<path fill="none" stroke="#63b8ff" d="M622.9,-61.88C606.99,-69.37 587.07,-78.23 568.75,-84.89 560.87,-87.76 552.32,-90.45 544.11,-92.84"/>
<polygon fill="#63b8ff" stroke="#63b8ff" points="624.32,-65.08 631.83,-57.61 621.3,-58.76 624.32,-65.08"/>
</a>
</g>
</g>
<!-- Node3 -->
<g id="Node000003" class="node">
<title>Node3</title>
<g id="a_Node000003"><a xlink:href="xdino__win64__rdr_8cpp.html#a7d5347b96a8386cfa0d2ee33abaf36bb" target="_top" xlink:title="Transfère les triangles à dessiner à la carte graphique.">
<polygon fill="white" stroke="#666666" points="539.12,-75.52 469.12,-75.52 469.12,-56.27 539.12,-56.27 539.12,-75.52"/>
<text text-anchor="middle" x="504.12" y="-62.02" font-family="Helvetica,sans-Serif" font-size="10.00">XDino_Draw</text>
</a>
</g>
</g>
<!-- Node1&#45;&gt;Node3 -->
<g id="edge2_Node000001_Node000003" class="edge">
<title>Node1&#45;&gt;Node3</title>
<g id="a_edge2_Node000001_Node000003"><a xlink:title=" ">
<path fill="none" stroke="#63b8ff" d="M593.23,-54.6C574.94,-56.94 555.47,-59.44 539.49,-61.49"/>
<polygon fill="#63b8ff" stroke="#63b8ff" points="593.45,-58.1 602.92,-53.36 592.56,-51.16 593.45,-58.1"/>
</a>
</g>
</g>
<!-- Node4 -->
<g id="Node000004" class="node">
<title>Node4</title>
<g id="a_Node000004"><a xlink:href="xdino__win64__rdr_8cpp.html#ad13ae3c31e66f2cdf34b75465d4bac17" target="_top" xlink:title="Spécifique à la plateforme. Finit la passe de rendu et envoit le travail à la carte graphique.">
<polygon fill="white" stroke="#666666" points="563.5,-38.52 444.75,-38.52 444.75,-19.27 563.5,-19.27 563.5,-38.52"/>
<text text-anchor="middle" x="504.12" y="-25.02" font-family="Helvetica,sans-Serif" font-size="10.00">XDino_Win64_EndDraw</text>
</a>
</g>
</g>
<!-- Node1&#45;&gt;Node4 -->
<g id="edge3_Node000001_Node000004" class="edge">
<title>Node1&#45;&gt;Node4</title>
<g id="a_edge3_Node000001_Node000004"><a xlink:title=" ">
<path fill="none" stroke="#63b8ff" d="M593.23,-39.59C583.53,-38.41 573.49,-37.19 563.83,-36.02"/>
<polygon fill="#63b8ff" stroke="#63b8ff" points="592.57,-43.03 602.92,-40.76 593.41,-36.08 592.57,-43.03"/>
</a>
</g>
</g>
<!-- Node5 -->
<g id="Node000005" class="node">
<title>Node5</title>
<g id="a_Node000005"><a xlink:href="xdino__win64__main_8cpp.html#afa07de294d5b620ee39644b9661f0665" target="_top" xlink:title=" ">
<polygon fill="white" stroke="#666666" points="403.5,-19.52 268.25,-19.52 268.25,-0.27 403.5,-0.27 403.5,-19.52"/>
<text text-anchor="middle" x="335.88" y="-6.02" font-family="Helvetica,sans-Serif" font-size="10.00">XDino_Win64_HandleEvent</text>
</a>
</g>
</g>
<!-- Node1&#45;&gt;Node5 -->
<g id="edge7_Node000001_Node000005" class="edge">
<title>Node1&#45;&gt;Node5</title>
<g id="a_edge7_Node000001_Node000005"><a xlink:title=" ">
<path fill="none" stroke="#63b8ff" d="M626.43,-31.69C610.26,-23.45 588.96,-14.12 568.75,-9.89 514.08,1.54 450.55,0.58 403.83,-2.7"/>
<polygon fill="#63b8ff" stroke="#63b8ff" points="624.44,-34.6 634.91,-36.17 627.71,-28.41 624.44,-34.6"/>
</a>
</g>
</g>
<!-- Node4&#45;&gt;Node5 -->
<g id="edge4_Node000004_Node000005" class="edge">
<title>Node4&#45;&gt;Node5</title>
<g id="a_edge4_Node000004_Node000005"><a xlink:title=" ">
<path fill="none" stroke="#63b8ff" d="M433.21,-20.9C423.45,-19.79 413.45,-18.64 403.76,-17.53"/>
<polygon fill="#63b8ff" stroke="#63b8ff" points="432.67,-24.36 443.01,-22.02 433.47,-17.41 432.67,-24.36"/>
</a>
</g>
</g>
<!-- Node6 -->
<g id="Node000006" class="node">
<title>Node6</title>
<g id="a_Node000006"><a xlink:href="xdino__win64__main_8cpp.html#a7202590da16f97f4cef692deb9001e27" target="_top" xlink:title=" ">
<polygon fill="white" stroke="#666666" points="232.25,-19.52 89.5,-19.52 89.5,-0.27 232.25,-0.27 232.25,-19.52"/>
<text text-anchor="middle" x="160.88" y="-6.02" font-family="Helvetica,sans-Serif" font-size="10.00">XDino_Win64_CreateWindow</text>
</a>
</g>
</g>
<!-- Node5&#45;&gt;Node6 -->
<g id="edge5_Node000005_Node000006" class="edge">
<title>Node5&#45;&gt;Node6</title>
<g id="a_edge5_Node000005_Node000006"><a xlink:title=" ">
<path fill="none" stroke="#63b8ff" d="M256.72,-9.89C248.68,-9.89 240.54,-9.89 232.59,-9.89"/>
<polygon fill="#63b8ff" stroke="#63b8ff" points="256.48,-13.39 266.48,-9.89 256.48,-6.39 256.48,-13.39"/>
</a>
</g>
</g>
<!-- Node7 -->
<g id="Node000007" class="node">
<title>Node7</title>
<g id="a_Node000007"><a xlink:href="xdino__win64__main_8cpp.html#aa0e1ecfaa9e7f124f36e8666a1cb66f9" target="_top" xlink:title=" ">
<polygon fill="white" stroke="#666666" points="53.5,-19.52 0,-19.52 0,-0.27 53.5,-0.27 53.5,-19.52"/>
<text text-anchor="middle" x="26.75" y="-6.02" font-family="Helvetica,sans-Serif" font-size="10.00">WinMain</text>
</a>
</g>
</g>
<!-- Node6&#45;&gt;Node7 -->
<g id="edge6_Node000006_Node000007" class="edge">
<title>Node6&#45;&gt;Node7</title>
<g id="a_edge6_Node000006_Node000007"><a xlink:title=" ">
<path fill="none" stroke="#63b8ff" d="M77.73,-9.89C69.16,-9.89 60.98,-9.89 53.8,-9.89"/>
<polygon fill="#63b8ff" stroke="#63b8ff" points="77.66,-13.39 87.66,-9.89 77.66,-6.39 77.66,-13.39"/>
</a>
</g>
</g>
</g>
</svg>
