<?xml version="1.0" encoding="UTF-8" standalone="no"?>
<!DOCTYPE svg PUBLIC "-//W3C//DTD SVG 1.1//EN"
 "http://www.w3.org/Graphics/SVG/1.1/DTD/svg11.dtd">
<!-- Generated by graphviz version 9.0.0 (20230911.1827)
 -->
<!-- Title: XDino_Win64_EndDraw Pages: 1 -->
<svg width="507pt" height="230pt"
 viewBox="0.00 0.00 506.75 230.25" xmlns="http://www.w3.org/2000/svg" xmlns:xlink="http://www.w3.org/1999/xlink">
<g id="graph0" class="graph" transform="scale(1 1) rotate(0) translate(4 226.25)">
<title>XDino_Win64_EndDraw</title>
<!-- Node1 -->
<g id="Node000001" class="node">
<title>Node1</title>
<g id="a_Node000001"><a xlink:title="Spécifique à la plateforme. Finit la passe de rendu et envoit le travail à la carte graphique.">
<polygon fill="#999999" stroke="#666666" points="118.75,-148.25 0,-148.25 0,-129 118.75,-129 118.75,-148.25"/>
<text text-anchor="middle" x="59.38" y="-134.75" font-family="Helvetica,sans-Serif" font-size="10.00">XDino_Win64_EndDraw</text>
</a>
</g>
</g>
<!-- Node2 -->
<g id="Node000002" class="node">
<title>Node2</title>
<g id="a_Node000002"><a xlink:href="xdino__win64__main_8cpp.html#ab579fc5249712eea9dab54bbad4808f0" target="_top" xlink:title="Commence un intervalle de profiling visible sur PIX. Les intervalles de profiling peuvent être l&#39;un d...">
<polygon fill="white" stroke="#666666" points="291.5,-222.25 192.25,-222.25 192.25,-203 291.5,-203 291.5,-222.25"/>
<text text-anchor="middle" x="241.88" y="-208.75" font-family="Helvetica,sans-Serif" font-size="10.00">XDino_ProfileBegin</text>
</a>
</g>
</g>
<!-- Node1&#45;&gt;Node2 -->
<g id="edge1_Node000001_Node000002" class="edge">
<title>Node1&#45;&gt;Node2</title>
<g id="a_edge1_Node000001_Node000002"><a xlink:title=" ">
<path fill="none" stroke="#63b8ff" d="M74.02,-148.7C91.73,-161.31 124.03,-182.68 154.75,-194.62 162.96,-197.82 171.84,-200.48 180.67,-202.7"/>
<polygon fill="#63b8ff" stroke="#63b8ff" points="179.77,-206.08 190.3,-204.93 181.35,-199.26 179.77,-206.08"/>
</a>
</g>
</g>
<!-- Node3 -->
<g id="Node000003" class="node">
<title>Node3</title>
<g id="a_Node000003"><a xlink:href="xdino__win64__main_8cpp.html#a847ecb99f82286c5ba044e4e50d6ca2c" target="_top" xlink:title="Finit un intervalle de profiling.">
<polygon fill="white" stroke="#666666" points="287.38,-185.25 196.38,-185.25 196.38,-166 287.38,-166 287.38,-185.25"/>
<text text-anchor="middle" x="241.88" y="-171.75" font-family="Helvetica,sans-Serif" font-size="10.00">XDino_ProfileEnd</text>
</a>
</g>
</g>
<!-- Node1&#45;&gt;Node3 -->
<g id="edge2_Node000001_Node000003" class="edge">
<title>Node1&#45;&gt;Node3</title>
<g id="a_edge2_Node000001_Node000003"><a xlink:title=" ">
<path fill="none" stroke="#63b8ff" d="M109.7,-148.74C132.95,-153.5 160.79,-159.21 184.83,-164.14"/>
<polygon fill="#63b8ff" stroke="#63b8ff" points="183.96,-167.53 194.46,-166.11 185.36,-160.67 183.96,-167.53"/>
</a>
</g>
</g>
<!-- Node4 -->
<g id="Node000004" class="node">
<title>Node4</title>
<g id="a_Node000004"><a xlink:href="xdino__win64__rdr_8cpp.html#a9b6c6fcbcefafee47511b2494be31bc5" target="_top" xlink:title=" ">
<polygon fill="white" stroke="#666666" points="322.62,-148.25 161.12,-148.25 161.12,-129 322.62,-129 322.62,-148.25"/>
<text text-anchor="middle" x="241.88" y="-134.75" font-family="Helvetica,sans-Serif" font-size="10.00">XDino_Win64_CollectRessources</text>
</a>
</g>
</g>
<!-- Node1&#45;&gt;Node4 -->
<g id="edge3_Node000001_Node000004" class="edge">
<title>Node1&#45;&gt;Node4</title>
<g id="a_edge3_Node000001_Node000004"><a xlink:title=" ">
<path fill="none" stroke="#63b8ff" d="M118.98,-138.62C128.81,-138.62 139.21,-138.62 149.62,-138.62"/>
<polygon fill="#63b8ff" stroke="#63b8ff" points="149.4,-142.13 159.4,-138.63 149.4,-135.13 149.4,-142.13"/>
</a>
</g>
</g>
<!-- Node5 -->
<g id="Node000005" class="node">
<title>Node5</title>
<g id="a_Node000005"><a xlink:href="xdino__win64__rdr_8cpp.html#aee77bfe8f28763649ad0fb85717cbddf" target="_top" xlink:title=" ">
<polygon fill="white" stroke="#666666" points="329,-111.25 154.75,-111.25 154.75,-92 329,-92 329,-111.25"/>
<text text-anchor="middle" x="241.88" y="-97.75" font-family="Helvetica,sans-Serif" font-size="10.00">XDino_Win64_PurgeDeadResources</text>
</a>
</g>
</g>
<!-- Node1&#45;&gt;Node5 -->
<g id="edge4_Node000001_Node000005" class="edge">
<title>Node1&#45;&gt;Node5</title>
<g id="a_edge4_Node000001_Node000005"><a xlink:title=" ">
<path fill="none" stroke="#63b8ff" d="M109.7,-128.51C131.58,-124.03 157.55,-118.71 180.57,-113.99"/>
<polygon fill="#63b8ff" stroke="#63b8ff" points="181.04,-117.46 190.13,-112.03 179.63,-110.61 181.04,-117.46"/>
</a>
</g>
</g>
<!-- Node6 -->
<g id="Node000006" class="node">
<title>Node6</title>
<g id="a_Node000006"><a xlink:href="xdino__impl_8h.html#afb7598b07900a9b7f46de9fae53de8a0" target="_top" xlink:title="Trucs communs entre les différentes implémentations de l&#39;API XDino. En général, cela concerne le debu...">
<polygon fill="white" stroke="#666666" points="297.88,-74.25 185.88,-74.25 185.88,-55 297.88,-55 297.88,-74.25"/>
<text text-anchor="middle" x="241.88" y="-60.75" font-family="Helvetica,sans-Serif" font-size="10.00">XDinoImpl_DrawStats</text>
</a>
</g>
</g>
<!-- Node1&#45;&gt;Node6 -->
<g id="edge5_Node000001_Node000006" class="edge">
<title>Node1&#45;&gt;Node6</title>
<g id="a_edge5_Node000001_Node000006"><a xlink:title=" ">
<path fill="none" stroke="#63b8ff" d="M74.02,-128.55C91.73,-115.94 124.03,-94.57 154.75,-82.62 161.1,-80.16 167.86,-78 174.68,-76.12"/>
<polygon fill="#63b8ff" stroke="#63b8ff" points="175.12,-79.62 183.95,-73.77 173.39,-72.84 175.12,-79.62"/>
</a>
</g>
</g>
<!-- Node7 -->
<g id="Node000007" class="node">
<title>Node7</title>
<g id="a_Node000007"><a xlink:href="dino__draw__utils_8cpp.html#a9473461ff91938cb3c388c767b78f785" target="_top" xlink:title="Produit un dessin contenant du texte, avec éventuellement une couleur de fond. Les sommets doivent êt...">
<polygon fill="white" stroke="#666666" points="491.25,-130.25 372.5,-130.25 372.5,-111 491.25,-111 491.25,-130.25"/>
<text text-anchor="middle" x="431.88" y="-116.75" font-family="Helvetica,sans-Serif" font-size="10.00">Dino_GenVertices_Text</text>
</a>
</g>
</g>
<!-- Node6&#45;&gt;Node7 -->
<g id="edge6_Node000006_Node000007" class="edge">
<title>Node6&#45;&gt;Node7</title>
<g id="a_edge6_Node000006_Node000007"><a xlink:title=" ">
<path fill="none" stroke="#63b8ff" d="M298.25,-73.62C308.63,-76.03 319.27,-79 329,-82.62 346.15,-89.01 348.05,-95.72 365,-102.62 369.02,-104.26 373.24,-105.8 377.52,-107.24"/>
<polygon fill="#63b8ff" stroke="#63b8ff" points="376.17,-110.48 386.76,-110.13 378.26,-103.8 376.17,-110.48"/>
</a>
</g>
</g>
<!-- Node8 -->
<g id="Node000008" class="node">
<title>Node8</title>
<g id="a_Node000008"><a xlink:href="xdino__linux__main_8cpp.html#ad7cc0200df4ae9dc2f3445ce0c5bb02c" target="_top" xlink:title="Copie une liste de sommets de triangles texturés sur la carte graphique. Retourne l&#39;identifiant uniqu...">
<polygon fill="white" stroke="#666666" points="496.5,-93.25 367.25,-93.25 367.25,-74 496.5,-74 496.5,-93.25"/>
<text text-anchor="middle" x="431.88" y="-79.75" font-family="Helvetica,sans-Serif" font-size="10.00">XDino_CreateVertexBuffer</text>
</a>
</g>
</g>
<!-- Node6&#45;&gt;Node8 -->
<g id="edge7_Node000006_Node000008" class="edge">
<title>Node6&#45;&gt;Node8</title>
<g id="a_edge7_Node000006_Node000008"><a xlink:title=" ">
<path fill="none" stroke="#63b8ff" d="M298.26,-70.22C316.2,-72.04 336.4,-74.08 355.53,-76.01"/>
<polygon fill="#63b8ff" stroke="#63b8ff" points="355.15,-79.49 365.45,-77.01 355.85,-72.53 355.15,-79.49"/>
</a>
</g>
</g>
<!-- Node9 -->
<g id="Node000009" class="node">
<title>Node9</title>
<g id="a_Node000009"><a xlink:href="xdino__linux__main_8cpp.html#a641cf6ebd62e0ffbcf34a364bb9bf03b" target="_top" xlink:title="Décharge la liste de sommets identifiée par &#39;vbufID&#39; de la carte graphique.">
<polygon fill="white" stroke="#666666" points="498.75,-56.25 365,-56.25 365,-37 498.75,-37 498.75,-56.25"/>
<text text-anchor="middle" x="431.88" y="-42.75" font-family="Helvetica,sans-Serif" font-size="10.00">XDino_DestroyVertexBuffer</text>
</a>
</g>
</g>
<!-- Node6&#45;&gt;Node9 -->
<g id="edge8_Node000006_Node000009" class="edge">
<title>Node6&#45;&gt;Node9</title>
<g id="a_edge8_Node000006_Node000009"><a xlink:title=" ">
<path fill="none" stroke="#63b8ff" d="M298.26,-59.32C315.49,-57.67 334.8,-55.82 353.25,-54.06"/>
<polygon fill="#63b8ff" stroke="#63b8ff" points="353.47,-57.55 363.09,-53.12 352.8,-50.58 353.47,-57.55"/>
</a>
</g>
</g>
<!-- Node10 -->
<g id="Node000010" class="node">
<title>Node10</title>
<g id="a_Node000010"><a xlink:href="xdino__linux__main_8cpp.html#a7d5347b96a8386cfa0d2ee33abaf36bb" target="_top" xlink:title="Transfère les triangles à dessiner à la carte graphique.">
<polygon fill="white" stroke="#666666" points="466.88,-19.25 396.88,-19.25 396.88,0 466.88,0 466.88,-19.25"/>
<text text-anchor="middle" x="431.88" y="-5.75" font-family="Helvetica,sans-Serif" font-size="10.00">XDino_Draw</text>
</a>
</g>
</g>
<!-- Node6&#45;&gt;Node10 -->
<g id="edge9_Node000006_Node000010" class="edge">
<title>Node6&#45;&gt;Node10</title>
<g id="a_edge9_Node000006_Node000010"><a xlink:title=" ">
<path fill="none" stroke="#63b8ff" d="M275.2,-54.57C299.78,-46.98 334.45,-36.42 365,-27.62 371.73,-25.69 378.86,-23.68 385.85,-21.75"/>
<polygon fill="#63b8ff" stroke="#63b8ff" points="386.46,-25.21 395.18,-19.19 384.61,-18.46 386.46,-25.21"/>
</a>
</g>
</g>
</g>
</svg>
