<?xml version="1.0" encoding="UTF-8" standalone="no"?>
<!DOCTYPE svg PUBLIC "-//W3C//DTD SVG 1.1//EN"
 "http://www.w3.org/Graphics/SVG/1.1/DTD/svg11.dtd">
<!-- Generated by graphviz version 9.0.0 (20230911.1827)
 -->
<!-- Title: XDino_Win64_CollectRessources Pages: 1 -->
<svg width="780pt" height="65pt"
 viewBox="0.00 0.00 780.25 65.25" xmlns="http://www.w3.org/2000/svg" xmlns:xlink="http://www.w3.org/1999/xlink">
<g id="graph0" class="graph" transform="scale(1 1) rotate(0) translate(4 61.25)">
<title>XDino_Win64_CollectRessources</title>
<!-- Node1 -->
<g id="Node000001" class="node">
<title>Node1</title>
<g id="a_Node000001"><a xlink:title=" ">
<polygon fill="#999999" stroke="#666666" points="772.25,-38.25 610.75,-38.25 610.75,-19 772.25,-19 772.25,-38.25"/>
<text text-anchor="middle" x="691.5" y="-24.75" font-family="Helvetica,sans-Serif" font-size="10.00">XDino_Win64_CollectRessources</text>
</a>
</g>
</g>
<!-- Node2 -->
<g id="Node000002" class="node">
<title>Node2</title>
<g id="a_Node000002"><a xlink:href="xdino__win64__rdr_8cpp.html#a1114a89a9aca94743092c9e78a348e53" target="_top" xlink:title="Spécifique à la plateforme. Libère les ressources associées au rendu.">
<polygon fill="white" stroke="#666666" points="420,-57.25 268.25,-57.25 268.25,-38 420,-38 420,-57.25"/>
<text text-anchor="middle" x="344.12" y="-43.75" font-family="Helvetica,sans-Serif" font-size="10.00">XDino_Win64_DestroyRenderer</text>
</a>
</g>
</g>
<!-- Node1&#45;&gt;Node2 -->
<g id="edge1_Node000001_Node000002" class="edge">
<title>Node1&#45;&gt;Node2</title>
<g id="a_edge1_Node000001_Node000002"><a xlink:title=" ">
<path fill="none" stroke="#63b8ff" d="M599.09,-33.65C543.32,-36.72 472.89,-40.6 420.36,-43.49"/>
<polygon fill="#63b8ff" stroke="#63b8ff" points="599.09,-37.16 608.88,-33.11 598.71,-30.17 599.09,-37.16"/>
</a>
</g>
</g>
<!-- Node4 -->
<g id="Node000004" class="node">
<title>Node4</title>
<g id="a_Node000004"><a xlink:href="xdino__win64__rdr_8cpp.html#ad13ae3c31e66f2cdf34b75465d4bac17" target="_top" xlink:title="Spécifique à la plateforme. Finit la passe de rendu et envoit le travail à la carte graphique.">
<polygon fill="white" stroke="#666666" points="574.75,-19.25 456,-19.25 456,0 574.75,0 574.75,-19.25"/>
<text text-anchor="middle" x="515.38" y="-5.75" font-family="Helvetica,sans-Serif" font-size="10.00">XDino_Win64_EndDraw</text>
</a>
</g>
</g>
<!-- Node1&#45;&gt;Node4 -->
<g id="edge3_Node000001_Node000004" class="edge">
<title>Node1&#45;&gt;Node4</title>
<g id="a_edge3_Node000001_Node000004"><a xlink:title=" ">
<path fill="none" stroke="#63b8ff" d="M598.89,-18.63C590.81,-17.75 582.78,-16.87 575.08,-16.03"/>
<polygon fill="#63b8ff" stroke="#63b8ff" points="598.49,-22.11 608.81,-19.71 599.25,-15.15 598.49,-22.11"/>
</a>
</g>
</g>
<!-- Node3 -->
<g id="Node000003" class="node">
<title>Node3</title>
<g id="a_Node000003"><a xlink:href="xdino__win64__main_8cpp.html#aa0e1ecfaa9e7f124f36e8666a1cb66f9" target="_top" xlink:title=" ">
<polygon fill="white" stroke="#666666" points="53.5,-38.25 0,-38.25 0,-19 53.5,-19 53.5,-38.25"/>
<text text-anchor="middle" x="26.75" y="-24.75" font-family="Helvetica,sans-Serif" font-size="10.00">WinMain</text>
</a>
</g>
</g>
<!-- Node2&#45;&gt;Node3 -->
<g id="edge2_Node000002_Node000003" class="edge">
<title>Node2&#45;&gt;Node3</title>
<g id="a_edge2_Node000002_Node000003"><a xlink:title=" ">
<path fill="none" stroke="#63b8ff" d="M256.83,-42.43C188.7,-38.32 98.02,-32.86 53.98,-30.21"/>
<polygon fill="#63b8ff" stroke="#63b8ff" points="256.28,-45.9 266.47,-43.01 256.7,-38.91 256.28,-45.9"/>
</a>
</g>
</g>
<!-- Node5 -->
<g id="Node000005" class="node">
<title>Node5</title>
<g id="a_Node000005"><a xlink:href="xdino__win64__main_8cpp.html#afa07de294d5b620ee39644b9661f0665" target="_top" xlink:title=" ">
<polygon fill="white" stroke="#666666" points="411.75,-19.25 276.5,-19.25 276.5,0 411.75,0 411.75,-19.25"/>
<text text-anchor="middle" x="344.12" y="-5.75" font-family="Helvetica,sans-Serif" font-size="10.00">XDino_Win64_HandleEvent</text>
</a>
</g>
</g>
<!-- Node4&#45;&gt;Node5 -->
<g id="edge4_Node000004_Node000005" class="edge">
<title>Node4&#45;&gt;Node5</title>
<g id="a_edge4_Node000004_Node000005"><a xlink:title=" ">
<path fill="none" stroke="#63b8ff" d="M444.28,-9.62C433.65,-9.62 422.71,-9.62 412.15,-9.62"/>
<polygon fill="#63b8ff" stroke="#63b8ff" points="444.14,-13.13 454.14,-9.63 444.14,-6.13 444.14,-13.13"/>
</a>
</g>
</g>
<!-- Node6 -->
<g id="Node000006" class="node">
<title>Node6</title>
<g id="a_Node000006"><a xlink:href="xdino__win64__main_8cpp.html#a7202590da16f97f4cef692deb9001e27" target="_top" xlink:title=" ">
<polygon fill="white" stroke="#666666" points="232.25,-19.25 89.5,-19.25 89.5,0 232.25,0 232.25,-19.25"/>
<text text-anchor="middle" x="160.88" y="-5.75" font-family="Helvetica,sans-Serif" font-size="10.00">XDino_Win64_CreateWindow</text>
</a>
</g>
</g>
<!-- Node5&#45;&gt;Node6 -->
<g id="edge5_Node000005_Node000006" class="edge">
<title>Node5&#45;&gt;Node6</title>
<g id="a_edge5_Node000005_Node000006"><a xlink:title=" ">
<path fill="none" stroke="#63b8ff" d="M264.67,-9.62C253.98,-9.62 243.06,-9.62 232.53,-9.62"/>
<polygon fill="#63b8ff" stroke="#63b8ff" points="264.64,-13.13 274.64,-9.63 264.64,-6.13 264.64,-13.13"/>
</a>
</g>
</g>
<!-- Node6&#45;&gt;Node3 -->
<g id="edge6_Node000006_Node000003" class="edge">
<title>Node6&#45;&gt;Node3</title>
<g id="a_edge6_Node000006_Node000003"><a xlink:title=" ">
<path fill="none" stroke="#63b8ff" d="M78.36,-21.35C69.63,-22.6 61.29,-23.8 53.99,-24.85"/>
<polygon fill="#63b8ff" stroke="#63b8ff" points="78.66,-24.84 88.06,-19.95 77.66,-17.91 78.66,-24.84"/>
</a>
</g>
</g>
</g>
</svg>
