<?xml version="1.0" encoding="UTF-8" standalone="no"?>
<!DOCTYPE svg PUBLIC "-//W3C//DTD SVG 1.1//EN"
 "http://www.w3.org/Graphics/SVG/1.1/DTD/svg11.dtd">
<!-- Generated by graphviz version 9.0.0 (20230911.1827)
 -->
<!-- Title: XDino_Win64_DestroyRenderer Pages: 1 -->
<svg width="370pt" height="138pt"
 viewBox="0.00 0.00 370.00 138.25" xmlns="http://www.w3.org/2000/svg" xmlns:xlink="http://www.w3.org/1999/xlink">

<svg id="main" version="1.1" xmlns="http://www.w3.org/2000/svg" xmlns:xlink="http://www.w3.org/1999/xlink" xml:space="preserve" onload="init(evt)">
<style type="text/css"><![CDATA[
.node, .edge {opacity: 0.7;}
.node.selected, .edge.selected {opacity: 1;}
.edge:hover path { stroke: red; }
.edge:hover polygon { stroke: red; fill: red; }
]]></style>
<script type="application/ecmascript" xlink:href="svg.min.js"/>
<svg id="graph" class="graph">
<g id="graph0" class="graph" transform="scale(1 1) rotate(0) translate(4 134.25)">
<title>XDino_Win64_DestroyRenderer</title>
<!-- Node1 -->
<g id="Node000001" class="node">
<title>Node1</title>
<g id="a_Node000001"><a xlink:title="Spécifique à la plateforme. Libère les ressources associées au rendu.">
<polygon fill="#999999" stroke="#666666" points="151.75,-74.25 0,-74.25 0,-55 151.75,-55 151.75,-74.25"/>
<text text-anchor="middle" x="75.88" y="-60.75" font-family="Helvetica,sans-Serif" font-size="10.00">XDino_Win64_DestroyRenderer</text>
</a>
</g>
</g>
<!-- Node2 -->
<g id="Node000002" class="node">
<title>Node2</title>
<g id="a_Node000002"><a xlink:href="xdino__win64__rdr_8cpp.html#aea37196dc8b2efde10a58c7befd954b0" target="_top" xlink:title="Décharge la texture identifiée par &#39;texID&#39; de la carte graphique.">
<polygon fill="white" stroke="#666666" points="340.25,-130.25 209.5,-130.25 209.5,-111 340.25,-111 340.25,-130.25"/>
<text text-anchor="middle" x="274.88" y="-116.75" font-family="Helvetica,sans-Serif" font-size="10.00">XDino_DestroyGpuTexture</text>
</a>
</g>
</g>
<!-- Node1&#45;&gt;Node2 -->
<g id="edge1_Node000001_Node000002" class="edge">
<title>Node1&#45;&gt;Node2</title>
<g id="a_edge1_Node000001_Node000002"><a xlink:title=" ">
<path fill="none" stroke="#63b8ff" d="M103.02,-74.62C125.31,-82.88 158.32,-94.54 187.75,-102.62 194.69,-104.53 202,-106.35 209.3,-108.04"/>
<polygon fill="#63b8ff" stroke="#63b8ff" points="208.33,-111.41 218.86,-110.18 209.86,-104.58 208.33,-111.41"/>
</a>
</g>
</g>
<!-- Node3 -->
<g id="Node000003" class="node">
<title>Node3</title>
<g id="a_Node000003"><a xlink:href="xdino__win64__rdr_8cpp.html#a641cf6ebd62e0ffbcf34a364bb9bf03b" target="_top" xlink:title="Décharge la liste de sommets identifiée par &#39;vbufID&#39; de la carte graphique.">
<polygon fill="white" stroke="#666666" points="341.75,-93.25 208,-93.25 208,-74 341.75,-74 341.75,-93.25"/>
<text text-anchor="middle" x="274.88" y="-79.75" font-family="Helvetica,sans-Serif" font-size="10.00">XDino_DestroyVertexBuffer</text>
</a>
</g>
</g>
<!-- Node1&#45;&gt;Node3 -->
<g id="edge2_Node000001_Node000003" class="edge">
<title>Node1&#45;&gt;Node3</title>
<g id="a_edge2_Node000001_Node000003"><a xlink:title=" ">
<path fill="none" stroke="#63b8ff" d="M152.2,-71.89C166.59,-73.28 181.69,-74.73 196.17,-76.13"/>
<polygon fill="#63b8ff" stroke="#63b8ff" points="195.82,-79.61 206.11,-77.09 196.49,-72.65 195.82,-79.61"/>
</a>
</g>
</g>
<!-- Node4 -->
<g id="Node000004" class="node">
<title>Node4</title>
<g id="a_Node000004"><a xlink:href="xdino__win64__rdr_8cpp.html#a9b6c6fcbcefafee47511b2494be31bc5" target="_top" xlink:title=" ">
<polygon fill="white" stroke="#666666" points="355.62,-56.25 194.12,-56.25 194.12,-37 355.62,-37 355.62,-56.25"/>
<text text-anchor="middle" x="274.88" y="-42.75" font-family="Helvetica,sans-Serif" font-size="10.00">XDino_Win64_CollectRessources</text>
</a>
</g>
</g>
<!-- Node1&#45;&gt;Node4 -->
<g id="edge3_Node000001_Node000004" class="edge">
<title>Node1&#45;&gt;Node4</title>
<g id="a_edge3_Node000001_Node000004"><a xlink:title=" ">
<path fill="none" stroke="#63b8ff" d="M152.2,-57.74C162.06,-56.84 172.25,-55.91 182.35,-54.99"/>
<polygon fill="#63b8ff" stroke="#63b8ff" points="182.54,-58.49 192.18,-54.09 181.9,-51.51 182.54,-58.49"/>
</a>
</g>
</g>
<!-- Node5 -->
<g id="Node000005" class="node">
<title>Node5</title>
<g id="a_Node000005"><a xlink:href="xdino__win64__rdr_8cpp.html#aee77bfe8f28763649ad0fb85717cbddf" target="_top" xlink:title=" ">
<polygon fill="white" stroke="#666666" points="362,-19.25 187.75,-19.25 187.75,0 362,0 362,-19.25"/>
<text text-anchor="middle" x="274.88" y="-5.75" font-family="Helvetica,sans-Serif" font-size="10.00">XDino_Win64_PurgeDeadResources</text>
</a>
</g>
</g>
<!-- Node1&#45;&gt;Node5 -->
<g id="edge4_Node000001_Node000005" class="edge">
<title>Node1&#45;&gt;Node5</title>
<g id="a_edge4_Node000001_Node000005"><a xlink:title=" ">
<path fill="none" stroke="#63b8ff" d="M103.95,-54.61C126.23,-46.61 158.76,-35.46 187.75,-27.62 194.8,-25.72 202.22,-23.9 209.63,-22.19"/>
<polygon fill="#63b8ff" stroke="#63b8ff" points="210.33,-25.62 219.33,-20.03 208.81,-18.79 210.33,-25.62"/>
</a>
</g>
</g>
</g>
</svg>
</svg>

<style type='text/css'>
<![CDATA[
[data-mouse-over-selected='false'] { opacity: 0.7; }
[data-mouse-over-selected='true']  { opacity: 1.0; }
]]>
</style>
<script type="application/ecmascript"><![CDATA[
document.addEventListener('DOMContentLoaded', (event) => {
  highlightEdges();
  highlightAdjacentNodes();
});
]]></script>
</svg>
