<?xml version="1.0" encoding="UTF-8" standalone="no"?>
<!DOCTYPE svg PUBLIC "-//W3C//DTD SVG 1.1//EN"
 "http://www.w3.org/Graphics/SVG/1.1/DTD/svg11.dtd">
<!-- Generated by graphviz version 9.0.0 (20230911.1827)
 -->
<!-- Title: XDino_Win64_CreateTexture Pages: 1 -->
<svg width="494pt" height="46pt"
 viewBox="0.00 0.00 494.00 46.25" xmlns="http://www.w3.org/2000/svg" xmlns:xlink="http://www.w3.org/1999/xlink">
<g id="graph0" class="graph" transform="scale(1 1) rotate(0) translate(4 42.25)">
<title>XDino_Win64_CreateTexture</title>
<!-- Node1 -->
<g id="Node000001" class="node">
<title>Node1</title>
<g id="a_Node000001"><a xlink:title="Spécifique à la plateforme. Charge une texture.">
<polygon fill="#999999" stroke="#666666" points="486,-19.25 345.5,-19.25 345.5,0 486,0 486,-19.25"/>
<text text-anchor="middle" x="415.75" y="-5.75" font-family="Helvetica,sans-Serif" font-size="10.00">XDino_Win64_CreateTexture</text>
</a>
</g>
</g>
<!-- Node2 -->
<g id="Node000002" class="node">
<title>Node2</title>
<g id="a_Node000002"><a xlink:href="xdino__win64__rdr_8cpp.html#a606a6ce34b0c704a35a8a61db01db625" target="_top" xlink:title="Charge une texture nommée &#39;pName&#39; depuis le disque jusqu&#39;à la carte graphique. Retourne l&#39;identifiant...">
<polygon fill="white" stroke="#666666" points="309.5,-38.25 183.25,-38.25 183.25,-19 309.5,-19 309.5,-38.25"/>
<text text-anchor="middle" x="246.38" y="-24.75" font-family="Helvetica,sans-Serif" font-size="10.00">XDino_CreateGpuTexture</text>
</a>
</g>
</g>
<!-- Node1&#45;&gt;Node2 -->
<g id="edge1_Node000001_Node000002" class="edge">
<title>Node1&#45;&gt;Node2</title>
<g id="a_edge1_Node000001_Node000002"><a xlink:title=" ">
<path fill="none" stroke="#63b8ff" d="M333.83,-18.81C325.73,-19.73 317.6,-20.65 309.74,-21.55"/>
<polygon fill="#63b8ff" stroke="#63b8ff" points="334.18,-22.29 343.72,-17.69 333.39,-15.34 334.18,-22.29"/>
</a>
</g>
</g>
<!-- Node3 -->
<g id="Node000003" class="node">
<title>Node3</title>
<g id="a_Node000003"><a xlink:href="xdino__win64__rdr_8cpp.html#a6b04f71512315740371806b657af4aff" target="_top" xlink:title="Spécifique à la plateforme. Initialise le rendu.">
<polygon fill="white" stroke="#666666" points="147.25,-19.25 0,-19.25 0,0 147.25,0 147.25,-19.25"/>
<text text-anchor="middle" x="73.62" y="-5.75" font-family="Helvetica,sans-Serif" font-size="10.00">XDino_Win64_CreateRenderer</text>
</a>
</g>
</g>
<!-- Node1&#45;&gt;Node3 -->
<g id="edge3_Node000001_Node000003" class="edge">
<title>Node1&#45;&gt;Node3</title>
<g id="a_edge3_Node000001_Node000003"><a xlink:title=" ">
<path fill="none" stroke="#63b8ff" d="M333.69,-9.62C277.17,-9.62 202.39,-9.62 147.71,-9.62"/>
<polygon fill="#63b8ff" stroke="#63b8ff" points="333.59,-13.13 343.59,-9.63 333.59,-6.13 333.59,-13.13"/>
</a>
</g>
</g>
<!-- Node2&#45;&gt;Node3 -->
<g id="edge2_Node000002_Node000003" class="edge">
<title>Node2&#45;&gt;Node3</title>
<g id="a_edge2_Node000002_Node000003"><a xlink:title=" ">
<path fill="none" stroke="#63b8ff" d="M171.36,-20.39C163.5,-19.51 155.5,-18.62 147.64,-17.75"/>
<polygon fill="#63b8ff" stroke="#63b8ff" points="170.93,-23.86 181.26,-21.49 171.71,-16.91 170.93,-23.86"/>
</a>
</g>
</g>
</g>
</svg>
