<?xml version="1.0" encoding="UTF-8" standalone="no"?>
<!DOCTYPE svg PUBLIC "-//W3C//DTD SVG 1.1//EN"
 "http://www.w3.org/Graphics/SVG/1.1/DTD/svg11.dtd">
<!-- Generated by graphviz version 9.0.0 (20230911.1827)
 -->
<!-- Title: XDino_DestroyGpuTexture Pages: 1 -->
<svg width="575pt" height="83pt"
 viewBox="0.00 0.00 575.25 83.25" xmlns="http://www.w3.org/2000/svg" xmlns:xlink="http://www.w3.org/1999/xlink">
<g id="graph0" class="graph" transform="scale(1 1) rotate(0) translate(4 79.25)">
<title>XDino_DestroyGpuTexture</title>
<!-- Node1 -->
<g id="Node000001" class="node">
<title>Node1</title>
<g id="a_Node000001"><a xlink:title="Décharge la texture identifiée par &#39;texID&#39; de la carte graphique.">
<polygon fill="#999999" stroke="#666666" points="567.25,-38.25 436.5,-38.25 436.5,-19 567.25,-19 567.25,-38.25"/>
<text text-anchor="middle" x="501.88" y="-24.75" font-family="Helvetica,sans-Serif" font-size="10.00">XDino_DestroyGpuTexture</text>
</a>
</g>
</g>
<!-- Node2 -->
<g id="Node000002" class="node">
<title>Node2</title>
<g id="a_Node000002"><a xlink:href="dino__game_8cpp.html#af5be2c6012bb9e2650a622d88c610fd6" target="_top" xlink:title="Appelé quand l&#39;utilisateur demande à quitter le jeu (touche ECHAP).">
<polygon fill="white" stroke="#666666" points="368.25,-38.25 281,-38.25 281,-19 368.25,-19 368.25,-38.25"/>
<text text-anchor="middle" x="324.62" y="-24.75" font-family="Helvetica,sans-Serif" font-size="10.00">Dino_GameShut</text>
</a>
</g>
</g>
<!-- Node1&#45;&gt;Node2 -->
<g id="edge1_Node000001_Node000002" class="edge">
<title>Node1&#45;&gt;Node2</title>
<g id="a_edge1_Node000001_Node000002"><a xlink:title=" ">
<path fill="none" stroke="#63b8ff" d="M424.61,-28.62C405.42,-28.62 385.49,-28.62 368.58,-28.62"/>
<polygon fill="#63b8ff" stroke="#63b8ff" points="424.6,-32.13 434.6,-28.63 424.6,-25.13 424.6,-32.13"/>
</a>
</g>
</g>
<!-- Node4 -->
<g id="Node000004" class="node">
<title>Node4</title>
<g id="a_Node000004"><a xlink:href="xdino__linux__main_8cpp.html#a8b096a8c85b239812dd34af59ae9951b" target="_top" xlink:title=" ">
<polygon fill="white" stroke="#666666" points="212.75,-19.25 101.5,-19.25 101.5,0 212.75,0 212.75,-19.25"/>
<text text-anchor="middle" x="157.12" y="-5.75" font-family="Helvetica,sans-Serif" font-size="10.00">XDino_Linux_Cleanup</text>
</a>
</g>
</g>
<!-- Node1&#45;&gt;Node4 -->
<g id="edge5_Node000001_Node000004" class="edge">
<title>Node1&#45;&gt;Node4</title>
<g id="a_edge5_Node000001_Node000004"><a xlink:title=" ">
<path fill="none" stroke="#63b8ff" d="M446.16,-16.35C431.42,-13.57 415.42,-11.02 400.5,-9.62 336.4,-3.61 262.35,-4.79 213.13,-6.7"/>
<polygon fill="#63b8ff" stroke="#63b8ff" points="445.18,-19.72 455.67,-18.22 446.53,-12.86 445.18,-19.72"/>
</a>
</g>
</g>
<!-- Node6 -->
<g id="Node000006" class="node">
<title>Node6</title>
<g id="a_Node000006"><a xlink:href="xdino__win64__rdr_8cpp.html#a1114a89a9aca94743092c9e78a348e53" target="_top" xlink:title="Spécifique à la plateforme. Libère les ressources associées au rendu.">
<polygon fill="white" stroke="#666666" points="400.5,-75.25 248.75,-75.25 248.75,-56 400.5,-56 400.5,-75.25"/>
<text text-anchor="middle" x="324.62" y="-61.75" font-family="Helvetica,sans-Serif" font-size="10.00">XDino_Win64_DestroyRenderer</text>
</a>
</g>
</g>
<!-- Node1&#45;&gt;Node6 -->
<g id="edge6_Node000001_Node000006" class="edge">
<title>Node1&#45;&gt;Node6</title>
<g id="a_edge6_Node000001_Node000006"><a xlink:title=" ">
<path fill="none" stroke="#63b8ff" d="M441.96,-41.06C419.67,-45.77 394.6,-51.06 373.45,-55.53"/>
<polygon fill="#63b8ff" stroke="#63b8ff" points="442.44,-44.54 451.51,-39.05 441,-37.69 442.44,-44.54"/>
</a>
</g>
</g>
<!-- Node3 -->
<g id="Node000003" class="node">
<title>Node3</title>
<g id="a_Node000003"><a xlink:href="xdino__win64__main_8cpp.html#aa0e1ecfaa9e7f124f36e8666a1cb66f9" target="_top" xlink:title=" ">
<polygon fill="white" stroke="#666666" points="183.88,-56.25 130.38,-56.25 130.38,-37 183.88,-37 183.88,-56.25"/>
<text text-anchor="middle" x="157.12" y="-42.75" font-family="Helvetica,sans-Serif" font-size="10.00">WinMain</text>
</a>
</g>
</g>
<!-- Node2&#45;&gt;Node3 -->
<g id="edge2_Node000002_Node000003" class="edge">
<title>Node2&#45;&gt;Node3</title>
<g id="a_edge2_Node000002_Node000003"><a xlink:title=" ">
<path fill="none" stroke="#63b8ff" d="M269.45,-34.52C240.71,-37.64 206.73,-41.34 183.94,-43.82"/>
<polygon fill="#63b8ff" stroke="#63b8ff" points="269.51,-38.03 279.07,-33.47 268.75,-31.07 269.51,-38.03"/>
</a>
</g>
</g>
<!-- Node2&#45;&gt;Node4 -->
<g id="edge3_Node000002_Node000004" class="edge">
<title>Node2&#45;&gt;Node4</title>
<g id="a_edge3_Node000002_Node000004"><a xlink:title=" ">
<path fill="none" stroke="#63b8ff" d="M269.36,-22.39C251.32,-20.32 231.23,-18.02 213.15,-15.94"/>
<polygon fill="#63b8ff" stroke="#63b8ff" points="268.74,-25.85 279.07,-23.51 269.53,-18.89 268.74,-25.85"/>
</a>
</g>
</g>
<!-- Node5 -->
<g id="Node000005" class="node">
<title>Node5</title>
<g id="a_Node000005"><a xlink:href="xdino__linux__main_8cpp.html#a4646b314f2ba6df59c9b1805dd568b18" target="_top" xlink:title=" ">
<polygon fill="white" stroke="#666666" points="65.5,-19.25 0,-19.25 0,0 65.5,0 65.5,-19.25"/>
<text text-anchor="middle" x="32.75" y="-5.75" font-family="Helvetica,sans-Serif" font-size="10.00">sokol_main</text>
</a>
</g>
</g>
<!-- Node4&#45;&gt;Node5 -->
<g id="edge4_Node000004_Node000005" class="edge">
<title>Node4&#45;&gt;Node5</title>
<g id="a_edge4_Node000004_Node000005"><a xlink:title=" ">
<path fill="none" stroke="#63b8ff" d="M89.69,-9.62C81.39,-9.62 73.22,-9.62 65.8,-9.62"/>
<polygon fill="#63b8ff" stroke="#63b8ff" points="89.51,-13.13 99.51,-9.63 89.51,-6.13 89.51,-13.13"/>
</a>
</g>
</g>
<!-- Node6&#45;&gt;Node3 -->
<g id="edge7_Node000006_Node000003" class="edge">
<title>Node6&#45;&gt;Node3</title>
<g id="a_edge7_Node000006_Node000003"><a xlink:title=" ">
<path fill="none" stroke="#63b8ff" d="M237.22,-55.71C217.86,-53.48 198.77,-51.29 184.19,-49.62"/>
<polygon fill="#63b8ff" stroke="#63b8ff" points="236.79,-59.18 247.12,-56.84 237.58,-52.22 236.79,-59.18"/>
</a>
</g>
</g>
</g>
</svg>
