<?xml version="1.0" encoding="UTF-8" standalone="no"?>
<!DOCTYPE svg PUBLIC "-//W3C//DTD SVG 1.1//EN"
 "http://www.w3.org/Graphics/SVG/1.1/DTD/svg11.dtd">
<!-- Generated by graphviz version 9.0.0 (20230911.1827)
 -->
<!-- Title: XDino_Linux_CreateTexture Pages: 1 -->
<svg width="863pt" height="84pt"
 viewBox="0.00 0.00 863.00 84.25" xmlns="http://www.w3.org/2000/svg" xmlns:xlink="http://www.w3.org/1999/xlink">
<g id="graph0" class="graph" transform="scale(1 1) rotate(0) translate(4 80.25)">
<title>XDino_Linux_CreateTexture</title>
<!-- Node1 -->
<g id="Node000001" class="node">
<title>Node1</title>
<g id="a_Node000001"><a xlink:title=" ">
<polygon fill="#999999" stroke="#666666" points="855,-19.25 718.25,-19.25 718.25,0 855,0 855,-19.25"/>
<text text-anchor="middle" x="786.62" y="-5.75" font-family="Helvetica,sans-Serif" font-size="10.00">XDino_Linux_CreateTexture</text>
</a>
</g>
</g>
<!-- Node2 -->
<g id="Node000002" class="node">
<title>Node2</title>
<g id="a_Node000002"><a xlink:href="xdino__linux__main_8cpp.html#a606a6ce34b0c704a35a8a61db01db625" target="_top" xlink:title="Charge une texture nommée &#39;pName&#39; depuis le disque jusqu&#39;à la carte graphique. Retourne l&#39;identifiant...">
<polygon fill="white" stroke="#666666" points="682.25,-38.25 556,-38.25 556,-19 682.25,-19 682.25,-38.25"/>
<text text-anchor="middle" x="619.12" y="-24.75" font-family="Helvetica,sans-Serif" font-size="10.00">XDino_CreateGpuTexture</text>
</a>
</g>
</g>
<!-- Node1&#45;&gt;Node2 -->
<g id="edge1_Node000001_Node000002" class="edge">
<title>Node1&#45;&gt;Node2</title>
<g id="a_edge1_Node000001_Node000002"><a xlink:title=" ">
<path fill="none" stroke="#63b8ff" d="M706.5,-18.71C698.44,-19.63 690.33,-20.56 682.49,-21.47"/>
<polygon fill="#63b8ff" stroke="#63b8ff" points="706.79,-22.2 716.33,-17.58 705.99,-15.24 706.79,-22.2"/>
</a>
</g>
</g>
<!-- Node4 -->
<g id="Node000004" class="node">
<title>Node4</title>
<g id="a_Node000004"><a xlink:href="xdino__linux__main_8cpp.html#a1c1b5043b07b3c147c6b32c1d87b2f54" target="_top" xlink:title=" ">
<polygon fill="white" stroke="#666666" points="380.62,-38.25 291.12,-38.25 291.12,-19 380.62,-19 380.62,-38.25"/>
<text text-anchor="middle" x="335.88" y="-24.75" font-family="Helvetica,sans-Serif" font-size="10.00">XDino_Linux_Init</text>
</a>
</g>
</g>
<!-- Node1&#45;&gt;Node4 -->
<g id="edge9_Node000001_Node000004" class="edge">
<title>Node1&#45;&gt;Node4</title>
<g id="a_edge9_Node000001_Node000004"><a xlink:title=" ">
<path fill="none" stroke="#63b8ff" d="M706.49,-7.94C662.21,-7.42 606.01,-7.46 556,-9.62 495.15,-12.26 425.06,-18.99 380.87,-23.68"/>
<polygon fill="#63b8ff" stroke="#63b8ff" points="706.21,-11.44 716.26,-8.07 706.3,-4.44 706.21,-11.44"/>
</a>
</g>
</g>
<!-- Node3 -->
<g id="Node000003" class="node">
<title>Node3</title>
<g id="a_Node000003"><a xlink:href="dino__game_8cpp.html#a34e4cc788612f46dea16beb4b24dd0ab" target="_top" xlink:title="Appelé au tout début, pour initialiser la logique de jeu.">
<polygon fill="white" stroke="#666666" points="520,-76.25 439.5,-76.25 439.5,-57 520,-57 520,-76.25"/>
<text text-anchor="middle" x="479.75" y="-62.75" font-family="Helvetica,sans-Serif" font-size="10.00">Dino_GameInit</text>
</a>
</g>
</g>
<!-- Node2&#45;&gt;Node3 -->
<g id="edge2_Node000002_Node000003" class="edge">
<title>Node2&#45;&gt;Node3</title>
<g id="a_edge2_Node000002_Node000003"><a xlink:title=" ">
<path fill="none" stroke="#63b8ff" d="M570.72,-41.74C553.08,-46.62 533.37,-52.07 516.9,-56.63"/>
<polygon fill="#63b8ff" stroke="#63b8ff" points="571.51,-45.15 580.21,-39.11 569.64,-38.4 571.51,-45.15"/>
</a>
</g>
</g>
<!-- Node2&#45;&gt;Node4 -->
<g id="edge8_Node000002_Node000004" class="edge">
<title>Node2&#45;&gt;Node4</title>
<g id="a_edge8_Node000002_Node000004"><a xlink:title=" ">
<path fill="none" stroke="#63b8ff" d="M544.2,-28.62C492.23,-28.62 424.44,-28.62 380.78,-28.62"/>
<polygon fill="#63b8ff" stroke="#63b8ff" points="544.19,-32.13 554.19,-28.63 544.19,-25.13 544.19,-32.13"/>
</a>
</g>
</g>
<!-- Node3&#45;&gt;Node4 -->
<g id="edge3_Node000003_Node000004" class="edge">
<title>Node3&#45;&gt;Node4</title>
<g id="a_edge3_Node000003_Node000004"><a xlink:title=" ">
<path fill="none" stroke="#63b8ff" d="M430.05,-53.58C411.77,-48.69 391.3,-43.2 374.21,-38.62"/>
<polygon fill="#63b8ff" stroke="#63b8ff" points="429.08,-56.94 439.64,-56.15 430.89,-50.18 429.08,-56.94"/>
</a>
</g>
</g>
<!-- Node6 -->
<g id="Node000006" class="node">
<title>Node6</title>
<g id="a_Node000006"><a xlink:href="xdino__win64__main_8cpp.html#afa07de294d5b620ee39644b9661f0665" target="_top" xlink:title=" ">
<polygon fill="white" stroke="#666666" points="403.5,-76.25 268.25,-76.25 268.25,-57 403.5,-57 403.5,-76.25"/>
<text text-anchor="middle" x="335.88" y="-62.75" font-family="Helvetica,sans-Serif" font-size="10.00">XDino_Win64_HandleEvent</text>
</a>
</g>
</g>
<!-- Node3&#45;&gt;Node6 -->
<g id="edge5_Node000003_Node000006" class="edge">
<title>Node3&#45;&gt;Node6</title>
<g id="a_edge5_Node000003_Node000006"><a xlink:title=" ">
<path fill="none" stroke="#63b8ff" d="M427.78,-66.62C420.03,-66.62 411.93,-66.62 403.9,-66.62"/>
<polygon fill="#63b8ff" stroke="#63b8ff" points="427.72,-70.13 437.72,-66.63 427.72,-63.13 427.72,-70.13"/>
</a>
</g>
</g>
<!-- Node5 -->
<g id="Node000005" class="node">
<title>Node5</title>
<g id="a_Node000005"><a xlink:href="xdino__linux__main_8cpp.html#a4646b314f2ba6df59c9b1805dd568b18" target="_top" xlink:title=" ">
<polygon fill="white" stroke="#666666" points="193.62,-38.25 128.12,-38.25 128.12,-19 193.62,-19 193.62,-38.25"/>
<text text-anchor="middle" x="160.88" y="-24.75" font-family="Helvetica,sans-Serif" font-size="10.00">sokol_main</text>
</a>
</g>
</g>
<!-- Node4&#45;&gt;Node5 -->
<g id="edge4_Node000004_Node000005" class="edge">
<title>Node4&#45;&gt;Node5</title>
<g id="a_edge4_Node000004_Node000005"><a xlink:title=" ">
<path fill="none" stroke="#63b8ff" d="M279.42,-28.62C251.17,-28.62 217.83,-28.62 193.88,-28.62"/>
<polygon fill="#63b8ff" stroke="#63b8ff" points="279.26,-32.13 289.26,-28.63 279.26,-25.13 279.26,-32.13"/>
</a>
</g>
</g>
<!-- Node7 -->
<g id="Node000007" class="node">
<title>Node7</title>
<g id="a_Node000007"><a xlink:href="xdino__win64__main_8cpp.html#a7202590da16f97f4cef692deb9001e27" target="_top" xlink:title=" ">
<polygon fill="white" stroke="#666666" points="232.25,-76.25 89.5,-76.25 89.5,-57 232.25,-57 232.25,-76.25"/>
<text text-anchor="middle" x="160.88" y="-62.75" font-family="Helvetica,sans-Serif" font-size="10.00">XDino_Win64_CreateWindow</text>
</a>
</g>
</g>
<!-- Node6&#45;&gt;Node7 -->
<g id="edge6_Node000006_Node000007" class="edge">
<title>Node6&#45;&gt;Node7</title>
<g id="a_edge6_Node000006_Node000007"><a xlink:title=" ">
<path fill="none" stroke="#63b8ff" d="M256.72,-66.62C248.68,-66.62 240.54,-66.62 232.59,-66.62"/>
<polygon fill="#63b8ff" stroke="#63b8ff" points="256.48,-70.13 266.48,-66.63 256.48,-63.13 256.48,-70.13"/>
</a>
</g>
</g>
<!-- Node8 -->
<g id="Node000008" class="node">
<title>Node8</title>
<g id="a_Node000008"><a xlink:href="xdino__win64__main_8cpp.html#aa0e1ecfaa9e7f124f36e8666a1cb66f9" target="_top" xlink:title=" ">
<polygon fill="white" stroke="#666666" points="53.5,-76.25 0,-76.25 0,-57 53.5,-57 53.5,-76.25"/>
<text text-anchor="middle" x="26.75" y="-62.75" font-family="Helvetica,sans-Serif" font-size="10.00">WinMain</text>
</a>
</g>
</g>
<!-- Node7&#45;&gt;Node8 -->
<g id="edge7_Node000007_Node000008" class="edge">
<title>Node7&#45;&gt;Node8</title>
<g id="a_edge7_Node000007_Node000008"><a xlink:title=" ">
<path fill="none" stroke="#63b8ff" d="M77.73,-66.62C69.16,-66.62 60.98,-66.62 53.8,-66.62"/>
<polygon fill="#63b8ff" stroke="#63b8ff" points="77.66,-70.13 87.66,-66.63 77.66,-63.13 77.66,-70.13"/>
</a>
</g>
</g>
</g>
</svg>
