<?xml version="1.0" encoding="UTF-8" standalone="no"?>
<!DOCTYPE svg PUBLIC "-//W3C//DTD SVG 1.1//EN"
 "http://www.w3.org/Graphics/SVG/1.1/DTD/svg11.dtd">
<!-- Generated by graphviz version 9.0.0 (20230911.1827)
 -->
<!-- Title: XDino_ProfileEnd Pages: 1 -->
<svg width="704pt" height="121pt"
 viewBox="0.00 0.00 703.75 120.96" xmlns="http://www.w3.org/2000/svg" xmlns:xlink="http://www.w3.org/1999/xlink">
<g id="graph0" class="graph" transform="scale(1 1) rotate(0) translate(4 116.96)">
<title>XDino_ProfileEnd</title>
<!-- Node1 -->
<g id="Node000001" class="node">
<title>Node1</title>
<g id="a_Node000001"><a xlink:title="Finit un intervalle de profiling.">
<polygon fill="#999999" stroke="#666666" points="695.75,-56.96 604.75,-56.96 604.75,-37.71 695.75,-37.71 695.75,-56.96"/>
<text text-anchor="middle" x="650.25" y="-43.46" font-family="Helvetica,sans-Serif" font-size="10.00">XDino_ProfileEnd</text>
</a>
</g>
</g>
<!-- Node2 -->
<g id="Node000002" class="node">
<title>Node2</title>
<g id="a_Node000002"><a xlink:href="xdino__win64__rdr_8cpp.html#ad7cc0200df4ae9dc2f3445ce0c5bb02c" target="_top" xlink:title="Copie une liste de sommets de triangles texturés sur la carte graphique. Retourne l&#39;identifiant uniqu...">
<polygon fill="white" stroke="#666666" points="568.75,-112.96 439.5,-112.96 439.5,-93.71 568.75,-93.71 568.75,-112.96"/>
<text text-anchor="middle" x="504.12" y="-99.46" font-family="Helvetica,sans-Serif" font-size="10.00">XDino_CreateVertexBuffer</text>
</a>
</g>
</g>
<!-- Node1&#45;&gt;Node2 -->
<g id="edge1_Node000001_Node000002" class="edge">
<title>Node1&#45;&gt;Node2</title>
<g id="a_edge1_Node000001_Node000002"><a xlink:title=" ">
<path fill="none" stroke="#63b8ff" d="M620.2,-62.47C605.11,-69.97 586.22,-78.79 568.75,-85.33 561.01,-88.23 552.59,-90.92 544.49,-93.29"/>
<polygon fill="#63b8ff" stroke="#63b8ff" points="621.74,-65.61 629.09,-57.98 618.59,-59.37 621.74,-65.61"/>
</a>
</g>
</g>
<!-- Node3 -->
<g id="Node000003" class="node">
<title>Node3</title>
<g id="a_Node000003"><a xlink:href="xdino__win64__rdr_8cpp.html#a7d5347b96a8386cfa0d2ee33abaf36bb" target="_top" xlink:title="Transfère les triangles à dessiner à la carte graphique.">
<polygon fill="white" stroke="#666666" points="539.12,-75.96 469.12,-75.96 469.12,-56.71 539.12,-56.71 539.12,-75.96"/>
<text text-anchor="middle" x="504.12" y="-62.46" font-family="Helvetica,sans-Serif" font-size="10.00">XDino_Draw</text>
</a>
</g>
</g>
<!-- Node1&#45;&gt;Node3 -->
<g id="edge2_Node000001_Node000003" class="edge">
<title>Node1&#45;&gt;Node3</title>
<g id="a_edge2_Node000001_Node000003"><a xlink:title=" ">
<path fill="none" stroke="#63b8ff" d="M593.08,-54.74C574.96,-57.13 555.42,-59.7 539.37,-61.82"/>
<polygon fill="#63b8ff" stroke="#63b8ff" points="593.48,-58.21 602.94,-53.44 592.57,-51.27 593.48,-58.21"/>
</a>
</g>
</g>
<!-- Node4 -->
<g id="Node000004" class="node">
<title>Node4</title>
<g id="a_Node000004"><a xlink:href="xdino__win64__rdr_8cpp.html#ad13ae3c31e66f2cdf34b75465d4bac17" target="_top" xlink:title="Spécifique à la plateforme. Finit la passe de rendu et envoit le travail à la carte graphique.">
<polygon fill="white" stroke="#666666" points="563.5,-38.96 444.75,-38.96 444.75,-19.71 563.5,-19.71 563.5,-38.96"/>
<text text-anchor="middle" x="504.12" y="-25.46" font-family="Helvetica,sans-Serif" font-size="10.00">XDino_Win64_EndDraw</text>
</a>
</g>
</g>
<!-- Node1&#45;&gt;Node4 -->
<g id="edge3_Node000001_Node000004" class="edge">
<title>Node1&#45;&gt;Node4</title>
<g id="a_edge3_Node000001_Node000004"><a xlink:title=" ">
<path fill="none" stroke="#63b8ff" d="M593.04,-40.31C583.5,-39.12 573.57,-37.88 563.96,-36.68"/>
<polygon fill="#63b8ff" stroke="#63b8ff" points="592.58,-43.78 602.94,-41.55 593.45,-36.83 592.58,-43.78"/>
</a>
</g>
</g>
<!-- Node5 -->
<g id="Node000005" class="node">
<title>Node5</title>
<g id="a_Node000005"><a xlink:href="xdino__win64__main_8cpp.html#afa07de294d5b620ee39644b9661f0665" target="_top" xlink:title=" ">
<polygon fill="white" stroke="#666666" points="403.5,-19.96 268.25,-19.96 268.25,-0.71 403.5,-0.71 403.5,-19.96"/>
<text text-anchor="middle" x="335.88" y="-6.46" font-family="Helvetica,sans-Serif" font-size="10.00">XDino_Win64_HandleEvent</text>
</a>
</g>
</g>
<!-- Node1&#45;&gt;Node5 -->
<g id="edge7_Node000001_Node000005" class="edge">
<title>Node1&#45;&gt;Node5</title>
<g id="a_edge7_Node000001_Node000005"><a xlink:title=" ">
<path fill="none" stroke="#63b8ff" d="M623.27,-31.9C607.97,-23.73 587.92,-14.53 568.75,-10.33 514.19,1.61 450.65,0.61 403.9,-2.82"/>
<polygon fill="#63b8ff" stroke="#63b8ff" points="621.26,-34.79 631.71,-36.59 624.66,-28.68 621.26,-34.79"/>
</a>
</g>
</g>
<!-- Node4&#45;&gt;Node5 -->
<g id="edge4_Node000004_Node000005" class="edge">
<title>Node4&#45;&gt;Node5</title>
<g id="a_edge4_Node000004_Node000005"><a xlink:title=" ">
<path fill="none" stroke="#63b8ff" d="M433.21,-21.34C423.45,-20.23 413.45,-19.08 403.76,-17.97"/>
<polygon fill="#63b8ff" stroke="#63b8ff" points="432.67,-24.8 443.01,-22.46 433.47,-17.85 432.67,-24.8"/>
</a>
</g>
</g>
<!-- Node6 -->
<g id="Node000006" class="node">
<title>Node6</title>
<g id="a_Node000006"><a xlink:href="xdino__win64__main_8cpp.html#a7202590da16f97f4cef692deb9001e27" target="_top" xlink:title=" ">
<polygon fill="white" stroke="#666666" points="232.25,-19.96 89.5,-19.96 89.5,-0.71 232.25,-0.71 232.25,-19.96"/>
<text text-anchor="middle" x="160.88" y="-6.46" font-family="Helvetica,sans-Serif" font-size="10.00">XDino_Win64_CreateWindow</text>
</a>
</g>
</g>
<!-- Node5&#45;&gt;Node6 -->
<g id="edge5_Node000005_Node000006" class="edge">
<title>Node5&#45;&gt;Node6</title>
<g id="a_edge5_Node000005_Node000006"><a xlink:title=" ">
<path fill="none" stroke="#63b8ff" d="M256.72,-10.33C248.68,-10.33 240.54,-10.33 232.59,-10.33"/>
<polygon fill="#63b8ff" stroke="#63b8ff" points="256.48,-13.83 266.48,-10.33 256.48,-6.83 256.48,-13.83"/>
</a>
</g>
</g>
<!-- Node7 -->
<g id="Node000007" class="node">
<title>Node7</title>
<g id="a_Node000007"><a xlink:href="xdino__win64__main_8cpp.html#aa0e1ecfaa9e7f124f36e8666a1cb66f9" target="_top" xlink:title=" ">
<polygon fill="white" stroke="#666666" points="53.5,-19.96 0,-19.96 0,-0.71 53.5,-0.71 53.5,-19.96"/>
<text text-anchor="middle" x="26.75" y="-6.46" font-family="Helvetica,sans-Serif" font-size="10.00">WinMain</text>
</a>
</g>
</g>
<!-- Node6&#45;&gt;Node7 -->
<g id="edge6_Node000006_Node000007" class="edge">
<title>Node6&#45;&gt;Node7</title>
<g id="a_edge6_Node000006_Node000007"><a xlink:title=" ">
<path fill="none" stroke="#63b8ff" d="M77.73,-10.33C69.16,-10.33 60.98,-10.33 53.8,-10.33"/>
<polygon fill="#63b8ff" stroke="#63b8ff" points="77.66,-13.83 87.66,-10.33 77.66,-6.83 77.66,-13.83"/>
</a>
</g>
</g>
</g>
</svg>
