<?xml version="1.0" encoding="UTF-8" standalone="no"?>
<!DOCTYPE svg PUBLIC "-//W3C//DTD SVG 1.1//EN"
 "http://www.w3.org/Graphics/SVG/1.1/DTD/svg11.dtd">
<!-- Generated by graphviz version 9.0.0 (20230911.1827)
 -->
<!-- Title: gXDino_rng Pages: 1 -->
<svg width="234pt" height="138pt"
 viewBox="0.00 0.00 234.25 138.25" xmlns="http://www.w3.org/2000/svg" xmlns:xlink="http://www.w3.org/1999/xlink">

<svg id="main" version="1.1" xmlns="http://www.w3.org/2000/svg" xmlns:xlink="http://www.w3.org/1999/xlink" xml:space="preserve" onload="init(evt)">
<style type="text/css"><![CDATA[
.node, .edge {opacity: 0.7;}
.node.selected, .edge.selected {opacity: 1;}
.edge:hover path { stroke: red; }
.edge:hover polygon { stroke: red; fill: red; }
]]></style>
<script type="application/ecmascript" xlink:href="svg.min.js"/>
<svg id="graph" class="graph">
<g id="graph0" class="graph" transform="scale(1 1) rotate(0) translate(4 134.25)">
<title>gXDino_rng</title>
<!-- Node1 -->
<g id="Node000001" class="node">
<title>Node1</title>
<g id="a_Node000001"><a xlink:title=" ">
<polygon fill="#999999" stroke="#666666" points="226.25,-74.25 160,-74.25 160,-55 226.25,-55 226.25,-74.25"/>
<text text-anchor="middle" x="193.12" y="-60.75" font-family="Helvetica,sans-Serif" font-size="10.00">gXDino_rng</text>
</a>
</g>
</g>
<!-- Node2 -->
<g id="Node000002" class="node">
<title>Node2</title>
<g id="a_Node000002"><a xlink:href="xdino__win64__main_8cpp.html#a2e6d69578bed3d312e872e26a21c9435" target="_top" xlink:title="Génère un nombre à virgule flottante pseudo&#45;aléatoire entre &#39;min&#39; inclus et &#39;max&#39; exclus.">
<polygon fill="white" stroke="#666666" points="114.62,-130.25 9.38,-130.25 9.38,-111 114.62,-111 114.62,-130.25"/>
<text text-anchor="middle" x="62" y="-116.75" font-family="Helvetica,sans-Serif" font-size="10.00">XDino_RandomFloat</text>
</a>
</g>
</g>
<!-- Node1&#45;&gt;Node2 -->
<g id="edge1_Node000001_Node000002" class="edge">
<title>Node1&#45;&gt;Node2</title>
<g id="a_edge1_Node000001_Node000002"><a xlink:title=" ">
<path fill="none" stroke="#63b8ff" d="M166.66,-80.6C154.14,-87.99 138.63,-96.48 124,-102.62 116.98,-105.58 109.31,-108.25 101.85,-110.57"/>
<polygon fill="#63b8ff" stroke="#63b8ff" points="168.34,-83.68 175.09,-75.51 164.73,-77.68 168.34,-83.68"/>
</a>
</g>
</g>
<!-- Node3 -->
<g id="Node000003" class="node">
<title>Node3</title>
<g id="a_Node000003"><a xlink:href="xdino__win64__main_8cpp.html#a09a4d6e92b29b1c57f37cff0bba039a0" target="_top" xlink:title="Génère un entier 32&#45;bit signé pseudo&#45;aléatoire entre &#39;min&#39; et &#39;max&#39; inclus.">
<polygon fill="white" stroke="#666666" points="114.62,-93.25 9.38,-93.25 9.38,-74 114.62,-74 114.62,-93.25"/>
<text text-anchor="middle" x="62" y="-79.75" font-family="Helvetica,sans-Serif" font-size="10.00">XDino_RandomInt32</text>
</a>
</g>
</g>
<!-- Node1&#45;&gt;Node3 -->
<g id="edge2_Node000001_Node000003" class="edge">
<title>Node1&#45;&gt;Node3</title>
<g id="a_edge2_Node000001_Node000003"><a xlink:title=" ">
<path fill="none" stroke="#63b8ff" d="M148.24,-71.08C137.44,-72.67 125.79,-74.39 114.67,-76.02"/>
<polygon fill="#63b8ff" stroke="#63b8ff" points="148.66,-74.56 158.04,-69.64 147.64,-67.63 148.66,-74.56"/>
</a>
</g>
</g>
<!-- Node4 -->
<g id="Node000004" class="node">
<title>Node4</title>
<g id="a_Node000004"><a xlink:href="xdino__win64__main_8cpp.html#afe24d415c32e02761cd69c10d8949075" target="_top" xlink:title="Génère un entier 32&#45;bit non&#45;signé pseudo&#45;aléatoire entre &#39;min&#39; et &#39;max&#39; inclus.">
<polygon fill="white" stroke="#666666" points="118,-56.25 6,-56.25 6,-37 118,-37 118,-56.25"/>
<text text-anchor="middle" x="62" y="-42.75" font-family="Helvetica,sans-Serif" font-size="10.00">XDino_RandomUint32</text>
</a>
</g>
</g>
<!-- Node1&#45;&gt;Node4 -->
<g id="edge3_Node000001_Node000004" class="edge">
<title>Node1&#45;&gt;Node4</title>
<g id="a_edge3_Node000001_Node000004"><a xlink:title=" ">
<path fill="none" stroke="#63b8ff" d="M148.25,-58.51C138.67,-57.17 128.4,-55.74 118.43,-54.35"/>
<polygon fill="#63b8ff" stroke="#63b8ff" points="147.65,-61.96 158.04,-59.87 148.62,-55.03 147.65,-61.96"/>
</a>
</g>
</g>
<!-- Node5 -->
<g id="Node000005" class="node">
<title>Node5</title>
<g id="a_Node000005"><a xlink:href="xdino__win64__main_8cpp.html#a633e7eb91888670d439d5cc124a36e7d" target="_top" xlink:title="Génère un vecteur unitaire dans une direction aléatoire.">
<polygon fill="white" stroke="#666666" points="124,-19.25 0,-19.25 0,0 124,0 124,-19.25"/>
<text text-anchor="middle" x="62" y="-5.75" font-family="Helvetica,sans-Serif" font-size="10.00">XDino_RandomUnitVec2</text>
</a>
</g>
</g>
<!-- Node1&#45;&gt;Node5 -->
<g id="edge4_Node000001_Node000005" class="edge">
<title>Node1&#45;&gt;Node5</title>
<g id="a_edge4_Node000001_Node000005"><a xlink:title=" ">
<path fill="none" stroke="#63b8ff" d="M166.36,-48.96C153.87,-41.81 138.48,-33.61 124,-27.62 116.96,-24.71 109.28,-22.06 101.82,-19.74"/>
<polygon fill="#63b8ff" stroke="#63b8ff" points="164.38,-51.86 174.78,-53.89 167.92,-45.82 164.38,-51.86"/>
</a>
</g>
</g>
</g>
</svg>
</svg>

<style type='text/css'>
<![CDATA[
[data-mouse-over-selected='false'] { opacity: 0.7; }
[data-mouse-over-selected='true']  { opacity: 1.0; }
]]>
</style>
<script type="application/ecmascript"><![CDATA[
document.addEventListener('DOMContentLoaded', (event) => {
  highlightEdges();
  highlightAdjacentNodes();
});
]]></script>
</svg>
