<?xml version="1.0" encoding="UTF-8" standalone="no"?>
<!DOCTYPE svg PUBLIC "-//W3C//DTD SVG 1.1//EN"
 "http://www.w3.org/Graphics/SVG/1.1/DTD/svg11.dtd">
<!-- Generated by graphviz version 9.0.0 (20230911.1827)
 -->
<!-- Title: WinMain Pages: 1 -->
<svg width="781pt" height="421pt"
 viewBox="0.00 0.00 781.00 421.25" xmlns="http://www.w3.org/2000/svg" xmlns:xlink="http://www.w3.org/1999/xlink">
<g id="graph0" class="graph" transform="scale(1 1) rotate(0) translate(4 417.25)">
<title>WinMain</title>
<!-- Node1 -->
<g id="Node000001" class="node">
<title>Node1</title>
<g id="a_Node000001"><a xlink:title=" ">
<polygon fill="#999999" stroke="#666666" points="53.5,-92.25 0,-92.25 0,-73 53.5,-73 53.5,-92.25"/>
<text text-anchor="middle" x="26.75" y="-78.75" font-family="Helvetica,sans-Serif" font-size="10.00">WinMain</text>
</a>
</g>
</g>
<!-- Node2 -->
<g id="Node000002" class="node">
<title>Node2</title>
<g id="a_Node000002"><a xlink:href="dino__game_8cpp.html#af5be2c6012bb9e2650a622d88c610fd6" target="_top" xlink:title="Appelé quand l&#39;utilisateur demande à quitter le jeu (touche ECHAP).">
<polygon fill="white" stroke="#666666" points="209,-148.25 121.75,-148.25 121.75,-129 209,-129 209,-148.25"/>
<text text-anchor="middle" x="165.38" y="-134.75" font-family="Helvetica,sans-Serif" font-size="10.00">Dino_GameShut</text>
</a>
</g>
</g>
<!-- Node1&#45;&gt;Node2 -->
<g id="edge1_Node000001_Node000002" class="edge">
<title>Node1&#45;&gt;Node2</title>
<g id="a_edge1_Node000001_Node000002"><a xlink:title=" ">
<path fill="none" stroke="#63b8ff" d="M41.29,-92.71C53.37,-101.26 71.83,-113.28 89.5,-120.62 96.06,-123.35 103.13,-125.72 110.21,-127.77"/>
<polygon fill="#63b8ff" stroke="#63b8ff" points="109.24,-131.13 119.8,-130.33 111.04,-124.37 109.24,-131.13"/>
</a>
</g>
</g>
<!-- Node3 -->
<g id="Node000003" class="node">
<title>Node3</title>
<g id="a_Node000003"><a xlink:href="xdino__win64__main_8cpp.html#a7202590da16f97f4cef692deb9001e27" target="_top" xlink:title="Crée la fenêtre graphique principale de rendu.">
<polygon fill="white" stroke="#666666" points="236.75,-111.25 94,-111.25 94,-92 236.75,-92 236.75,-111.25"/>
<text text-anchor="middle" x="165.38" y="-97.75" font-family="Helvetica,sans-Serif" font-size="10.00">XDino_Win64_CreateWindow</text>
</a>
</g>
</g>
<!-- Node1&#45;&gt;Node3 -->
<g id="edge2_Node000001_Node000003" class="edge">
<title>Node1&#45;&gt;Node3</title>
<g id="a_edge2_Node000001_Node000003"><a xlink:title=" ">
<path fill="none" stroke="#63b8ff" d="M53.77,-86.24C62.18,-87.41 72.01,-88.78 82.27,-90.21"/>
<polygon fill="#63b8ff" stroke="#63b8ff" points="81.64,-93.65 92.03,-91.56 82.61,-86.72 81.64,-93.65"/>
</a>
</g>
</g>
<!-- Node20 -->
<g id="Node000020" class="node">
<title>Node20</title>
<g id="a_Node000020"><a xlink:href="xdino__win64__rdr_8cpp.html#a1114a89a9aca94743092c9e78a348e53" target="_top" xlink:title="Spécifique à la plateforme. Libère les ressources associées au rendu.">
<polygon fill="white" stroke="#666666" points="241.25,-74.25 89.5,-74.25 89.5,-55 241.25,-55 241.25,-74.25"/>
<text text-anchor="middle" x="165.38" y="-60.75" font-family="Helvetica,sans-Serif" font-size="10.00">XDino_Win64_DestroyRenderer</text>
</a>
</g>
</g>
<!-- Node1&#45;&gt;Node20 -->
<g id="edge21_Node000001_Node000020" class="edge">
<title>Node1&#45;&gt;Node20</title>
<g id="a_edge21_Node000001_Node000020"><a xlink:title=" ">
<path fill="none" stroke="#63b8ff" d="M53.77,-79.2C61.01,-78.24 69.3,-77.15 78,-76"/>
<polygon fill="#63b8ff" stroke="#63b8ff" points="78.25,-79.5 87.71,-74.73 77.34,-72.56 78.25,-79.5"/>
</a>
</g>
</g>
<!-- Node21 -->
<g id="Node000021" class="node">
<title>Node21</title>
<g id="a_Node000021"><a xlink:href="xdino__win64__main_8cpp.html#a782c99a514da9425987b481ccc596104" target="_top" xlink:title=" ">
<polygon fill="white" stroke="#666666" points="239,-37.25 91.75,-37.25 91.75,-18 239,-18 239,-37.25"/>
<text text-anchor="middle" x="165.38" y="-23.75" font-family="Helvetica,sans-Serif" font-size="10.00">XDino_Win64_DestroyWindow</text>
</a>
</g>
</g>
<!-- Node1&#45;&gt;Node21 -->
<g id="edge22_Node000001_Node000021" class="edge">
<title>Node1&#45;&gt;Node21</title>
<g id="a_edge22_Node000001_Node000021"><a xlink:title=" ">
<path fill="none" stroke="#63b8ff" d="M41.34,-72.82C53.44,-64.51 71.91,-52.81 89.5,-45.62 93.63,-43.94 97.95,-42.39 102.35,-40.96"/>
<polygon fill="#63b8ff" stroke="#63b8ff" points="103.33,-44.32 111.92,-38.11 101.34,-37.61 103.33,-44.32"/>
</a>
</g>
</g>
<!-- Node4 -->
<g id="Node000004" class="node">
<title>Node4</title>
<g id="a_Node000004"><a xlink:href="xdino__win64__main_8cpp.html#afa07de294d5b620ee39644b9661f0665" target="_top" xlink:title="Gère les événements qu&#39;envoie le système d&#39;exploitation.">
<polygon fill="white" stroke="#666666" points="412.5,-111.25 277.25,-111.25 277.25,-92 412.5,-92 412.5,-111.25"/>
<text text-anchor="middle" x="344.88" y="-97.75" font-family="Helvetica,sans-Serif" font-size="10.00">XDino_Win64_HandleEvent</text>
</a>
</g>
</g>
<!-- Node3&#45;&gt;Node4 -->
<g id="edge3_Node000003_Node000004" class="edge">
<title>Node3&#45;&gt;Node4</title>
<g id="a_edge3_Node000003_Node000004"><a xlink:title=" ">
<path fill="none" stroke="#63b8ff" d="M237.04,-101.62C246.39,-101.62 256.01,-101.62 265.48,-101.62"/>
<polygon fill="#63b8ff" stroke="#63b8ff" points="265.41,-105.13 275.41,-101.63 265.41,-98.13 265.41,-105.13"/>
</a>
</g>
</g>
<!-- Node5 -->
<g id="Node000005" class="node">
<title>Node5</title>
<g id="a_Node000005"><a xlink:href="dino__game_8cpp.html#ac7b7408f18b3729af2f6e7f405f238e7" target="_top" xlink:title="Appelé pour générer chaque frame. Doit lireles entrées de jeu avec XDino_GetGamepad(),...">
<polygon fill="white" stroke="#666666" points="569.88,-247.25 475.12,-247.25 475.12,-228 569.88,-228 569.88,-247.25"/>
<text text-anchor="middle" x="522.5" y="-233.75" font-family="Helvetica,sans-Serif" font-size="10.00">Dino_GameFrame</text>
</a>
</g>
</g>
<!-- Node4&#45;&gt;Node5 -->
<g id="edge4_Node000004_Node000005" class="edge">
<title>Node4&#45;&gt;Node5</title>
<g id="a_edge4_Node000004_Node000005"><a xlink:title=" ">
<path fill="none" stroke="#63b8ff" d="M358.79,-111.63C388.6,-134.71 462.51,-191.94 499.57,-220.64"/>
<polygon fill="#63b8ff" stroke="#63b8ff" points="497.32,-223.33 507.37,-226.68 501.61,-217.79 497.32,-223.33"/>
</a>
</g>
</g>
<!-- Node14 -->
<g id="Node000014" class="node">
<title>Node14</title>
<g id="a_Node000014"><a xlink:href="dino__game_8cpp.html#a34e4cc788612f46dea16beb4b24dd0ab" target="_top" xlink:title="Appelé au tout début, pour initialiser la logique de jeu.">
<polygon fill="white" stroke="#666666" points="562.75,-167.25 482.25,-167.25 482.25,-148 562.75,-148 562.75,-167.25"/>
<text text-anchor="middle" x="522.5" y="-153.75" font-family="Helvetica,sans-Serif" font-size="10.00">Dino_GameInit</text>
</a>
</g>
</g>
<!-- Node4&#45;&gt;Node14 -->
<g id="edge13_Node000004_Node000014" class="edge">
<title>Node4&#45;&gt;Node14</title>
<g id="a_edge13_Node000004_Node000014"><a xlink:title=" ">
<path fill="none" stroke="#63b8ff" d="M370.49,-111.63C391.11,-119.8 421.44,-131.31 448.5,-139.62 455.71,-141.84 463.38,-143.97 470.94,-145.95"/>
<polygon fill="#63b8ff" stroke="#63b8ff" points="469.85,-149.28 480.41,-148.35 471.57,-142.5 469.85,-149.28"/>
</a>
</g>
</g>
<!-- Node15 -->
<g id="Node000015" class="node">
<title>Node15</title>
<g id="a_Node000015"><a xlink:href="xdino__win64__rdr_8cpp.html#a19e4f0d170af5a9a4eb73f6274dc1217" target="_top" xlink:title="Spécifique à la plateforme. Commence la passe de rendu.">
<polygon fill="white" stroke="#666666" points="586,-130.25 459,-130.25 459,-111 586,-111 586,-130.25"/>
<text text-anchor="middle" x="522.5" y="-116.75" font-family="Helvetica,sans-Serif" font-size="10.00">XDino_Win64_BeginDraw</text>
</a>
</g>
</g>
<!-- Node4&#45;&gt;Node15 -->
<g id="edge16_Node000004_Node000015" class="edge">
<title>Node4&#45;&gt;Node15</title>
<g id="a_edge16_Node000004_Node000015"><a xlink:title=" ">
<path fill="none" stroke="#63b8ff" d="M412.77,-108.86C424.04,-110.08 435.8,-111.35 447.24,-112.59"/>
<polygon fill="#63b8ff" stroke="#63b8ff" points="446.72,-116.06 457.04,-113.65 447.48,-109.1 446.72,-116.06"/>
</a>
</g>
</g>
<!-- Node16 -->
<g id="Node000016" class="node">
<title>Node16</title>
<g id="a_Node000016"><a xlink:href="xdino__win64__main_8cpp.html#a5f03a33705fae3997a21af54ca15a039" target="_top" xlink:title=" ">
<polygon fill="white" stroke="#666666" points="596.12,-93.25 448.88,-93.25 448.88,-74 596.12,-74 596.12,-93.25"/>
<text text-anchor="middle" x="522.5" y="-79.75" font-family="Helvetica,sans-Serif" font-size="10.00">XDino_Win64_CreateRenderer</text>
</a>
</g>
</g>
<!-- Node4&#45;&gt;Node16 -->
<g id="edge17_Node000004_Node000016" class="edge">
<title>Node4&#45;&gt;Node16</title>
<g id="a_edge17_Node000004_Node000016"><a xlink:title=" ">
<path fill="none" stroke="#63b8ff" d="M412.77,-94.77C420.84,-93.94 429.15,-93.09 437.42,-92.24"/>
<polygon fill="#63b8ff" stroke="#63b8ff" points="437.54,-95.75 447.14,-91.25 436.83,-88.78 437.54,-95.75"/>
</a>
</g>
</g>
<!-- Node17 -->
<g id="Node000017" class="node">
<title>Node17</title>
<g id="a_Node000017"><a xlink:href="xdino__win64__rdr_8cpp.html#ad13ae3c31e66f2cdf34b75465d4bac17" target="_top" xlink:title="Spécifique à la plateforme. Finit la passe de rendu et envoit le travail à la carte graphique.">
<polygon fill="white" stroke="#666666" points="581.88,-56.25 463.12,-56.25 463.12,-37 581.88,-37 581.88,-56.25"/>
<text text-anchor="middle" x="522.5" y="-42.75" font-family="Helvetica,sans-Serif" font-size="10.00">XDino_Win64_EndDraw</text>
</a>
</g>
</g>
<!-- Node4&#45;&gt;Node17 -->
<g id="edge18_Node000004_Node000017" class="edge">
<title>Node4&#45;&gt;Node17</title>
<g id="a_edge18_Node000004_Node000017"><a xlink:title=" ">
<path fill="none" stroke="#63b8ff" d="M371.35,-91.6C391.97,-83.69 421.85,-72.69 448.5,-64.62 454.28,-62.88 460.35,-61.17 466.42,-59.55"/>
<polygon fill="#63b8ff" stroke="#63b8ff" points="467.02,-63.01 475.83,-57.12 465.27,-56.24 467.02,-63.01"/>
</a>
</g>
</g>
<!-- Node19 -->
<g id="Node000019" class="node">
<title>Node19</title>
<g id="a_Node000019"><a xlink:href="xdino__win64__rdr_8cpp.html#a9ff5efef1703f2710d3e28a03a61ae85" target="_top" xlink:title="Spécifique à la plateforme. Redimensionnne le rendu.">
<polygon fill="white" stroke="#666666" points="596.5,-19.25 448.5,-19.25 448.5,0 596.5,0 596.5,-19.25"/>
<text text-anchor="middle" x="522.5" y="-5.75" font-family="Helvetica,sans-Serif" font-size="10.00">XDino_Win64_ResizeRenderer</text>
</a>
</g>
</g>
<!-- Node4&#45;&gt;Node19 -->
<g id="edge20_Node000004_Node000019" class="edge">
<title>Node4&#45;&gt;Node19</title>
<g id="a_edge20_Node000004_Node000019"><a xlink:title=" ">
<path fill="none" stroke="#63b8ff" d="M356.67,-91.64C374.45,-75.73 411.62,-44.68 448.5,-27.62 451.98,-26.01 455.63,-24.54 459.35,-23.18"/>
<polygon fill="#63b8ff" stroke="#63b8ff" points="460.14,-26.61 468.55,-20.16 457.96,-19.96 460.14,-26.61"/>
</a>
</g>
</g>
<!-- Node6 -->
<g id="Node000006" class="node">
<title>Node6</title>
<g id="a_Node000006"><a xlink:href="dino__draw__utils_8cpp.html#a70b3d7868b24344ba6b57f9eda900d45" target="_top" xlink:title="Produit un dessin de cercle avec la couleur spécifiée. La position (0,0) correspond au centre du cerc...">
<polygon fill="white" stroke="#666666" points="756.88,-301.88 648.62,-301.88 648.62,-271.38 756.88,-271.38 756.88,-301.88"/>
<text text-anchor="start" x="656.62" y="-288.38" font-family="Helvetica,sans-Serif" font-size="10.00">Dino_CreateDrawCall</text>
<text text-anchor="middle" x="702.75" y="-277.12" font-family="Helvetica,sans-Serif" font-size="10.00">_Circle</text>
</a>
</g>
</g>
<!-- Node5&#45;&gt;Node6 -->
<g id="edge5_Node000005_Node000006" class="edge">
<title>Node5&#45;&gt;Node6</title>
<g id="a_edge5_Node000005_Node000006"><a xlink:title=" ">
<path fill="none" stroke="#63b8ff" d="M560,-247.66C582.28,-253.78 611.4,-261.79 637.44,-268.95"/>
<polygon fill="#63b8ff" stroke="#63b8ff" points="636.36,-272.28 646.93,-271.55 638.21,-265.53 636.36,-272.28"/>
</a>
</g>
</g>
<!-- Node7 -->
<g id="Node000007" class="node">
<title>Node7</title>
<g id="a_Node000007"><a xlink:href="dino__draw__utils_8cpp.html#ae65d5defac67d1322c09dcc087933ddf" target="_top" xlink:title="Produit un dessin contenant une liste de segments, tous reliés.">
<polygon fill="white" stroke="#666666" points="756.88,-252.88 648.62,-252.88 648.62,-222.38 756.88,-222.38 756.88,-252.88"/>
<text text-anchor="start" x="656.62" y="-239.38" font-family="Helvetica,sans-Serif" font-size="10.00">Dino_CreateDrawCall</text>
<text text-anchor="middle" x="702.75" y="-228.12" font-family="Helvetica,sans-Serif" font-size="10.00">_Polyline</text>
</a>
</g>
</g>
<!-- Node5&#45;&gt;Node7 -->
<g id="edge6_Node000005_Node000007" class="edge">
<title>Node5&#45;&gt;Node7</title>
<g id="a_edge6_Node000005_Node000007"><a xlink:title=" ">
<path fill="none" stroke="#63b8ff" d="M570.33,-237.62C590.71,-237.62 614.93,-237.62 636.99,-237.62"/>
<polygon fill="#63b8ff" stroke="#63b8ff" points="636.79,-241.13 646.79,-237.63 636.79,-234.13 636.79,-241.13"/>
</a>
</g>
</g>
<!-- Node8 -->
<g id="Node000008" class="node">
<title>Node8</title>
<g id="a_Node000008"><a xlink:href="dino__draw__utils_8cpp.html#a17814530f19db0ce5f6ffe17f9d5b431" target="_top" xlink:title="Produit un dessin contenant du texte, avec éventuellement une couleur de fond. La position (0,...">
<polygon fill="white" stroke="#666666" points="768.88,-204.25 636.62,-204.25 636.62,-185 768.88,-185 768.88,-204.25"/>
<text text-anchor="middle" x="702.75" y="-190.75" font-family="Helvetica,sans-Serif" font-size="10.00">Dino_CreateDrawCall_Text</text>
</a>
</g>
</g>
<!-- Node5&#45;&gt;Node8 -->
<g id="edge7_Node000005_Node000008" class="edge">
<title>Node5&#45;&gt;Node8</title>
<g id="a_edge7_Node000005_Node000008"><a xlink:title=" ">
<path fill="none" stroke="#63b8ff" d="M565.29,-227.54C590.23,-221.53 622.14,-213.83 648.83,-207.39"/>
<polygon fill="#63b8ff" stroke="#63b8ff" points="649.54,-210.82 658.44,-205.07 647.9,-204.02 649.54,-210.82"/>
</a>
</g>
</g>
<!-- Node9 -->
<g id="Node000009" class="node">
<title>Node9</title>
<g id="a_Node000009"><a xlink:href="xdino__win64__rdr_8cpp.html#af6f41148f29d2c60fc4f9e51449436fa" target="_top" xlink:title="Transfère les triangles à dessiner à la carte graphique.">
<polygon fill="white" stroke="#666666" points="737.75,-413.25 667.75,-413.25 667.75,-394 737.75,-394 737.75,-413.25"/>
<text text-anchor="middle" x="702.75" y="-399.75" font-family="Helvetica,sans-Serif" font-size="10.00">XDino_Draw</text>
</a>
</g>
</g>
<!-- Node5&#45;&gt;Node9 -->
<g id="edge8_Node000005_Node000009" class="edge">
<title>Node5&#45;&gt;Node9</title>
<g id="a_edge8_Node000005_Node000009"><a xlink:title=" ">
<path fill="none" stroke="#63b8ff" d="M527.94,-247.75C540.29,-274.68 577.8,-348.59 632.5,-385.62 639.65,-390.47 648.03,-394.01 656.43,-396.59"/>
<polygon fill="#63b8ff" stroke="#63b8ff" points="655.38,-399.94 665.94,-399.09 657.16,-393.17 655.38,-399.94"/>
</a>
</g>
</g>
<!-- Node10 -->
<g id="Node000010" class="node">
<title>Node10</title>
<g id="a_Node000010"><a xlink:href="xdino__win64__main_8cpp.html#a68646c879bb2deb348cfa0ae2fc53b92" target="_top" xlink:title="Récupère l&#39;état de la manette concernée.">
<polygon fill="white" stroke="#666666" points="755.38,-376.25 650.12,-376.25 650.12,-357 755.38,-357 755.38,-376.25"/>
<text text-anchor="middle" x="702.75" y="-362.75" font-family="Helvetica,sans-Serif" font-size="10.00">XDino_GetGamepad</text>
</a>
</g>
</g>
<!-- Node5&#45;&gt;Node10 -->
<g id="edge9_Node000005_Node000010" class="edge">
<title>Node5&#45;&gt;Node10</title>
<g id="a_edge9_Node000005_Node000010"><a xlink:title=" ">
<path fill="none" stroke="#63b8ff" d="M530.39,-247.68C545.92,-269.57 585.97,-321.71 632.5,-348.62 634.81,-349.96 637.23,-351.2 639.71,-352.35"/>
<polygon fill="#63b8ff" stroke="#63b8ff" points="638.21,-355.52 648.8,-356.02 640.83,-349.03 638.21,-355.52"/>
</a>
</g>
</g>
<!-- Node11 -->
<g id="Node000011" class="node">
<title>Node11</title>
<g id="a_Node000011"><a xlink:href="xdino__win64__rdr_8cpp.html#a8fb3a63e6442dd880092baee74243dd3" target="_top" xlink:title="Taille de la fenêtre sur l&#39;écran. Attention, différent de la résolution du rendu !">
<polygon fill="white" stroke="#666666" points="761,-130.25 644.5,-130.25 644.5,-111 761,-111 761,-130.25"/>
<text text-anchor="middle" x="702.75" y="-116.75" font-family="Helvetica,sans-Serif" font-size="10.00">XDino_GetWindowSize</text>
</a>
</g>
</g>
<!-- Node5&#45;&gt;Node11 -->
<g id="edge10_Node000005_Node000011" class="edge">
<title>Node5&#45;&gt;Node11</title>
<g id="a_edge10_Node000005_Node000011"><a xlink:title=" ">
<path fill="none" stroke="#63b8ff" d="M536.28,-227.69C551.16,-215.96 576.28,-195.62 596.5,-176.62 613.45,-160.69 612.47,-150.45 632.5,-138.62 634.67,-137.34 636.94,-136.15 639.26,-135.04"/>
<polygon fill="#63b8ff" stroke="#63b8ff" points="640.48,-138.33 648.38,-131.28 637.8,-131.86 640.48,-138.33"/>
</a>
</g>
</g>
<!-- Node12 -->
<g id="Node000012" class="node">
<title>Node12</title>
<g id="a_Node000012"><a xlink:href="xdino__win64__rdr_8cpp.html#abded2f43911a4a13d4742539b59797e0" target="_top" xlink:title="Pour indiquer la couleur d&#39;arrière&#45;plan.">
<polygon fill="white" stroke="#666666" points="756.5,-339.25 649,-339.25 649,-320 756.5,-320 756.5,-339.25"/>
<text text-anchor="middle" x="702.75" y="-325.75" font-family="Helvetica,sans-Serif" font-size="10.00">XDino_SetClearColor</text>
</a>
</g>
</g>
<!-- Node5&#45;&gt;Node12 -->
<g id="edge11_Node000005_Node000012" class="edge">
<title>Node5&#45;&gt;Node12</title>
<g id="a_edge11_Node000005_Node000012"><a xlink:title=" ">
<path fill="none" stroke="#63b8ff" d="M535.47,-247.56C554.75,-263.11 594.39,-293.2 632.5,-310.62 636.77,-312.58 641.29,-314.37 645.88,-316"/>
<polygon fill="#63b8ff" stroke="#63b8ff" points="644.64,-319.28 655.23,-319.06 646.81,-312.62 644.64,-319.28"/>
</a>
</g>
</g>
<!-- Node13 -->
<g id="Node000013" class="node">
<title>Node13</title>
<g id="a_Node000013"><a xlink:href="xdino__win64__rdr_8cpp.html#a57ea716600a49f61ffff0bd33bd78a7d" target="_top" xlink:title="Modifie la taille de rendu. Les coordonnées passées dans les vertex sont en rapport à cette taille.">
<polygon fill="white" stroke="#666666" points="758.75,-167.25 646.75,-167.25 646.75,-148 758.75,-148 758.75,-167.25"/>
<text text-anchor="middle" x="702.75" y="-153.75" font-family="Helvetica,sans-Serif" font-size="10.00">XDino_SetRenderSize</text>
</a>
</g>
</g>
<!-- Node5&#45;&gt;Node13 -->
<g id="edge12_Node000005_Node000013" class="edge">
<title>Node5&#45;&gt;Node13</title>
<g id="a_edge12_Node000005_Node000013"><a xlink:title=" ">
<path fill="none" stroke="#63b8ff" d="M538.03,-227.7C558.36,-214.21 596.8,-190.12 632.5,-175.62 636.59,-173.96 640.88,-172.42 645.24,-170.98"/>
<polygon fill="#63b8ff" stroke="#63b8ff" points="646.13,-174.37 654.67,-168.1 644.09,-167.68 646.13,-174.37"/>
</a>
</g>
</g>
<!-- Node14&#45;&gt;Node11 -->
<g id="edge14_Node000014_Node000011" class="edge">
<title>Node14&#45;&gt;Node11</title>
<g id="a_edge14_Node000014_Node000011"><a xlink:title=" ">
<path fill="none" stroke="#63b8ff" d="M563.06,-149.41C586.2,-144.61 615.88,-138.45 641.84,-133.06"/>
<polygon fill="#63b8ff" stroke="#63b8ff" points="642.52,-136.49 651.6,-131.03 641.1,-129.64 642.52,-136.49"/>
</a>
</g>
</g>
<!-- Node14&#45;&gt;Node13 -->
<g id="edge15_Node000014_Node000013" class="edge">
<title>Node14&#45;&gt;Node13</title>
<g id="a_edge15_Node000014_Node000013"><a xlink:title=" ">
<path fill="none" stroke="#63b8ff" d="M563.06,-157.62C584.22,-157.62 610.85,-157.62 635.1,-157.62"/>
<polygon fill="#63b8ff" stroke="#63b8ff" points="634.9,-161.13 644.9,-157.63 634.9,-154.13 634.9,-161.13"/>
</a>
</g>
</g>
<!-- Node18 -->
<g id="Node000018" class="node">
<title>Node18</title>
<g id="a_Node000018"><a xlink:href="xdino__win64__rdr_8cpp.html#af0297fec7b8843bff04ad8b0e7477845" target="_top" xlink:title="Spécifique à la plateforme. Charge une texture.">
<polygon fill="white" stroke="#666666" points="773,-56.25 632.5,-56.25 632.5,-37 773,-37 773,-56.25"/>
<text text-anchor="middle" x="702.75" y="-42.75" font-family="Helvetica,sans-Serif" font-size="10.00">XDino_Win64_CreateTexture</text>
</a>
</g>
</g>
<!-- Node17&#45;&gt;Node18 -->
<g id="edge19_Node000017_Node000018" class="edge">
<title>Node17&#45;&gt;Node18</title>
<g id="a_edge19_Node000017_Node000018"><a xlink:title=" ">
<path fill="none" stroke="#63b8ff" d="M582.36,-46.62C594.67,-46.62 607.86,-46.62 620.82,-46.62"/>
<polygon fill="#63b8ff" stroke="#63b8ff" points="620.6,-50.13 630.6,-46.63 620.6,-43.13 620.6,-50.13"/>
</a>
</g>
</g>
</g>
</svg>
