<?xml version="1.0" encoding="UTF-8" standalone="no"?>
<!DOCTYPE svg PUBLIC "-//W3C//DTD SVG 1.1//EN"
 "http://www.w3.org/Graphics/SVG/1.1/DTD/svg11.dtd">
<!-- Generated by graphviz version 9.0.0 (20230911.1827)
 -->
<!-- Title: xdino_impl.h Pages: 1 -->
<svg width="313pt" height="193pt"
 viewBox="0.00 0.00 312.50 193.00" xmlns="http://www.w3.org/2000/svg" xmlns:xlink="http://www.w3.org/1999/xlink">
<g id="graph0" class="graph" transform="scale(1 1) rotate(0) translate(4 189)">
<title>xdino_impl.h</title>
<!-- Node1 -->
<g id="Node000001" class="node">
<title>Node1</title>
<g id="a_Node000001"><a xlink:title=" ">
<polygon fill="#999999" stroke="#666666" points="159.62,-185 90.38,-185 90.38,-165.75 159.62,-165.75 159.62,-185"/>
<text text-anchor="middle" x="125" y="-171.5" font-family="Helvetica,sans-Serif" font-size="10.00">xdino_impl.h</text>
</a>
</g>
</g>
<!-- Node2 -->
<g id="Node000002" class="node">
<title>Node2</title>
<g id="a_Node000002"><a xlink:title=" ">
<polygon fill="#e0e0e0" stroke="#999999" points="40,-19.25 0,-19.25 0,0 40,0 40,-19.25"/>
<text text-anchor="middle" x="20" y="-5.75" font-family="Helvetica,sans-Serif" font-size="10.00">string</text>
</a>
</g>
</g>
<!-- Node1&#45;&gt;Node2 -->
<g id="edge1_Node000001_Node000002" class="edge">
<title>Node1&#45;&gt;Node2</title>
<g id="a_edge1_Node000001_Node000002"><a xlink:title=" ">
<path fill="none" stroke="#63b8ff" d="M114.96,-165.49C97.12,-149.19 59.84,-112.65 39,-74.5 31.43,-60.65 26.54,-43.42 23.61,-30.35"/>
<polygon fill="#63b8ff" stroke="#63b8ff" points="27.1,-29.93 21.69,-20.82 20.24,-31.32 27.1,-29.93"/>
</a>
</g>
</g>
<!-- Node3 -->
<g id="Node000003" class="node">
<title>Node3</title>
<g id="a_Node000003"><a xlink:title=" ">
<polygon fill="#e0e0e0" stroke="#999999" points="166.5,-19.25 123.5,-19.25 123.5,0 166.5,0 166.5,-19.25"/>
<text text-anchor="middle" x="145" y="-5.75" font-family="Helvetica,sans-Serif" font-size="10.00">vector</text>
</a>
</g>
</g>
<!-- Node1&#45;&gt;Node3 -->
<g id="edge2_Node000001_Node000003" class="edge">
<title>Node1&#45;&gt;Node3</title>
<g id="a_edge2_Node000001_Node000003"><a xlink:title=" ">
<path fill="none" stroke="#63b8ff" d="M126.08,-165.57C129.17,-140.25 138.15,-66.75 142.53,-30.84"/>
<polygon fill="#63b8ff" stroke="#63b8ff" points="146,-31.33 143.74,-20.97 139.05,-30.48 146,-31.33"/>
</a>
</g>
</g>
<!-- Node4 -->
<g id="Node000004" class="node">
<title>Node4</title>
<g id="a_Node000004"><a xlink:href="dino__draw__utils_8h.html" target="_top" xlink:title="Fonctions pour dessiner des primitives de rendu.">
<polygon fill="white" stroke="#666666" points="284,-129.75 172,-129.75 172,-110.5 284,-110.5 284,-129.75"/>
<text text-anchor="middle" x="228" y="-116.25" font-family="Helvetica,sans-Serif" font-size="10.00">dino/dino_draw_utils.h</text>
</a>
</g>
</g>
<!-- Node1&#45;&gt;Node4 -->
<g id="edge3_Node000001_Node000004" class="edge">
<title>Node1&#45;&gt;Node4</title>
<g id="a_edge3_Node000001_Node000004"><a xlink:title=" ">
<path fill="none" stroke="#63b8ff" d="M142.47,-165.34C158.31,-157.16 181.91,-144.96 200.31,-135.44"/>
<polygon fill="#63b8ff" stroke="#63b8ff" points="201.82,-138.6 209.1,-130.9 198.61,-132.38 201.82,-138.6"/>
</a>
</g>
</g>
<!-- Node5 -->
<g id="Node000005" class="node">
<title>Node5</title>
<g id="a_Node000005"><a xlink:href="xdino_8h.html" target="_top" xlink:title="API d&#39;interaction entre le moteur de jeu &quot;XDino&quot; et la logique de jeu.">
<polygon fill="white" stroke="#666666" points="115.5,-74.5 48.5,-74.5 48.5,-55.25 115.5,-55.25 115.5,-74.5"/>
<text text-anchor="middle" x="82" y="-61" font-family="Helvetica,sans-Serif" font-size="10.00">dino/xdino.h</text>
</a>
</g>
</g>
<!-- Node1&#45;&gt;Node5 -->
<g id="edge10_Node000001_Node000005" class="edge">
<title>Node1&#45;&gt;Node5</title>
<g id="a_edge10_Node000001_Node000005"><a xlink:title=" ">
<path fill="none" stroke="#63b8ff" d="M121.48,-165.5C114.58,-148.09 99.14,-109.12 89.74,-85.41"/>
<polygon fill="#63b8ff" stroke="#63b8ff" points="93.06,-84.29 86.13,-76.28 86.56,-86.87 93.06,-84.29"/>
</a>
</g>
</g>
<!-- Node4&#45;&gt;Node5 -->
<g id="edge4_Node000004_Node000005" class="edge">
<title>Node4&#45;&gt;Node5</title>
<g id="a_edge4_Node000004_Node000005"><a xlink:title=" ">
<path fill="none" stroke="#63b8ff" d="M203.23,-110.09C179.74,-101.52 144.19,-88.56 117.65,-78.88"/>
<polygon fill="#63b8ff" stroke="#63b8ff" points="118.9,-75.61 108.31,-75.47 116.51,-82.19 118.9,-75.61"/>
</a>
</g>
</g>
<!-- Node7 -->
<g id="Node000007" class="node">
<title>Node7</title>
<g id="a_Node000007"><a xlink:title=" ">
<polygon fill="#e0e0e0" stroke="#999999" points="304.5,-74.5 267.5,-74.5 267.5,-55.25 304.5,-55.25 304.5,-74.5"/>
<text text-anchor="middle" x="286" y="-61" font-family="Helvetica,sans-Serif" font-size="10.00">span</text>
</a>
</g>
</g>
<!-- Node4&#45;&gt;Node7 -->
<g id="edge8_Node000004_Node000007" class="edge">
<title>Node4&#45;&gt;Node7</title>
<g id="a_edge8_Node000004_Node000007"><a xlink:title=" ">
<path fill="none" stroke="#63b8ff" d="M237.84,-110.09C246.05,-102.55 257.98,-91.6 267.91,-82.48"/>
<polygon fill="#63b8ff" stroke="#63b8ff" points="270.19,-85.14 275.19,-75.8 265.46,-79.98 270.19,-85.14"/>
</a>
</g>
</g>
<!-- Node8 -->
<g id="Node000008" class="node">
<title>Node8</title>
<g id="a_Node000008"><a xlink:title=" ">
<polygon fill="#e0e0e0" stroke="#999999" points="249.75,-74.5 184.25,-74.5 184.25,-55.25 249.75,-55.25 249.75,-74.5"/>
<text text-anchor="middle" x="217" y="-61" font-family="Helvetica,sans-Serif" font-size="10.00">string_view</text>
</a>
</g>
</g>
<!-- Node4&#45;&gt;Node8 -->
<g id="edge9_Node000004_Node000008" class="edge">
<title>Node4&#45;&gt;Node8</title>
<g id="a_edge9_Node000004_Node000008"><a xlink:title=" ">
<path fill="none" stroke="#63b8ff" d="M226.18,-110.33C224.82,-103.74 222.9,-94.46 221.17,-86.07"/>
<polygon fill="#63b8ff" stroke="#63b8ff" points="224.61,-85.43 219.16,-76.34 217.76,-86.84 224.61,-85.43"/>
</a>
</g>
</g>
<!-- Node5&#45;&gt;Node2 -->
<g id="edge6_Node000005_Node000002" class="edge">
<title>Node5&#45;&gt;Node2</title>
<g id="a_edge6_Node000005_Node000002"><a xlink:title=" ">
<path fill="none" stroke="#63b8ff" d="M71.48,-54.84C62.61,-47.22 49.69,-36.12 39.01,-26.95"/>
<polygon fill="#63b8ff" stroke="#63b8ff" points="41.38,-24.37 31.51,-20.51 36.82,-29.68 41.38,-24.37"/>
</a>
</g>
</g>
<!-- Node5&#45;&gt;Node3 -->
<g id="edge7_Node000005_Node000003" class="edge">
<title>Node5&#45;&gt;Node3</title>
<g id="a_edge7_Node000005_Node000003"><a xlink:title=" ">
<path fill="none" stroke="#63b8ff" d="M92.69,-54.84C101.7,-47.22 114.83,-36.12 125.68,-26.95"/>
<polygon fill="#63b8ff" stroke="#63b8ff" points="127.94,-29.63 133.31,-20.5 123.42,-24.28 127.94,-29.63"/>
</a>
</g>
</g>
<!-- Node6 -->
<g id="Node000006" class="node">
<title>Node6</title>
<g id="a_Node000006"><a xlink:title=" ">
<polygon fill="#e0e0e0" stroke="#999999" points="105.75,-19.25 58.25,-19.25 58.25,0 105.75,0 105.75,-19.25"/>
<text text-anchor="middle" x="82" y="-5.75" font-family="Helvetica,sans-Serif" font-size="10.00">stdint.h</text>
</a>
</g>
</g>
<!-- Node5&#45;&gt;Node6 -->
<g id="edge5_Node000005_Node000006" class="edge">
<title>Node5&#45;&gt;Node6</title>
<g id="a_edge5_Node000005_Node000006"><a xlink:title=" ">
<path fill="none" stroke="#63b8ff" d="M82,-55.08C82,-48.57 82,-39.42 82,-31.12"/>
<polygon fill="#63b8ff" stroke="#63b8ff" points="85.5,-31.12 82,-21.12 78.5,-31.12 85.5,-31.12"/>
</a>
</g>
</g>
</g>
</svg>
