<?xml version="1.0" encoding="UTF-8" standalone="no"?>
<!DOCTYPE svg PUBLIC "-//W3C//DTD SVG 1.1//EN"
 "http://www.w3.org/Graphics/SVG/1.1/DTD/svg11.dtd">
<!-- Generated by graphviz version 9.0.0 (20230911.1827)
 -->
<!-- Title: XDino_CreateGpuTexture Pages: 1 -->
<svg width="311pt" height="64pt"
 viewBox="0.00 0.00 310.75 64.25" xmlns="http://www.w3.org/2000/svg" xmlns:xlink="http://www.w3.org/1999/xlink">
<g id="graph0" class="graph" transform="scale(1 1) rotate(0) translate(4 60.25)">
<title>XDino_CreateGpuTexture</title>
<!-- Node1 -->
<g id="Node000001" class="node">
<title>Node1</title>
<g id="a_Node000001"><a xlink:title="Charge une texture nommée &#39;pName&#39; depuis le disque jusqu&#39;à la carte graphique. Retourne l&#39;identifiant...">
<polygon fill="#999999" stroke="#666666" points="126.25,-37.25 0,-37.25 0,-18 126.25,-18 126.25,-37.25"/>
<text text-anchor="middle" x="63.12" y="-23.75" font-family="Helvetica,sans-Serif" font-size="10.00">XDino_CreateGpuTexture</text>
</a>
</g>
</g>
<!-- Node2 -->
<g id="Node000002" class="node">
<title>Node2</title>
<g id="a_Node000002"><a xlink:href="xdino__linux__main_8cpp.html#a9a7f32a9d3a97c86d7e2998d754c811e" target="_top" xlink:title=" ">
<polygon fill="white" stroke="#666666" points="300.88,-56.25 164.12,-56.25 164.12,-37 300.88,-37 300.88,-56.25"/>
<text text-anchor="middle" x="232.5" y="-42.75" font-family="Helvetica,sans-Serif" font-size="10.00">XDino_Linux_CreateTexture</text>
</a>
</g>
</g>
<!-- Node1&#45;&gt;Node2 -->
<g id="edge1_Node000001_Node000002" class="edge">
<title>Node1&#45;&gt;Node2</title>
<g id="a_edge1_Node000001_Node000002"><a xlink:title=" ">
<path fill="none" stroke="#63b8ff" d="M126.45,-34.7C134.92,-35.66 143.69,-36.66 152.41,-37.65"/>
<polygon fill="#63b8ff" stroke="#63b8ff" points="151.95,-41.12 162.28,-38.77 152.74,-34.16 151.95,-41.12"/>
</a>
</g>
</g>
<!-- Node3 -->
<g id="Node000003" class="node">
<title>Node3</title>
<g id="a_Node000003"><a xlink:href="xdino__win64__rdr_8cpp.html#a5fa8e92f937b798b5855261946645c27" target="_top" xlink:title="Spécifique à la plateforme. Charge une texture.">
<polygon fill="white" stroke="#666666" points="302.75,-19.25 162.25,-19.25 162.25,0 302.75,0 302.75,-19.25"/>
<text text-anchor="middle" x="232.5" y="-5.75" font-family="Helvetica,sans-Serif" font-size="10.00">XDino_Win64_CreateTexture</text>
</a>
</g>
</g>
<!-- Node1&#45;&gt;Node3 -->
<g id="edge2_Node000001_Node000003" class="edge">
<title>Node1&#45;&gt;Node3</title>
<g id="a_edge2_Node000001_Node000003"><a xlink:title=" ">
<path fill="none" stroke="#63b8ff" d="M126.45,-20.92C134.28,-20.08 142.38,-19.21 150.45,-18.34"/>
<polygon fill="#63b8ff" stroke="#63b8ff" points="150.73,-21.83 160.3,-17.28 149.98,-14.87 150.73,-21.83"/>
</a>
</g>
</g>
</g>
</svg>
