<?xml version="1.0" encoding="UTF-8" standalone="no"?>
<!DOCTYPE svg PUBLIC "-//W3C//DTD SVG 1.1//EN"
 "http://www.w3.org/Graphics/SVG/1.1/DTD/svg11.dtd">
<!-- Generated by graphviz version 9.0.0 (20230911.1827)
 -->
<!-- Title: sokol_main Pages: 1 -->
<!--zoomable 594 -->

<svg id="main" version="1.1" xmlns="http://www.w3.org/2000/svg" xmlns:xlink="http://www.w3.org/1999/xlink" xml:space="preserve" onload="init(evt)">
<style type="text/css"><![CDATA[
.node, .edge {opacity: 0.7;}
.node.selected, .edge.selected {opacity: 1;}
.edge:hover path { stroke: red; }
.edge:hover polygon { stroke: red; fill: red; }
]]></style>

<defs>
  <circle id="rim" cx="0" cy="0" r="7"/>
  <circle id="rim2" cx="0" cy="0" r="3.5"/>
  <g id="zoomPlus">
    <use xlink:href="#rim" fill="#404040"><set attributeName="fill" to="#808080" begin="zoomplus.mouseover" end="zoomplus.mouseout"/></use>
    <path d="M-4,0h8M0,-4v8" fill="none" stroke="white" stroke-width="1.5" pointer-events="none"/>
  </g>
  <g id="zoomMin">
    <use xlink:href="#rim" fill="#404040"><set attributeName="fill" to="#808080" begin="zoomminus.mouseover" end="zoomminus.mouseout"/></use>
    <path d="M-4,0h8" fill="none" stroke="white" stroke-width="1.5" pointer-events="none"/>
  </g>
  <g id="arrowUp" transform="translate(30 24)">
    <use xlink:href="#rim"/>
    <path pointer-events="none" fill="none" stroke="white" stroke-width="1.5" d="M0,-3.0v7 M-2.5,-0.5L0,-3.0L2.5,-0.5"/>
  </g>
  <g id="arrowRight" transform="rotate(90) translate(36 -43)">
    <use xlink:href="#rim"/>
    <path pointer-events="none" fill="none" stroke="white" stroke-width="1.5" d="M0,-3.0v7 M-2.5,-0.5L0,-3.0L2.5,-0.5"/>
  </g>
  <g id="arrowDown" transform="rotate(180) translate(-30 -48)">
    <use xlink:href="#rim"/>
    <path pointer-events="none" fill="none" stroke="white" stroke-width="1.5" d="M0,-3.0v7 M-2.5,-0.5L0,-3.0L2.5,-0.5"/>
  </g>
  <g id="arrowLeft" transform="rotate(270) translate(-36 17)">
    <use xlink:href="#rim"/>
    <path pointer-events="none" fill="none" stroke="white" stroke-width="1.5" d="M0,-3.0v7 M-2.5,-0.5L0,-3.0L2.5,-0.5"/>
  </g>
  <g id="resetDef">
    <use xlink:href="#rim2" fill="#404040"><set attributeName="fill" to="#808080" begin="reset.mouseover" end="reset.mouseout"/></use>
  </g>
</defs>
<script type="application/ecmascript">
var viewWidth = 770;
var viewHeight = 594;
var sectionId = 'dynsection-12';
</script>
<script type="application/ecmascript" xlink:href="svg.min.js"/>
<svg id="graph" class="graph">
<g id="viewport">
<title>sokol_main</title>
<!-- Node1 -->
<g id="Node000001" class="node">
<title>Node1</title>
<g id="a_Node000001"><a xlink:title=" ">
<polygon fill="#999999" stroke="#666666" points="65.5,-426.25 0,-426.25 0,-407 65.5,-407 65.5,-426.25"/>
<text text-anchor="middle" x="32.75" y="-412.75" font-family="Helvetica,sans-Serif" font-size="10.00">sokol_main</text>
</a>
</g>
</g>
<!-- Node2 -->
<g id="Node000002" class="node">
<title>Node2</title>
<g id="a_Node000002"><a xlink:href="xdino__linux__main_8cpp.html#a8b096a8c85b239812dd34af59ae9951b" target="_top" xlink:title=" ">
<polygon fill="white" stroke="#666666" points="212.75,-501.25 101.5,-501.25 101.5,-482 212.75,-482 212.75,-501.25"/>
<text text-anchor="middle" x="157.12" y="-487.75" font-family="Helvetica,sans-Serif" font-size="10.00">XDino_Linux_Cleanup</text>
</a>
</g>
</g>
<!-- Node1&#45;&gt;Node2 -->
<g id="edge1_Node000001_Node000002" class="edge">
<title>Node1&#45;&gt;Node2</title>
<g id="a_edge1_Node000001_Node000002"><a xlink:title=" ">
<path fill="none" stroke="#63b8ff" d="M50.25,-426.74C70.8,-439.33 106.14,-460.99 130.29,-475.79"/>
<polygon fill="#63b8ff" stroke="#63b8ff" points="128.24,-478.64 138.59,-480.88 131.89,-472.67 128.24,-478.64"/>
</a>
</g>
</g>
<!-- Node8 -->
<g id="Node000008" class="node">
<title>Node8</title>
<g id="a_Node000008"><a xlink:href="xdino__linux__main_8cpp.html#ab13936e05190d51f1309590302b94570" target="_top" xlink:title=" ">
<polygon fill="white" stroke="#666666" points="207.5,-445.25 106.75,-445.25 106.75,-426 207.5,-426 207.5,-445.25"/>
<text text-anchor="middle" x="157.12" y="-431.75" font-family="Helvetica,sans-Serif" font-size="10.00">XDino_Linux_Event</text>
</a>
</g>
</g>
<!-- Node1&#45;&gt;Node8 -->
<g id="edge9_Node000001_Node000008" class="edge">
<title>Node1&#45;&gt;Node8</title>
<g id="a_edge9_Node000001_Node000008"><a xlink:title=" ">
<path fill="none" stroke="#63b8ff" d="M65.9,-421.62C75.06,-423.04 85.34,-424.63 95.59,-426.23"/>
<polygon fill="#63b8ff" stroke="#63b8ff" points="94.74,-429.64 105.16,-427.71 95.82,-422.72 94.74,-429.64"/>
</a>
</g>
</g>
<!-- Node9 -->
<g id="Node000009" class="node">
<title>Node9</title>
<g id="a_Node000009"><a xlink:href="xdino__linux__main_8cpp.html#a23ab8c2bbf03b45563425c6f39f83e8e" target="_top" xlink:title=" ">
<polygon fill="white" stroke="#666666" points="209,-408.25 105.25,-408.25 105.25,-389 209,-389 209,-408.25"/>
<text text-anchor="middle" x="157.12" y="-394.75" font-family="Helvetica,sans-Serif" font-size="10.00">XDino_Linux_Frame</text>
</a>
</g>
</g>
<!-- Node1&#45;&gt;Node9 -->
<g id="edge10_Node000001_Node000009" class="edge">
<title>Node1&#45;&gt;Node9</title>
<g id="a_edge10_Node000001_Node000009"><a xlink:title=" ">
<path fill="none" stroke="#63b8ff" d="M65.9,-411.9C74.45,-410.64 83.99,-409.24 93.57,-407.83"/>
<polygon fill="#63b8ff" stroke="#63b8ff" points="93.9,-411.32 103.28,-406.4 92.88,-404.39 93.9,-411.32"/>
</a>
</g>
</g>
<!-- Node19 -->
<g id="Node000019" class="node">
<title>Node19</title>
<g id="a_Node000019"><a xlink:href="xdino__linux__main_8cpp.html#a1c1b5043b07b3c147c6b32c1d87b2f54" target="_top" xlink:title=" ">
<polygon fill="white" stroke="#666666" points="201.88,-112.25 112.38,-112.25 112.38,-93 201.88,-93 201.88,-112.25"/>
<text text-anchor="middle" x="157.12" y="-98.75" font-family="Helvetica,sans-Serif" font-size="10.00">XDino_Linux_Init</text>
</a>
</g>
</g>
<!-- Node1&#45;&gt;Node19 -->
<g id="edge27_Node000001_Node000019" class="edge">
<title>Node1&#45;&gt;Node19</title>
<g id="a_edge27_Node000001_Node000019"><a xlink:title=" ">
<path fill="none" stroke="#63b8ff" d="M37.68,-406.53C54.98,-362.15 124.48,-183.82 148.17,-123.04"/>
<polygon fill="#63b8ff" stroke="#63b8ff" points="151.35,-124.52 151.72,-113.93 144.83,-121.98 151.35,-124.52"/>
</a>
</g>
</g>
<!-- Node3 -->
<g id="Node000003" class="node">
<title>Node3</title>
<g id="a_Node000003"><a xlink:href="dino__game_8cpp.html#af5be2c6012bb9e2650a622d88c610fd6" target="_top" xlink:title="Appelé quand l&#39;utilisateur demande à quitter le jeu (touche ECHAP).">
<polygon fill="white" stroke="#666666" points="377.62,-558.25 290.38,-558.25 290.38,-539 377.62,-539 377.62,-558.25"/>
<text text-anchor="middle" x="334" y="-544.75" font-family="Helvetica,sans-Serif" font-size="10.00">Dino_GameShut</text>
</a>
</g>
</g>
<!-- Node2&#45;&gt;Node3 -->
<g id="edge2_Node000002_Node000003" class="edge">
<title>Node2&#45;&gt;Node3</title>
<g id="a_edge2_Node000002_Node000003"><a xlink:title=" ">
<path fill="none" stroke="#63b8ff" d="M184.13,-501.66C202.15,-508.47 226.77,-517.5 248.75,-524.62 260.26,-528.36 272.76,-532.09 284.51,-535.46"/>
<polygon fill="#63b8ff" stroke="#63b8ff" points="283.47,-538.8 294.04,-538.15 285.37,-532.06 283.47,-538.8"/>
</a>
</g>
</g>
<!-- Node4 -->
<g id="Node000004" class="node">
<title>Node4</title>
<g id="a_Node000004"><a xlink:href="xdino__linux__main_8cpp.html#aea37196dc8b2efde10a58c7befd954b0" target="_top" xlink:title="Décharge la texture identifiée par &#39;texID&#39; de la carte graphique.">
<polygon fill="white" stroke="#666666" points="587.5,-577.25 456.75,-577.25 456.75,-558 587.5,-558 587.5,-577.25"/>
<text text-anchor="middle" x="522.12" y="-563.75" font-family="Helvetica,sans-Serif" font-size="10.00">XDino_DestroyGpuTexture</text>
</a>
</g>
</g>
<!-- Node2&#45;&gt;Node4 -->
<g id="edge5_Node000002_Node000004" class="edge">
<title>Node2&#45;&gt;Node4</title>
<g id="a_edge5_Node000002_Node000004"><a xlink:title=" ">
<path fill="none" stroke="#63b8ff" d="M165.78,-501.52C179.93,-518.88 212.09,-554.29 248.75,-567.62 317.35,-592.58 402.25,-587.44 458.86,-579.43"/>
<polygon fill="#63b8ff" stroke="#63b8ff" points="459.27,-582.9 468.64,-577.96 458.23,-575.98 459.27,-582.9"/>
</a>
</g>
</g>
<!-- Node5 -->
<g id="Node000005" class="node">
<title>Node5</title>
<g id="a_Node000005"><a xlink:href="xdino__linux__main_8cpp.html#a641cf6ebd62e0ffbcf34a364bb9bf03b" target="_top" xlink:title="Décharge la liste de sommets identifiée par &#39;vbufID&#39; de la carte graphique.">
<polygon fill="white" stroke="#666666" points="589,-520.25 455.25,-520.25 455.25,-501 589,-501 589,-520.25"/>
<text text-anchor="middle" x="522.12" y="-506.75" font-family="Helvetica,sans-Serif" font-size="10.00">XDino_DestroyVertexBuffer</text>
</a>
</g>
</g>
<!-- Node2&#45;&gt;Node5 -->
<g id="edge6_Node000002_Node000005" class="edge">
<title>Node2&#45;&gt;Node5</title>
<g id="a_edge6_Node000002_Node000005"><a xlink:title=" ">
<path fill="none" stroke="#63b8ff" d="M212.86,-494.49C274.21,-497.7 374.16,-502.93 443.55,-506.56"/>
<polygon fill="#63b8ff" stroke="#63b8ff" points="443.16,-510.05 453.33,-507.08 443.52,-503.06 443.16,-510.05"/>
</a>
</g>
</g>
<!-- Node6 -->
<g id="Node000006" class="node">
<title>Node6</title>
<g id="a_Node000006"><a xlink:href="xdino__linux__main_8cpp.html#a0e84462316162d9ce7fb89152af8cd03" target="_top" xlink:title=" ">
<polygon fill="white" stroke="#666666" points="412.88,-482.25 255.12,-482.25 255.12,-463 412.88,-463 412.88,-482.25"/>
<text text-anchor="middle" x="334" y="-468.75" font-family="Helvetica,sans-Serif" font-size="10.00">XDino_Linux_CollectRessources</text>
</a>
</g>
</g>
<!-- Node2&#45;&gt;Node6 -->
<g id="edge7_Node000002_Node000006" class="edge">
<title>Node2&#45;&gt;Node6</title>
<g id="a_edge7_Node000002_Node000006"><a xlink:title=" ">
<path fill="none" stroke="#63b8ff" d="M212.98,-485.67C222.69,-484.61 233.02,-483.49 243.4,-482.36"/>
<polygon fill="#63b8ff" stroke="#63b8ff" points="243.58,-485.86 253.14,-481.3 242.82,-478.9 243.58,-485.86"/>
</a>
</g>
</g>
<!-- Node7 -->
<g id="Node000007" class="node">
<title>Node7</title>
<g id="a_Node000007"><a xlink:href="xdino__linux__main_8cpp.html#a19b005d9e234569206ea690926217e5a" target="_top" xlink:title=" ">
<polygon fill="white" stroke="#666666" points="419.25,-445.25 248.75,-445.25 248.75,-426 419.25,-426 419.25,-445.25"/>
<text text-anchor="middle" x="334" y="-431.75" font-family="Helvetica,sans-Serif" font-size="10.00">XDino_Linux_PurgeDeadResources</text>
</a>
</g>
</g>
<!-- Node2&#45;&gt;Node7 -->
<g id="edge8_Node000002_Node000007" class="edge">
<title>Node2&#45;&gt;Node7</title>
<g id="a_edge8_Node000002_Node000007"><a xlink:title=" ">
<path fill="none" stroke="#63b8ff" d="M178.95,-481.58C197.06,-473.17 224.17,-461.33 248.75,-453.62 254.88,-451.7 261.32,-449.92 267.79,-448.29"/>
<polygon fill="#63b8ff" stroke="#63b8ff" points="268.3,-451.76 277.21,-446.02 266.67,-444.96 268.3,-451.76"/>
</a>
</g>
</g>
<!-- Node3&#45;&gt;Node4 -->
<g id="edge3_Node000003_Node000004" class="edge">
<title>Node3&#45;&gt;Node4</title>
<g id="a_edge3_Node000003_Node000004"><a xlink:title=" ">
<path fill="none" stroke="#63b8ff" d="M377.7,-552.98C397.72,-555.03 422.18,-557.52 445.19,-559.87"/>
<polygon fill="#63b8ff" stroke="#63b8ff" points="444.54,-563.32 454.84,-560.86 445.25,-556.36 444.54,-563.32"/>
</a>
</g>
</g>
<!-- Node3&#45;&gt;Node5 -->
<g id="edge4_Node000003_Node000005" class="edge">
<title>Node3&#45;&gt;Node5</title>
<g id="a_edge4_Node000003_Node000005"><a xlink:title=" ">
<path fill="none" stroke="#63b8ff" d="M377.7,-539.91C402.32,-534.88 433.67,-528.48 460.78,-522.95"/>
<polygon fill="#63b8ff" stroke="#63b8ff" points="461.13,-526.45 470.23,-521.02 459.73,-519.59 461.13,-526.45"/>
</a>
</g>
</g>
<!-- Node9&#45;&gt;Node6 -->
<g id="edge20_Node000009_Node000006" class="edge">
<title>Node9&#45;&gt;Node6</title>
<g id="a_edge20_Node000009_Node000006"><a xlink:title=" ">
<path fill="none" stroke="#63b8ff" d="M196.83,-408.7C202.38,-410.9 207.86,-413.52 212.75,-416.62 232.39,-429.09 228.46,-443.24 248.75,-454.62 251.12,-455.95 253.57,-457.18 256.09,-458.32"/>
<polygon fill="#63b8ff" stroke="#63b8ff" points="254.74,-461.55 265.32,-461.96 257.3,-455.04 254.74,-461.55"/>
</a>
</g>
</g>
<!-- Node9&#45;&gt;Node7 -->
<g id="edge21_Node000009_Node000007" class="edge">
<title>Node9&#45;&gt;Node7</title>
<g id="a_edge21_Node000009_Node000007"><a xlink:title=" ">
<path fill="none" stroke="#63b8ff" d="M205.91,-408.74C227.02,-413.2 252.04,-418.5 274.27,-423.2"/>
<polygon fill="#63b8ff" stroke="#63b8ff" points="273.28,-426.57 283.79,-425.21 274.73,-419.72 273.28,-426.57"/>
</a>
</g>
</g>
<!-- Node10 -->
<g id="Node000010" class="node">
<title>Node10</title>
<g id="a_Node000010"><a xlink:href="dino__game_8cpp.html#ac7b7408f18b3729af2f6e7f405f238e7" target="_top" xlink:title="Appelé pour générer chaque frame. Doit lireles entrées de jeu avec XDino_GetGamepad(),...">
<polygon fill="white" stroke="#666666" points="381.38,-371.25 286.62,-371.25 286.62,-352 381.38,-352 381.38,-371.25"/>
<text text-anchor="middle" x="334" y="-357.75" font-family="Helvetica,sans-Serif" font-size="10.00">Dino_GameFrame</text>
</a>
</g>
</g>
<!-- Node9&#45;&gt;Node10 -->
<g id="edge11_Node000009_Node000010" class="edge">
<title>Node9&#45;&gt;Node10</title>
<g id="a_edge11_Node000009_Node000010"><a xlink:title=" ">
<path fill="none" stroke="#63b8ff" d="M205.91,-388.51C227.28,-383.99 252.66,-378.62 275.09,-373.88"/>
<polygon fill="#63b8ff" stroke="#63b8ff" points="275.64,-377.34 284.7,-371.84 274.19,-370.49 275.64,-377.34"/>
</a>
</g>
</g>
<!-- Node18 -->
<g id="Node000018" class="node">
<title>Node18</title>
<g id="a_Node000018"><a xlink:href="xdino__impl_8h.html#afb7598b07900a9b7f46de9fae53de8a0" target="_top" xlink:title="Trucs communs entre les différentes implémentations de l&#39;API XDino. En général, cela concerne le debu...">
<polygon fill="white" stroke="#666666" points="390,-408.25 278,-408.25 278,-389 390,-389 390,-408.25"/>
<text text-anchor="middle" x="334" y="-394.75" font-family="Helvetica,sans-Serif" font-size="10.00">XDinoImpl_DrawStats</text>
</a>
</g>
</g>
<!-- Node9&#45;&gt;Node18 -->
<g id="edge22_Node000009_Node000018" class="edge">
<title>Node9&#45;&gt;Node18</title>
<g id="a_edge22_Node000009_Node000018"><a xlink:title=" ">
<path fill="none" stroke="#63b8ff" d="M209.18,-398.62C227.04,-398.62 247.38,-398.62 266.33,-398.62"/>
<polygon fill="#63b8ff" stroke="#63b8ff" points="266.09,-402.13 276.09,-398.63 266.09,-395.13 266.09,-402.13"/>
</a>
</g>
</g>
<!-- Node10&#45;&gt;Node5 -->
<g id="edge14_Node000010_Node000005" class="edge">
<title>Node10&#45;&gt;Node5</title>
<g id="a_edge14_Node000010_Node000005"><a xlink:title=" ">
<path fill="none" stroke="#63b8ff" d="M381.86,-362.96C395.29,-365.48 409.04,-370.4 419.25,-379.62 458.03,-414.69 417.72,-455.22 455.25,-491.62 456.31,-492.65 457.42,-493.62 458.57,-494.54"/>
<polygon fill="#63b8ff" stroke="#63b8ff" points="456.55,-497.41 466.87,-499.81 460.3,-491.5 456.55,-497.41"/>
</a>
</g>
</g>
<!-- Node11 -->
<g id="Node000011" class="node">
<title>Node11</title>
<g id="a_Node000011"><a xlink:href="dino__draw__utils_8cpp.html#a9473461ff91938cb3c388c767b78f785" target="_top" xlink:title="Produit un dessin contenant du texte, avec éventuellement une couleur de fond. Les sommets doivent êt...">
<polygon fill="white" stroke="#666666" points="581.5,-482.25 462.75,-482.25 462.75,-463 581.5,-463 581.5,-482.25"/>
<text text-anchor="middle" x="522.12" y="-468.75" font-family="Helvetica,sans-Serif" font-size="10.00">Dino_GenVertices_Text</text>
</a>
</g>
</g>
<!-- Node10&#45;&gt;Node11 -->
<g id="edge12_Node000010_Node000011" class="edge">
<title>Node10&#45;&gt;Node11</title>
<g id="a_edge12_Node000010_Node000011"><a xlink:title=" ">
<path fill="none" stroke="#63b8ff" d="M381.55,-363.93C394.82,-366.5 408.56,-371.21 419.25,-379.62 448.3,-402.5 426.85,-430.95 455.25,-454.62 456.21,-455.42 457.19,-456.18 458.21,-456.91"/>
<polygon fill="#63b8ff" stroke="#63b8ff" points="456.29,-459.85 466.7,-461.84 459.81,-453.79 456.29,-459.85"/>
</a>
</g>
</g>
<!-- Node12 -->
<g id="Node000012" class="node">
<title>Node12</title>
<g id="a_Node000012"><a xlink:href="xdino__linux__main_8cpp.html#ad7cc0200df4ae9dc2f3445ce0c5bb02c" target="_top" xlink:title="Copie une liste de sommets de triangles texturés sur la carte graphique. Retourne l&#39;identifiant uniqu...">
<polygon fill="white" stroke="#666666" points="586.75,-408.25 457.5,-408.25 457.5,-389 586.75,-389 586.75,-408.25"/>
<text text-anchor="middle" x="522.12" y="-394.75" font-family="Helvetica,sans-Serif" font-size="10.00">XDino_CreateVertexBuffer</text>
</a>
</g>
</g>
<!-- Node10&#45;&gt;Node12 -->
<g id="edge13_Node000010_Node000012" class="edge">
<title>Node10&#45;&gt;Node12</title>
<g id="a_edge13_Node000010_Node000012"><a xlink:title=" ">
<path fill="none" stroke="#63b8ff" d="M381.49,-370.87C405.03,-375.55 433.93,-381.29 459.32,-386.34"/>
<polygon fill="#63b8ff" stroke="#63b8ff" points="458.35,-389.72 468.85,-388.23 459.72,-382.85 458.35,-389.72"/>
</a>
</g>
</g>
<!-- Node13 -->
<g id="Node000013" class="node">
<title>Node13</title>
<g id="a_Node000013"><a xlink:href="xdino__linux__main_8cpp.html#a7d5347b96a8386cfa0d2ee33abaf36bb" target="_top" xlink:title="Transfère les triangles à dessiner à la carte graphique.">
<polygon fill="white" stroke="#666666" points="557.12,-445.25 487.12,-445.25 487.12,-426 557.12,-426 557.12,-445.25"/>
<text text-anchor="middle" x="522.12" y="-431.75" font-family="Helvetica,sans-Serif" font-size="10.00">XDino_Draw</text>
</a>
</g>
</g>
<!-- Node10&#45;&gt;Node13 -->
<g id="edge15_Node000010_Node000013" class="edge">
<title>Node10&#45;&gt;Node13</title>
<g id="a_edge15_Node000010_Node000013"><a xlink:title=" ">
<path fill="none" stroke="#63b8ff" d="M381.84,-366.47C394.54,-369.14 407.9,-373.26 419.25,-379.62 439.54,-391.01 435.29,-405.67 455.25,-417.62 461.6,-421.43 468.77,-424.45 475.98,-426.84"/>
<polygon fill="#63b8ff" stroke="#63b8ff" points="474.83,-430.14 485.41,-429.58 476.78,-423.42 474.83,-430.14"/>
</a>
</g>
</g>
<!-- Node14 -->
<g id="Node000014" class="node">
<title>Node14</title>
<g id="a_Node000014"><a xlink:href="xdino__linux__main_8cpp.html#afce3fa5d5fa809f786dad62cd3989b7a" target="_top" xlink:title="Affiche les statistiques de consommation mémoire et de ressources chargées.">
<polygon fill="white" stroke="#666666" points="568.75,-371.25 475.5,-371.25 475.5,-352 568.75,-352 568.75,-371.25"/>
<text text-anchor="middle" x="522.12" y="-357.75" font-family="Helvetica,sans-Serif" font-size="10.00">XDino_DrawStats</text>
</a>
</g>
</g>
<!-- Node10&#45;&gt;Node14 -->
<g id="edge16_Node000010_Node000014" class="edge">
<title>Node10&#45;&gt;Node14</title>
<g id="a_edge16_Node000010_Node000014"><a xlink:title=" ">
<path fill="none" stroke="#63b8ff" d="M381.49,-361.62C406.44,-361.62 437.4,-361.62 463.83,-361.62"/>
<polygon fill="#63b8ff" stroke="#63b8ff" points="463.72,-365.13 473.72,-361.63 463.72,-358.13 463.72,-365.13"/>
</a>
</g>
</g>
<!-- Node15 -->
<g id="Node000015" class="node">
<title>Node15</title>
<g id="a_Node000015"><a xlink:href="xdino__linux__main_8cpp.html#a68646c879bb2deb348cfa0ae2fc53b92" target="_top" xlink:title="Récupère l&#39;état de la manette concernée.">
<polygon fill="white" stroke="#666666" points="574.75,-334.25 469.5,-334.25 469.5,-315 574.75,-315 574.75,-334.25"/>
<text text-anchor="middle" x="522.12" y="-320.75" font-family="Helvetica,sans-Serif" font-size="10.00">XDino_GetGamepad</text>
</a>
</g>
</g>
<!-- Node10&#45;&gt;Node15 -->
<g id="edge17_Node000010_Node000015" class="edge">
<title>Node10&#45;&gt;Node15</title>
<g id="a_edge17_Node000010_Node000015"><a xlink:title=" ">
<path fill="none" stroke="#63b8ff" d="M381.49,-352.38C405.03,-347.7 433.93,-341.96 459.32,-336.91"/>
<polygon fill="#63b8ff" stroke="#63b8ff" points="459.72,-340.4 468.85,-335.02 458.35,-333.53 459.72,-340.4"/>
</a>
</g>
</g>
<!-- Node16 -->
<g id="Node000016" class="node">
<title>Node16</title>
<g id="a_Node000016"><a xlink:href="xdino__linux__main_8cpp.html#a4ded9317bd5f35f70b1473c729e56d1a" target="_top" xlink:title="Taille du rendu. Attention, différent de la résolution affichée à l&#39;écran !">
<polygon fill="white" stroke="#666666" points="578.5,-297.25 465.75,-297.25 465.75,-278 578.5,-278 578.5,-297.25"/>
<text text-anchor="middle" x="522.12" y="-283.75" font-family="Helvetica,sans-Serif" font-size="10.00">XDino_GetRenderSize</text>
</a>
</g>
</g>
<!-- Node10&#45;&gt;Node16 -->
<g id="edge18_Node000010_Node000016" class="edge">
<title>Node10&#45;&gt;Node16</title>
<g id="a_edge18_Node000010_Node000016"><a xlink:title=" ">
<path fill="none" stroke="#63b8ff" d="M353.74,-351.69C377.04,-339.61 418.27,-319.18 455.25,-305.62 459.7,-304 464.36,-302.44 469.06,-300.97"/>
<polygon fill="#63b8ff" stroke="#63b8ff" points="469.99,-304.34 478.57,-298.13 467.99,-297.63 469.99,-304.34"/>
</a>
</g>
</g>
<!-- Node17 -->
<g id="Node000017" class="node">
<title>Node17</title>
<g id="a_Node000017"><a xlink:href="xdino__linux__main_8cpp.html#abded2f43911a4a13d4742539b59797e0" target="_top" xlink:title="Pour indiquer la couleur d&#39;arrière&#45;plan.">
<polygon fill="white" stroke="#666666" points="575.88,-260.25 468.38,-260.25 468.38,-241 575.88,-241 575.88,-260.25"/>
<text text-anchor="middle" x="522.12" y="-246.75" font-family="Helvetica,sans-Serif" font-size="10.00">XDino_SetClearColor</text>
</a>
</g>
</g>
<!-- Node10&#45;&gt;Node17 -->
<g id="edge19_Node000010_Node000017" class="edge">
<title>Node10&#45;&gt;Node17</title>
<g id="a_edge19_Node000010_Node000017"><a xlink:title=" ">
<path fill="none" stroke="#63b8ff" d="M344.98,-351.63C364.47,-332.67 409.67,-291.35 455.25,-268.62 458.28,-267.11 461.46,-265.71 464.71,-264.42"/>
<polygon fill="#63b8ff" stroke="#63b8ff" points="465.59,-267.82 473.83,-261.16 463.24,-261.23 465.59,-267.82"/>
</a>
</g>
</g>
<!-- Node18&#45;&gt;Node5 -->
<g id="edge25_Node000018_Node000005" class="edge">
<title>Node18&#45;&gt;Node5</title>
<g id="a_edge25_Node000018_Node000005"><a xlink:title=" ">
<path fill="none" stroke="#63b8ff" d="M390.33,-402.95C400.71,-405.75 410.91,-410.06 419.25,-416.62 448.3,-439.5 427.02,-467.75 455.25,-491.62 456.72,-492.87 458.26,-494.03 459.87,-495.11"/>
<polygon fill="#63b8ff" stroke="#63b8ff" points="457.87,-498.01 468.31,-499.8 461.27,-491.89 457.87,-498.01"/>
</a>
</g>
</g>
<!-- Node18&#45;&gt;Node11 -->
<g id="edge23_Node000018_Node000011" class="edge">
<title>Node18&#45;&gt;Node11</title>
<g id="a_edge23_Node000018_Node000011"><a xlink:title=" ">
<path fill="none" stroke="#63b8ff" d="M390.23,-405.44C400.28,-408.04 410.38,-411.65 419.25,-416.62 439.54,-428.01 435.29,-442.67 455.25,-454.62 457.4,-455.91 459.64,-457.11 461.95,-458.22"/>
<polygon fill="#63b8ff" stroke="#63b8ff" points="460.4,-461.37 470.98,-462 463.11,-454.91 460.4,-461.37"/>
</a>
</g>
</g>
<!-- Node18&#45;&gt;Node12 -->
<g id="edge24_Node000018_Node000012" class="edge">
<title>Node18&#45;&gt;Node12</title>
<g id="a_edge24_Node000018_Node000012"><a xlink:title=" ">
<path fill="none" stroke="#63b8ff" d="M390.34,-398.62C407.73,-398.62 427.24,-398.62 445.78,-398.62"/>
<polygon fill="#63b8ff" stroke="#63b8ff" points="445.65,-402.13 455.65,-398.63 445.65,-395.13 445.65,-402.13"/>
</a>
</g>
</g>
<!-- Node18&#45;&gt;Node13 -->
<g id="edge26_Node000018_Node000013" class="edge">
<title>Node18&#45;&gt;Node13</title>
<g id="a_edge26_Node000018_Node000013"><a xlink:title=" ">
<path fill="none" stroke="#63b8ff" d="M385.86,-408.74C413.92,-414.31 448.49,-421.19 475.65,-426.58"/>
<polygon fill="#63b8ff" stroke="#63b8ff" points="474.82,-429.99 485.31,-428.51 476.19,-423.12 474.82,-429.99"/>
</a>
</g>
</g>
<!-- Node20 -->
<g id="Node000020" class="node">
<title>Node20</title>
<g id="a_Node000020"><a xlink:href="dino__game_8cpp.html#a34e4cc788612f46dea16beb4b24dd0ab" target="_top" xlink:title="Appelé au tout début, pour initialiser la logique de jeu.">
<polygon fill="white" stroke="#666666" points="374.25,-131.25 293.75,-131.25 293.75,-112 374.25,-112 374.25,-131.25"/>
<text text-anchor="middle" x="334" y="-117.75" font-family="Helvetica,sans-Serif" font-size="10.00">Dino_GameInit</text>
</a>
</g>
</g>
<!-- Node19&#45;&gt;Node20 -->
<g id="edge28_Node000019_Node000020" class="edge">
<title>Node19&#45;&gt;Node20</title>
<g id="a_edge28_Node000019_Node000020"><a xlink:title=" ">
<path fill="none" stroke="#63b8ff" d="M202.25,-107.42C226.56,-110.06 256.84,-113.35 282.13,-116.1"/>
<polygon fill="#63b8ff" stroke="#63b8ff" points="281.54,-119.55 291.86,-117.16 282.3,-112.6 281.54,-119.55"/>
</a>
</g>
</g>
<!-- Node23 -->
<g id="Node000023" class="node">
<title>Node23</title>
<g id="a_Node000023"><a xlink:href="xdino__linux__main_8cpp.html#a606a6ce34b0c704a35a8a61db01db625" target="_top" xlink:title="Charge une texture nommée &#39;pName&#39; depuis le disque jusqu&#39;à la carte graphique. Retourne l&#39;identifiant...">
<polygon fill="white" stroke="#666666" points="585.25,-38.25 459,-38.25 459,-19 585.25,-19 585.25,-38.25"/>
<text text-anchor="middle" x="522.12" y="-24.75" font-family="Helvetica,sans-Serif" font-size="10.00">XDino_CreateGpuTexture</text>
</a>
</g>
</g>
<!-- Node19&#45;&gt;Node23 -->
<g id="edge37_Node000019_Node000023" class="edge">
<title>Node19&#45;&gt;Node23</title>
<g id="a_edge37_Node000019_Node000023"><a xlink:title=" ">
<path fill="none" stroke="#63b8ff" d="M202.27,-93.63C266.97,-80.44 387.75,-55.81 460.65,-40.95"/>
<polygon fill="#63b8ff" stroke="#63b8ff" points="460.91,-44.47 470.01,-39.05 459.51,-37.61 460.91,-44.47"/>
</a>
</g>
</g>
<!-- Node24 -->
<g id="Node000024" class="node">
<title>Node24</title>
<g id="a_Node000024"><a xlink:href="xdino__linux__main_8cpp.html#a9a7f32a9d3a97c86d7e2998d754c811e" target="_top" xlink:title=" ">
<polygon fill="white" stroke="#666666" points="761.75,-19.25 625,-19.25 625,0 761.75,0 761.75,-19.25"/>
<text text-anchor="middle" x="693.38" y="-5.75" font-family="Helvetica,sans-Serif" font-size="10.00">XDino_Linux_CreateTexture</text>
</a>
</g>
</g>
<!-- Node19&#45;&gt;Node24 -->
<g id="edge38_Node000019_Node000024" class="edge">
<title>Node19&#45;&gt;Node24</title>
<g id="a_edge38_Node000019_Node000024"><a xlink:title=" ">
<path fill="none" stroke="#63b8ff" d="M170.81,-92.61C187.63,-79.86 218.69,-58.12 248.75,-46.62 369.72,-0.35 522.41,1.2 613.46,-3.26"/>
<polygon fill="#63b8ff" stroke="#63b8ff" points="613.12,-6.74 623.29,-3.78 613.49,0.25 613.12,-6.74"/>
</a>
</g>
</g>
<!-- Node20&#45;&gt;Node12 -->
<g id="edge33_Node000020_Node000012" class="edge">
<title>Node20&#45;&gt;Node12</title>
<g id="a_edge33_Node000020_Node000012"><a xlink:title=" ">
<path fill="none" stroke="#63b8ff" d="M336.57,-131.64C343.14,-170.19 372.12,-310.4 455.25,-380.62 456.2,-381.43 457.18,-382.2 458.2,-382.93"/>
<polygon fill="#63b8ff" stroke="#63b8ff" points="456.26,-385.85 466.66,-387.89 459.8,-379.81 456.26,-385.85"/>
</a>
</g>
</g>
<!-- Node21 -->
<g id="Node000021" class="node">
<title>Node21</title>
<g id="a_Node000021"><a xlink:href="dino__draw__utils_8cpp.html#a8a1875e3a83c7342b6cf774e492fc9e5" target="_top" xlink:title="Produit un dessin de cercle avec la couleur spécifiée. Les sommets doivent être dessiné avec XDino_TE...">
<polygon fill="white" stroke="#666666" points="584.5,-223.25 459.75,-223.25 459.75,-204 584.5,-204 584.5,-223.25"/>
<text text-anchor="middle" x="522.12" y="-209.75" font-family="Helvetica,sans-Serif" font-size="10.00">Dino_GenVertices_Circle</text>
</a>
</g>
</g>
<!-- Node20&#45;&gt;Node21 -->
<g id="edge29_Node000020_Node000021" class="edge">
<title>Node20&#45;&gt;Node21</title>
<g id="a_edge29_Node000020_Node000021"><a xlink:title=" ">
<path fill="none" stroke="#63b8ff" d="M348.37,-131.63C369.85,-147.3 413.87,-177.68 455.25,-195.62 458.84,-197.18 462.6,-198.64 466.42,-199.99"/>
<polygon fill="#63b8ff" stroke="#63b8ff" points="465.26,-203.29 475.85,-203.06 467.43,-196.64 465.26,-203.29"/>
</a>
</g>
</g>
<!-- Node22 -->
<g id="Node000022" class="node">
<title>Node22</title>
<g id="a_Node000022"><a xlink:href="dino__draw__utils_8cpp.html#ad4e078eff3e21bb5c840aea64bbf2673" target="_top" xlink:title="Produit un dessin contenant une liste de segments, tous reliés. Les sommets doivent être dessiné avec...">
<polygon fill="white" stroke="#666666" points="589,-186.25 455.25,-186.25 455.25,-167 589,-167 589,-186.25"/>
<text text-anchor="middle" x="522.12" y="-172.75" font-family="Helvetica,sans-Serif" font-size="10.00">Dino_GenVertices_Polyline</text>
</a>
</g>
</g>
<!-- Node20&#45;&gt;Node22 -->
<g id="edge30_Node000020_Node000022" class="edge">
<title>Node20&#45;&gt;Node22</title>
<g id="a_edge30_Node000020_Node000022"><a xlink:title=" ">
<path fill="none" stroke="#63b8ff" d="M366.82,-131.72C391.01,-139.32 425.15,-149.88 455.25,-158.62 460.8,-160.24 466.63,-161.89 472.42,-163.5"/>
<polygon fill="#63b8ff" stroke="#63b8ff" points="471.41,-166.86 481.99,-166.15 473.28,-160.11 471.41,-166.86"/>
</a>
</g>
</g>
<!-- Node20&#45;&gt;Node23 -->
<g id="edge31_Node000020_Node000023" class="edge">
<title>Node20&#45;&gt;Node23</title>
<g id="a_edge31_Node000020_Node000023"><a xlink:title=" ">
<path fill="none" stroke="#63b8ff" d="M347.99,-111.73C369.32,-95.91 413.54,-64.86 455.25,-46.62 458.83,-45.06 462.59,-43.6 466.41,-42.24"/>
<polygon fill="#63b8ff" stroke="#63b8ff" points="467.42,-45.59 475.84,-39.15 465.24,-38.94 467.42,-45.59"/>
</a>
</g>
</g>
<!-- Node25 -->
<g id="Node000025" class="node">
<title>Node25</title>
<g id="a_Node000025"><a xlink:href="xdino__linux__main_8cpp.html#a0bae910da7641a966b3caf0a765a16c1" target="_top" xlink:title="Retourne la taille en pixels de la texture chargée sur la carte graphique.">
<polygon fill="white" stroke="#666666" points="588.25,-149.25 456,-149.25 456,-130 588.25,-130 588.25,-149.25"/>
<text text-anchor="middle" x="522.12" y="-135.75" font-family="Helvetica,sans-Serif" font-size="10.00">XDino_GetGpuTextureSize</text>
</a>
</g>
</g>
<!-- Node20&#45;&gt;Node25 -->
<g id="edge34_Node000020_Node000025" class="edge">
<title>Node20&#45;&gt;Node25</title>
<g id="a_edge34_Node000020_Node000025"><a xlink:title=" ">
<path fill="none" stroke="#63b8ff" d="M374.47,-125.44C394.83,-127.41 420.38,-129.88 444.42,-132.21"/>
<polygon fill="#63b8ff" stroke="#63b8ff" points="443.91,-135.67 454.2,-133.15 444.59,-128.71 443.91,-135.67"/>
</a>
</g>
</g>
<!-- Node26 -->
<g id="Node000026" class="node">
<title>Node26</title>
<g id="a_Node000026"><a xlink:href="xdino__linux__main_8cpp.html#a8fb3a63e6442dd880092baee74243dd3" target="_top" xlink:title="Taille de la fenêtre sur l&#39;écran. Attention, différent de la résolution du rendu !">
<polygon fill="white" stroke="#666666" points="580.38,-112.25 463.88,-112.25 463.88,-93 580.38,-93 580.38,-112.25"/>
<text text-anchor="middle" x="522.12" y="-98.75" font-family="Helvetica,sans-Serif" font-size="10.00">XDino_GetWindowSize</text>
</a>
</g>
</g>
<!-- Node20&#45;&gt;Node26 -->
<g id="edge35_Node000020_Node000026" class="edge">
<title>Node20&#45;&gt;Node26</title>
<g id="a_edge35_Node000020_Node000026"><a xlink:title=" ">
<path fill="none" stroke="#63b8ff" d="M374.47,-117.6C397.06,-115.29 426.04,-112.33 452.26,-109.65"/>
<polygon fill="#63b8ff" stroke="#63b8ff" points="452.59,-113.14 462.19,-108.64 451.88,-106.18 452.59,-113.14"/>
</a>
</g>
</g>
<!-- Node27 -->
<g id="Node000027" class="node">
<title>Node27</title>
<g id="a_Node000027"><a xlink:href="xdino__linux__main_8cpp.html#a57ea716600a49f61ffff0bd33bd78a7d" target="_top" xlink:title="Modifie la taille de rendu. Les coordonnées passées dans les vertex sont en rapport à cette taille.">
<polygon fill="white" stroke="#666666" points="578.12,-75.25 466.12,-75.25 466.12,-56 578.12,-56 578.12,-75.25"/>
<text text-anchor="middle" x="522.12" y="-61.75" font-family="Helvetica,sans-Serif" font-size="10.00">XDino_SetRenderSize</text>
</a>
</g>
</g>
<!-- Node20&#45;&gt;Node27 -->
<g id="edge36_Node000020_Node000027" class="edge">
<title>Node20&#45;&gt;Node27</title>
<g id="a_edge36_Node000020_Node000027"><a xlink:title=" ">
<path fill="none" stroke="#63b8ff" d="M365.54,-111.61C389.79,-103.75 424.59,-92.66 455.25,-83.62 460.73,-82.01 466.47,-80.37 472.19,-78.77"/>
<polygon fill="#63b8ff" stroke="#63b8ff" points="472.92,-82.19 481.62,-76.15 471.05,-75.45 472.92,-82.19"/>
</a>
</g>
</g>
<!-- Node23&#45;&gt;Node24 -->
<g id="edge32_Node000023_Node000024" class="edge">
<title>Node23&#45;&gt;Node24</title>
<g id="a_edge32_Node000023_Node000024"><a xlink:title=" ">
<path fill="none" stroke="#63b8ff" d="M585.67,-21.6C594.7,-20.59 604.1,-19.53 613.41,-18.49"/>
<polygon fill="#63b8ff" stroke="#63b8ff" points="613.64,-21.99 623.18,-17.39 612.86,-15.03 613.64,-21.99"/>
</a>
</g>
</g>
</g>
</svg>

<g id="navigator" transform="translate(0 0)" fill="#404254">
  <rect fill="#f2f5e9" fill-opacity="0.5" stroke="#606060" stroke-width=".5" x="0" y="0" width="60" height="60"/>
  <use id="zoomplus" xlink:href="#zoomPlus" x="17" y="9" onmousedown="handleZoom(evt,'in')"/>
  <use id="zoomminus" xlink:href="#zoomMin" x="42" y="9" onmousedown="handleZoom(evt,'out')"/>
  <use id="reset" xlink:href="#resetDef" x="30" y="36" onmousedown="handleReset()"/>
   <use id="arrowup" xlink:href="#arrowUp" x="0" y="0" onmousedown="handlePan(0,-1)"/>
  <use id="arrowright" xlink:href="#arrowRight" x="0" y="0" onmousedown="handlePan(1,0)"/>
  <use id="arrowdown" xlink:href="#arrowDown" x="0" y="0" onmousedown="handlePan(0,1)"/>
  <use id="arrowleft" xlink:href="#arrowLeft" x="0" y="0" onmousedown="handlePan(-1,0)"/>
</g>
<svg viewBox="0 0 15 15" width="100%" height="30px" preserveAspectRatio="xMaxYMin meet">
 <g id="arrow_out" transform="scale(0.3 0.3)">
  <a xlink:href="xdino__linux__main_8cpp_a4646b314f2ba6df59c9b1805dd568b18_cgraph_org.svg" target="_base">
   <rect id="button" ry="5" rx="5" y="6" x="6" height="38" width="38"
        fill="#f2f5e9" fill-opacity="0.5" stroke="#606060" stroke-width="1.0"/>
   <path id="arrow"
     d="M 11.500037,31.436501 C 11.940474,20.09759 22.043105,11.32322 32.158766,21.979434 L 37.068811,17.246167 C 37.068811,17.246167 37.088388,32 37.088388,32 L 22.160133,31.978069 C 22.160133,31.978069 26.997745,27.140456 26.997745,27.140456 C 18.528582,18.264221 13.291696,25.230495 11.500037,31.436501 z"
     style="fill:#404040;"/>
  </a>
 </g>
</svg>

<style type='text/css'>
<![CDATA[
[data-mouse-over-selected='false'] { opacity: 0.7; }
[data-mouse-over-selected='true']  { opacity: 1.0; }
]]>
</style>
<script type="application/ecmascript"><![CDATA[
document.addEventListener('DOMContentLoaded', (event) => {
  highlightEdges();
  highlightAdjacentNodes();
});
]]></script>
</svg>
