<?xml version="1.0" encoding="UTF-8" standalone="no"?>
<!DOCTYPE svg PUBLIC "-//W3C//DTD SVG 1.1//EN"
 "http://www.w3.org/Graphics/SVG/1.1/DTD/svg11.dtd">
<!-- Generated by graphviz version 9.0.0 (20230911.1827)
 -->
<!-- Title: XDino_Linux_Frame Pages: 1 -->
<svg width="488pt" height="286pt"
 viewBox="0.00 0.00 488.00 286.25" xmlns="http://www.w3.org/2000/svg" xmlns:xlink="http://www.w3.org/1999/xlink">

<svg id="main" version="1.1" xmlns="http://www.w3.org/2000/svg" xmlns:xlink="http://www.w3.org/1999/xlink" xml:space="preserve" onload="init(evt)">
<style type="text/css"><![CDATA[
.node, .edge {opacity: 0.7;}
.node.selected, .edge.selected {opacity: 1;}
.edge:hover path { stroke: red; }
.edge:hover polygon { stroke: red; fill: red; }
]]></style>
<script type="application/ecmascript" xlink:href="svg.min.js"/>
<svg id="graph" class="graph">
<g id="graph0" class="graph" transform="scale(1 1) rotate(0) translate(4 282.25)">
<title>XDino_Linux_Frame</title>
<!-- Node1 -->
<g id="Node000001" class="node">
<title>Node1</title>
<g id="a_Node000001"><a xlink:title=" ">
<polygon fill="#999999" stroke="#666666" points="103.75,-148.25 0,-148.25 0,-129 103.75,-129 103.75,-148.25"/>
<text text-anchor="middle" x="51.88" y="-134.75" font-family="Helvetica,sans-Serif" font-size="10.00">XDino_Linux_Frame</text>
</a>
</g>
</g>
<!-- Node2 -->
<g id="Node000002" class="node">
<title>Node2</title>
<g id="a_Node000002"><a xlink:href="dino__game_8cpp.html#ac7b7408f18b3729af2f6e7f405f238e7" target="_top" xlink:title="Appelé pour générer chaque frame. Doit lireles entrées de jeu avec XDino_GetGamepad(),...">
<polygon fill="white" stroke="#666666" points="272.38,-167.25 177.62,-167.25 177.62,-148 272.38,-148 272.38,-167.25"/>
<text text-anchor="middle" x="225" y="-153.75" font-family="Helvetica,sans-Serif" font-size="10.00">Dino_GameFrame</text>
</a>
</g>
</g>
<!-- Node1&#45;&gt;Node2 -->
<g id="edge1_Node000001_Node000002" class="edge">
<title>Node1&#45;&gt;Node2</title>
<g id="a_edge1_Node000001_Node000002"><a xlink:title=" ">
<path fill="none" stroke="#63b8ff" d="M104.22,-144.33C123.73,-146.49 146.09,-148.97 166.16,-151.2"/>
<polygon fill="#63b8ff" stroke="#63b8ff" points="165.53,-154.65 175.86,-152.28 166.3,-147.7 165.53,-154.65"/>
</a>
</g>
</g>
<!-- Node11 -->
<g id="Node000011" class="node">
<title>Node11</title>
<g id="a_Node000011"><a xlink:href="xdino__linux__main_8cpp.html#a0e84462316162d9ce7fb89152af8cd03" target="_top" xlink:title=" ">
<polygon fill="white" stroke="#666666" points="303.88,-130.25 146.12,-130.25 146.12,-111 303.88,-111 303.88,-130.25"/>
<text text-anchor="middle" x="225" y="-116.75" font-family="Helvetica,sans-Serif" font-size="10.00">XDino_Linux_CollectRessources</text>
</a>
</g>
</g>
<!-- Node1&#45;&gt;Node11 -->
<g id="edge10_Node000001_Node000011" class="edge">
<title>Node1&#45;&gt;Node11</title>
<g id="a_edge10_Node000001_Node000011"><a xlink:title=" ">
<path fill="none" stroke="#63b8ff" d="M104.22,-133.22C113.83,-132.21 124.14,-131.13 134.52,-130.04"/>
<polygon fill="#63b8ff" stroke="#63b8ff" points="134.71,-133.54 144.29,-129.01 133.97,-126.58 134.71,-133.54"/>
</a>
</g>
</g>
<!-- Node12 -->
<g id="Node000012" class="node">
<title>Node12</title>
<g id="a_Node000012"><a xlink:href="xdino__linux__main_8cpp.html#a19b005d9e234569206ea690926217e5a" target="_top" xlink:title=" ">
<polygon fill="white" stroke="#666666" points="310.25,-93.25 139.75,-93.25 139.75,-74 310.25,-74 310.25,-93.25"/>
<text text-anchor="middle" x="225" y="-79.75" font-family="Helvetica,sans-Serif" font-size="10.00">XDino_Linux_PurgeDeadResources</text>
</a>
</g>
</g>
<!-- Node1&#45;&gt;Node12 -->
<g id="edge11_Node000001_Node000012" class="edge">
<title>Node1&#45;&gt;Node12</title>
<g id="a_edge11_Node000001_Node000012"><a xlink:title=" ">
<path fill="none" stroke="#63b8ff" d="M73.51,-128.5C90.85,-120.32 116.46,-109 139.75,-101.62 145.78,-99.72 152.11,-97.95 158.49,-96.32"/>
<polygon fill="#63b8ff" stroke="#63b8ff" points="158.85,-99.84 167.74,-94.09 157.2,-93.04 158.85,-99.84"/>
</a>
</g>
</g>
<!-- Node13 -->
<g id="Node000013" class="node">
<title>Node13</title>
<g id="a_Node000013"><a xlink:href="xdino__impl_8h.html#afb7598b07900a9b7f46de9fae53de8a0" target="_top" xlink:title="Trucs communs entre les différentes implémentations de l&#39;API XDino. En général, cela concerne le debu...">
<polygon fill="white" stroke="#666666" points="281,-204.25 169,-204.25 169,-185 281,-185 281,-204.25"/>
<text text-anchor="middle" x="225" y="-190.75" font-family="Helvetica,sans-Serif" font-size="10.00">XDinoImpl_DrawStats</text>
</a>
</g>
</g>
<!-- Node1&#45;&gt;Node13 -->
<g id="edge12_Node000001_Node000013" class="edge">
<title>Node1&#45;&gt;Node13</title>
<g id="a_edge12_Node000001_Node000013"><a xlink:title=" ">
<path fill="none" stroke="#63b8ff" d="M72.79,-148.72C90.11,-157.16 116.09,-169.01 139.75,-176.62 145.62,-178.52 151.79,-180.26 158.01,-181.87"/>
<polygon fill="#63b8ff" stroke="#63b8ff" points="157.18,-185.27 167.72,-184.24 158.83,-178.47 157.18,-185.27"/>
</a>
</g>
</g>
<!-- Node3 -->
<g id="Node000003" class="node">
<title>Node3</title>
<g id="a_Node000003"><a xlink:href="dino__draw__utils_8cpp.html#a9473461ff91938cb3c388c767b78f785" target="_top" xlink:title="Produit un dessin contenant du texte, avec éventuellement une couleur de fond. Les sommets doivent êt...">
<polygon fill="white" stroke="#666666" points="472.5,-204.25 353.75,-204.25 353.75,-185 472.5,-185 472.5,-204.25"/>
<text text-anchor="middle" x="413.12" y="-190.75" font-family="Helvetica,sans-Serif" font-size="10.00">Dino_GenVertices_Text</text>
</a>
</g>
</g>
<!-- Node2&#45;&gt;Node3 -->
<g id="edge2_Node000002_Node000003" class="edge">
<title>Node2&#45;&gt;Node3</title>
<g id="a_edge2_Node000002_Node000003"><a xlink:title=" ">
<path fill="none" stroke="#63b8ff" d="M272.49,-166.87C296.03,-171.55 324.93,-177.29 350.32,-182.34"/>
<polygon fill="#63b8ff" stroke="#63b8ff" points="349.35,-185.72 359.85,-184.23 350.72,-178.85 349.35,-185.72"/>
</a>
</g>
</g>
<!-- Node4 -->
<g id="Node000004" class="node">
<title>Node4</title>
<g id="a_Node000004"><a xlink:href="xdino__linux__main_8cpp.html#ad7cc0200df4ae9dc2f3445ce0c5bb02c" target="_top" xlink:title="Copie une liste de sommets de triangles texturés sur la carte graphique. Retourne l&#39;identifiant uniqu...">
<polygon fill="white" stroke="#666666" points="477.75,-167.25 348.5,-167.25 348.5,-148 477.75,-148 477.75,-167.25"/>
<text text-anchor="middle" x="413.12" y="-153.75" font-family="Helvetica,sans-Serif" font-size="10.00">XDino_CreateVertexBuffer</text>
</a>
</g>
</g>
<!-- Node2&#45;&gt;Node4 -->
<g id="edge3_Node000002_Node000004" class="edge">
<title>Node2&#45;&gt;Node4</title>
<g id="a_edge3_Node000002_Node000004"><a xlink:title=" ">
<path fill="none" stroke="#63b8ff" d="M272.49,-157.62C292.02,-157.62 315.23,-157.62 337.08,-157.62"/>
<polygon fill="#63b8ff" stroke="#63b8ff" points="336.83,-161.13 346.83,-157.63 336.83,-154.13 336.83,-161.13"/>
</a>
</g>
</g>
<!-- Node5 -->
<g id="Node000005" class="node">
<title>Node5</title>
<g id="a_Node000005"><a xlink:href="xdino__linux__main_8cpp.html#a641cf6ebd62e0ffbcf34a364bb9bf03b" target="_top" xlink:title="Décharge la liste de sommets identifiée par &#39;vbufID&#39; de la carte graphique.">
<polygon fill="white" stroke="#666666" points="480,-278.25 346.25,-278.25 346.25,-259 480,-259 480,-278.25"/>
<text text-anchor="middle" x="413.12" y="-264.75" font-family="Helvetica,sans-Serif" font-size="10.00">XDino_DestroyVertexBuffer</text>
</a>
</g>
</g>
<!-- Node2&#45;&gt;Node5 -->
<g id="edge4_Node000002_Node000005" class="edge">
<title>Node2&#45;&gt;Node5</title>
<g id="a_edge4_Node000002_Node000005"><a xlink:title=" ">
<path fill="none" stroke="#63b8ff" d="M272.55,-159.93C285.82,-162.5 299.56,-167.21 310.25,-175.62 339.3,-198.5 317.85,-226.95 346.25,-250.62 347.21,-251.42 348.19,-252.18 349.21,-252.91"/>
<polygon fill="#63b8ff" stroke="#63b8ff" points="347.29,-255.85 357.7,-257.84 350.81,-249.79 347.29,-255.85"/>
</a>
</g>
</g>
<!-- Node6 -->
<g id="Node000006" class="node">
<title>Node6</title>
<g id="a_Node000006"><a xlink:href="xdino__linux__main_8cpp.html#a7d5347b96a8386cfa0d2ee33abaf36bb" target="_top" xlink:title="Transfère les triangles à dessiner à la carte graphique.">
<polygon fill="white" stroke="#666666" points="448.12,-241.25 378.12,-241.25 378.12,-222 448.12,-222 448.12,-241.25"/>
<text text-anchor="middle" x="413.12" y="-227.75" font-family="Helvetica,sans-Serif" font-size="10.00">XDino_Draw</text>
</a>
</g>
</g>
<!-- Node2&#45;&gt;Node6 -->
<g id="edge5_Node000002_Node000006" class="edge">
<title>Node2&#45;&gt;Node6</title>
<g id="a_edge5_Node000002_Node000006"><a xlink:title=" ">
<path fill="none" stroke="#63b8ff" d="M272.84,-162.47C285.54,-165.14 298.9,-169.26 310.25,-175.62 330.54,-187.01 326.29,-201.67 346.25,-213.62 352.6,-217.43 359.77,-220.45 366.98,-222.84"/>
<polygon fill="#63b8ff" stroke="#63b8ff" points="365.83,-226.14 376.41,-225.58 367.78,-219.42 365.83,-226.14"/>
</a>
</g>
</g>
<!-- Node7 -->
<g id="Node000007" class="node">
<title>Node7</title>
<g id="a_Node000007"><a xlink:href="xdino__linux__main_8cpp.html#afce3fa5d5fa809f786dad62cd3989b7a" target="_top" xlink:title="Affiche les statistiques de consommation mémoire et de ressources chargées.">
<polygon fill="white" stroke="#666666" points="459.75,-130.25 366.5,-130.25 366.5,-111 459.75,-111 459.75,-130.25"/>
<text text-anchor="middle" x="413.12" y="-116.75" font-family="Helvetica,sans-Serif" font-size="10.00">XDino_DrawStats</text>
</a>
</g>
</g>
<!-- Node2&#45;&gt;Node7 -->
<g id="edge6_Node000002_Node000007" class="edge">
<title>Node2&#45;&gt;Node7</title>
<g id="a_edge6_Node000002_Node000007"><a xlink:title=" ">
<path fill="none" stroke="#63b8ff" d="M272.49,-148.38C297.55,-143.4 328.68,-137.21 355.19,-131.94"/>
<polygon fill="#63b8ff" stroke="#63b8ff" points="355.62,-135.43 364.75,-130.04 354.26,-128.56 355.62,-135.43"/>
</a>
</g>
</g>
<!-- Node8 -->
<g id="Node000008" class="node">
<title>Node8</title>
<g id="a_Node000008"><a xlink:href="xdino__linux__main_8cpp.html#a68646c879bb2deb348cfa0ae2fc53b92" target="_top" xlink:title="Récupère l&#39;état de la manette concernée.">
<polygon fill="white" stroke="#666666" points="465.75,-93.25 360.5,-93.25 360.5,-74 465.75,-74 465.75,-93.25"/>
<text text-anchor="middle" x="413.12" y="-79.75" font-family="Helvetica,sans-Serif" font-size="10.00">XDino_GetGamepad</text>
</a>
</g>
</g>
<!-- Node2&#45;&gt;Node8 -->
<g id="edge7_Node000002_Node000008" class="edge">
<title>Node2&#45;&gt;Node8</title>
<g id="a_edge7_Node000002_Node000008"><a xlink:title=" ">
<path fill="none" stroke="#63b8ff" d="M272.84,-152.78C285.54,-150.11 298.9,-145.99 310.25,-139.62 330.54,-128.24 326.29,-113.58 346.25,-101.62 348.4,-100.34 350.64,-99.14 352.95,-98.03"/>
<polygon fill="#63b8ff" stroke="#63b8ff" points="354.11,-101.34 361.98,-94.25 351.4,-94.88 354.11,-101.34"/>
</a>
</g>
</g>
<!-- Node9 -->
<g id="Node000009" class="node">
<title>Node9</title>
<g id="a_Node000009"><a xlink:href="xdino__linux__main_8cpp.html#a4ded9317bd5f35f70b1473c729e56d1a" target="_top" xlink:title="Taille du rendu. Attention, différent de la résolution affichée à l&#39;écran !">
<polygon fill="white" stroke="#666666" points="469.5,-56.25 356.75,-56.25 356.75,-37 469.5,-37 469.5,-56.25"/>
<text text-anchor="middle" x="413.12" y="-42.75" font-family="Helvetica,sans-Serif" font-size="10.00">XDino_GetRenderSize</text>
</a>
</g>
</g>
<!-- Node2&#45;&gt;Node9 -->
<g id="edge8_Node000002_Node000009" class="edge">
<title>Node2&#45;&gt;Node9</title>
<g id="a_edge8_Node000002_Node000009"><a xlink:title=" ">
<path fill="none" stroke="#63b8ff" d="M272.55,-155.32C285.82,-152.75 299.56,-148.04 310.25,-139.62 339.3,-116.75 317.85,-88.3 346.25,-64.62 347.21,-63.83 348.19,-63.07 349.21,-62.34"/>
<polygon fill="#63b8ff" stroke="#63b8ff" points="350.81,-65.46 357.7,-57.41 347.29,-59.4 350.81,-65.46"/>
</a>
</g>
</g>
<!-- Node10 -->
<g id="Node000010" class="node">
<title>Node10</title>
<g id="a_Node000010"><a xlink:href="xdino__linux__main_8cpp.html#abded2f43911a4a13d4742539b59797e0" target="_top" xlink:title="Pour indiquer la couleur d&#39;arrière&#45;plan.">
<polygon fill="white" stroke="#666666" points="466.88,-19.25 359.38,-19.25 359.38,0 466.88,0 466.88,-19.25"/>
<text text-anchor="middle" x="413.12" y="-5.75" font-family="Helvetica,sans-Serif" font-size="10.00">XDino_SetClearColor</text>
</a>
</g>
</g>
<!-- Node2&#45;&gt;Node10 -->
<g id="edge9_Node000002_Node000010" class="edge">
<title>Node2&#45;&gt;Node10</title>
<g id="a_edge9_Node000002_Node000010"><a xlink:title=" ">
<path fill="none" stroke="#63b8ff" d="M272.86,-156.29C286.29,-153.77 300.04,-148.85 310.25,-139.62 349.03,-104.56 308.47,-63.77 346.25,-27.62 347.31,-26.61 348.42,-25.65 349.58,-24.75"/>
<polygon fill="#63b8ff" stroke="#63b8ff" points="351.24,-27.84 357.89,-19.59 347.55,-21.89 351.24,-27.84"/>
</a>
</g>
</g>
<!-- Node13&#45;&gt;Node3 -->
<g id="edge13_Node000013_Node000003" class="edge">
<title>Node13&#45;&gt;Node3</title>
<g id="a_edge13_Node000013_Node000003"><a xlink:title=" ">
<path fill="none" stroke="#63b8ff" d="M281.34,-194.62C300.42,-194.62 322.04,-194.62 342.14,-194.62"/>
<polygon fill="#63b8ff" stroke="#63b8ff" points="341.92,-198.13 351.92,-194.63 341.92,-191.13 341.92,-198.13"/>
</a>
</g>
</g>
<!-- Node13&#45;&gt;Node4 -->
<g id="edge14_Node000013_Node000004" class="edge">
<title>Node13&#45;&gt;Node4</title>
<g id="a_edge14_Node000013_Node000004"><a xlink:title=" ">
<path fill="none" stroke="#63b8ff" d="M276.86,-184.51C299.53,-180.01 326.44,-174.66 350.27,-169.92"/>
<polygon fill="#63b8ff" stroke="#63b8ff" points="350.72,-173.4 359.84,-168.02 349.35,-166.54 350.72,-173.4"/>
</a>
</g>
</g>
<!-- Node13&#45;&gt;Node5 -->
<g id="edge15_Node000013_Node000005" class="edge">
<title>Node13&#45;&gt;Node5</title>
<g id="a_edge15_Node000013_Node000005"><a xlink:title=" ">
<path fill="none" stroke="#63b8ff" d="M244.74,-204.56C268.04,-216.64 309.27,-237.07 346.25,-250.62 350.7,-252.25 355.36,-253.81 360.06,-255.28"/>
<polygon fill="#63b8ff" stroke="#63b8ff" points="358.99,-258.62 369.57,-258.12 360.99,-251.91 358.99,-258.62"/>
</a>
</g>
</g>
<!-- Node13&#45;&gt;Node6 -->
<g id="edge16_Node000013_Node000006" class="edge">
<title>Node13&#45;&gt;Node6</title>
<g id="a_edge16_Node000013_Node000006"><a xlink:title=" ">
<path fill="none" stroke="#63b8ff" d="M276.86,-204.74C304.92,-210.31 339.49,-217.19 366.65,-222.58"/>
<polygon fill="#63b8ff" stroke="#63b8ff" points="365.82,-225.99 376.31,-224.51 367.19,-219.12 365.82,-225.99"/>
</a>
</g>
</g>
</g>
</svg>
</svg>

<style type='text/css'>
<![CDATA[
[data-mouse-over-selected='false'] { opacity: 0.7; }
[data-mouse-over-selected='true']  { opacity: 1.0; }
]]>
</style>
<script type="application/ecmascript"><![CDATA[
document.addEventListener('DOMContentLoaded', (event) => {
  highlightEdges();
  highlightAdjacentNodes();
});
]]></script>
</svg>
