<?xml version="1.0" encoding="UTF-8" standalone="no"?>
<!DOCTYPE svg PUBLIC "-//W3C//DTD SVG 1.1//EN"
 "http://www.w3.org/Graphics/SVG/1.1/DTD/svg11.dtd">
<!-- Generated by graphviz version 9.0.0 (20230911.1827)
 -->
<!-- Title: XDino_DestroyVertexBuffer Pages: 1 -->
<svg width="884pt" height="178pt"
 viewBox="0.00 0.00 884.00 178.25" xmlns="http://www.w3.org/2000/svg" xmlns:xlink="http://www.w3.org/1999/xlink">
<g id="graph0" class="graph" transform="scale(1 1) rotate(0) translate(4 174.25)">
<title>XDino_DestroyVertexBuffer</title>
<!-- Node1 -->
<g id="Node000001" class="node">
<title>Node1</title>
<g id="a_Node000001"><a xlink:title="Décharge la liste de sommets identifiée par &#39;vbufID&#39; de la carte graphique.">
<polygon fill="#999999" stroke="#666666" points="876,-76.25 742.25,-76.25 742.25,-57 876,-57 876,-76.25"/>
<text text-anchor="middle" x="809.12" y="-62.75" font-family="Helvetica,sans-Serif" font-size="10.00">XDino_DestroyVertexBuffer</text>
</a>
</g>
</g>
<!-- Node2 -->
<g id="Node000002" class="node">
<title>Node2</title>
<g id="a_Node000002"><a xlink:href="dino__game_8cpp.html#ac7b7408f18b3729af2f6e7f405f238e7" target="_top" xlink:title="Appelé pour générer chaque frame. Doit lireles entrées de jeu avec XDino_GetGamepad(),...">
<polygon fill="white" stroke="#666666" points="697.62,-95.25 602.88,-95.25 602.88,-76 697.62,-76 697.62,-95.25"/>
<text text-anchor="middle" x="650.25" y="-81.75" font-family="Helvetica,sans-Serif" font-size="10.00">Dino_GameFrame</text>
</a>
</g>
</g>
<!-- Node1&#45;&gt;Node2 -->
<g id="edge1_Node000001_Node000002" class="edge">
<title>Node1&#45;&gt;Node2</title>
<g id="a_edge1_Node000001_Node000002"><a xlink:title=" ">
<path fill="none" stroke="#63b8ff" d="M730.79,-75.99C719.49,-77.36 708.15,-78.73 697.73,-80"/>
<polygon fill="#63b8ff" stroke="#63b8ff" points="731.04,-79.49 740.55,-74.81 730.2,-72.54 731.04,-79.49"/>
</a>
</g>
</g>
<!-- Node8 -->
<g id="Node000008" class="node">
<title>Node8</title>
<g id="a_Node000008"><a xlink:href="dino__game_8cpp.html#af5be2c6012bb9e2650a622d88c610fd6" target="_top" xlink:title="Appelé quand l&#39;utilisateur demande à quitter le jeu (touche ECHAP).">
<polygon fill="white" stroke="#666666" points="693.88,-19.25 606.62,-19.25 606.62,0 693.88,0 693.88,-19.25"/>
<text text-anchor="middle" x="650.25" y="-5.75" font-family="Helvetica,sans-Serif" font-size="10.00">Dino_GameShut</text>
</a>
</g>
</g>
<!-- Node1&#45;&gt;Node8 -->
<g id="edge7_Node000001_Node000008" class="edge">
<title>Node1&#45;&gt;Node8</title>
<g id="a_edge7_Node000001_Node000008"><a xlink:title=" ">
<path fill="none" stroke="#63b8ff" d="M769.79,-52.7C741.68,-42.48 704.15,-28.85 678.92,-19.68"/>
<polygon fill="#63b8ff" stroke="#63b8ff" points="768.42,-55.92 779.02,-56.05 770.81,-49.34 768.42,-55.92"/>
</a>
</g>
</g>
<!-- Node9 -->
<g id="Node000009" class="node">
<title>Node9</title>
<g id="a_Node000009"><a xlink:href="xdino__linux__main_8cpp.html#a8b096a8c85b239812dd34af59ae9951b" target="_top" xlink:title=" ">
<polygon fill="white" stroke="#666666" points="554.5,-57.25 443.25,-57.25 443.25,-38 554.5,-38 554.5,-57.25"/>
<text text-anchor="middle" x="498.88" y="-43.75" font-family="Helvetica,sans-Serif" font-size="10.00">XDino_Linux_Cleanup</text>
</a>
</g>
</g>
<!-- Node1&#45;&gt;Node9 -->
<g id="edge11_Node000001_Node000009" class="edge">
<title>Node1&#45;&gt;Node9</title>
<g id="a_edge11_Node000001_Node000009"><a xlink:title=" ">
<path fill="none" stroke="#63b8ff" d="M730.57,-61.84C675.71,-58.46 603.49,-54.01 554.58,-51"/>
<polygon fill="#63b8ff" stroke="#63b8ff" points="730.29,-65.33 740.49,-62.46 730.72,-58.35 730.29,-65.33"/>
</a>
</g>
</g>
<!-- Node10 -->
<g id="Node000010" class="node">
<title>Node10</title>
<g id="a_Node000010"><a xlink:href="xdino__impl_8h.html#afb7598b07900a9b7f46de9fae53de8a0" target="_top" xlink:title="Trucs communs entre les différentes implémentations de l&#39;API XDino. En général, cela concerne le debu...">
<polygon fill="white" stroke="#666666" points="706.25,-133.25 594.25,-133.25 594.25,-114 706.25,-114 706.25,-133.25"/>
<text text-anchor="middle" x="650.25" y="-119.75" font-family="Helvetica,sans-Serif" font-size="10.00">XDinoImpl_DrawStats</text>
</a>
</g>
</g>
<!-- Node1&#45;&gt;Node10 -->
<g id="edge12_Node000001_Node000010" class="edge">
<title>Node1&#45;&gt;Node10</title>
<g id="a_edge12_Node000001_Node000010"><a xlink:title=" ">
<path fill="none" stroke="#63b8ff" d="M771.05,-80.7C751.76,-87.96 727.78,-96.89 706.25,-104.62 698.07,-107.56 689.18,-110.67 680.98,-113.5"/>
<polygon fill="#63b8ff" stroke="#63b8ff" points="772.27,-83.98 780.39,-77.18 769.8,-77.43 772.27,-83.98"/>
</a>
</g>
</g>
<!-- Node3 -->
<g id="Node000003" class="node">
<title>Node3</title>
<g id="a_Node000003"><a xlink:href="xdino__linux__main_8cpp.html#a23ab8c2bbf03b45563425c6f39f83e8e" target="_top" xlink:title=" ">
<polygon fill="white" stroke="#666666" points="550.75,-133.25 447,-133.25 447,-114 550.75,-114 550.75,-133.25"/>
<text text-anchor="middle" x="498.88" y="-119.75" font-family="Helvetica,sans-Serif" font-size="10.00">XDino_Linux_Frame</text>
</a>
</g>
</g>
<!-- Node2&#45;&gt;Node3 -->
<g id="edge2_Node000002_Node000003" class="edge">
<title>Node2&#45;&gt;Node3</title>
<g id="a_edge2_Node000002_Node000003"><a xlink:title=" ">
<path fill="none" stroke="#63b8ff" d="M598.57,-98.52C579.26,-103.43 557.56,-108.95 539.44,-113.56"/>
<polygon fill="#63b8ff" stroke="#63b8ff" points="599.32,-101.94 608.15,-96.08 597.59,-95.16 599.32,-101.94"/>
</a>
</g>
</g>
<!-- Node5 -->
<g id="Node000005" class="node">
<title>Node5</title>
<g id="a_Node000005"><a xlink:href="xdino__win64__main_8cpp.html#afa07de294d5b620ee39644b9661f0665" target="_top" xlink:title=" ">
<polygon fill="white" stroke="#666666" points="403.5,-95.25 268.25,-95.25 268.25,-76 403.5,-76 403.5,-95.25"/>
<text text-anchor="middle" x="335.88" y="-81.75" font-family="Helvetica,sans-Serif" font-size="10.00">XDino_Win64_HandleEvent</text>
</a>
</g>
</g>
<!-- Node2&#45;&gt;Node5 -->
<g id="edge4_Node000002_Node000005" class="edge">
<title>Node2&#45;&gt;Node5</title>
<g id="a_edge4_Node000002_Node000005"><a xlink:title=" ">
<path fill="none" stroke="#63b8ff" d="M591.23,-85.62C538.17,-85.62 459.67,-85.62 403.93,-85.62"/>
<polygon fill="#63b8ff" stroke="#63b8ff" points="590.97,-89.13 600.97,-85.63 590.97,-82.13 590.97,-89.13"/>
</a>
</g>
</g>
<!-- Node4 -->
<g id="Node000004" class="node">
<title>Node4</title>
<g id="a_Node000004"><a xlink:href="xdino__linux__main_8cpp.html#a4646b314f2ba6df59c9b1805dd568b18" target="_top" xlink:title=" ">
<polygon fill="white" stroke="#666666" points="368.62,-58.25 303.12,-58.25 303.12,-39 368.62,-39 368.62,-58.25"/>
<text text-anchor="middle" x="335.88" y="-44.75" font-family="Helvetica,sans-Serif" font-size="10.00">sokol_main</text>
</a>
</g>
</g>
<!-- Node3&#45;&gt;Node4 -->
<g id="edge3_Node000003_Node000004" class="edge">
<title>Node3&#45;&gt;Node4</title>
<g id="a_edge3_Node000003_Node000004"><a xlink:title=" ">
<path fill="none" stroke="#63b8ff" d="M474.8,-107.17C456.27,-94.59 429.2,-77.6 403.5,-66.62 392.59,-61.97 380.16,-58.22 369.01,-55.37"/>
<polygon fill="#63b8ff" stroke="#63b8ff" points="472.69,-109.96 482.91,-112.78 476.67,-104.21 472.69,-109.96"/>
</a>
</g>
</g>
<!-- Node6 -->
<g id="Node000006" class="node">
<title>Node6</title>
<g id="a_Node000006"><a xlink:href="xdino__win64__main_8cpp.html#a7202590da16f97f4cef692deb9001e27" target="_top" xlink:title=" ">
<polygon fill="white" stroke="#666666" points="232.25,-76.25 89.5,-76.25 89.5,-57 232.25,-57 232.25,-76.25"/>
<text text-anchor="middle" x="160.88" y="-62.75" font-family="Helvetica,sans-Serif" font-size="10.00">XDino_Win64_CreateWindow</text>
</a>
</g>
</g>
<!-- Node5&#45;&gt;Node6 -->
<g id="edge5_Node000005_Node000006" class="edge">
<title>Node5&#45;&gt;Node6</title>
<g id="a_edge5_Node000005_Node000006"><a xlink:title=" ">
<path fill="none" stroke="#63b8ff" d="M256.72,-77.04C248.68,-76.16 240.54,-75.27 232.59,-74.39"/>
<polygon fill="#63b8ff" stroke="#63b8ff" points="256.16,-80.5 266.48,-78.11 256.93,-73.54 256.16,-80.5"/>
</a>
</g>
</g>
<!-- Node7 -->
<g id="Node000007" class="node">
<title>Node7</title>
<g id="a_Node000007"><a xlink:href="xdino__win64__main_8cpp.html#aa0e1ecfaa9e7f124f36e8666a1cb66f9" target="_top" xlink:title=" ">
<polygon fill="white" stroke="#666666" points="53.5,-38.25 0,-38.25 0,-19 53.5,-19 53.5,-38.25"/>
<text text-anchor="middle" x="26.75" y="-24.75" font-family="Helvetica,sans-Serif" font-size="10.00">WinMain</text>
</a>
</g>
</g>
<!-- Node6&#45;&gt;Node7 -->
<g id="edge6_Node000006_Node000007" class="edge">
<title>Node6&#45;&gt;Node7</title>
<g id="a_edge6_Node000006_Node000007"><a xlink:title=" ">
<path fill="none" stroke="#63b8ff" d="M113.96,-53.42C93.8,-47.62 70.89,-41.03 53.75,-36.1"/>
<polygon fill="#63b8ff" stroke="#63b8ff" points="112.78,-56.72 123.36,-56.12 114.72,-50 112.78,-56.72"/>
</a>
</g>
</g>
<!-- Node8&#45;&gt;Node7 -->
<g id="edge8_Node000008_Node000007" class="edge">
<title>Node8&#45;&gt;Node7</title>
<g id="a_edge8_Node000008_Node000007"><a xlink:title=" ">
<path fill="none" stroke="#63b8ff" d="M595.08,-11.28C466.68,-15.21 147.63,-24.96 53.99,-27.82"/>
<polygon fill="#63b8ff" stroke="#63b8ff" points="595.13,-14.78 605.02,-10.98 594.92,-7.78 595.13,-14.78"/>
</a>
</g>
</g>
<!-- Node8&#45;&gt;Node9 -->
<g id="edge9_Node000008_Node000009" class="edge">
<title>Node8&#45;&gt;Node9</title>
<g id="a_edge9_Node000008_Node000009"><a xlink:title=" ">
<path fill="none" stroke="#63b8ff" d="M598.57,-22.52C579.26,-27.43 557.56,-32.95 539.44,-37.56"/>
<polygon fill="#63b8ff" stroke="#63b8ff" points="599.32,-25.94 608.15,-20.08 597.59,-19.16 599.32,-25.94"/>
</a>
</g>
</g>
<!-- Node9&#45;&gt;Node4 -->
<g id="edge10_Node000009_Node000004" class="edge">
<title>Node9&#45;&gt;Node4</title>
<g id="a_edge10_Node000009_Node000004"><a xlink:title=" ">
<path fill="none" stroke="#63b8ff" d="M431.47,-48.04C409.91,-48.17 386.96,-48.31 369.07,-48.43"/>
<polygon fill="#63b8ff" stroke="#63b8ff" points="431.43,-51.54 441.4,-47.98 431.38,-44.54 431.43,-51.54"/>
</a>
</g>
</g>
<!-- Node10&#45;&gt;Node3 -->
<g id="edge13_Node000010_Node000003" class="edge">
<title>Node10&#45;&gt;Node3</title>
<g id="a_edge13_Node000010_Node000003"><a xlink:title=" ">
<path fill="none" stroke="#63b8ff" d="M582.62,-123.62C571.97,-123.62 561.1,-123.62 550.89,-123.62"/>
<polygon fill="#63b8ff" stroke="#63b8ff" points="582.54,-127.13 592.54,-123.63 582.54,-120.13 582.54,-127.13"/>
</a>
</g>
</g>
<!-- Node11 -->
<g id="Node000011" class="node">
<title>Node11</title>
<g id="a_Node000011"><a xlink:href="xdino__win64__rdr_8cpp.html#ad13ae3c31e66f2cdf34b75465d4bac17" target="_top" xlink:title="Spécifique à la plateforme. Finit la passe de rendu et envoit le travail à la carte graphique.">
<polygon fill="white" stroke="#666666" points="558.25,-170.25 439.5,-170.25 439.5,-151 558.25,-151 558.25,-170.25"/>
<text text-anchor="middle" x="498.88" y="-156.75" font-family="Helvetica,sans-Serif" font-size="10.00">XDino_Win64_EndDraw</text>
</a>
</g>
</g>
<!-- Node10&#45;&gt;Node11 -->
<g id="edge14_Node000010_Node000011" class="edge">
<title>Node10&#45;&gt;Node11</title>
<g id="a_edge14_Node000010_Node000011"><a xlink:title=" ">
<path fill="none" stroke="#63b8ff" d="M597.47,-136.45C578.87,-141.06 558.17,-146.18 540.64,-150.53"/>
<polygon fill="#63b8ff" stroke="#63b8ff" points="598.1,-139.9 606.96,-134.1 596.42,-133.11 598.1,-139.9"/>
</a>
</g>
</g>
<!-- Node11&#45;&gt;Node5 -->
<g id="edge15_Node000011_Node000005" class="edge">
<title>Node11&#45;&gt;Node5</title>
<g id="a_edge15_Node000011_Node000005"><a xlink:title=" ">
<path fill="none" stroke="#63b8ff" d="M450.45,-146.92C446.71,-145.56 443.02,-144.13 439.5,-142.62 407.25,-128.88 372.01,-107.87 352.36,-95.57"/>
<polygon fill="#63b8ff" stroke="#63b8ff" points="449,-150.12 459.59,-150.05 451.26,-143.5 449,-150.12"/>
</a>
</g>
</g>
</g>
</svg>
