<?xml version="1.0" encoding="UTF-8" standalone="no"?>
<!DOCTYPE svg PUBLIC "-//W3C//DTD SVG 1.1//EN"
 "http://www.w3.org/Graphics/SVG/1.1/DTD/svg11.dtd">
<!-- Generated by graphviz version 9.0.0 (20230911.1827)
 -->
<!-- Title: XDino_Linux_Cleanup Pages: 1 -->
<svg width="496pt" height="165pt"
 viewBox="0.00 0.00 495.50 164.52" xmlns="http://www.w3.org/2000/svg" xmlns:xlink="http://www.w3.org/1999/xlink">
<g id="graph0" class="graph" transform="scale(1 1) rotate(0) translate(4 160.52)">
<title>XDino_Linux_Cleanup</title>
<!-- Node1 -->
<g id="Node000001" class="node">
<title>Node1</title>
<g id="a_Node000001"><a xlink:title=" ">
<polygon fill="#999999" stroke="#666666" points="111.25,-94.25 0,-94.25 0,-75 111.25,-75 111.25,-94.25"/>
<text text-anchor="middle" x="55.62" y="-80.75" font-family="Helvetica,sans-Serif" font-size="10.00">XDino_Linux_Cleanup</text>
</a>
</g>
</g>
<!-- Node2 -->
<g id="Node000002" class="node">
<title>Node2</title>
<g id="a_Node000002"><a xlink:href="dino__game_8cpp.html#af5be2c6012bb9e2650a622d88c610fd6" target="_top" xlink:title="Appelé quand l&#39;utilisateur demande à quitter le jeu (touche ECHAP).">
<polygon fill="white" stroke="#666666" points="276.12,-132.25 188.88,-132.25 188.88,-113 276.12,-113 276.12,-132.25"/>
<text text-anchor="middle" x="232.5" y="-118.75" font-family="Helvetica,sans-Serif" font-size="10.00">Dino_GameShut</text>
</a>
</g>
</g>
<!-- Node1&#45;&gt;Node2 -->
<g id="edge1_Node000001_Node000002" class="edge">
<title>Node1&#45;&gt;Node2</title>
<g id="a_edge1_Node000001_Node000002"><a xlink:title=" ">
<path fill="none" stroke="#63b8ff" d="M103.03,-94.71C125.92,-99.68 153.65,-105.71 177.49,-110.89"/>
<polygon fill="#63b8ff" stroke="#63b8ff" points="176.49,-114.25 187.01,-112.96 177.98,-107.41 176.49,-114.25"/>
</a>
</g>
</g>
<!-- Node3 -->
<g id="Node000003" class="node">
<title>Node3</title>
<g id="a_Node000003"><a xlink:href="xdino__linux__main_8cpp.html#aea37196dc8b2efde10a58c7befd954b0" target="_top" xlink:title="Décharge la texture identifiée par &#39;texID&#39; de la carte graphique.">
<polygon fill="white" stroke="#666666" points="486,-150.25 355.25,-150.25 355.25,-131 486,-131 486,-150.25"/>
<text text-anchor="middle" x="420.62" y="-136.75" font-family="Helvetica,sans-Serif" font-size="10.00">XDino_DestroyGpuTexture</text>
</a>
</g>
</g>
<!-- Node1&#45;&gt;Node3 -->
<g id="edge4_Node000001_Node000003" class="edge">
<title>Node1&#45;&gt;Node3</title>
<g id="a_edge4_Node000001_Node000003"><a xlink:title=" ">
<path fill="none" stroke="#63b8ff" d="M67.88,-94.72C84.06,-108.48 115.46,-132.46 147.25,-141.62 212.18,-160.35 289.5,-157.86 345.13,-152"/>
<polygon fill="#63b8ff" stroke="#63b8ff" points="345.26,-155.51 354.81,-150.92 344.48,-148.55 345.26,-155.51"/>
</a>
</g>
</g>
<!-- Node4 -->
<g id="Node000004" class="node">
<title>Node4</title>
<g id="a_Node000004"><a xlink:href="xdino__linux__main_8cpp.html#a641cf6ebd62e0ffbcf34a364bb9bf03b" target="_top" xlink:title="Décharge la liste de sommets identifiée par &#39;vbufID&#39; de la carte graphique.">
<polygon fill="white" stroke="#666666" points="487.5,-113.25 353.75,-113.25 353.75,-94 487.5,-94 487.5,-113.25"/>
<text text-anchor="middle" x="420.62" y="-99.75" font-family="Helvetica,sans-Serif" font-size="10.00">XDino_DestroyVertexBuffer</text>
</a>
</g>
</g>
<!-- Node1&#45;&gt;Node4 -->
<g id="edge5_Node000001_Node000004" class="edge">
<title>Node1&#45;&gt;Node4</title>
<g id="a_edge5_Node000001_Node000004"><a xlink:title=" ">
<path fill="none" stroke="#63b8ff" d="M111.36,-87.49C172.71,-90.7 272.66,-95.93 342.05,-99.56"/>
<polygon fill="#63b8ff" stroke="#63b8ff" points="341.66,-103.05 351.83,-100.08 342.02,-96.06 341.66,-103.05"/>
</a>
</g>
</g>
<!-- Node5 -->
<g id="Node000005" class="node">
<title>Node5</title>
<g id="a_Node000005"><a xlink:href="xdino__linux__main_8cpp.html#a0e84462316162d9ce7fb89152af8cd03" target="_top" xlink:title=" ">
<polygon fill="white" stroke="#666666" points="311.38,-56.25 153.62,-56.25 153.62,-37 311.38,-37 311.38,-56.25"/>
<text text-anchor="middle" x="232.5" y="-42.75" font-family="Helvetica,sans-Serif" font-size="10.00">XDino_Linux_CollectRessources</text>
</a>
</g>
</g>
<!-- Node1&#45;&gt;Node5 -->
<g id="edge6_Node000001_Node000005" class="edge">
<title>Node1&#45;&gt;Node5</title>
<g id="a_edge6_Node000001_Node000005"><a xlink:title=" ">
<path fill="none" stroke="#63b8ff" d="M103.03,-74.54C124.86,-69.8 151.09,-64.1 174.15,-59.09"/>
<polygon fill="#63b8ff" stroke="#63b8ff" points="174.67,-62.55 183.7,-57.01 173.19,-55.71 174.67,-62.55"/>
</a>
</g>
</g>
<!-- Node6 -->
<g id="Node000006" class="node">
<title>Node6</title>
<g id="a_Node000006"><a xlink:href="xdino__linux__main_8cpp.html#a19b005d9e234569206ea690926217e5a" target="_top" xlink:title=" ">
<polygon fill="white" stroke="#666666" points="317.75,-19.25 147.25,-19.25 147.25,0 317.75,0 317.75,-19.25"/>
<text text-anchor="middle" x="232.5" y="-5.75" font-family="Helvetica,sans-Serif" font-size="10.00">XDino_Linux_PurgeDeadResources</text>
</a>
</g>
</g>
<!-- Node1&#45;&gt;Node6 -->
<g id="edge7_Node000001_Node000006" class="edge">
<title>Node1&#45;&gt;Node6</title>
<g id="a_edge7_Node000001_Node000006"><a xlink:title=" ">
<path fill="none" stroke="#63b8ff" d="M69.34,-74.57C86.19,-61.76 117.29,-39.8 147.25,-27.62 151.61,-25.85 156.18,-24.24 160.83,-22.78"/>
<polygon fill="#63b8ff" stroke="#63b8ff" points="161.68,-26.18 170.33,-20.06 159.76,-19.45 161.68,-26.18"/>
</a>
</g>
</g>
<!-- Node2&#45;&gt;Node3 -->
<g id="edge2_Node000002_Node000003" class="edge">
<title>Node2&#45;&gt;Node3</title>
<g id="a_edge2_Node000002_Node000003"><a xlink:title=" ">
<path fill="none" stroke="#63b8ff" d="M276.2,-126.75C296.22,-128.69 320.68,-131.06 343.69,-133.28"/>
<polygon fill="#63b8ff" stroke="#63b8ff" points="343.05,-136.74 353.34,-134.21 343.72,-129.77 343.05,-136.74"/>
</a>
</g>
</g>
<!-- Node2&#45;&gt;Node4 -->
<g id="edge3_Node000002_Node000004" class="edge">
<title>Node2&#45;&gt;Node4</title>
<g id="a_edge3_Node000002_Node000004"><a xlink:title=" ">
<path fill="none" stroke="#63b8ff" d="M276.2,-118.27C295.76,-116.27 319.56,-113.84 342.11,-111.54"/>
<polygon fill="#63b8ff" stroke="#63b8ff" points="342.3,-115.04 351.9,-110.54 341.59,-108.07 342.3,-115.04"/>
</a>
</g>
</g>
</g>
</svg>
