<?xml version="1.0" encoding="UTF-8" standalone="no"?>
<!DOCTYPE svg PUBLIC "-//W3C//DTD SVG 1.1//EN"
 "http://www.w3.org/Graphics/SVG/1.1/DTD/svg11.dtd">
<!-- Generated by graphviz version 9.0.0 (20230911.1827)
 -->
<!-- Title: xdino_win64_rdr.cpp Pages: 1 -->
<!--zoomable 149 -->

<svg id="main" version="1.1" xmlns="http://www.w3.org/2000/svg" xmlns:xlink="http://www.w3.org/1999/xlink" xml:space="preserve" onload="init(evt)">
<style type="text/css"><![CDATA[
.node, .edge {opacity: 0.7;}
.node.selected, .edge.selected {opacity: 1;}
.edge:hover path { stroke: red; }
.edge:hover polygon { stroke: red; fill: red; }
]]></style>

<defs>
  <circle id="rim" cx="0" cy="0" r="7"/>
  <circle id="rim2" cx="0" cy="0" r="3.5"/>
  <g id="zoomPlus">
    <use xlink:href="#rim" fill="#404040"><set attributeName="fill" to="#808080" begin="zoomplus.mouseover" end="zoomplus.mouseout"/></use>
    <path d="M-4,0h8M0,-4v8" fill="none" stroke="white" stroke-width="1.5" pointer-events="none"/>
  </g>
  <g id="zoomMin">
    <use xlink:href="#rim" fill="#404040"><set attributeName="fill" to="#808080" begin="zoomminus.mouseover" end="zoomminus.mouseout"/></use>
    <path d="M-4,0h8" fill="none" stroke="white" stroke-width="1.5" pointer-events="none"/>
  </g>
  <g id="arrowUp" transform="translate(30 24)">
    <use xlink:href="#rim"/>
    <path pointer-events="none" fill="none" stroke="white" stroke-width="1.5" d="M0,-3.0v7 M-2.5,-0.5L0,-3.0L2.5,-0.5"/>
  </g>
  <g id="arrowRight" transform="rotate(90) translate(36 -43)">
    <use xlink:href="#rim"/>
    <path pointer-events="none" fill="none" stroke="white" stroke-width="1.5" d="M0,-3.0v7 M-2.5,-0.5L0,-3.0L2.5,-0.5"/>
  </g>
  <g id="arrowDown" transform="rotate(180) translate(-30 -48)">
    <use xlink:href="#rim"/>
    <path pointer-events="none" fill="none" stroke="white" stroke-width="1.5" d="M0,-3.0v7 M-2.5,-0.5L0,-3.0L2.5,-0.5"/>
  </g>
  <g id="arrowLeft" transform="rotate(270) translate(-36 17)">
    <use xlink:href="#rim"/>
    <path pointer-events="none" fill="none" stroke="white" stroke-width="1.5" d="M0,-3.0v7 M-2.5,-0.5L0,-3.0L2.5,-0.5"/>
  </g>
  <g id="resetDef">
    <use xlink:href="#rim2" fill="#404040"><set attributeName="fill" to="#808080" begin="reset.mouseover" end="reset.mouseout"/></use>
  </g>
</defs>
<script type="application/ecmascript">
var viewWidth = 893;
var viewHeight = 149;
var sectionId = 'dynsection-0';
</script>
<script type="application/ecmascript" xlink:href="svg.min.js"/>
<svg id="graph" class="graph">
<g id="viewport">
<title>xdino_win64_rdr.cpp</title>
<!-- Node1 -->
<g id="Node000001" class="node">
<title>Node1</title>
<g id="a_Node000001"><a xlink:title="Implémentation du rendu graphique sur Windows.">
<polygon fill="#999999" stroke="#666666" points="526.62,-141 422.88,-141 422.88,-121.75 526.62,-121.75 526.62,-141"/>
<text text-anchor="middle" x="474.75" y="-127.5" font-family="Helvetica,sans-Serif" font-size="10.00">xdino_win64_rdr.cpp</text>
</a>
</g>
</g>
<!-- Node2 -->
<g id="Node000002" class="node">
<title>Node2</title>
<g id="a_Node000002"><a xlink:href="xdino_8h.html" target="_top" xlink:title="API d&#39;interaction entre le moteur de jeu &quot;XDino&quot; et la logique de jeu.">
<polygon fill="white" stroke="#666666" points="119.25,-80.12 52.25,-80.12 52.25,-60.88 119.25,-60.88 119.25,-80.12"/>
<text text-anchor="middle" x="85.75" y="-66.62" font-family="Helvetica,sans-Serif" font-size="10.00">dino/xdino.h</text>
</a>
</g>
</g>
<!-- Node1&#45;&gt;Node2 -->
<g id="edge1_Node000001_Node000002" class="edge">
<title>Node1&#45;&gt;Node2</title>
<g id="a_edge1_Node000001_Node000002"><a xlink:title=" ">
<path fill="none" stroke="#63b8ff" d="M422.61,-126.14C355.34,-120.09 234.93,-107.25 133.75,-85.75 130.78,-85.12 127.73,-84.4 124.68,-83.62"/>
<polygon fill="#63b8ff" stroke="#63b8ff" points="125.76,-80.28 115.19,-81.02 123.91,-87.04 125.76,-80.28"/>
</a>
</g>
</g>
<!-- Node5 -->
<g id="Node000005" class="node">
<title>Node5</title>
<g id="a_Node000005"><a xlink:title=" ">
<polygon fill="#e0e0e0" stroke="#999999" points="167.75,-19.25 127.75,-19.25 127.75,0 167.75,0 167.75,-19.25"/>
<text text-anchor="middle" x="147.75" y="-5.75" font-family="Helvetica,sans-Serif" font-size="10.00">string</text>
</a>
</g>
</g>
<!-- Node1&#45;&gt;Node5 -->
<g id="edge10_Node000001_Node000005" class="edge">
<title>Node1&#45;&gt;Node5</title>
<g id="a_edge10_Node000001_Node000005"><a xlink:title=" ">
<path fill="none" stroke="#63b8ff" d="M422.54,-129.62C344.7,-127.41 203.42,-118.8 166.75,-85.75 151.54,-72.05 147.7,-48.1 147.09,-30.92"/>
<polygon fill="#63b8ff" stroke="#63b8ff" points="150.59,-31.14 147.1,-21.13 143.59,-31.13 150.59,-31.14"/>
</a>
</g>
</g>
<!-- Node6 -->
<g id="Node000006" class="node">
<title>Node6</title>
<g id="a_Node000006"><a xlink:href="xdino__win64__rdr_8h.html" target="_top" xlink:title="Fonctions internes à XDino, pour le rendu graphique sur Windows. Ces fonctions communiquent avec la c...">
<polygon fill="white" stroke="#666666" points="294.12,-85.75 175.38,-85.75 175.38,-55.25 294.12,-55.25 294.12,-85.75"/>
<text text-anchor="start" x="183.38" y="-72.25" font-family="Helvetica,sans-Serif" font-size="10.00">dino/x64&#45;windows/xdino</text>
<text text-anchor="middle" x="234.75" y="-61" font-family="Helvetica,sans-Serif" font-size="10.00">_win64_rdr.h</text>
</a>
</g>
</g>
<!-- Node1&#45;&gt;Node6 -->
<g id="edge5_Node000001_Node000006" class="edge">
<title>Node1&#45;&gt;Node6</title>
<g id="a_edge5_Node000001_Node000006"><a xlink:title=" ">
<path fill="none" stroke="#63b8ff" d="M437.78,-121.3C402.58,-112.67 348.68,-99.45 305.27,-88.8"/>
<polygon fill="#63b8ff" stroke="#63b8ff" points="306.2,-85.42 295.66,-86.44 304.54,-92.22 306.2,-85.42"/>
</a>
</g>
</g>
<!-- Node9 -->
<g id="Node000009" class="node">
<title>Node9</title>
<g id="a_Node000009"><a xlink:title=" ">
<polygon fill="#e0e0e0" stroke="#999999" points="395.12,-80.12 312.38,-80.12 312.38,-60.88 395.12,-60.88 395.12,-80.12"/>
<text text-anchor="middle" x="353.75" y="-66.62" font-family="Helvetica,sans-Serif" font-size="10.00">unordered_map</text>
</a>
</g>
</g>
<!-- Node1&#45;&gt;Node9 -->
<g id="edge9_Node000001_Node000009" class="edge">
<title>Node1&#45;&gt;Node9</title>
<g id="a_edge9_Node000001_Node000009"><a xlink:title=" ">
<path fill="none" stroke="#63b8ff" d="M456.11,-121.3C436.42,-111.73 405.14,-96.5 382.33,-85.41"/>
<polygon fill="#63b8ff" stroke="#63b8ff" points="384.1,-82.37 373.57,-81.15 381.04,-88.67 384.1,-82.37"/>
</a>
</g>
</g>
<!-- Node10 -->
<g id="Node000010" class="node">
<title>Node10</title>
<g id="a_Node000010"><a xlink:title=" ">
<polygon fill="#e0e0e0" stroke="#999999" points="466.5,-80.12 413,-80.12 413,-60.88 466.5,-60.88 466.5,-80.12"/>
<text text-anchor="middle" x="439.75" y="-66.62" font-family="Helvetica,sans-Serif" font-size="10.00">numbers</text>
</a>
</g>
</g>
<!-- Node1&#45;&gt;Node10 -->
<g id="edge11_Node000001_Node000010" class="edge">
<title>Node1&#45;&gt;Node10</title>
<g id="a_edge11_Node000001_Node000010"><a xlink:title=" ">
<path fill="none" stroke="#63b8ff" d="M469.43,-121.43C464.55,-113.22 457.16,-100.78 450.97,-90.37"/>
<polygon fill="#63b8ff" stroke="#63b8ff" points="454.01,-88.63 445.89,-81.83 447.99,-92.21 454.01,-88.63"/>
</a>
</g>
</g>
<!-- Node11 -->
<g id="Node000011" class="node">
<title>Node11</title>
<g id="a_Node000011"><a xlink:title=" ">
<polygon fill="#e0e0e0" stroke="#999999" points="534.62,-80.12 484.88,-80.12 484.88,-60.88 534.62,-60.88 534.62,-80.12"/>
<text text-anchor="middle" x="509.75" y="-66.62" font-family="Helvetica,sans-Serif" font-size="10.00">d3d11.h</text>
</a>
</g>
</g>
<!-- Node1&#45;&gt;Node11 -->
<g id="edge12_Node000001_Node000011" class="edge">
<title>Node1&#45;&gt;Node11</title>
<g id="a_edge12_Node000001_Node000011"><a xlink:title=" ">
<path fill="none" stroke="#63b8ff" d="M480.07,-121.43C484.95,-113.22 492.34,-100.78 498.53,-90.37"/>
<polygon fill="#63b8ff" stroke="#63b8ff" points="501.51,-92.21 503.61,-81.83 495.49,-88.63 501.51,-92.21"/>
</a>
</g>
</g>
<!-- Node12 -->
<g id="Node000012" class="node">
<title>Node12</title>
<g id="a_Node000012"><a xlink:title=" ">
<polygon fill="#e0e0e0" stroke="#999999" points="629.12,-80.12 552.38,-80.12 552.38,-60.88 629.12,-60.88 629.12,-80.12"/>
<text text-anchor="middle" x="590.75" y="-66.62" font-family="Helvetica,sans-Serif" font-size="10.00">d3dcommon.h</text>
</a>
</g>
</g>
<!-- Node1&#45;&gt;Node12 -->
<g id="edge13_Node000001_Node000012" class="edge">
<title>Node1&#45;&gt;Node12</title>
<g id="a_edge13_Node000001_Node000012"><a xlink:title=" ">
<path fill="none" stroke="#63b8ff" d="M492.62,-121.3C511.41,-111.77 541.21,-96.64 563.05,-85.56"/>
<polygon fill="#63b8ff" stroke="#63b8ff" points="564.37,-88.82 571.7,-81.17 561.2,-82.57 564.37,-88.82"/>
</a>
</g>
</g>
<!-- Node13 -->
<g id="Node000013" class="node">
<title>Node13</title>
<g id="a_Node000013"><a xlink:title=" ">
<polygon fill="#e0e0e0" stroke="#999999" points="688.12,-80.12 647.38,-80.12 647.38,-60.88 688.12,-60.88 688.12,-80.12"/>
<text text-anchor="middle" x="667.75" y="-66.62" font-family="Helvetica,sans-Serif" font-size="10.00">dxgi.h</text>
</a>
</g>
</g>
<!-- Node1&#45;&gt;Node13 -->
<g id="edge14_Node000001_Node000013" class="edge">
<title>Node1&#45;&gt;Node13</title>
<g id="a_edge14_Node000001_Node000013"><a xlink:title=" ">
<path fill="none" stroke="#63b8ff" d="M515.57,-121.32C548.92,-113.41 597.04,-100.86 637.75,-85.75 638.38,-85.52 639,-85.28 639.64,-85.03"/>
<polygon fill="#63b8ff" stroke="#63b8ff" points="640.7,-88.39 648.5,-81.21 637.93,-81.96 640.7,-88.39"/>
</a>
</g>
</g>
<!-- Node14 -->
<g id="Node000014" class="node">
<title>Node14</title>
<g id="a_Node000014"><a xlink:title=" ">
<polygon fill="#e0e0e0" stroke="#999999" points="781.75,-80.12 705.75,-80.12 705.75,-60.88 781.75,-60.88 781.75,-80.12"/>
<text text-anchor="middle" x="743.75" y="-66.62" font-family="Helvetica,sans-Serif" font-size="10.00">d3dcompiler.h</text>
</a>
</g>
</g>
<!-- Node1&#45;&gt;Node14 -->
<g id="edge15_Node000001_Node000014" class="edge">
<title>Node1&#45;&gt;Node14</title>
<g id="a_edge15_Node000001_Node000014"><a xlink:title=" ">
<path fill="none" stroke="#63b8ff" d="M527.1,-121.32C572.29,-113.15 639.18,-100.23 696.75,-85.75 699.33,-85.1 701.98,-84.4 704.65,-83.66"/>
<polygon fill="#63b8ff" stroke="#63b8ff" points="705.44,-87.08 714.08,-80.95 703.51,-80.35 705.44,-87.08"/>
</a>
</g>
</g>
<!-- Node15 -->
<g id="Node000015" class="node">
<title>Node15</title>
<g id="a_Node000015"><a xlink:title=" ">
<polygon fill="#e0e0e0" stroke="#999999" points="885.25,-80.12 800.25,-80.12 800.25,-60.88 885.25,-60.88 885.25,-80.12"/>
<text text-anchor="middle" x="842.75" y="-66.62" font-family="Helvetica,sans-Serif" font-size="10.00">stb/stb_image.h</text>
</a>
</g>
</g>
<!-- Node1&#45;&gt;Node15 -->
<g id="edge16_Node000001_Node000015" class="edge">
<title>Node1&#45;&gt;Node15</title>
<g id="a_edge16_Node000001_Node000015"><a xlink:title=" ">
<path fill="none" stroke="#63b8ff" d="M527.1,-125.05C590.07,-118.16 698.78,-104.76 790.75,-85.75 794.12,-85.05 797.6,-84.26 801.09,-83.42"/>
<polygon fill="#63b8ff" stroke="#63b8ff" points="801.83,-86.84 810.64,-80.97 800.09,-80.06 801.83,-86.84"/>
</a>
</g>
</g>
<!-- Node3 -->
<g id="Node000003" class="node">
<title>Node3</title>
<g id="a_Node000003"><a xlink:title=" ">
<polygon fill="#e0e0e0" stroke="#999999" points="47.5,-19.25 0,-19.25 0,0 47.5,0 47.5,-19.25"/>
<text text-anchor="middle" x="23.75" y="-5.75" font-family="Helvetica,sans-Serif" font-size="10.00">stdint.h</text>
</a>
</g>
</g>
<!-- Node2&#45;&gt;Node3 -->
<g id="edge2_Node000002_Node000003" class="edge">
<title>Node2&#45;&gt;Node3</title>
<g id="a_edge2_Node000002_Node000003"><a xlink:title=" ">
<path fill="none" stroke="#63b8ff" d="M76.33,-60.56C67.14,-51.83 52.91,-38.32 41.58,-27.55"/>
<polygon fill="#63b8ff" stroke="#63b8ff" points="44.01,-25.04 34.35,-20.69 39.19,-30.12 44.01,-25.04"/>
</a>
</g>
</g>
<!-- Node4 -->
<g id="Node000004" class="node">
<title>Node4</title>
<g id="a_Node000004"><a xlink:title=" ">
<polygon fill="#e0e0e0" stroke="#999999" points="108.25,-19.25 65.25,-19.25 65.25,0 108.25,0 108.25,-19.25"/>
<text text-anchor="middle" x="86.75" y="-5.75" font-family="Helvetica,sans-Serif" font-size="10.00">vector</text>
</a>
</g>
</g>
<!-- Node2&#45;&gt;Node4 -->
<g id="edge3_Node000002_Node000004" class="edge">
<title>Node2&#45;&gt;Node4</title>
<g id="a_edge3_Node000002_Node000004"><a xlink:title=" ">
<path fill="none" stroke="#63b8ff" d="M85.9,-60.56C86.03,-52.78 86.23,-41.2 86.4,-31.16"/>
<polygon fill="#63b8ff" stroke="#63b8ff" points="89.9,-31.22 86.57,-21.16 82.9,-31.1 89.9,-31.22"/>
</a>
</g>
</g>
<!-- Node2&#45;&gt;Node5 -->
<g id="edge4_Node000002_Node000005" class="edge">
<title>Node2&#45;&gt;Node5</title>
<g id="a_edge4_Node000002_Node000005"><a xlink:title=" ">
<path fill="none" stroke="#63b8ff" d="M95.17,-60.56C104.36,-51.83 118.59,-38.32 129.92,-27.55"/>
<polygon fill="#63b8ff" stroke="#63b8ff" points="132.31,-30.12 137.15,-20.69 127.49,-25.04 132.31,-30.12"/>
</a>
</g>
</g>
<!-- Node6&#45;&gt;Node5 -->
<g id="edge7_Node000006_Node000005" class="edge">
<title>Node6&#45;&gt;Node5</title>
<g id="a_edge7_Node000006_Node000005"><a xlink:title=" ">
<path fill="none" stroke="#63b8ff" d="M213.24,-54.95C200.25,-46.15 183.71,-34.96 170.5,-26.02"/>
<polygon fill="#63b8ff" stroke="#63b8ff" points="172.66,-23.26 162.42,-20.55 168.74,-29.05 172.66,-23.26"/>
</a>
</g>
</g>
<!-- Node7 -->
<g id="Node000007" class="node">
<title>Node7</title>
<g id="a_Node000007"><a xlink:title=" ">
<polygon fill="#e0e0e0" stroke="#999999" points="244.38,-19.25 199.12,-19.25 199.12,0 244.38,0 244.38,-19.25"/>
<text text-anchor="middle" x="221.75" y="-5.75" font-family="Helvetica,sans-Serif" font-size="10.00">cstdint</text>
</a>
</g>
</g>
<!-- Node6&#45;&gt;Node7 -->
<g id="edge6_Node000006_Node000007" class="edge">
<title>Node6&#45;&gt;Node7</title>
<g id="a_edge6_Node000006_Node000007"><a xlink:title=" ">
<path fill="none" stroke="#63b8ff" d="M231.54,-54.95C229.94,-47.71 227.98,-38.84 226.24,-30.94"/>
<polygon fill="#63b8ff" stroke="#63b8ff" points="229.65,-30.19 224.08,-21.18 222.82,-31.7 229.65,-30.19"/>
</a>
</g>
</g>
<!-- Node8 -->
<g id="Node000008" class="node">
<title>Node8</title>
<g id="a_Node000008"><a xlink:title=" ">
<polygon fill="#e0e0e0" stroke="#999999" points="325.38,-19.25 262.12,-19.25 262.12,0 325.38,0 325.38,-19.25"/>
<text text-anchor="middle" x="293.75" y="-5.75" font-family="Helvetica,sans-Serif" font-size="10.00">Windows.h</text>
</a>
</g>
</g>
<!-- Node6&#45;&gt;Node8 -->
<g id="edge8_Node000006_Node000008" class="edge">
<title>Node6&#45;&gt;Node8</title>
<g id="a_edge8_Node000006_Node000008"><a xlink:title=" ">
<path fill="none" stroke="#63b8ff" d="M249.33,-54.95C257.63,-46.67 268.05,-36.27 276.72,-27.62"/>
<polygon fill="#63b8ff" stroke="#63b8ff" points="278.98,-30.31 283.58,-20.77 274.03,-25.36 278.98,-30.31"/>
</a>
</g>
</g>
</g>
</svg>

<g id="navigator" transform="translate(0 0)" fill="#404254">
  <rect fill="#f2f5e9" fill-opacity="0.5" stroke="#606060" stroke-width=".5" x="0" y="0" width="60" height="60"/>
  <use id="zoomplus" xlink:href="#zoomPlus" x="17" y="9" onmousedown="handleZoom(evt,'in')"/>
  <use id="zoomminus" xlink:href="#zoomMin" x="42" y="9" onmousedown="handleZoom(evt,'out')"/>
  <use id="reset" xlink:href="#resetDef" x="30" y="36" onmousedown="handleReset()"/>
   <use id="arrowup" xlink:href="#arrowUp" x="0" y="0" onmousedown="handlePan(0,-1)"/>
  <use id="arrowright" xlink:href="#arrowRight" x="0" y="0" onmousedown="handlePan(1,0)"/>
  <use id="arrowdown" xlink:href="#arrowDown" x="0" y="0" onmousedown="handlePan(0,1)"/>
  <use id="arrowleft" xlink:href="#arrowLeft" x="0" y="0" onmousedown="handlePan(-1,0)"/>
</g>
<svg viewBox="0 0 15 15" width="100%" height="30px" preserveAspectRatio="xMaxYMin meet">
 <g id="arrow_out" transform="scale(0.3 0.3)">
  <a xlink:href="xdino__win64__rdr_8cpp__incl_org.svg" target="_base">
   <rect id="button" ry="5" rx="5" y="6" x="6" height="38" width="38"
        fill="#f2f5e9" fill-opacity="0.5" stroke="#606060" stroke-width="1.0"/>
   <path id="arrow"
     d="M 11.500037,31.436501 C 11.940474,20.09759 22.043105,11.32322 32.158766,21.979434 L 37.068811,17.246167 C 37.068811,17.246167 37.088388,32 37.088388,32 L 22.160133,31.978069 C 22.160133,31.978069 26.997745,27.140456 26.997745,27.140456 C 18.528582,18.264221 13.291696,25.230495 11.500037,31.436501 z"
     style="fill:#404040;"/>
  </a>
 </g>
</svg>

<style type='text/css'>
<![CDATA[
[data-mouse-over-selected='false'] { opacity: 0.7; }
[data-mouse-over-selected='true']  { opacity: 1.0; }
]]>
</style>
<script type="application/ecmascript"><![CDATA[
document.addEventListener('DOMContentLoaded', (event) => {
  highlightEdges();
  highlightAdjacentNodes();
});
]]></script>
</svg>
