<?xml version="1.0" encoding="UTF-8" standalone="no"?>
<!DOCTYPE svg PUBLIC "-//W3C//DTD SVG 1.1//EN"
 "http://www.w3.org/Graphics/SVG/1.1/DTD/svg11.dtd">
<!-- Generated by graphviz version 9.0.0 (20230911.1827)
 -->
<!-- Title: WinMain Pages: 1 -->
<!--zoomable 623 -->

<svg id="main" version="1.1" xmlns="http://www.w3.org/2000/svg" xmlns:xlink="http://www.w3.org/1999/xlink" xml:space="preserve" onload="init(evt)">
<style type="text/css"><![CDATA[
.node, .edge {opacity: 0.7;}
.node.selected, .edge.selected {opacity: 1;}
.edge:hover path { stroke: red; }
.edge:hover polygon { stroke: red; fill: red; }
]]></style>

<defs>
  <circle id="rim" cx="0" cy="0" r="7"/>
  <circle id="rim2" cx="0" cy="0" r="3.5"/>
  <g id="zoomPlus">
    <use xlink:href="#rim" fill="#404040"><set attributeName="fill" to="#808080" begin="zoomplus.mouseover" end="zoomplus.mouseout"/></use>
    <path d="M-4,0h8M0,-4v8" fill="none" stroke="white" stroke-width="1.5" pointer-events="none"/>
  </g>
  <g id="zoomMin">
    <use xlink:href="#rim" fill="#404040"><set attributeName="fill" to="#808080" begin="zoomminus.mouseover" end="zoomminus.mouseout"/></use>
    <path d="M-4,0h8" fill="none" stroke="white" stroke-width="1.5" pointer-events="none"/>
  </g>
  <g id="arrowUp" transform="translate(30 24)">
    <use xlink:href="#rim"/>
    <path pointer-events="none" fill="none" stroke="white" stroke-width="1.5" d="M0,-3.0v7 M-2.5,-0.5L0,-3.0L2.5,-0.5"/>
  </g>
  <g id="arrowRight" transform="rotate(90) translate(36 -43)">
    <use xlink:href="#rim"/>
    <path pointer-events="none" fill="none" stroke="white" stroke-width="1.5" d="M0,-3.0v7 M-2.5,-0.5L0,-3.0L2.5,-0.5"/>
  </g>
  <g id="arrowDown" transform="rotate(180) translate(-30 -48)">
    <use xlink:href="#rim"/>
    <path pointer-events="none" fill="none" stroke="white" stroke-width="1.5" d="M0,-3.0v7 M-2.5,-0.5L0,-3.0L2.5,-0.5"/>
  </g>
  <g id="arrowLeft" transform="rotate(270) translate(-36 17)">
    <use xlink:href="#rim"/>
    <path pointer-events="none" fill="none" stroke="white" stroke-width="1.5" d="M0,-3.0v7 M-2.5,-0.5L0,-3.0L2.5,-0.5"/>
  </g>
  <g id="resetDef">
    <use xlink:href="#rim2" fill="#404040"><set attributeName="fill" to="#808080" begin="reset.mouseover" end="reset.mouseout"/></use>
  </g>
</defs>
<script type="application/ecmascript">
var viewWidth = 987;
var viewHeight = 623;
var sectionId = 'dynsection-8';
</script>
<script type="application/ecmascript" xlink:href="svg.min.js"/>
<svg id="graph" class="graph">
<g id="viewport">
<title>WinMain</title>
<!-- Node1 -->
<g id="Node000001" class="node">
<title>Node1</title>
<g id="a_Node000001"><a xlink:title=" ">
<polygon fill="#999999" stroke="#666666" points="53.5,-296.25 0,-296.25 0,-277 53.5,-277 53.5,-296.25"/>
<text text-anchor="middle" x="26.75" y="-282.75" font-family="Helvetica,sans-Serif" font-size="10.00">WinMain</text>
</a>
</g>
</g>
<!-- Node2 -->
<g id="Node000002" class="node">
<title>Node2</title>
<g id="a_Node000002"><a xlink:href="dino__game_8cpp.html#af5be2c6012bb9e2650a622d88c610fd6" target="_top" xlink:title="Appelé quand l&#39;utilisateur demande à quitter le jeu (touche ECHAP).">
<polygon fill="white" stroke="#666666" points="206.75,-577.25 119.5,-577.25 119.5,-558 206.75,-558 206.75,-577.25"/>
<text text-anchor="middle" x="163.12" y="-563.75" font-family="Helvetica,sans-Serif" font-size="10.00">Dino_GameShut</text>
</a>
</g>
</g>
<!-- Node1&#45;&gt;Node2 -->
<g id="edge1_Node000001_Node000002" class="edge">
<title>Node1&#45;&gt;Node2</title>
<g id="a_edge1_Node000001_Node000002"><a xlink:title=" ">
<path fill="none" stroke="#63b8ff" d="M32.53,-296.63C52.04,-337.43 125.84,-491.75 152.47,-547.44"/>
<polygon fill="#63b8ff" stroke="#63b8ff" points="149.28,-548.87 156.75,-556.38 155.59,-545.85 149.28,-548.87"/>
</a>
</g>
</g>
<!-- Node5 -->
<g id="Node000005" class="node">
<title>Node5</title>
<g id="a_Node000005"><a xlink:href="xdino__win64__main_8cpp.html#a7202590da16f97f4cef692deb9001e27" target="_top" xlink:title=" ">
<polygon fill="white" stroke="#666666" points="234.5,-315.25 91.75,-315.25 91.75,-296 234.5,-296 234.5,-315.25"/>
<text text-anchor="middle" x="163.12" y="-301.75" font-family="Helvetica,sans-Serif" font-size="10.00">XDino_Win64_CreateWindow</text>
</a>
</g>
</g>
<!-- Node1&#45;&gt;Node5 -->
<g id="edge4_Node000001_Node000005" class="edge">
<title>Node1&#45;&gt;Node5</title>
<g id="a_edge4_Node000001_Node000005"><a xlink:title=" ">
<path fill="none" stroke="#63b8ff" d="M53.98,-290.33C61.77,-291.44 70.76,-292.71 80.15,-294.03"/>
<polygon fill="#63b8ff" stroke="#63b8ff" points="79.42,-297.47 89.81,-295.4 80.4,-290.53 79.42,-297.47"/>
</a>
</g>
</g>
<!-- Node32 -->
<g id="Node000032" class="node">
<title>Node32</title>
<g id="a_Node000032"><a xlink:href="xdino__win64__rdr_8cpp.html#a1114a89a9aca94743092c9e78a348e53" target="_top" xlink:title="Spécifique à la plateforme. Libère les ressources associées au rendu.">
<polygon fill="white" stroke="#666666" points="595.75,-93.25 444,-93.25 444,-74 595.75,-74 595.75,-93.25"/>
<text text-anchor="middle" x="519.88" y="-79.75" font-family="Helvetica,sans-Serif" font-size="10.00">XDino_Win64_DestroyRenderer</text>
</a>
</g>
</g>
<!-- Node1&#45;&gt;Node32 -->
<g id="edge39_Node000001_Node000032" class="edge">
<title>Node1&#45;&gt;Node32</title>
<g id="a_edge39_Node000001_Node000032"><a xlink:title=" ">
<path fill="none" stroke="#63b8ff" d="M53.93,-284.8C94.29,-281.35 173.63,-271.99 236.75,-248.62 340.86,-210.09 450.62,-134.08 496.58,-100.39"/>
<polygon fill="#63b8ff" stroke="#63b8ff" points="498.47,-103.35 504.43,-94.59 494.31,-97.72 498.47,-103.35"/>
</a>
</g>
</g>
<!-- Node35 -->
<g id="Node000035" class="node">
<title>Node35</title>
<g id="a_Node000035"><a xlink:href="xdino__win64__main_8cpp.html#a782c99a514da9425987b481ccc596104" target="_top" xlink:title=" ">
<polygon fill="white" stroke="#666666" points="236.75,-239.25 89.5,-239.25 89.5,-220 236.75,-220 236.75,-239.25"/>
<text text-anchor="middle" x="163.12" y="-225.75" font-family="Helvetica,sans-Serif" font-size="10.00">XDino_Win64_DestroyWindow</text>
</a>
</g>
</g>
<!-- Node1&#45;&gt;Node35 -->
<g id="edge44_Node000001_Node000035" class="edge">
<title>Node1&#45;&gt;Node35</title>
<g id="a_edge44_Node000001_Node000035"><a xlink:title=" ">
<path fill="none" stroke="#63b8ff" d="M44.66,-276.57C56.86,-269.57 73.86,-260.33 89.5,-253.62 98.18,-249.91 107.64,-246.4 116.77,-243.28"/>
<polygon fill="#63b8ff" stroke="#63b8ff" points="117.85,-246.61 126.25,-240.15 115.65,-239.96 117.85,-246.61"/>
</a>
</g>
</g>
<!-- Node3 -->
<g id="Node000003" class="node">
<title>Node3</title>
<g id="a_Node000003"><a xlink:href="xdino__linux__main_8cpp.html#aea37196dc8b2efde10a58c7befd954b0" target="_top" xlink:title="Décharge la texture identifiée par &#39;texID&#39; de la carte graphique.">
<polygon fill="white" stroke="#666666" points="405.75,-615.25 275,-615.25 275,-596 405.75,-596 405.75,-615.25"/>
<text text-anchor="middle" x="340.38" y="-601.75" font-family="Helvetica,sans-Serif" font-size="10.00">XDino_DestroyGpuTexture</text>
</a>
</g>
</g>
<!-- Node2&#45;&gt;Node3 -->
<g id="edge2_Node000002_Node000003" class="edge">
<title>Node2&#45;&gt;Node3</title>
<g id="a_edge2_Node000002_Node000003"><a xlink:title=" ">
<path fill="none" stroke="#63b8ff" d="M207,-576.92C229.58,-581.82 257.59,-587.89 282.01,-593.19"/>
<polygon fill="#63b8ff" stroke="#63b8ff" points="280.96,-596.54 291.47,-595.24 282.44,-589.7 280.96,-596.54"/>
</a>
</g>
</g>
<!-- Node4 -->
<g id="Node000004" class="node">
<title>Node4</title>
<g id="a_Node000004"><a xlink:href="xdino__linux__main_8cpp.html#a641cf6ebd62e0ffbcf34a364bb9bf03b" target="_top" xlink:title="Décharge la liste de sommets identifiée par &#39;vbufID&#39; de la carte graphique.">
<polygon fill="white" stroke="#666666" points="977.25,-576.25 843.5,-576.25 843.5,-557 977.25,-557 977.25,-576.25"/>
<text text-anchor="middle" x="910.38" y="-562.75" font-family="Helvetica,sans-Serif" font-size="10.00">XDino_DestroyVertexBuffer</text>
</a>
</g>
</g>
<!-- Node2&#45;&gt;Node4 -->
<g id="edge3_Node000002_Node000004" class="edge">
<title>Node2&#45;&gt;Node4</title>
<g id="a_edge3_Node000002_Node000004"><a xlink:title=" ">
<path fill="none" stroke="#63b8ff" d="M207.14,-567.57C328.63,-567.4 675.63,-566.94 831.69,-566.73"/>
<polygon fill="#63b8ff" stroke="#63b8ff" points="831.53,-570.23 841.52,-566.72 831.52,-563.23 831.53,-570.23"/>
</a>
</g>
</g>
<!-- Node6 -->
<g id="Node000006" class="node">
<title>Node6</title>
<g id="a_Node000006"><a xlink:href="xdino__win64__main_8cpp.html#afa07de294d5b620ee39644b9661f0665" target="_top" xlink:title=" ">
<polygon fill="white" stroke="#666666" points="408,-315.25 272.75,-315.25 272.75,-296 408,-296 408,-315.25"/>
<text text-anchor="middle" x="340.38" y="-301.75" font-family="Helvetica,sans-Serif" font-size="10.00">XDino_Win64_HandleEvent</text>
</a>
</g>
</g>
<!-- Node5&#45;&gt;Node6 -->
<g id="edge5_Node000005_Node000006" class="edge">
<title>Node5&#45;&gt;Node6</title>
<g id="a_edge5_Node000005_Node000006"><a xlink:title=" ">
<path fill="none" stroke="#63b8ff" d="M234.9,-305.62C243.49,-305.62 252.3,-305.62 260.99,-305.62"/>
<polygon fill="#63b8ff" stroke="#63b8ff" points="260.8,-309.13 270.8,-305.63 260.8,-302.13 260.8,-309.13"/>
</a>
</g>
</g>
<!-- Node7 -->
<g id="Node000007" class="node">
<title>Node7</title>
<g id="a_Node000007"><a xlink:href="dino__game_8cpp.html#ac7b7408f18b3729af2f6e7f405f238e7" target="_top" xlink:title="Appelé pour générer chaque frame. Doit lireles entrées de jeu avec XDino_GetGamepad(),...">
<polygon fill="white" stroke="#666666" points="766.25,-539.25 671.5,-539.25 671.5,-520 766.25,-520 766.25,-539.25"/>
<text text-anchor="middle" x="718.88" y="-525.75" font-family="Helvetica,sans-Serif" font-size="10.00">Dino_GameFrame</text>
</a>
</g>
</g>
<!-- Node6&#45;&gt;Node7 -->
<g id="edge6_Node000006_Node000007" class="edge">
<title>Node6&#45;&gt;Node7</title>
<g id="a_edge6_Node000006_Node000007"><a xlink:title=" ">
<path fill="none" stroke="#63b8ff" d="M348.31,-315.64C363.54,-337.03 401.92,-387.85 444,-419.62 518.16,-475.62 543.86,-481.44 631.75,-511.62 640.78,-514.73 650.54,-517.39 660.13,-519.64"/>
<polygon fill="#63b8ff" stroke="#63b8ff" points="659.27,-523.03 669.78,-521.77 660.77,-516.2 659.27,-523.03"/>
</a>
</g>
</g>
<!-- Node15 -->
<g id="Node000015" class="node">
<title>Node15</title>
<g id="a_Node000015"><a xlink:href="dino__game_8cpp.html#a34e4cc788612f46dea16beb4b24dd0ab" target="_top" xlink:title="Appelé au tout début, pour initialiser la logique de jeu.">
<polygon fill="white" stroke="#666666" points="560.12,-336.25 479.62,-336.25 479.62,-317 560.12,-317 560.12,-336.25"/>
<text text-anchor="middle" x="519.88" y="-322.75" font-family="Helvetica,sans-Serif" font-size="10.00">Dino_GameInit</text>
</a>
</g>
</g>
<!-- Node6&#45;&gt;Node15 -->
<g id="edge15_Node000006_Node000015" class="edge">
<title>Node6&#45;&gt;Node15</title>
<g id="a_edge15_Node000006_Node000015"><a xlink:title=" ">
<path fill="none" stroke="#63b8ff" d="M408.48,-313.56C428.14,-315.89 449.32,-318.4 467.81,-320.58"/>
<polygon fill="#63b8ff" stroke="#63b8ff" points="467.39,-324.06 477.73,-321.76 468.21,-317.11 467.39,-324.06"/>
</a>
</g>
</g>
<!-- Node23 -->
<g id="Node000023" class="node">
<title>Node23</title>
<g id="a_Node000023"><a xlink:href="xdino__win64__main_8cpp.html#ab579fc5249712eea9dab54bbad4808f0" target="_top" xlink:title="Commence un intervalle de profiling visible sur PIX. Les intervalles de profiling peuvent être l&#39;un d...">
<polygon fill="white" stroke="#666666" points="768.5,-204.25 669.25,-204.25 669.25,-185 768.5,-185 768.5,-204.25"/>
<text text-anchor="middle" x="718.88" y="-190.75" font-family="Helvetica,sans-Serif" font-size="10.00">XDino_ProfileBegin</text>
</a>
</g>
</g>
<!-- Node6&#45;&gt;Node23 -->
<g id="edge24_Node000006_Node000023" class="edge">
<title>Node6&#45;&gt;Node23</title>
<g id="a_edge24_Node000006_Node000023"><a xlink:title=" ">
<path fill="none" stroke="#63b8ff" d="M408.26,-302.52C461.99,-297.51 537.77,-284.61 595.75,-251.62 616.25,-239.96 611.23,-224.26 631.75,-212.62 639.78,-208.07 648.82,-204.67 657.94,-202.12"/>
<polygon fill="#63b8ff" stroke="#63b8ff" points="658.69,-205.54 667.58,-199.78 657.03,-198.74 658.69,-205.54"/>
</a>
</g>
</g>
<!-- Node24 -->
<g id="Node000024" class="node">
<title>Node24</title>
<g id="a_Node000024"><a xlink:href="xdino__win64__main_8cpp.html#a847ecb99f82286c5ba044e4e50d6ca2c" target="_top" xlink:title="Finit un intervalle de profiling.">
<polygon fill="white" stroke="#666666" points="764.38,-167.25 673.38,-167.25 673.38,-148 764.38,-148 764.38,-167.25"/>
<text text-anchor="middle" x="718.88" y="-153.75" font-family="Helvetica,sans-Serif" font-size="10.00">XDino_ProfileEnd</text>
</a>
</g>
</g>
<!-- Node6&#45;&gt;Node24 -->
<g id="edge25_Node000006_Node000024" class="edge">
<title>Node6&#45;&gt;Node24</title>
<g id="a_edge25_Node000006_Node000024"><a xlink:title=" ">
<path fill="none" stroke="#63b8ff" d="M376.29,-295.62C386.82,-291.93 398.19,-287.25 408,-281.62 426.07,-271.27 425.43,-261.06 444,-251.62 505.99,-220.13 535.72,-248.71 595.75,-213.62 615.84,-201.89 611.44,-186.97 631.75,-175.62 640.96,-170.48 651.46,-166.81 661.89,-164.18"/>
<polygon fill="#63b8ff" stroke="#63b8ff" points="662.62,-167.6 671.64,-162.04 661.12,-160.76 662.62,-167.6"/>
</a>
</g>
</g>
<!-- Node25 -->
<g id="Node000025" class="node">
<title>Node25</title>
<g id="a_Node000025"><a xlink:href="xdino__win64__rdr_8cpp.html#a19e4f0d170af5a9a4eb73f6274dc1217" target="_top" xlink:title="Spécifique à la plateforme. Commence la passe de rendu.">
<polygon fill="white" stroke="#666666" points="583.38,-167.25 456.38,-167.25 456.38,-148 583.38,-148 583.38,-167.25"/>
<text text-anchor="middle" x="519.88" y="-153.75" font-family="Helvetica,sans-Serif" font-size="10.00">XDino_Win64_BeginDraw</text>
</a>
</g>
</g>
<!-- Node6&#45;&gt;Node25 -->
<g id="edge26_Node000006_Node000025" class="edge">
<title>Node6&#45;&gt;Node25</title>
<g id="a_edge26_Node000006_Node000025"><a xlink:title=" ">
<path fill="none" stroke="#63b8ff" d="M386.58,-295.61C394.48,-292.21 402.06,-287.68 408,-281.62 442.86,-246.12 407.25,-209.16 444,-175.62 444.78,-174.92 445.58,-174.23 446.4,-173.57"/>
<polygon fill="#63b8ff" stroke="#63b8ff" points="448.11,-176.64 454.63,-168.29 444.32,-170.75 448.11,-176.64"/>
</a>
</g>
</g>
<!-- Node26 -->
<g id="Node000026" class="node">
<title>Node26</title>
<g id="a_Node000026"><a xlink:href="xdino__win64__main_8cpp.html#a5f03a33705fae3997a21af54ca15a039" target="_top" xlink:title=" ">
<polygon fill="white" stroke="#666666" points="593.5,-410.25 446.25,-410.25 446.25,-391 593.5,-391 593.5,-410.25"/>
<text text-anchor="middle" x="519.88" y="-396.75" font-family="Helvetica,sans-Serif" font-size="10.00">XDino_Win64_CreateRenderer</text>
</a>
</g>
</g>
<!-- Node6&#45;&gt;Node26 -->
<g id="edge27_Node000006_Node000026" class="edge">
<title>Node6&#45;&gt;Node26</title>
<g id="a_edge27_Node000006_Node000026"><a xlink:title=" ">
<path fill="none" stroke="#63b8ff" d="M351.51,-315.53C368.92,-331.98 406.31,-364.89 444,-382.62 447.33,-384.19 450.8,-385.63 454.36,-386.94"/>
<polygon fill="#63b8ff" stroke="#63b8ff" points="453.16,-390.23 463.75,-390.07 455.37,-383.59 453.16,-390.23"/>
</a>
</g>
</g>
<!-- Node27 -->
<g id="Node000027" class="node">
<title>Node27</title>
<g id="a_Node000027"><a xlink:href="xdino__win64__rdr_8cpp.html#ad13ae3c31e66f2cdf34b75465d4bac17" target="_top" xlink:title="Spécifique à la plateforme. Finit la passe de rendu et envoit le travail à la carte graphique.">
<polygon fill="white" stroke="#666666" points="579.25,-204.25 460.5,-204.25 460.5,-185 579.25,-185 579.25,-204.25"/>
<text text-anchor="middle" x="519.88" y="-190.75" font-family="Helvetica,sans-Serif" font-size="10.00">XDino_Win64_EndDraw</text>
</a>
</g>
</g>
<!-- Node6&#45;&gt;Node27 -->
<g id="edge28_Node000006_Node000027" class="edge">
<title>Node6&#45;&gt;Node27</title>
<g id="a_edge28_Node000006_Node000027"><a xlink:title=" ">
<path fill="none" stroke="#63b8ff" d="M382.75,-295.57C391.68,-292.13 400.64,-287.58 408,-281.62 431.58,-262.54 420.65,-242.99 444,-223.62 451.17,-217.68 459.7,-212.86 468.39,-208.99"/>
<polygon fill="#63b8ff" stroke="#63b8ff" points="469.62,-212.26 477.58,-205.28 467,-205.77 469.62,-212.26"/>
</a>
</g>
</g>
<!-- Node31 -->
<g id="Node000031" class="node">
<title>Node31</title>
<g id="a_Node000031"><a xlink:href="xdino__win64__rdr_8cpp.html#a9ff5efef1703f2710d3e28a03a61ae85" target="_top" xlink:title="Spécifique à la plateforme. Redimensionnne le rendu.">
<polygon fill="white" stroke="#666666" points="593.88,-373.25 445.88,-373.25 445.88,-354 593.88,-354 593.88,-373.25"/>
<text text-anchor="middle" x="519.88" y="-359.75" font-family="Helvetica,sans-Serif" font-size="10.00">XDino_Win64_ResizeRenderer</text>
</a>
</g>
</g>
<!-- Node6&#45;&gt;Node31 -->
<g id="edge38_Node000006_Node000031" class="edge">
<title>Node6&#45;&gt;Node31</title>
<g id="a_edge38_Node000006_Node000031"><a xlink:title=" ">
<path fill="none" stroke="#63b8ff" d="M364.29,-315.59C384.88,-324.29 416.08,-336.87 444,-345.62 449.74,-347.42 455.78,-349.15 461.83,-350.77"/>
<polygon fill="#63b8ff" stroke="#63b8ff" points="460.65,-354.08 471.21,-353.18 462.39,-347.3 460.65,-354.08"/>
</a>
</g>
</g>
<!-- Node7&#45;&gt;Node4 -->
<g id="edge9_Node000007_Node000004" class="edge">
<title>Node7&#45;&gt;Node4</title>
<g id="a_edge9_Node000007_Node000004"><a xlink:title=" ">
<path fill="none" stroke="#63b8ff" d="M766.72,-538.77C790.78,-543.47 820.43,-549.26 846.46,-554.34"/>
<polygon fill="#63b8ff" stroke="#63b8ff" points="845.77,-557.77 856.26,-556.25 847.11,-550.9 845.77,-557.77"/>
</a>
</g>
</g>
<!-- Node8 -->
<g id="Node000008" class="node">
<title>Node8</title>
<g id="a_Node000008"><a xlink:href="dino__draw__utils_8cpp.html#a9473461ff91938cb3c388c767b78f785" target="_top" xlink:title="Produit un dessin contenant du texte, avec éventuellement une couleur de fond. Les sommets doivent êt...">
<polygon fill="white" stroke="#666666" points="969.75,-419.25 851,-419.25 851,-400 969.75,-400 969.75,-419.25"/>
<text text-anchor="middle" x="910.38" y="-405.75" font-family="Helvetica,sans-Serif" font-size="10.00">Dino_GenVertices_Text</text>
</a>
</g>
</g>
<!-- Node7&#45;&gt;Node8 -->
<g id="edge7_Node000007_Node000008" class="edge">
<title>Node7&#45;&gt;Node8</title>
<g id="a_edge7_Node000007_Node000008"><a xlink:title=" ">
<path fill="none" stroke="#63b8ff" d="M766.56,-527.68C780.39,-525.16 794.82,-520.39 806,-511.62 835.1,-488.82 815,-461.89 842,-436.62 847.19,-431.77 853.37,-427.74 859.85,-424.41"/>
<polygon fill="#63b8ff" stroke="#63b8ff" points="861.12,-427.67 868.79,-420.36 858.24,-421.29 861.12,-427.67"/>
</a>
</g>
</g>
<!-- Node9 -->
<g id="Node000009" class="node">
<title>Node9</title>
<g id="a_Node000009"><a xlink:href="xdino__linux__main_8cpp.html#ad7cc0200df4ae9dc2f3445ce0c5bb02c" target="_top" xlink:title="Copie une liste de sommets de triangles texturés sur la carte graphique. Retourne l&#39;identifiant uniqu...">
<polygon fill="white" stroke="#666666" points="975,-317.25 845.75,-317.25 845.75,-298 975,-298 975,-317.25"/>
<text text-anchor="middle" x="910.38" y="-303.75" font-family="Helvetica,sans-Serif" font-size="10.00">XDino_CreateVertexBuffer</text>
</a>
</g>
</g>
<!-- Node7&#45;&gt;Node9 -->
<g id="edge8_Node000007_Node000009" class="edge">
<title>Node7&#45;&gt;Node9</title>
<g id="a_edge8_Node000007_Node000009"><a xlink:title=" ">
<path fill="none" stroke="#63b8ff" d="M766.62,-529.5C780.95,-527.15 795.65,-522.02 806,-511.62 862.34,-455.05 791.22,-397.24 842,-335.62 846.23,-330.49 851.56,-326.28 857.37,-322.84"/>
<polygon fill="#63b8ff" stroke="#63b8ff" points="858.77,-326.05 866.11,-318.42 855.61,-319.81 858.77,-326.05"/>
</a>
</g>
</g>
<!-- Node10 -->
<g id="Node000010" class="node">
<title>Node10</title>
<g id="a_Node000010"><a xlink:href="xdino__linux__main_8cpp.html#a7d5347b96a8386cfa0d2ee33abaf36bb" target="_top" xlink:title="Transfère les triangles à dessiner à la carte graphique.">
<polygon fill="white" stroke="#666666" points="945.38,-364.25 875.38,-364.25 875.38,-345 945.38,-345 945.38,-364.25"/>
<text text-anchor="middle" x="910.38" y="-350.75" font-family="Helvetica,sans-Serif" font-size="10.00">XDino_Draw</text>
</a>
</g>
</g>
<!-- Node7&#45;&gt;Node10 -->
<g id="edge10_Node000007_Node000010" class="edge">
<title>Node7&#45;&gt;Node10</title>
<g id="a_edge10_Node000007_Node000010"><a xlink:title=" ">
<path fill="none" stroke="#63b8ff" d="M766.55,-528.88C780.71,-526.46 795.32,-521.45 806,-511.62 847.29,-473.63 806.52,-434.09 842,-390.62 849.16,-381.86 859.03,-374.93 869.02,-369.6"/>
<polygon fill="#63b8ff" stroke="#63b8ff" points="870.51,-372.77 877.99,-365.26 867.46,-366.46 870.51,-372.77"/>
</a>
</g>
</g>
<!-- Node11 -->
<g id="Node000011" class="node">
<title>Node11</title>
<g id="a_Node000011"><a xlink:href="xdino__linux__main_8cpp.html#afce3fa5d5fa809f786dad62cd3989b7a" target="_top" xlink:title="Affiche les statistiques de consommation mémoire et de ressources chargées.">
<polygon fill="white" stroke="#666666" points="957,-613.25 863.75,-613.25 863.75,-594 957,-594 957,-613.25"/>
<text text-anchor="middle" x="910.38" y="-599.75" font-family="Helvetica,sans-Serif" font-size="10.00">XDino_DrawStats</text>
</a>
</g>
</g>
<!-- Node7&#45;&gt;Node11 -->
<g id="edge11_Node000007_Node000011" class="edge">
<title>Node7&#45;&gt;Node11</title>
<g id="a_edge11_Node000007_Node000011"><a xlink:title=" ">
<path fill="none" stroke="#63b8ff" d="M738.91,-539.58C762.59,-551.67 804.47,-572.12 842,-585.62 846.68,-587.31 851.58,-588.91 856.53,-590.42"/>
<polygon fill="#63b8ff" stroke="#63b8ff" points="855.31,-593.71 865.89,-593.15 857.27,-586.99 855.31,-593.71"/>
</a>
</g>
</g>
<!-- Node12 -->
<g id="Node000012" class="node">
<title>Node12</title>
<g id="a_Node000012"><a xlink:href="xdino__linux__main_8cpp.html#a68646c879bb2deb348cfa0ae2fc53b92" target="_top" xlink:title="Récupère l&#39;état de la manette concernée.">
<polygon fill="white" stroke="#666666" points="963,-539.25 857.75,-539.25 857.75,-520 963,-520 963,-539.25"/>
<text text-anchor="middle" x="910.38" y="-525.75" font-family="Helvetica,sans-Serif" font-size="10.00">XDino_GetGamepad</text>
</a>
</g>
</g>
<!-- Node7&#45;&gt;Node12 -->
<g id="edge12_Node000007_Node000012" class="edge">
<title>Node7&#45;&gt;Node12</title>
<g id="a_edge12_Node000007_Node000012"><a xlink:title=" ">
<path fill="none" stroke="#63b8ff" d="M766.72,-529.62C790.68,-529.62 820.19,-529.62 846.15,-529.62"/>
<polygon fill="#63b8ff" stroke="#63b8ff" points="845.89,-533.13 855.89,-529.63 845.89,-526.13 845.89,-533.13"/>
</a>
</g>
</g>
<!-- Node13 -->
<g id="Node000013" class="node">
<title>Node13</title>
<g id="a_Node000013"><a xlink:href="xdino__linux__main_8cpp.html#a4ded9317bd5f35f70b1473c729e56d1a" target="_top" xlink:title="Taille du rendu. Attention, différent de la résolution affichée à l&#39;écran !">
<polygon fill="white" stroke="#666666" points="966.75,-502.25 854,-502.25 854,-483 966.75,-483 966.75,-502.25"/>
<text text-anchor="middle" x="910.38" y="-488.75" font-family="Helvetica,sans-Serif" font-size="10.00">XDino_GetRenderSize</text>
</a>
</g>
</g>
<!-- Node7&#45;&gt;Node13 -->
<g id="edge13_Node000007_Node000013" class="edge">
<title>Node7&#45;&gt;Node13</title>
<g id="a_edge13_Node000007_Node000013"><a xlink:title=" ">
<path fill="none" stroke="#63b8ff" d="M766.72,-520.48C790.78,-515.78 820.43,-509.99 846.46,-504.91"/>
<polygon fill="#63b8ff" stroke="#63b8ff" points="847.11,-508.35 856.26,-503 845.77,-501.48 847.11,-508.35"/>
</a>
</g>
</g>
<!-- Node14 -->
<g id="Node000014" class="node">
<title>Node14</title>
<g id="a_Node000014"><a xlink:href="xdino__linux__main_8cpp.html#abded2f43911a4a13d4742539b59797e0" target="_top" xlink:title="Pour indiquer la couleur d&#39;arrière&#45;plan.">
<polygon fill="white" stroke="#666666" points="964.12,-465.25 856.62,-465.25 856.62,-446 964.12,-446 964.12,-465.25"/>
<text text-anchor="middle" x="910.38" y="-451.75" font-family="Helvetica,sans-Serif" font-size="10.00">XDino_SetClearColor</text>
</a>
</g>
</g>
<!-- Node7&#45;&gt;Node14 -->
<g id="edge14_Node000007_Node000014" class="edge">
<title>Node7&#45;&gt;Node14</title>
<g id="a_edge14_Node000007_Node000014"><a xlink:title=" ">
<path fill="none" stroke="#63b8ff" d="M766.41,-525.19C779.79,-522.54 794,-518.33 806,-511.62 826.31,-500.28 822.01,-485.52 842,-473.62 844.16,-472.34 846.4,-471.15 848.72,-470.04"/>
<polygon fill="#63b8ff" stroke="#63b8ff" points="849.88,-473.35 857.77,-466.27 847.19,-466.88 849.88,-473.35"/>
</a>
</g>
</g>
<!-- Node15&#45;&gt;Node9 -->
<g id="edge20_Node000015_Node000009" class="edge">
<title>Node15&#45;&gt;Node9</title>
<g id="a_edge20_Node000015_Node000009"><a xlink:title=" ">
<path fill="none" stroke="#63b8ff" d="M546.67,-316.68C573.92,-306.37 615.19,-291.38 631.75,-288.62 708.14,-275.9 728.88,-281.6 806,-288.62 821.5,-290.04 838.15,-292.62 853.46,-295.43"/>
<polygon fill="#63b8ff" stroke="#63b8ff" points="852.37,-298.79 862.85,-297.22 853.68,-291.91 852.37,-298.79"/>
</a>
</g>
</g>
<!-- Node16 -->
<g id="Node000016" class="node">
<title>Node16</title>
<g id="a_Node000016"><a xlink:href="dino__draw__utils_8cpp.html#a8a1875e3a83c7342b6cf774e492fc9e5" target="_top" xlink:title="Produit un dessin de cercle avec la couleur spécifiée. Les sommets doivent être dessiné avec XDino_TE...">
<polygon fill="white" stroke="#666666" points="781.25,-428.25 656.5,-428.25 656.5,-409 781.25,-409 781.25,-428.25"/>
<text text-anchor="middle" x="718.88" y="-414.75" font-family="Helvetica,sans-Serif" font-size="10.00">Dino_GenVertices_Circle</text>
</a>
</g>
</g>
<!-- Node15&#45;&gt;Node16 -->
<g id="edge16_Node000015_Node000016" class="edge">
<title>Node15&#45;&gt;Node16</title>
<g id="a_edge16_Node000015_Node000016"><a xlink:title=" ">
<path fill="none" stroke="#63b8ff" d="M560.57,-330.38C572.69,-332.99 585.5,-337.35 595.75,-344.62 619.87,-361.76 607.38,-383.85 631.75,-400.62 635.97,-403.53 640.56,-405.98 645.36,-408.05"/>
<polygon fill="#63b8ff" stroke="#63b8ff" points="644.09,-411.31 654.69,-411.47 646.5,-404.74 644.09,-411.31"/>
</a>
</g>
</g>
<!-- Node17 -->
<g id="Node000017" class="node">
<title>Node17</title>
<g id="a_Node000017"><a xlink:href="dino__draw__utils_8cpp.html#ad4e078eff3e21bb5c840aea64bbf2673" target="_top" xlink:title="Produit un dessin contenant une liste de segments, tous reliés. Les sommets doivent être dessiné avec...">
<polygon fill="white" stroke="#666666" points="785.75,-391.25 652,-391.25 652,-372 785.75,-372 785.75,-391.25"/>
<text text-anchor="middle" x="718.88" y="-377.75" font-family="Helvetica,sans-Serif" font-size="10.00">Dino_GenVertices_Polyline</text>
</a>
</g>
</g>
<!-- Node15&#45;&gt;Node17 -->
<g id="edge17_Node000015_Node000017" class="edge">
<title>Node15&#45;&gt;Node17</title>
<g id="a_edge17_Node000015_Node000017"><a xlink:title=" ">
<path fill="none" stroke="#63b8ff" d="M560.29,-334.16C571.9,-336.89 584.49,-340.38 595.75,-344.62 612.68,-351.01 614.73,-357.49 631.75,-363.62 637,-365.52 642.51,-367.24 648.1,-368.79"/>
<polygon fill="#63b8ff" stroke="#63b8ff" points="646.87,-372.09 657.42,-371.21 648.62,-365.31 646.87,-372.09"/>
</a>
</g>
</g>
<!-- Node18 -->
<g id="Node000018" class="node">
<title>Node18</title>
<g id="a_Node000018"><a xlink:href="xdino__linux__main_8cpp.html#a606a6ce34b0c704a35a8a61db01db625" target="_top" xlink:title="Charge une texture nommée &#39;pName&#39; depuis le disque jusqu&#39;à la carte graphique. Retourne l&#39;identifiant...">
<polygon fill="white" stroke="#666666" points="782,-241.25 655.75,-241.25 655.75,-222 782,-222 782,-241.25"/>
<text text-anchor="middle" x="718.88" y="-227.75" font-family="Helvetica,sans-Serif" font-size="10.00">XDino_CreateGpuTexture</text>
</a>
</g>
</g>
<!-- Node15&#45;&gt;Node18 -->
<g id="edge18_Node000015_Node000018" class="edge">
<title>Node15&#45;&gt;Node18</title>
<g id="a_edge18_Node000015_Node000018"><a xlink:title=" ">
<path fill="none" stroke="#63b8ff" d="M559.31,-316.5C571.63,-312.18 584.87,-306.32 595.75,-298.62 616.1,-284.23 610.8,-269.13 631.75,-255.62 638.06,-251.56 645.06,-248.17 652.27,-245.35"/>
<polygon fill="#63b8ff" stroke="#63b8ff" points="653.21,-248.73 661.48,-242.11 650.89,-242.12 653.21,-248.73"/>
</a>
</g>
</g>
<!-- Node20 -->
<g id="Node000020" class="node">
<title>Node20</title>
<g id="a_Node000020"><a xlink:href="xdino__linux__main_8cpp.html#a0bae910da7641a966b3caf0a765a16c1" target="_top" xlink:title="Retourne la taille en pixels de la texture chargée sur la carte graphique.">
<polygon fill="white" stroke="#666666" points="785,-354.25 652.75,-354.25 652.75,-335 785,-335 785,-354.25"/>
<text text-anchor="middle" x="718.88" y="-340.75" font-family="Helvetica,sans-Serif" font-size="10.00">XDino_GetGpuTextureSize</text>
</a>
</g>
</g>
<!-- Node15&#45;&gt;Node20 -->
<g id="edge21_Node000015_Node000020" class="edge">
<title>Node15&#45;&gt;Node20</title>
<g id="a_edge21_Node000015_Node000020"><a xlink:title=" ">
<path fill="none" stroke="#63b8ff" d="M560.27,-330.22C583.46,-332.34 613.59,-335.1 641.28,-337.63"/>
<polygon fill="#63b8ff" stroke="#63b8ff" points="640.78,-341.1 651.06,-338.52 641.42,-334.12 640.78,-341.1"/>
</a>
</g>
</g>
<!-- Node21 -->
<g id="Node000021" class="node">
<title>Node21</title>
<g id="a_Node000021"><a xlink:href="xdino__linux__main_8cpp.html#a8fb3a63e6442dd880092baee74243dd3" target="_top" xlink:title="Taille de la fenêtre sur l&#39;écran. Attention, différent de la résolution du rendu !">
<polygon fill="white" stroke="#666666" points="777.12,-502.25 660.62,-502.25 660.62,-483 777.12,-483 777.12,-502.25"/>
<text text-anchor="middle" x="718.88" y="-488.75" font-family="Helvetica,sans-Serif" font-size="10.00">XDino_GetWindowSize</text>
</a>
</g>
</g>
<!-- Node15&#45;&gt;Node21 -->
<g id="edge22_Node000015_Node000021" class="edge">
<title>Node15&#45;&gt;Node21</title>
<g id="a_edge22_Node000015_Node000021"><a xlink:title=" ">
<path fill="none" stroke="#63b8ff" d="M560.47,-328.33C573.15,-330.75 586.33,-335.52 595.75,-344.62 638.86,-386.29 588.02,-433.61 631.75,-474.62 636.94,-479.49 643.1,-483.19 649.69,-485.97"/>
<polygon fill="#63b8ff" stroke="#63b8ff" points="648.32,-489.2 658.91,-489.14 650.59,-482.58 648.32,-489.2"/>
</a>
</g>
</g>
<!-- Node22 -->
<g id="Node000022" class="node">
<title>Node22</title>
<g id="a_Node000022"><a xlink:href="xdino__linux__main_8cpp.html#a57ea716600a49f61ffff0bd33bd78a7d" target="_top" xlink:title="Modifie la taille de rendu. Les coordonnées passées dans les vertex sont en rapport à cette taille.">
<polygon fill="white" stroke="#666666" points="774.88,-465.25 662.88,-465.25 662.88,-446 774.88,-446 774.88,-465.25"/>
<text text-anchor="middle" x="718.88" y="-451.75" font-family="Helvetica,sans-Serif" font-size="10.00">XDino_SetRenderSize</text>
</a>
</g>
</g>
<!-- Node15&#45;&gt;Node22 -->
<g id="edge23_Node000015_Node000022" class="edge">
<title>Node15&#45;&gt;Node22</title>
<g id="a_edge23_Node000015_Node000022"><a xlink:title=" ">
<path fill="none" stroke="#63b8ff" d="M560.35,-328.95C572.88,-331.43 585.99,-336.09 595.75,-344.62 629.11,-373.81 597.96,-408.95 631.75,-437.62 637.62,-442.61 644.51,-446.32 651.8,-449.08"/>
<polygon fill="#63b8ff" stroke="#63b8ff" points="650.66,-452.39 661.25,-452.02 652.74,-445.71 650.66,-452.39"/>
</a>
</g>
</g>
<!-- Node19 -->
<g id="Node000019" class="node">
<title>Node19</title>
<g id="a_Node000019"><a xlink:href="xdino__linux__main_8cpp.html#a9a7f32a9d3a97c86d7e2998d754c811e" target="_top" xlink:title=" ">
<polygon fill="white" stroke="#666666" points="978.75,-241.25 842,-241.25 842,-222 978.75,-222 978.75,-241.25"/>
<text text-anchor="middle" x="910.38" y="-227.75" font-family="Helvetica,sans-Serif" font-size="10.00">XDino_Linux_CreateTexture</text>
</a>
</g>
</g>
<!-- Node18&#45;&gt;Node19 -->
<g id="edge19_Node000018_Node000019" class="edge">
<title>Node18&#45;&gt;Node19</title>
<g id="a_edge19_Node000018_Node000019"><a xlink:title=" ">
<path fill="none" stroke="#63b8ff" d="M782.45,-231.62C797.72,-231.62 814.25,-231.62 830.18,-231.62"/>
<polygon fill="#63b8ff" stroke="#63b8ff" points="830.13,-235.13 840.13,-231.63 830.13,-228.13 830.13,-235.13"/>
</a>
</g>
</g>
<!-- Node27&#45;&gt;Node23 -->
<g id="edge29_Node000027_Node000023" class="edge">
<title>Node27&#45;&gt;Node23</title>
<g id="a_edge29_Node000027_Node000023"><a xlink:title=" ">
<path fill="none" stroke="#63b8ff" d="M579.71,-194.62C604.28,-194.62 632.8,-194.62 657.53,-194.62"/>
<polygon fill="#63b8ff" stroke="#63b8ff" points="657.44,-198.13 667.44,-194.63 657.44,-191.13 657.44,-198.13"/>
</a>
</g>
</g>
<!-- Node27&#45;&gt;Node24 -->
<g id="edge30_Node000027_Node000024" class="edge">
<title>Node27&#45;&gt;Node24</title>
<g id="a_edge30_Node000027_Node000024"><a xlink:title=" ">
<path fill="none" stroke="#63b8ff" d="M574.71,-184.51C601.84,-179.42 634.71,-173.24 662.11,-168.1"/>
<polygon fill="#63b8ff" stroke="#63b8ff" points="662.43,-171.6 671.61,-166.31 661.13,-164.72 662.43,-171.6"/>
</a>
</g>
</g>
<!-- Node28 -->
<g id="Node000028" class="node">
<title>Node28</title>
<g id="a_Node000028"><a xlink:href="xdino__win64__rdr_8cpp.html#a9b6c6fcbcefafee47511b2494be31bc5" target="_top" xlink:title=" ">
<polygon fill="white" stroke="#666666" points="799.62,-130.25 638.12,-130.25 638.12,-111 799.62,-111 799.62,-130.25"/>
<text text-anchor="middle" x="718.88" y="-116.75" font-family="Helvetica,sans-Serif" font-size="10.00">XDino_Win64_CollectRessources</text>
</a>
</g>
</g>
<!-- Node27&#45;&gt;Node28 -->
<g id="edge31_Node000027_Node000028" class="edge">
<title>Node27&#45;&gt;Node28</title>
<g id="a_edge31_Node000027_Node000028"><a xlink:title=" ">
<path fill="none" stroke="#63b8ff" d="M578.23,-184.51C584.34,-182.37 590.31,-179.77 595.75,-176.62 615.89,-164.98 611.44,-149.97 631.75,-138.62 634.26,-137.22 636.86,-135.93 639.54,-134.74"/>
<polygon fill="#63b8ff" stroke="#63b8ff" points="640.67,-138.06 648.72,-131.17 638.13,-131.53 640.67,-138.06"/>
</a>
</g>
</g>
<!-- Node29 -->
<g id="Node000029" class="node">
<title>Node29</title>
<g id="a_Node000029"><a xlink:href="xdino__win64__rdr_8cpp.html#aee77bfe8f28763649ad0fb85717cbddf" target="_top" xlink:title=" ">
<polygon fill="white" stroke="#666666" points="806,-93.25 631.75,-93.25 631.75,-74 806,-74 806,-93.25"/>
<text text-anchor="middle" x="718.88" y="-79.75" font-family="Helvetica,sans-Serif" font-size="10.00">XDino_Win64_PurgeDeadResources</text>
</a>
</g>
</g>
<!-- Node27&#45;&gt;Node29 -->
<g id="edge32_Node000027_Node000029" class="edge">
<title>Node27&#45;&gt;Node29</title>
<g id="a_edge32_Node000027_Node000029"><a xlink:title=" ">
<path fill="none" stroke="#63b8ff" d="M579.71,-185.96C585.48,-183.55 590.97,-180.49 595.75,-176.62 624.51,-153.39 602.65,-124.43 631.75,-101.62 632.74,-100.85 633.76,-100.1 634.8,-99.39"/>
<polygon fill="#63b8ff" stroke="#63b8ff" points="636.45,-102.48 643.39,-94.48 632.97,-96.4 636.45,-102.48"/>
</a>
</g>
</g>
<!-- Node30 -->
<g id="Node000030" class="node">
<title>Node30</title>
<g id="a_Node000030"><a xlink:href="xdino__impl_8h.html#afb7598b07900a9b7f46de9fae53de8a0" target="_top" xlink:title="Trucs communs entre les différentes implémentations de l&#39;API XDino. En général, cela concerne le debu...">
<polygon fill="white" stroke="#666666" points="774.88,-317.25 662.88,-317.25 662.88,-298 774.88,-298 774.88,-317.25"/>
<text text-anchor="middle" x="718.88" y="-303.75" font-family="Helvetica,sans-Serif" font-size="10.00">XDinoImpl_DrawStats</text>
</a>
</g>
</g>
<!-- Node27&#45;&gt;Node30 -->
<g id="edge33_Node000027_Node000030" class="edge">
<title>Node27&#45;&gt;Node30</title>
<g id="a_edge33_Node000027_Node000030"><a xlink:title=" ">
<path fill="none" stroke="#63b8ff" d="M538.36,-204.65C572.75,-224.38 649.41,-268.36 690.55,-291.95"/>
<polygon fill="#63b8ff" stroke="#63b8ff" points="688.7,-294.93 699.12,-296.87 692.19,-288.85 688.7,-294.93"/>
</a>
</g>
</g>
<!-- Node30&#45;&gt;Node4 -->
<g id="edge36_Node000030_Node000004" class="edge">
<title>Node30&#45;&gt;Node4</title>
<g id="a_edge36_Node000030_Node000004"><a xlink:title=" ">
<path fill="none" stroke="#63b8ff" d="M774.95,-309.13C786.56,-311.97 797.77,-317.01 806,-325.62 875.34,-398.23 774.68,-474.14 842,-548.62 842.27,-548.92 842.54,-549.21 842.81,-549.5"/>
<polygon fill="#63b8ff" stroke="#63b8ff" points="840.58,-552.19 850.6,-555.63 844.91,-546.69 840.58,-552.19"/>
</a>
</g>
</g>
<!-- Node30&#45;&gt;Node8 -->
<g id="edge34_Node000030_Node000008" class="edge">
<title>Node30&#45;&gt;Node8</title>
<g id="a_edge34_Node000030_Node000008"><a xlink:title=" ">
<path fill="none" stroke="#63b8ff" d="M775.01,-313C785.85,-315.71 796.72,-319.72 806,-325.62 828.5,-339.94 821.76,-356.26 842,-373.62 851.61,-381.87 863.43,-388.97 874.46,-394.64"/>
<polygon fill="#63b8ff" stroke="#63b8ff" points="872.83,-397.73 883.35,-398.96 875.89,-391.44 872.83,-397.73"/>
</a>
</g>
</g>
<!-- Node30&#45;&gt;Node9 -->
<g id="edge35_Node000030_Node000009" class="edge">
<title>Node30&#45;&gt;Node9</title>
<g id="a_edge35_Node000030_Node000009"><a xlink:title=" ">
<path fill="none" stroke="#63b8ff" d="M775.2,-307.62C793.55,-307.62 814.31,-307.62 833.92,-307.62"/>
<polygon fill="#63b8ff" stroke="#63b8ff" points="833.79,-311.13 843.79,-307.63 833.79,-304.13 833.79,-311.13"/>
</a>
</g>
</g>
<!-- Node30&#45;&gt;Node10 -->
<g id="edge37_Node000030_Node000010" class="edge">
<title>Node30&#45;&gt;Node10</title>
<g id="a_edge37_Node000030_Node000010"><a xlink:title=" ">
<path fill="none" stroke="#63b8ff" d="M771.01,-317.72C782.55,-320.16 794.72,-322.87 806,-325.62 825.34,-330.35 846.54,-336.19 864.68,-341.38"/>
<polygon fill="#63b8ff" stroke="#63b8ff" points="863.51,-344.68 874.08,-344.09 865.45,-337.95 863.51,-344.68"/>
</a>
</g>
</g>
<!-- Node32&#45;&gt;Node28 -->
<g id="edge42_Node000032_Node000028" class="edge">
<title>Node32&#45;&gt;Node28</title>
<g id="a_edge42_Node000032_Node000028"><a xlink:title=" ">
<path fill="none" stroke="#63b8ff" d="M574.71,-93.74C598.92,-98.28 627.7,-103.69 653.09,-108.46"/>
<polygon fill="#63b8ff" stroke="#63b8ff" points="652.15,-111.84 662.62,-110.25 653.44,-104.96 652.15,-111.84"/>
</a>
</g>
</g>
<!-- Node32&#45;&gt;Node29 -->
<g id="edge43_Node000032_Node000029" class="edge">
<title>Node32&#45;&gt;Node29</title>
<g id="a_edge43_Node000032_Node000029"><a xlink:title=" ">
<path fill="none" stroke="#63b8ff" d="M596.2,-83.62C604.02,-83.62 612.05,-83.62 620.08,-83.62"/>
<polygon fill="#63b8ff" stroke="#63b8ff" points="619.89,-87.13 629.89,-83.63 619.89,-80.13 619.89,-87.13"/>
</a>
</g>
</g>
<!-- Node33 -->
<g id="Node000033" class="node">
<title>Node33</title>
<g id="a_Node000033"><a xlink:href="xdino__win64__rdr_8cpp.html#aea37196dc8b2efde10a58c7befd954b0" target="_top" xlink:title="Décharge la texture identifiée par &#39;texID&#39; de la carte graphique.">
<polygon fill="white" stroke="#666666" points="784.25,-56.25 653.5,-56.25 653.5,-37 784.25,-37 784.25,-56.25"/>
<text text-anchor="middle" x="718.88" y="-42.75" font-family="Helvetica,sans-Serif" font-size="10.00">XDino_DestroyGpuTexture</text>
</a>
</g>
</g>
<!-- Node32&#45;&gt;Node33 -->
<g id="edge40_Node000032_Node000033" class="edge">
<title>Node32&#45;&gt;Node33</title>
<g id="a_edge40_Node000032_Node000033"><a xlink:title=" ">
<path fill="none" stroke="#63b8ff" d="M574.71,-73.51C598.92,-68.97 627.7,-63.56 653.09,-58.79"/>
<polygon fill="#63b8ff" stroke="#63b8ff" points="653.44,-62.29 662.62,-57 652.15,-55.41 653.44,-62.29"/>
</a>
</g>
</g>
<!-- Node34 -->
<g id="Node000034" class="node">
<title>Node34</title>
<g id="a_Node000034"><a xlink:href="xdino__win64__rdr_8cpp.html#a641cf6ebd62e0ffbcf34a364bb9bf03b" target="_top" xlink:title="Décharge la liste de sommets identifiée par &#39;vbufID&#39; de la carte graphique.">
<polygon fill="white" stroke="#666666" points="785.75,-19.25 652,-19.25 652,0 785.75,0 785.75,-19.25"/>
<text text-anchor="middle" x="718.88" y="-5.75" font-family="Helvetica,sans-Serif" font-size="10.00">XDino_DestroyVertexBuffer</text>
</a>
</g>
</g>
<!-- Node32&#45;&gt;Node34 -->
<g id="edge41_Node000032_Node000034" class="edge">
<title>Node32&#45;&gt;Node34</title>
<g id="a_edge41_Node000032_Node000034"><a xlink:title=" ">
<path fill="none" stroke="#63b8ff" d="M537.18,-73.67C558.28,-61.2 596.54,-39.96 631.75,-27.62 637.11,-25.75 642.73,-24.04 648.42,-22.48"/>
<polygon fill="#63b8ff" stroke="#63b8ff" points="649.1,-25.92 657.93,-20.06 647.38,-19.14 649.1,-25.92"/>
</a>
</g>
</g>
</g>
</svg>

<g id="navigator" transform="translate(0 0)" fill="#404254">
  <rect fill="#f2f5e9" fill-opacity="0.5" stroke="#606060" stroke-width=".5" x="0" y="0" width="60" height="60"/>
  <use id="zoomplus" xlink:href="#zoomPlus" x="17" y="9" onmousedown="handleZoom(evt,'in')"/>
  <use id="zoomminus" xlink:href="#zoomMin" x="42" y="9" onmousedown="handleZoom(evt,'out')"/>
  <use id="reset" xlink:href="#resetDef" x="30" y="36" onmousedown="handleReset()"/>
   <use id="arrowup" xlink:href="#arrowUp" x="0" y="0" onmousedown="handlePan(0,-1)"/>
  <use id="arrowright" xlink:href="#arrowRight" x="0" y="0" onmousedown="handlePan(1,0)"/>
  <use id="arrowdown" xlink:href="#arrowDown" x="0" y="0" onmousedown="handlePan(0,1)"/>
  <use id="arrowleft" xlink:href="#arrowLeft" x="0" y="0" onmousedown="handlePan(-1,0)"/>
</g>
<svg viewBox="0 0 15 15" width="100%" height="30px" preserveAspectRatio="xMaxYMin meet">
 <g id="arrow_out" transform="scale(0.3 0.3)">
  <a xlink:href="xdino__win64__main_8cpp_aa0e1ecfaa9e7f124f36e8666a1cb66f9_cgraph_org.svg" target="_base">
   <rect id="button" ry="5" rx="5" y="6" x="6" height="38" width="38"
        fill="#f2f5e9" fill-opacity="0.5" stroke="#606060" stroke-width="1.0"/>
   <path id="arrow"
     d="M 11.500037,31.436501 C 11.940474,20.09759 22.043105,11.32322 32.158766,21.979434 L 37.068811,17.246167 C 37.068811,17.246167 37.088388,32 37.088388,32 L 22.160133,31.978069 C 22.160133,31.978069 26.997745,27.140456 26.997745,27.140456 C 18.528582,18.264221 13.291696,25.230495 11.500037,31.436501 z"
     style="fill:#404040;"/>
  </a>
 </g>
</svg>

<style type='text/css'>
<![CDATA[
[data-mouse-over-selected='false'] { opacity: 0.7; }
[data-mouse-over-selected='true']  { opacity: 1.0; }
]]>
</style>
<script type="application/ecmascript"><![CDATA[
document.addEventListener('DOMContentLoaded', (event) => {
  highlightEdges();
  highlightAdjacentNodes();
});
]]></script>
</svg>
