<?xml version="1.0" encoding="UTF-8" standalone="no"?>
<!DOCTYPE svg PUBLIC "-//W3C//DTD SVG 1.1//EN"
 "http://www.w3.org/Graphics/SVG/1.1/DTD/svg11.dtd">
<!-- Generated by graphviz version 9.0.0 (20230911.1827)
 -->
<!-- Title: xdino.h Pages: 1 -->
<svg width="554pt" height="138pt"
 viewBox="0.00 0.00 553.62 137.75" xmlns="http://www.w3.org/2000/svg" xmlns:xlink="http://www.w3.org/1999/xlink">
<g id="graph0" class="graph" transform="scale(1 1) rotate(0) translate(4 133.75)">
<title>xdino.h</title>
<!-- Node1 -->
<g id="Node000001" class="node">
<title>Node1</title>
<g id="a_Node000001"><a xlink:title="API d&#39;interaction entre le moteur de jeu &quot;XDino&quot; et la logique de jeu.">
<polygon fill="#999999" stroke="#666666" points="271.75,-129.75 225.75,-129.75 225.75,-110.5 271.75,-110.5 271.75,-129.75"/>
<text text-anchor="middle" x="248.75" y="-116.25" font-family="Helvetica,sans-Serif" font-size="10.00">xdino.h</text>
</a>
</g>
</g>
<!-- Node2 -->
<g id="Node000002" class="node">
<title>Node2</title>
<g id="a_Node000002"><a xlink:href="dino__draw__utils_8h.html" target="_top" xlink:title="Fonctions pour dessiner des primitives de rendu.">
<polygon fill="white" stroke="#666666" points="149.25,-74.5 58.25,-74.5 58.25,-55.25 149.25,-55.25 149.25,-74.5"/>
<text text-anchor="middle" x="103.75" y="-61" font-family="Helvetica,sans-Serif" font-size="10.00">dino_draw_utils.h</text>
</a>
</g>
</g>
<!-- Node1&#45;&gt;Node2 -->
<g id="edge1_Node000001_Node000002" class="edge">
<title>Node1&#45;&gt;Node2</title>
<g id="a_edge1_Node000001_Node000002"><a xlink:title=" ">
<path fill="none" stroke="#63b8ff" d="M214.77,-106.65C188.31,-96.93 152.2,-83.67 128.44,-74.94"/>
<polygon fill="#63b8ff" stroke="#63b8ff" points="213.44,-109.89 224.03,-110.05 215.85,-103.31 213.44,-109.89"/>
</a>
</g>
</g>
<!-- Node4 -->
<g id="Node000004" class="node">
<title>Node4</title>
<g id="a_Node000004"><a xlink:href="dino__game_8cpp.html" target="_top" xlink:title="Implémentation des fonctions principales de la logique de jeu.">
<polygon fill="white" stroke="#666666" points="200.38,-19.25 119.12,-19.25 119.12,0 200.38,0 200.38,-19.25"/>
<text text-anchor="middle" x="159.75" y="-5.75" font-family="Helvetica,sans-Serif" font-size="10.00">dino_game.cpp</text>
</a>
</g>
</g>
<!-- Node1&#45;&gt;Node4 -->
<g id="edge4_Node000001_Node000004" class="edge">
<title>Node1&#45;&gt;Node4</title>
<g id="a_edge4_Node000001_Node000004"><a xlink:title=" ">
<path fill="none" stroke="#63b8ff" d="M227.2,-103.35C217.21,-95.39 205.62,-85.18 196.75,-74.5 182.01,-56.76 169.7,-32.39 163.7,-19.48"/>
<polygon fill="#63b8ff" stroke="#63b8ff" points="224.88,-105.98 234.94,-109.31 229.15,-100.43 224.88,-105.98"/>
</a>
</g>
</g>
<!-- Node5 -->
<g id="Node000005" class="node">
<title>Node5</title>
<g id="a_Node000005"><a xlink:href="dino__geometry_8h.html" target="_top" xlink:title=" ">
<polygon fill="white" stroke="#666666" points="292,-74.5 205.5,-74.5 205.5,-55.25 292,-55.25 292,-74.5"/>
<text text-anchor="middle" x="248.75" y="-61" font-family="Helvetica,sans-Serif" font-size="10.00">dino_geometry.h</text>
</a>
</g>
</g>
<!-- Node1&#45;&gt;Node5 -->
<g id="edge5_Node000001_Node000005" class="edge">
<title>Node1&#45;&gt;Node5</title>
<g id="a_edge5_Node000001_Node000005"><a xlink:title=" ">
<path fill="none" stroke="#63b8ff" d="M248.75,-98.88C248.75,-90.59 248.75,-81.42 248.75,-74.86"/>
<polygon fill="#63b8ff" stroke="#63b8ff" points="245.25,-98.82 248.75,-108.82 252.25,-98.82 245.25,-98.82"/>
</a>
</g>
</g>
<!-- Node7 -->
<g id="Node000007" class="node">
<title>Node7</title>
<g id="a_Node000007"><a xlink:href="xdino__win64__main_8cpp.html" target="_top" xlink:title="Implémentation de la fenêtre et des événements sur Windows.">
<polygon fill="white" stroke="#666666" points="423.5,-74.5 310,-74.5 310,-55.25 423.5,-55.25 423.5,-74.5"/>
<text text-anchor="middle" x="366.75" y="-61" font-family="Helvetica,sans-Serif" font-size="10.00">xdino_win64_main.cpp</text>
</a>
</g>
</g>
<!-- Node1&#45;&gt;Node7 -->
<g id="edge7_Node000001_Node000007" class="edge">
<title>Node1&#45;&gt;Node7</title>
<g id="a_edge7_Node000001_Node000007"><a xlink:title=" ">
<path fill="none" stroke="#63b8ff" d="M279.19,-105.39C300.41,-95.81 328.12,-83.31 346.63,-74.95"/>
<polygon fill="#63b8ff" stroke="#63b8ff" points="277.82,-102.17 270.15,-109.47 280.7,-108.55 277.82,-102.17"/>
</a>
</g>
</g>
<!-- Node8 -->
<g id="Node000008" class="node">
<title>Node8</title>
<g id="a_Node000008"><a xlink:href="xdino__win64__rdr_8cpp.html" target="_top" xlink:title="Implémentation du rendu graphique sur Windows.">
<polygon fill="white" stroke="#666666" points="545.62,-74.5 441.88,-74.5 441.88,-55.25 545.62,-55.25 545.62,-74.5"/>
<text text-anchor="middle" x="493.75" y="-61" font-family="Helvetica,sans-Serif" font-size="10.00">xdino_win64_rdr.cpp</text>
</a>
</g>
</g>
<!-- Node1&#45;&gt;Node8 -->
<g id="edge8_Node000001_Node000008" class="edge">
<title>Node1&#45;&gt;Node8</title>
<g id="a_edge8_Node000001_Node000008"><a xlink:title=" ">
<path fill="none" stroke="#63b8ff" d="M283.31,-111.61C327.65,-101.98 404.52,-85.27 452.06,-74.94"/>
<polygon fill="#63b8ff" stroke="#63b8ff" points="282.75,-108.15 273.72,-113.7 284.24,-114.99 282.75,-108.15"/>
</a>
</g>
</g>
<!-- Node3 -->
<g id="Node000003" class="node">
<title>Node3</title>
<g id="a_Node000003"><a xlink:href="dino__draw__utils_8cpp.html" target="_top" xlink:title=" ">
<polygon fill="white" stroke="#666666" points="101.5,-19.25 0,-19.25 0,0 101.5,0 101.5,-19.25"/>
<text text-anchor="middle" x="50.75" y="-5.75" font-family="Helvetica,sans-Serif" font-size="10.00">dino_draw_utils.cpp</text>
</a>
</g>
</g>
<!-- Node2&#45;&gt;Node3 -->
<g id="edge2_Node000002_Node000003" class="edge">
<title>Node2&#45;&gt;Node3</title>
<g id="a_edge2_Node000002_Node000003"><a xlink:title=" ">
<path fill="none" stroke="#63b8ff" d="M87.03,-47.07C77.97,-37.98 67.15,-27.1 59.69,-19.61"/>
<polygon fill="#63b8ff" stroke="#63b8ff" points="84.4,-49.39 93.93,-54.01 89.36,-44.45 84.4,-49.39"/>
</a>
</g>
</g>
<!-- Node2&#45;&gt;Node4 -->
<g id="edge3_Node000002_Node000004" class="edge">
<title>Node2&#45;&gt;Node4</title>
<g id="a_edge3_Node000002_Node000004"><a xlink:title=" ">
<path fill="none" stroke="#63b8ff" d="M121.38,-47.11C130.99,-37.97 142.5,-27.03 150.39,-19.52"/>
<polygon fill="#63b8ff" stroke="#63b8ff" points="119.18,-44.37 114.35,-53.8 124.01,-49.44 119.18,-44.37"/>
</a>
</g>
</g>
<!-- Node6 -->
<g id="Node000006" class="node">
<title>Node6</title>
<g id="a_Node000006"><a xlink:href="dino__geometry_8cpp.html" target="_top" xlink:title=" ">
<polygon fill="white" stroke="#666666" points="315.25,-19.25 218.25,-19.25 218.25,0 315.25,0 315.25,-19.25"/>
<text text-anchor="middle" x="266.75" y="-5.75" font-family="Helvetica,sans-Serif" font-size="10.00">dino_geometry.cpp</text>
</a>
</g>
</g>
<!-- Node5&#45;&gt;Node6 -->
<g id="edge6_Node000005_Node000006" class="edge">
<title>Node5&#45;&gt;Node6</title>
<g id="a_edge6_Node000005_Node000006"><a xlink:title=" ">
<path fill="none" stroke="#63b8ff" d="M255.4,-44.21C258.25,-35.77 261.44,-26.33 263.71,-19.61"/>
<polygon fill="#63b8ff" stroke="#63b8ff" points="252.09,-43.05 252.21,-53.65 258.73,-45.3 252.09,-43.05"/>
</a>
</g>
</g>
</g>
</svg>
