<?xml version="1.0" encoding="UTF-8" standalone="no"?>
<!DOCTYPE svg PUBLIC "-//W3C//DTD SVG 1.1//EN"
 "http://www.w3.org/Graphics/SVG/1.1/DTD/svg11.dtd">
<!-- Generated by graphviz version 9.0.0 (20230911.1827)
 -->
<!-- Title: XDino_Linux_Init Pages: 1 -->
<svg width="557pt" height="274pt"
 viewBox="0.00 0.00 556.50 274.36" xmlns="http://www.w3.org/2000/svg" xmlns:xlink="http://www.w3.org/1999/xlink">
<g id="graph0" class="graph" transform="scale(1 1) rotate(0) translate(4 270.36)">
<title>XDino_Linux_Init</title>
<!-- Node1 -->
<g id="Node000001" class="node">
<title>Node1</title>
<g id="a_Node000001"><a xlink:title=" ">
<polygon fill="#999999" stroke="#666666" points="89.5,-155.36 0,-155.36 0,-136.11 89.5,-136.11 89.5,-155.36"/>
<text text-anchor="middle" x="44.75" y="-141.86" font-family="Helvetica,sans-Serif" font-size="10.00">XDino_Linux_Init</text>
</a>
</g>
</g>
<!-- Node2 -->
<g id="Node000002" class="node">
<title>Node2</title>
<g id="a_Node000002"><a xlink:href="dino__game_8cpp.html#a34e4cc788612f46dea16beb4b24dd0ab" target="_top" xlink:title="Appelé au tout début, pour initialiser la logique de jeu.">
<polygon fill="white" stroke="#666666" points="206,-155.36 125.5,-155.36 125.5,-136.11 206,-136.11 206,-155.36"/>
<text text-anchor="middle" x="165.75" y="-141.86" font-family="Helvetica,sans-Serif" font-size="10.00">Dino_GameInit</text>
</a>
</g>
</g>
<!-- Node1&#45;&gt;Node2 -->
<g id="edge1_Node000001_Node000002" class="edge">
<title>Node1&#45;&gt;Node2</title>
<g id="a_edge1_Node000001_Node000002"><a xlink:title=" ">
<path fill="none" stroke="#63b8ff" d="M89.72,-145.73C97.55,-145.73 105.77,-145.73 113.77,-145.73"/>
<polygon fill="#63b8ff" stroke="#63b8ff" points="113.77,-149.24 123.77,-145.73 113.77,-142.24 113.77,-149.24"/>
</a>
</g>
</g>
<!-- Node5 -->
<g id="Node000005" class="node">
<title>Node5</title>
<g id="a_Node000005"><a xlink:href="xdino__linux__main_8cpp.html#a606a6ce34b0c704a35a8a61db01db625" target="_top" xlink:title="Charge une texture nommée &#39;pName&#39; depuis le disque jusqu&#39;à la carte graphique. Retourne l&#39;identifiant...">
<polygon fill="white" stroke="#666666" points="372,-266.36 245.75,-266.36 245.75,-247.11 372,-247.11 372,-266.36"/>
<text text-anchor="middle" x="308.88" y="-252.86" font-family="Helvetica,sans-Serif" font-size="10.00">XDino_CreateGpuTexture</text>
</a>
</g>
</g>
<!-- Node1&#45;&gt;Node5 -->
<g id="edge10_Node000001_Node000005" class="edge">
<title>Node1&#45;&gt;Node5</title>
<g id="a_edge10_Node000001_Node000005"><a xlink:title=" ">
<path fill="none" stroke="#63b8ff" d="M64.22,-155.84C98.46,-174.27 174.47,-213.73 242,-238.73 246.44,-240.38 251.1,-241.95 255.8,-243.43"/>
<polygon fill="#63b8ff" stroke="#63b8ff" points="254.72,-246.76 265.31,-246.27 256.73,-240.05 254.72,-246.76"/>
</a>
</g>
</g>
<!-- Node6 -->
<g id="Node000006" class="node">
<title>Node6</title>
<g id="a_Node000006"><a xlink:href="xdino__linux__main_8cpp.html#a9a7f32a9d3a97c86d7e2998d754c811e" target="_top" xlink:title=" ">
<polygon fill="white" stroke="#666666" points="548.5,-136.36 411.75,-136.36 411.75,-117.11 548.5,-117.11 548.5,-136.36"/>
<text text-anchor="middle" x="480.12" y="-122.86" font-family="Helvetica,sans-Serif" font-size="10.00">XDino_Linux_CreateTexture</text>
</a>
</g>
</g>
<!-- Node1&#45;&gt;Node6 -->
<g id="edge11_Node000001_Node000006" class="edge">
<title>Node1&#45;&gt;Node6</title>
<g id="a_edge11_Node000001_Node000006"><a xlink:title=" ">
<path fill="none" stroke="#63b8ff" d="M55.66,-135.95C82.68,-110.07 161,-40.13 242,-15.73 298.92,1.41 321.24,7.99 375.75,-15.73 418.62,-34.39 451.75,-80.56 468.03,-107.1"/>
<polygon fill="#63b8ff" stroke="#63b8ff" points="464.91,-108.7 473.01,-115.53 470.93,-105.14 464.91,-108.7"/>
</a>
</g>
</g>
<!-- Node3 -->
<g id="Node000003" class="node">
<title>Node3</title>
<g id="a_Node000003"><a xlink:href="dino__draw__utils_8cpp.html#a8a1875e3a83c7342b6cf774e492fc9e5" target="_top" xlink:title="Produit un dessin de cercle avec la couleur spécifiée. Les sommets doivent être dessiné avec XDino_TE...">
<polygon fill="white" stroke="#666666" points="371.25,-229.36 246.5,-229.36 246.5,-210.11 371.25,-210.11 371.25,-229.36"/>
<text text-anchor="middle" x="308.88" y="-215.86" font-family="Helvetica,sans-Serif" font-size="10.00">Dino_GenVertices_Circle</text>
</a>
</g>
</g>
<!-- Node2&#45;&gt;Node3 -->
<g id="edge2_Node000002_Node000003" class="edge">
<title>Node2&#45;&gt;Node3</title>
<g id="a_edge2_Node000002_Node000003"><a xlink:title=" ">
<path fill="none" stroke="#63b8ff" d="M177.12,-155.47C190.92,-167.92 216.53,-189.33 242,-201.73 245.1,-203.24 248.34,-204.64 251.66,-205.94"/>
<polygon fill="#63b8ff" stroke="#63b8ff" points="250.38,-209.2 260.98,-209.21 252.71,-202.59 250.38,-209.2"/>
</a>
</g>
</g>
<!-- Node4 -->
<g id="Node000004" class="node">
<title>Node4</title>
<g id="a_Node000004"><a xlink:href="dino__draw__utils_8cpp.html#ad4e078eff3e21bb5c840aea64bbf2673" target="_top" xlink:title="Produit un dessin contenant une liste de segments, tous reliés. Les sommets doivent être dessiné avec...">
<polygon fill="white" stroke="#666666" points="375.75,-192.36 242,-192.36 242,-173.11 375.75,-173.11 375.75,-192.36"/>
<text text-anchor="middle" x="308.88" y="-178.86" font-family="Helvetica,sans-Serif" font-size="10.00">Dino_GenVertices_Polyline</text>
</a>
</g>
</g>
<!-- Node2&#45;&gt;Node4 -->
<g id="edge3_Node000002_Node000004" class="edge">
<title>Node2&#45;&gt;Node4</title>
<g id="a_edge3_Node000002_Node000004"><a xlink:title=" ">
<path fill="none" stroke="#63b8ff" d="M205.31,-155.85C221.65,-160.13 240.89,-165.17 258.26,-169.73"/>
<polygon fill="#63b8ff" stroke="#63b8ff" points="257.33,-173.1 267.89,-172.25 259.11,-166.33 257.33,-173.1"/>
</a>
</g>
</g>
<!-- Node2&#45;&gt;Node5 -->
<g id="edge4_Node000002_Node000005" class="edge">
<title>Node2&#45;&gt;Node5</title>
<g id="a_edge4_Node000002_Node000005"><a xlink:title=" ">
<path fill="none" stroke="#63b8ff" d="M171.92,-155.58C182.45,-174.65 208.27,-216.7 242,-238.73 243.82,-239.93 245.73,-241.04 247.68,-242.08"/>
<polygon fill="#63b8ff" stroke="#63b8ff" points="245.93,-245.12 256.48,-246.07 248.82,-238.75 245.93,-245.12"/>
</a>
</g>
</g>
<!-- Node7 -->
<g id="Node000007" class="node">
<title>Node7</title>
<g id="a_Node000007"><a xlink:href="xdino__linux__main_8cpp.html#ad7cc0200df4ae9dc2f3445ce0c5bb02c" target="_top" xlink:title="Copie une liste de sommets de triangles texturés sur la carte graphique. Retourne l&#39;identifiant uniqu...">
<polygon fill="white" stroke="#666666" points="373.5,-155.36 244.25,-155.36 244.25,-136.11 373.5,-136.11 373.5,-155.36"/>
<text text-anchor="middle" x="308.88" y="-141.86" font-family="Helvetica,sans-Serif" font-size="10.00">XDino_CreateVertexBuffer</text>
</a>
</g>
</g>
<!-- Node2&#45;&gt;Node7 -->
<g id="edge6_Node000002_Node000007" class="edge">
<title>Node2&#45;&gt;Node7</title>
<g id="a_edge6_Node000002_Node000007"><a xlink:title=" ">
<path fill="none" stroke="#63b8ff" d="M206.44,-145.73C214.63,-145.73 223.52,-145.73 232.52,-145.73"/>
<polygon fill="#63b8ff" stroke="#63b8ff" points="232.41,-149.24 242.41,-145.73 232.41,-142.24 232.41,-149.24"/>
</a>
</g>
</g>
<!-- Node8 -->
<g id="Node000008" class="node">
<title>Node8</title>
<g id="a_Node000008"><a xlink:href="xdino__linux__main_8cpp.html#a0bae910da7641a966b3caf0a765a16c1" target="_top" xlink:title="Retourne la taille en pixels de la texture chargée sur la carte graphique.">
<polygon fill="white" stroke="#666666" points="375,-118.36 242.75,-118.36 242.75,-99.11 375,-99.11 375,-118.36"/>
<text text-anchor="middle" x="308.88" y="-104.86" font-family="Helvetica,sans-Serif" font-size="10.00">XDino_GetGpuTextureSize</text>
</a>
</g>
</g>
<!-- Node2&#45;&gt;Node8 -->
<g id="edge7_Node000002_Node000008" class="edge">
<title>Node2&#45;&gt;Node8</title>
<g id="a_edge7_Node000002_Node000008"><a xlink:title=" ">
<path fill="none" stroke="#63b8ff" d="M205.31,-135.62C221.65,-131.34 240.89,-126.3 258.26,-121.74"/>
<polygon fill="#63b8ff" stroke="#63b8ff" points="259.11,-125.14 267.89,-119.22 257.33,-118.37 259.11,-125.14"/>
</a>
</g>
</g>
<!-- Node9 -->
<g id="Node000009" class="node">
<title>Node9</title>
<g id="a_Node000009"><a xlink:href="xdino__linux__main_8cpp.html#a8fb3a63e6442dd880092baee74243dd3" target="_top" xlink:title="Taille de la fenêtre sur l&#39;écran. Attention, différent de la résolution du rendu !">
<polygon fill="white" stroke="#666666" points="367.12,-81.36 250.62,-81.36 250.62,-62.11 367.12,-62.11 367.12,-81.36"/>
<text text-anchor="middle" x="308.88" y="-67.86" font-family="Helvetica,sans-Serif" font-size="10.00">XDino_GetWindowSize</text>
</a>
</g>
</g>
<!-- Node2&#45;&gt;Node9 -->
<g id="edge8_Node000002_Node000009" class="edge">
<title>Node2&#45;&gt;Node9</title>
<g id="a_edge8_Node000002_Node000009"><a xlink:title=" ">
<path fill="none" stroke="#63b8ff" d="M177.12,-136C190.92,-123.55 216.53,-102.14 242,-89.73 245.1,-88.23 248.34,-86.83 251.66,-85.53"/>
<polygon fill="#63b8ff" stroke="#63b8ff" points="252.71,-88.88 260.98,-82.26 250.38,-82.27 252.71,-88.88"/>
</a>
</g>
</g>
<!-- Node10 -->
<g id="Node000010" class="node">
<title>Node10</title>
<g id="a_Node000010"><a xlink:href="xdino__linux__main_8cpp.html#a57ea716600a49f61ffff0bd33bd78a7d" target="_top" xlink:title="Modifie la taille de rendu. Les coordonnées passées dans les vertex sont en rapport à cette taille.">
<polygon fill="white" stroke="#666666" points="364.88,-44.36 252.88,-44.36 252.88,-25.11 364.88,-25.11 364.88,-44.36"/>
<text text-anchor="middle" x="308.88" y="-30.86" font-family="Helvetica,sans-Serif" font-size="10.00">XDino_SetRenderSize</text>
</a>
</g>
</g>
<!-- Node2&#45;&gt;Node10 -->
<g id="edge9_Node000002_Node000010" class="edge">
<title>Node2&#45;&gt;Node10</title>
<g id="a_edge9_Node000002_Node000010"><a xlink:title=" ">
<path fill="none" stroke="#63b8ff" d="M171.92,-135.89C182.45,-116.82 208.27,-74.77 242,-52.73 243.82,-51.54 245.73,-50.43 247.68,-49.39"/>
<polygon fill="#63b8ff" stroke="#63b8ff" points="248.82,-52.72 256.48,-45.4 245.93,-46.35 248.82,-52.72"/>
</a>
</g>
</g>
<!-- Node5&#45;&gt;Node6 -->
<g id="edge5_Node000005_Node000006" class="edge">
<title>Node5&#45;&gt;Node6</title>
<g id="a_edge5_Node000005_Node000006"><a xlink:title=" ">
<path fill="none" stroke="#63b8ff" d="M359.01,-246.63C364.86,-244.48 370.58,-241.88 375.75,-238.73 415.3,-214.7 449.06,-171.23 466.48,-146.1"/>
<polygon fill="#63b8ff" stroke="#63b8ff" points="469.18,-148.35 471.88,-138.11 463.38,-144.44 469.18,-148.35"/>
</a>
</g>
</g>
</g>
</svg>
