<?xml version="1.0" encoding="UTF-8" standalone="no"?>
<!DOCTYPE svg PUBLIC "-//W3C//DTD SVG 1.1//EN"
 "http://www.w3.org/Graphics/SVG/1.1/DTD/svg11.dtd">
<!-- Generated by graphviz version 9.0.0 (20230911.1827)
 -->
<!-- Title: XDino_GetRenderSize Pages: 1 -->
<svg width="691pt" height="64pt"
 viewBox="0.00 0.00 691.00 64.25" xmlns="http://www.w3.org/2000/svg" xmlns:xlink="http://www.w3.org/1999/xlink">
<g id="graph0" class="graph" transform="scale(1 1) rotate(0) translate(4 60.25)">
<title>XDino_GetRenderSize</title>
<!-- Node1 -->
<g id="Node000001" class="node">
<title>Node1</title>
<g id="a_Node000001"><a xlink:title="Taille du rendu. Attention, différent de la résolution affichée à l&#39;écran !">
<polygon fill="#999999" stroke="#666666" points="683,-37.25 570.25,-37.25 570.25,-18 683,-18 683,-37.25"/>
<text text-anchor="middle" x="626.62" y="-23.75" font-family="Helvetica,sans-Serif" font-size="10.00">XDino_GetRenderSize</text>
</a>
</g>
</g>
<!-- Node2 -->
<g id="Node000002" class="node">
<title>Node2</title>
<g id="a_Node000002"><a xlink:href="dino__game_8cpp.html#ac7b7408f18b3729af2f6e7f405f238e7" target="_top" xlink:title="Appelé pour générer chaque frame. Doit lireles entrées de jeu avec XDino_GetGamepad(),...">
<polygon fill="white" stroke="#666666" points="534.25,-37.25 439.5,-37.25 439.5,-18 534.25,-18 534.25,-37.25"/>
<text text-anchor="middle" x="486.88" y="-23.75" font-family="Helvetica,sans-Serif" font-size="10.00">Dino_GameFrame</text>
</a>
</g>
</g>
<!-- Node1&#45;&gt;Node2 -->
<g id="edge1_Node000001_Node000002" class="edge">
<title>Node1&#45;&gt;Node2</title>
<g id="a_edge1_Node000001_Node000002"><a xlink:title=" ">
<path fill="none" stroke="#63b8ff" d="M558.54,-27.62C550.39,-27.62 542.2,-27.62 534.44,-27.62"/>
<polygon fill="#63b8ff" stroke="#63b8ff" points="558.48,-31.13 568.48,-27.63 558.48,-24.13 558.48,-31.13"/>
</a>
</g>
</g>
<!-- Node3 -->
<g id="Node000003" class="node">
<title>Node3</title>
<g id="a_Node000003"><a xlink:href="xdino__linux__main_8cpp.html#a23ab8c2bbf03b45563425c6f39f83e8e" target="_top" xlink:title=" ">
<polygon fill="white" stroke="#666666" points="387.75,-56.25 284,-56.25 284,-37 387.75,-37 387.75,-56.25"/>
<text text-anchor="middle" x="335.88" y="-42.75" font-family="Helvetica,sans-Serif" font-size="10.00">XDino_Linux_Frame</text>
</a>
</g>
</g>
<!-- Node2&#45;&gt;Node3 -->
<g id="edge2_Node000002_Node000003" class="edge">
<title>Node2&#45;&gt;Node3</title>
<g id="a_edge2_Node000002_Node000003"><a xlink:title=" ">
<path fill="none" stroke="#63b8ff" d="M427.85,-35.02C414.74,-36.7 400.91,-38.46 388.1,-40.09"/>
<polygon fill="#63b8ff" stroke="#63b8ff" points="428.16,-38.51 437.64,-33.78 427.28,-31.57 428.16,-38.51"/>
</a>
</g>
</g>
<!-- Node5 -->
<g id="Node000005" class="node">
<title>Node5</title>
<g id="a_Node000005"><a xlink:href="xdino__win64__main_8cpp.html#afa07de294d5b620ee39644b9661f0665" target="_top" xlink:title=" ">
<polygon fill="white" stroke="#666666" points="403.5,-19.25 268.25,-19.25 268.25,0 403.5,0 403.5,-19.25"/>
<text text-anchor="middle" x="335.88" y="-5.75" font-family="Helvetica,sans-Serif" font-size="10.00">XDino_Win64_HandleEvent</text>
</a>
</g>
</g>
<!-- Node2&#45;&gt;Node5 -->
<g id="edge4_Node000002_Node000005" class="edge">
<title>Node2&#45;&gt;Node5</title>
<g id="a_edge4_Node000002_Node000005"><a xlink:title=" ">
<path fill="none" stroke="#63b8ff" d="M427.86,-20.62C420.01,-19.67 411.9,-18.69 403.91,-17.72"/>
<polygon fill="#63b8ff" stroke="#63b8ff" points="427.29,-24.07 437.64,-21.8 428.13,-17.12 427.29,-24.07"/>
</a>
</g>
</g>
<!-- Node4 -->
<g id="Node000004" class="node">
<title>Node4</title>
<g id="a_Node000004"><a xlink:href="xdino__linux__main_8cpp.html#a4646b314f2ba6df59c9b1805dd568b18" target="_top" xlink:title=" ">
<polygon fill="white" stroke="#666666" points="193.62,-56.25 128.12,-56.25 128.12,-37 193.62,-37 193.62,-56.25"/>
<text text-anchor="middle" x="160.88" y="-42.75" font-family="Helvetica,sans-Serif" font-size="10.00">sokol_main</text>
</a>
</g>
</g>
<!-- Node3&#45;&gt;Node4 -->
<g id="edge3_Node000003_Node000004" class="edge">
<title>Node3&#45;&gt;Node4</title>
<g id="a_edge3_Node000003_Node000004"><a xlink:title=" ">
<path fill="none" stroke="#63b8ff" d="M272.72,-46.62C246.06,-46.62 216.05,-46.62 193.98,-46.62"/>
<polygon fill="#63b8ff" stroke="#63b8ff" points="272.39,-50.13 282.39,-46.63 272.39,-43.13 272.39,-50.13"/>
</a>
</g>
</g>
<!-- Node6 -->
<g id="Node000006" class="node">
<title>Node6</title>
<g id="a_Node000006"><a xlink:href="xdino__win64__main_8cpp.html#a7202590da16f97f4cef692deb9001e27" target="_top" xlink:title=" ">
<polygon fill="white" stroke="#666666" points="232.25,-19.25 89.5,-19.25 89.5,0 232.25,0 232.25,-19.25"/>
<text text-anchor="middle" x="160.88" y="-5.75" font-family="Helvetica,sans-Serif" font-size="10.00">XDino_Win64_CreateWindow</text>
</a>
</g>
</g>
<!-- Node5&#45;&gt;Node6 -->
<g id="edge5_Node000005_Node000006" class="edge">
<title>Node5&#45;&gt;Node6</title>
<g id="a_edge5_Node000005_Node000006"><a xlink:title=" ">
<path fill="none" stroke="#63b8ff" d="M256.72,-9.62C248.68,-9.62 240.54,-9.62 232.59,-9.62"/>
<polygon fill="#63b8ff" stroke="#63b8ff" points="256.48,-13.13 266.48,-9.63 256.48,-6.13 256.48,-13.13"/>
</a>
</g>
</g>
<!-- Node7 -->
<g id="Node000007" class="node">
<title>Node7</title>
<g id="a_Node000007"><a xlink:href="xdino__win64__main_8cpp.html#aa0e1ecfaa9e7f124f36e8666a1cb66f9" target="_top" xlink:title=" ">
<polygon fill="white" stroke="#666666" points="53.5,-19.25 0,-19.25 0,0 53.5,0 53.5,-19.25"/>
<text text-anchor="middle" x="26.75" y="-5.75" font-family="Helvetica,sans-Serif" font-size="10.00">WinMain</text>
</a>
</g>
</g>
<!-- Node6&#45;&gt;Node7 -->
<g id="edge6_Node000006_Node000007" class="edge">
<title>Node6&#45;&gt;Node7</title>
<g id="a_edge6_Node000006_Node000007"><a xlink:title=" ">
<path fill="none" stroke="#63b8ff" d="M77.73,-9.62C69.16,-9.62 60.98,-9.62 53.8,-9.62"/>
<polygon fill="#63b8ff" stroke="#63b8ff" points="77.66,-13.13 87.66,-9.63 77.66,-6.13 77.66,-13.13"/>
</a>
</g>
</g>
</g>
</svg>
